<?xml version="1.0" standalone="no"?>
<!DOCTYPE svg PUBLIC "-//W3C//DTD SVG 1.1//EN" "http://www.w3.org/Graphics/SVG/1.1/DTD/svg11.dtd" >
<svg xmlns="http://www.w3.org/2000/svg" xmlns:xlink="http://www.w3.org/1999/xlink" version="1.1">
<metadata>
Created by FontForge 20161003 at Sat May  5 19:40:09 2018
 By www-data
Copyright 2009 Albert-Jan Pool published by FontShop International GmbH for the FontFont library.
</metadata>
<defs>
<font id="FFDINRoundPro-Black" horiz-adv-x="1112" >
  <font-face 
    font-family="FF DIN Round Pro"
    font-weight="900"
    font-stretch="normal"
    units-per-em="2000"
    panose-1="2 11 10 4 2 1 1 2 1 2"
    ascent="1528"
    descent="-472"
    x-height="1076"
    cap-height="1424"
    bbox="-240 -555 2368 2242"
    underline-thickness="252"
    underline-position="-282"
    stemh="296"
    stemv="328"
    unicode-range="U+000D-FB02"
  />
<missing-glyph horiz-adv-x="1168" 
d="M829 0h-490c-52 0 -117 0 -166 49s-49 114 -49 166v994c0 52 0 117 49 166s114 49 166 49h490c52 0 117 0 166 -49s49 -114 49 -166v-994c0 -52 0 -117 -49 -166s-114 -49 -166 -49zM692 312v800h-216v-800h216z" />
    <glyph glyph-name=".notdef" horiz-adv-x="1168" 
d="M829 0h-490c-52 0 -117 0 -166 49s-49 114 -49 166v994c0 52 0 117 49 166s114 49 166 49h490c52 0 117 0 166 -49s49 -114 49 -166v-994c0 -52 0 -117 -49 -166s-114 -49 -166 -49zM692 312v800h-216v-800h216z" />
    <glyph glyph-name=".null" horiz-adv-x="0" 
 />
    <glyph glyph-name=".null" horiz-adv-x="0" 
 />
    <glyph glyph-name="CR" unicode="&#xd;" horiz-adv-x="444" 
 />
    <glyph glyph-name="space" unicode=" " horiz-adv-x="444" 
 />
    <glyph glyph-name="exclam" unicode="!" horiz-adv-x="732" 
d="M229 702v494c0 80 1 108 22 150c25 50 84 86 154 86s129 -36 154 -86c21 -42 22 -70 22 -150v-494c0 -80 -1 -108 -22 -150c-25 -50 -84 -86 -154 -86s-129 36 -154 86c-21 42 -22 70 -22 150zM406 -6c-104 0 -190 86 -190 190s86 190 190 190s190 -86 190 -190
s-86 -190 -190 -190z" />
    <glyph glyph-name="quotedbl" unicode="&#x22;" horiz-adv-x="988" 
d="M96 1015v199c0 78 2 106 20 142c23 47 78 80 144 80s121 -33 144 -80c18 -36 20 -64 20 -142v-199c0 -78 -2 -106 -20 -142c-23 -47 -78 -80 -144 -80s-121 33 -144 80c-18 36 -20 64 -20 142zM564 1015v199c0 78 2 106 20 142c23 47 78 80 144 80s121 -33 144 -80
c18 -36 20 -64 20 -142v-199c0 -78 -2 -106 -20 -142c-23 -47 -78 -80 -144 -80s-121 33 -144 80c-18 36 -20 64 -20 142z" />
    <glyph glyph-name="numbersign" unicode="#" horiz-adv-x="1550" 
d="M1396 486c0 -60 -30 -109 -72 -130c-32 -16 -59 -18 -128 -18h-85l-34 -170c-13 -65 -20 -104 -60 -142c-24 -22 -58 -34 -96 -34c-42 0 -85 17 -115 45c-56 53 -42 126 -29 191l22 110h-207l-34 -170c-13 -65 -20 -104 -60 -142c-24 -22 -58 -34 -96 -34
c-42 0 -85 17 -115 45c-56 53 -42 126 -29 191l22 110h-2c-69 0 -96 2 -128 18c-42 21 -72 70 -72 130s30 109 72 130c32 16 59 18 128 18h61l41 204h-26c-69 0 -96 2 -128 18c-42 21 -72 70 -72 130s30 109 72 130c32 16 59 18 128 18h85l28 138c13 65 20 104 60 142
c24 22 58 34 96 34c42 0 85 -17 115 -45c56 -53 42 -126 29 -191l-16 -78h207l28 138c13 65 20 104 60 142c24 22 58 34 96 34c42 0 85 -17 115 -45c56 -53 42 -126 29 -191l-16 -78h2c69 0 96 -2 128 -18c42 -21 72 -70 72 -130s-30 -109 -72 -130
c-32 -16 -59 -18 -128 -18h-61l-41 -204h26c69 0 96 -2 128 -18c42 -21 72 -70 72 -130zM858 634l41 204h-207l-41 -204h207z" />
    <glyph glyph-name="dollar" unicode="$" horiz-adv-x="1266" 
d="M691 550l-172 24c-126 18 -222 60 -286 126c-66 68 -98 164 -98 286c0 212 130 378 355 431v19c0 64 2 88 18 119c20 39 63 65 118 65s98 -26 118 -65c16 -31 18 -55 18 -119v-6c75 -8 139 -25 199 -48c88 -35 146 -96 146 -172c0 -34 -15 -76 -42 -108
c-23 -28 -58 -48 -102 -48c-40 0 -86 18 -124 34c-61 26 -130 40 -194 40c-122 0 -172 -68 -172 -120c0 -28 6 -54 28 -76c18 -18 48 -35 98 -42l172 -24c128 -18 220 -58 280 -118c76 -74 106 -180 106 -312c0 -238 -169 -388 -395 -433v-55c0 -64 -2 -88 -18 -119
c-20 -39 -63 -65 -118 -65s-98 26 -118 65c-16 31 -18 55 -18 119v44c-75 6 -145 18 -209 44c-116 46 -186 100 -186 204c0 38 18 84 48 114c28 28 60 38 96 38c37 0 67 -13 136 -42c70 -30 147 -52 234 -52c138 0 204 48 204 130c0 34 -8 62 -28 84c-18 18 -48 32 -94 38z
" />
    <glyph glyph-name="percent" unicode="%" horiz-adv-x="1714" 
d="M470 196l569 1134c25 50 36 65 57 81c19 14 37 21 60 21c20 0 36 -5 55 -14c42 -21 63 -56 63 -96c0 -26 -6 -44 -31 -94l-569 -1134c-25 -50 -36 -65 -57 -81c-19 -14 -37 -21 -60 -21c-20 0 -36 5 -55 14c-42 21 -63 56 -63 96c0 26 6 44 31 94zM462 976v174
c0 58 -30 78 -70 78s-70 -20 -70 -78v-174c0 -58 30 -78 70 -78s70 20 70 78zM694 1158v-190c0 -190 -144 -278 -302 -278s-302 88 -302 278v190c0 190 144 278 302 278s302 -88 302 -278zM1392 274v174c0 58 -30 78 -70 78s-70 -20 -70 -78v-174c0 -58 30 -78 70 -78
s70 20 70 78zM1624 456v-190c0 -190 -144 -278 -302 -278s-302 88 -302 278v190c0 190 144 278 302 278s302 -88 302 -278z" />
    <glyph glyph-name="ampersand" unicode="&#x26;" horiz-adv-x="1416" 
d="M1244 478c-23 -49 -56 -98 -97 -146l19 -23c59 -70 78 -103 78 -157c0 -47 -23 -87 -61 -119c-31 -26 -66 -41 -106 -41c-68 0 -104 36 -163 107l-1 1c-75 -57 -165 -112 -343 -112c-316 0 -472 166 -472 434c0 176 120 292 226 366c-50 56 -134 152 -134 294
c0 210 146 354 418 354c252 0 398 -144 398 -350c0 -128 -63 -195 -182 -283l-58 -43l168 -194c32 39 52 92 61 144c5 28 12 57 24 79c21 39 64 73 127 73s112 -34 134 -76c12 -24 17 -50 17 -92c0 -52 -19 -142 -53 -216zM720 336l-222 254c-66 -47 -84 -88 -84 -153
c0 -91 78 -153 166 -153c72 0 108 24 140 52zM594 958l48 34c34 24 56 52 56 90c0 44 -30 78 -90 78s-90 -34 -90 -80c0 -40 32 -78 76 -122z" />
    <glyph glyph-name="quotesingle" unicode="'" horiz-adv-x="520" 
d="M96 1015v199c0 78 2 106 20 142c23 47 78 80 144 80s121 -33 144 -80c18 -36 20 -64 20 -142v-199c0 -78 -2 -106 -20 -142c-23 -47 -78 -80 -144 -80s-121 33 -144 80c-18 36 -20 64 -20 142z" />
    <glyph glyph-name="parenleft" unicode="(" horiz-adv-x="716" 
d="M144 327v770c0 122 9 201 42 269s85 130 140 185c52 53 76 68 116 81c46 15 118 2 163 -43c46 -46 54 -109 39 -154c-13 -39 -27 -61 -79 -113c-20 -20 -40 -44 -59 -77c-22 -38 -34 -80 -34 -162v-742c0 -82 12 -124 34 -162c19 -33 39 -57 59 -77
c52 -52 66 -74 79 -113c15 -45 7 -108 -39 -154c-45 -45 -117 -58 -163 -43c-40 13 -64 28 -116 81c-55 55 -107 117 -140 185s-42 147 -42 269z" />
    <glyph glyph-name="parenright" unicode=")" horiz-adv-x="716" 
d="M572 1097v-770c0 -122 -9 -201 -42 -269s-85 -130 -140 -185c-52 -53 -76 -68 -116 -81c-46 -15 -118 -2 -163 43c-46 46 -54 109 -39 154c13 39 27 61 79 113c20 20 40 44 59 77c22 38 34 80 34 162v742c0 82 -12 124 -34 162c-19 33 -39 57 -59 77
c-52 52 -66 74 -79 113c-15 45 -7 108 39 154c45 45 117 58 163 43c40 -13 64 -28 116 -81c55 -55 107 -117 140 -185s42 -147 42 -269z" />
    <glyph glyph-name="asterisk" unicode="*" horiz-adv-x="960" 
d="M192 980l57 34l-57 34c-45 27 -62 41 -77 63c-22 33 -21 74 3 114s62 60 100 56c26 -3 46 -11 91 -38l57 -34v68c0 55 3 74 14 98c18 36 54 57 100 57s82 -21 100 -57c11 -24 14 -43 14 -98v-68l57 34c45 27 65 35 91 38c38 4 76 -16 100 -56s25 -81 3 -114
c-15 -22 -32 -36 -77 -63l-57 -34l57 -34c45 -27 62 -41 77 -63c22 -33 21 -74 -3 -114s-62 -60 -100 -56c-26 3 -46 11 -91 38l-57 34v-68c0 -55 -3 -74 -14 -98c-18 -36 -54 -57 -100 -57s-82 21 -100 57c-11 24 -14 43 -14 98v68l-57 -34c-45 -27 -65 -35 -91 -38
c-38 -4 -76 16 -100 56s-25 81 -3 114c15 22 32 36 77 63z" />
    <glyph glyph-name="plus" unicode="+" 
d="M822 443h-118v-118c0 -69 -2 -96 -18 -128c-21 -42 -70 -72 -130 -72s-109 30 -130 72c-16 32 -18 59 -18 128v118h-118c-69 0 -96 2 -128 18c-42 21 -72 70 -72 130s30 109 72 130c32 16 59 18 128 18h118v118c0 69 2 96 18 128c21 42 70 72 130 72s109 -30 130 -72
c16 -32 18 -59 18 -128v-118h118c69 0 96 -2 128 -18c42 -21 72 -70 72 -130s-30 -109 -72 -130c-32 -16 -59 -18 -128 -18z" />
    <glyph glyph-name="comma" unicode="," horiz-adv-x="597" 
d="M474 141l-87 -261c-24 -72 -35 -99 -64 -128c-26 -26 -63 -41 -104 -41c-58 0 -157 38 -169 132c-5 40 1 69 25 141l87 261c24 72 35 99 64 128c26 26 63 41 104 41c58 0 157 -38 169 -132c5 -40 -1 -69 -25 -141z" />
    <glyph glyph-name="hyphen" unicode="-" horiz-adv-x="852" 
d="M562 442h-272c-69 0 -96 2 -128 18c-42 21 -72 70 -72 130s30 109 72 130c32 16 59 18 128 18h272c69 0 96 -2 128 -18c42 -21 72 -70 72 -130s-30 -109 -72 -130c-32 -16 -59 -18 -128 -18z" />
    <glyph glyph-name="period" unicode="." horiz-adv-x="588" 
d="M294 -6c-116 0 -210 94 -210 210s94 210 210 210s210 -94 210 -210s-94 -210 -210 -210z" />
    <glyph glyph-name="slash" unicode="/" horiz-adv-x="862" 
d="M64 95l443 1328c25 75 52 156 156 156c73 0 135 -45 154 -103c15 -45 -2 -99 -19 -150l-443 -1328c-25 -75 -52 -156 -156 -156c-73 0 -135 45 -154 103c-15 45 2 99 19 150z" />
    <glyph glyph-name="zero" unicode="0" 
d="M1014 992v-560c0 -294 -222 -444 -458 -444s-458 150 -458 444v560c0 294 222 444 458 444s458 -150 458 -444zM686 430v562c0 100 -60 148 -130 148s-130 -48 -130 -148v-562c0 -100 60 -146 130 -146s130 46 130 146z" />
    <glyph glyph-name="one" unicode="1" 
d="M484 214v713l-90 -90c-52 -52 -72 -68 -107 -80c-47 -16 -104 0 -147 43s-59 100 -43 147c12 35 29 56 80 107l295 295c44 44 99 83 174 83c50 0 91 -18 119 -46c45 -45 47 -103 47 -161v-1011c0 -78 -2 -106 -20 -142c-23 -47 -78 -80 -144 -80s-121 33 -144 80
c-18 36 -20 64 -20 142z" />
    <glyph glyph-name="two" unicode="2" 
d="M831 0h-525c-58 0 -117 2 -161 47c-28 28 -46 69 -46 119c0 73 36 122 83 175l403 463c65 75 103 128 103 212c0 68 -44 124 -129 124c-78 0 -108 -36 -144 -104c-19 -36 -38 -60 -64 -78c-17 -13 -50 -24 -88 -24c-51 0 -88 15 -117 49c-28 33 -39 72 -39 117
c0 89 52 181 127 238c85 65 176 98 317 98c277 0 465 -142 465 -411c0 -178 -80 -275 -215 -425l-274 -304h304c69 0 96 -2 128 -18c42 -21 72 -70 72 -130s-30 -109 -72 -130c-32 -16 -59 -18 -128 -18z" />
    <glyph glyph-name="three" unicode="3" 
d="M868 736c78 -54 164 -140 164 -320c0 -282 -200 -428 -464 -428c-150 0 -249 24 -343 100c-63 51 -112 128 -112 221c0 48 15 88 41 116c29 31 71 49 120 49s76 -10 101 -32c26 -22 38 -43 62 -89c23 -43 51 -69 129 -69c76 0 138 50 138 152c0 90 -59 144 -146 150
c-29 2 -60 6 -86 19c-44 22 -69 66 -69 123s25 101 69 123c26 13 57 17 86 19c75 5 140 46 140 134c0 90 -58 136 -132 136c-61 0 -90 -24 -113 -67c-24 -45 -36 -66 -61 -87c-26 -22 -50 -31 -98 -31c-90 0 -157 63 -157 160c0 46 14 91 35 129c20 35 46 66 75 90
c86 72 191 102 321 102c254 0 458 -146 458 -412c0 -166 -86 -242 -158 -288z" />
    <glyph glyph-name="four" unicode="4" 
d="M65 512l393 786c33 66 48 85 76 107c22 17 49 27 80 27c79 0 158 -62 158 -144c0 -38 -6 -59 -40 -127l-323 -645h159v2c0 72 2 99 19 134c21 44 75 76 137 76s116 -32 137 -76c17 -35 19 -62 19 -134v-2h2c72 0 99 -2 134 -19c44 -21 76 -75 76 -137s-32 -116 -76 -137
c-35 -17 -62 -19 -134 -19h-2v-2c0 -72 -2 -99 -19 -134c-21 -44 -75 -76 -137 -76s-116 32 -137 76c-17 35 -19 62 -19 134v2h-311c-83 0 -138 7 -183 46c-34 30 -54 75 -54 123c0 42 18 85 45 139z" />
    <glyph glyph-name="five" unicode="5" 
d="M802 1128h-378v-220c28 22 104 56 192 56c124 0 218 -42 276 -100c116 -116 132 -244 132 -378c0 -172 -26 -270 -132 -376c-62 -62 -166 -122 -336 -122c-136 0 -236 27 -327 100c-63 51 -112 128 -112 221c0 51 17 92 46 121c28 28 69 44 115 44c49 0 76 -10 101 -32
c26 -22 38 -43 62 -89c22 -40 51 -69 115 -69c45 0 72 10 98 36c30 30 42 82 42 166c0 158 -52 202 -138 202c-56 0 -88 -15 -120 -44c-21 -19 -36 -32 -60 -45s-48 -19 -89 -19c-48 0 -82 10 -116 44c-32 32 -47 82 -47 138v481c0 38 1 98 44 141c39 39 89 40 135 40h497
c72 0 92 -1 128 -18c42 -21 72 -71 72 -130s-30 -109 -72 -130c-36 -17 -56 -18 -128 -18z" />
    <glyph glyph-name="six" unicode="6" 
d="M200 836l231 462c33 66 48 85 76 107c22 17 49 27 80 27c79 0 158 -62 158 -144c0 -38 -6 -59 -40 -127l-147 -295c28 8 55 10 86 10c174 0 380 -148 380 -430c0 -302 -218 -458 -474 -458s-474 156 -474 458c0 104 35 213 124 390zM550 284c80 0 146 56 146 162
s-66 162 -146 162s-146 -56 -146 -162s66 -162 146 -162z" />
    <glyph glyph-name="seven" unicode="7" 
d="M1026 1130l-370 -988c-24 -64 -38 -92 -64 -117c-23 -21 -55 -33 -91 -33c-75 0 -154 53 -161 127c-3 37 4 67 28 131l329 878h-301v-12c0 -78 -2 -106 -20 -142c-23 -47 -78 -80 -144 -80s-121 33 -144 80c-18 36 -20 64 -20 142v125c0 38 1 100 44 143
c39 39 89 40 136 40h587c83 0 129 -6 173 -46c38 -34 50 -75 50 -122c0 -31 -8 -63 -32 -126z" />
    <glyph glyph-name="eight" unicode="8" 
d="M874 732c54 -44 160 -128 160 -306c0 -296 -216 -438 -478 -438s-478 142 -478 438c0 178 106 262 160 306c-50 42 -146 128 -146 282c0 270 220 422 464 422s464 -152 464 -422c0 -154 -96 -240 -146 -282zM556 868c76 0 136 60 136 136s-60 136 -136 136
s-136 -60 -136 -136s60 -136 136 -136zM706 434c0 82 -68 150 -150 150s-150 -68 -150 -150s68 -150 150 -150s150 68 150 150z" />
    <glyph glyph-name="nine" unicode="9" 
d="M912 588l-231 -462c-33 -66 -48 -85 -76 -107c-22 -17 -49 -27 -80 -27c-79 0 -158 62 -158 144c0 38 6 59 40 127l147 295c-28 -8 -55 -10 -86 -10c-174 0 -380 148 -380 430c0 302 218 458 474 458s474 -156 474 -458c0 -104 -35 -213 -124 -390zM562 1140
c-80 0 -146 -56 -146 -162s66 -162 146 -162s146 56 146 162s-66 162 -146 162z" />
    <glyph glyph-name="colon" unicode=":" horiz-adv-x="634" 
d="M340 -6c-116 0 -210 94 -210 210s94 210 210 210s210 -94 210 -210s-94 -210 -210 -210zM340 494c-116 0 -210 94 -210 210s94 210 210 210s210 -94 210 -210s-94 -210 -210 -210z" />
    <glyph glyph-name="semicolon" unicode=";" horiz-adv-x="634" 
d="M504 141l-87 -261c-24 -72 -35 -99 -64 -128c-26 -26 -63 -41 -104 -41c-58 0 -157 38 -169 132c-5 40 1 69 25 141l87 261c24 72 35 99 64 128c26 26 63 41 104 41c58 0 157 -38 169 -132c5 -40 -1 -69 -25 -141zM371 494c-116 0 -210 94 -210 210s94 210 210 210
s210 -94 210 -210s-94 -210 -210 -210z" />
    <glyph glyph-name="less" unicode="&#x3c;" 
d="M98 590c0 101 71 139 133 170l482 241c68 34 89 40 127 40c82 0 144 -79 144 -158c0 -31 -10 -58 -27 -80c-22 -28 -41 -43 -107 -76l-274 -137l274 -137c66 -33 85 -48 107 -76c17 -22 27 -49 27 -80c0 -79 -62 -158 -144 -158c-38 0 -59 6 -127 40l-482 241
c-62 31 -133 69 -133 170z" />
    <glyph glyph-name="equal" unicode="=" 
d="M822 692h-532c-69 0 -96 2 -128 18c-42 21 -72 70 -72 130s30 109 72 130c32 16 59 18 128 18h532c69 0 96 -2 128 -18c42 -21 72 -70 72 -130s-30 -109 -72 -130c-32 -16 -59 -18 -128 -18zM822 190h-532c-69 0 -96 2 -128 18c-42 21 -72 70 -72 130s30 109 72 130
c32 16 59 18 128 18h532c69 0 96 -2 128 -18c42 -21 72 -70 72 -130s-30 -109 -72 -130c-32 -16 -59 -18 -128 -18z" />
    <glyph glyph-name="greater" unicode="&#x3e;" 
d="M1014 590c0 -101 -71 -139 -133 -170l-482 -241c-68 -34 -89 -40 -127 -40c-82 0 -144 79 -144 158c0 31 10 58 27 80c22 28 41 43 107 76l274 137l-274 137c-66 33 -85 48 -107 76c-17 22 -27 49 -27 80c0 79 62 158 144 158c38 0 59 -6 127 -40l482 -241
c62 -31 133 -69 133 -170z" />
    <glyph glyph-name="question" unicode="?" horiz-adv-x="1076" 
d="M1016 1030c0 -119 -42 -189 -102 -259l-99 -117c-33 -38 -53 -74 -64 -100c-13 -30 -30 -62 -54 -86c-30 -30 -68 -45 -121 -45c-52 0 -90 17 -121 48c-27 27 -39 66 -39 106c0 48 20 103 78 171l140 162c32 38 54 74 54 120c0 62 -41 110 -116 110
c-44 0 -73 -11 -98 -39c-16 -18 -29 -43 -39 -68c-12 -30 -29 -56 -46 -73c-29 -29 -68 -38 -111 -38c-47 0 -83 17 -109 43c-27 27 -40 63 -40 115c0 58 32 160 122 241c82 73 191 113 317 115c244 3 448 -142 448 -406zM576 -6c-104 0 -190 86 -190 190s86 190 190 190
s190 -86 190 -190s-86 -190 -190 -190z" />
    <glyph glyph-name="at" unicode="@" horiz-adv-x="1568" 
d="M1170 82c-64 -62 -124 -94 -228 -94c-98 0 -182 32 -240 88c-92 88 -96 198 -96 376s4 286 96 376c58 56 140 88 238 88c94 0 162 -28 218 -82v52c0 70 -12 138 -64 190c-50 50 -120 64 -190 64h-240c-70 0 -136 -10 -190 -64c-56 -56 -64 -120 -64 -190v-524
c0 -64 9 -97 43 -139c39 -49 45 -72 45 -111c0 -42 -19 -83 -58 -116c-32 -28 -68 -40 -104 -40c-66 0 -102 38 -152 98c-60 73 -86 146 -86 288v556c0 178 26 308 128 410s234 128 416 128h284c174 0 312 -24 416 -128c102 -102 128 -230 128 -410v-696
c0 -72 -2 -99 -19 -134c-21 -44 -75 -76 -137 -76c-64 0 -121 33 -144 90zM1038 260c80 0 120 46 120 192s-40 192 -120 192s-120 -46 -120 -192s40 -192 120 -192z" />
    <glyph glyph-name="A" unicode="A" horiz-adv-x="1294" 
d="M70 268l380 1009c25 65 44 93 73 116c35 28 72 39 124 39s89 -11 124 -39c29 -23 48 -51 73 -116l380 -1009c33 -88 55 -157 -12 -224c-31 -31 -78 -52 -126 -52c-39 0 -74 13 -99 36c-30 27 -43 54 -69 126l-21 58h-500l-21 -58c-26 -72 -39 -99 -69 -126
c-25 -23 -60 -36 -99 -36c-48 0 -95 21 -126 52c-67 67 -45 136 -12 224zM791 504l-144 396l-144 -396h288z" />
    <glyph glyph-name="B" unicode="B" horiz-adv-x="1306" 
d="M764 0h-407c-52 0 -117 0 -166 49s-49 114 -49 166v994c0 52 0 117 49 166s114 49 166 49h377c296 0 454 -166 454 -412c0 -162 -112 -252 -156 -282c58 -36 176 -110 176 -310c0 -272 -190 -420 -444 -420zM494 878h218c96 0 126 60 126 116c0 57 -30 118 -126 118h-218
v-234zM494 312h236c96 0 128 67 128 128c0 60 -32 124 -128 124h-236v-252z" />
    <glyph glyph-name="C" unicode="C" horiz-adv-x="1209" 
d="M96 712c0 240 2 423 147 568c102 102 223 156 393 156c174 0 271 -29 359 -108c108 -97 135 -202 135 -264s-17 -101 -49 -133s-75 -49 -121 -49c-39 0 -70 10 -94 27c-38 26 -63 64 -93 117c-40 71 -82 98 -145 98c-60 0 -100 -28 -126 -62c-41 -54 -54 -116 -54 -350
s13 -296 54 -350c26 -34 66 -62 126 -62c63 0 105 27 145 98c30 53 55 91 93 117c24 17 55 27 94 27c46 0 89 -17 121 -49s49 -71 49 -133s-27 -167 -135 -264c-88 -79 -185 -108 -359 -108c-170 0 -291 54 -393 156c-145 145 -147 328 -147 568z" />
    <glyph glyph-name="D" unicode="D" horiz-adv-x="1302" 
d="M672 0h-315c-52 0 -117 0 -166 49s-49 114 -49 166v994c0 52 0 117 49 166s114 49 166 49h315c214 0 364 -82 462 -240c70 -114 70 -226 70 -472s0 -358 -70 -472c-98 -158 -248 -240 -462 -240zM494 312h154c88 0 136 32 168 80c28 40 38 78 38 320
c0 240 -10 280 -38 320c-32 48 -80 80 -168 80h-154v-800z" />
    <glyph glyph-name="E" unicode="E" horiz-adv-x="1212" 
d="M912 0h-555c-52 0 -117 0 -166 49s-49 114 -49 166v994c0 52 0 117 49 166s114 49 166 49h555c72 0 99 -2 134 -19c44 -21 76 -75 76 -137s-32 -116 -76 -137c-35 -17 -62 -19 -134 -19h-418v-238h328c72 0 99 -2 134 -19c44 -21 76 -75 76 -137s-32 -116 -76 -137
c-35 -17 -62 -19 -134 -19h-328v-250h418c72 0 99 -2 134 -19c44 -21 76 -75 76 -137s-32 -116 -76 -137c-35 -17 -62 -19 -134 -19z" />
    <glyph glyph-name="F" unicode="F" horiz-adv-x="1188" 
d="M142 228v981c0 52 0 117 49 166s114 49 166 49h555c72 0 99 -2 134 -19c44 -21 76 -75 76 -137s-32 -116 -76 -137c-35 -17 -62 -19 -134 -19h-418v-250h328c72 0 99 -2 134 -19c44 -21 76 -75 76 -137s-32 -116 -76 -137c-35 -17 -62 -19 -134 -19h-328v-322
c0 -80 -1 -108 -22 -150c-25 -50 -84 -86 -154 -86s-129 36 -154 86c-21 42 -22 70 -22 150z" />
    <glyph glyph-name="G" unicode="G" horiz-adv-x="1252" 
d="M448 712c0 -260 20 -308 52 -350c26 -34 79 -62 140 -62c60 0 106 23 135 56s45 69 45 116h-4c-72 0 -99 2 -134 19c-44 21 -76 75 -76 137s32 116 76 137c35 17 62 19 134 19h121c52 0 117 0 166 -49s49 -114 49 -166v-8c0 -170 -31 -312 -129 -412
c-115 -118 -225 -161 -387 -161c-170 0 -291 51 -393 153c-145 145 -147 331 -147 571s2 423 147 568c102 102 223 156 393 156c174 0 271 -29 359 -108c108 -97 135 -202 135 -264s-17 -101 -49 -133s-75 -49 -121 -49c-39 0 -70 10 -94 27c-38 26 -63 64 -93 117
c-40 71 -82 98 -145 98c-60 0 -100 -28 -126 -62c-41 -54 -54 -116 -54 -350z" />
    <glyph glyph-name="H" unicode="H" horiz-adv-x="1360" 
d="M1218 228c0 -80 -1 -108 -22 -150c-25 -50 -84 -86 -154 -86s-129 36 -154 86c-21 42 -22 70 -22 150v336h-372v-336c0 -80 -1 -108 -22 -150c-25 -50 -84 -86 -154 -86s-129 36 -154 86c-21 42 -22 70 -22 150v968c0 80 1 108 22 150c25 50 84 86 154 86
s129 -36 154 -86c21 -42 22 -70 22 -150v-320h372v320c0 80 1 108 22 150c25 50 84 86 154 86s129 -36 154 -86c21 -42 22 -70 22 -150v-968z" />
    <glyph glyph-name="I" unicode="I" horiz-adv-x="636" 
d="M142 228v968c0 80 1 108 22 150c25 50 84 86 154 86s129 -36 154 -86c21 -42 22 -70 22 -150v-968c0 -80 -1 -108 -22 -150c-25 -50 -84 -86 -154 -86s-129 36 -154 86c-21 42 -22 70 -22 150z" />
    <glyph glyph-name="J" unicode="J" horiz-adv-x="1058" 
d="M588 496v700c0 80 1 108 22 150c25 50 84 86 154 86s129 -36 154 -86c21 -42 22 -70 22 -150v-708c0 -338 -270 -500 -538 -500c-108 0 -204 22 -278 77c-57 42 -76 83 -76 137c0 42 21 87 50 112c28 24 60 34 92 34c42 0 66 -12 110 -28c29 -11 64 -18 102 -18
c108 0 186 58 186 194z" />
    <glyph glyph-name="K" unicode="K" horiz-adv-x="1277" 
d="M874 132l-259 453l-121 -145v-212c0 -80 -1 -108 -22 -150c-25 -50 -84 -86 -154 -86s-129 36 -154 86c-21 42 -22 70 -22 150v968c0 80 1 108 22 150c25 50 84 86 154 86s129 -36 154 -86c21 -42 22 -70 22 -150v-272l334 401c59 71 95 107 163 107c40 0 75 -15 106 -41
c38 -32 61 -72 61 -119c0 -54 -19 -87 -78 -157l-223 -268l312 -546c40 -70 52 -101 52 -145c0 -60 -30 -107 -86 -139c-28 -16 -58 -25 -88 -25c-90 0 -133 70 -173 140z" />
    <glyph glyph-name="L" unicode="L" horiz-adv-x="1148" 
d="M892 0h-535c-52 0 -117 0 -166 49s-49 114 -49 166v981c0 80 1 108 22 150c25 50 84 86 154 86s129 -36 154 -86c21 -42 22 -70 22 -150v-884h396c72 0 99 -2 134 -19c44 -21 76 -75 76 -137s-32 -116 -76 -137c-35 -17 -62 -19 -132 -19z" />
    <glyph glyph-name="M" unicode="M" horiz-adv-x="1616" 
d="M142 228v990c0 74 8 125 51 168c32 32 70 47 118 47c42 0 72 -7 103 -28c35 -23 61 -58 86 -100l308 -525l308 525c25 42 51 77 86 100c31 21 61 28 103 28c48 0 86 -15 118 -47c43 -43 51 -94 51 -168v-990c0 -80 -1 -108 -22 -150c-25 -50 -84 -86 -154 -86
s-129 36 -154 86c-21 42 -22 70 -22 150v454l-163 -282c-38 -66 -75 -98 -151 -98s-113 32 -151 98l-163 282v-454c0 -80 -1 -108 -22 -150c-25 -50 -84 -86 -154 -86s-129 36 -154 86c-21 42 -22 70 -22 150z" />
    <glyph glyph-name="N" unicode="N" horiz-adv-x="1400" 
d="M1258 208c0 -68 -6 -122 -46 -162c-36 -36 -78 -54 -132 -54c-80 0 -129 50 -207 166l-379 558v-488c0 -80 -1 -108 -22 -150c-25 -50 -84 -86 -154 -86s-129 36 -154 86c-21 42 -22 70 -22 150v988c0 68 6 122 46 162c36 36 78 54 132 54c80 0 129 -50 207 -166
l379 -558v488c0 80 1 108 22 150c25 50 84 86 154 86s129 -36 154 -86c21 -42 22 -70 22 -150v-988z" />
    <glyph glyph-name="O" unicode="O" horiz-adv-x="1280" 
d="M1037 144c-102 -102 -223 -156 -397 -156s-295 54 -397 156c-145 145 -147 328 -147 568s2 423 147 568c102 102 223 156 397 156s295 -54 397 -156c145 -145 147 -328 147 -568s-2 -423 -147 -568zM780 364c32 42 52 88 52 348s-20 308 -52 350c-26 34 -76 62 -140 62
s-114 -28 -140 -62c-32 -42 -52 -90 -52 -350s20 -306 52 -348c26 -34 76 -64 140 -64s114 30 140 64z" />
    <glyph glyph-name="P" unicode="P" horiz-adv-x="1254" 
d="M142 228v981c0 52 0 117 49 166s114 49 166 49h351c316 0 486 -224 486 -458s-170 -458 -486 -458h-214v-280c0 -80 -1 -108 -22 -150c-25 -50 -84 -86 -154 -86s-129 36 -154 86c-21 42 -22 70 -22 150zM494 820h198c96 0 152 71 152 146s-56 146 -152 146h-198v-292z
" />
    <glyph glyph-name="Q" unicode="Q" horiz-adv-x="1280" 
d="M244 144c-146 146 -148 328 -148 568s1 422 147 568c102 102 223 156 397 156s295 -54 397 -156c146 -146 147 -328 147 -568c0 -196 -2 -354 -82 -485l10 -9c43 -43 55 -59 65 -87c14 -41 2 -87 -34 -123s-81 -48 -122 -34c-28 10 -45 22 -88 65l-15 14
c-77 -43 -166 -65 -278 -65c-174 0 -294 54 -396 156zM670 302l-22 22c-43 43 -55 59 -65 87c-14 41 -2 87 34 123c37 37 83 48 122 34c27 -10 43 -20 82 -59l3 -3c5 48 8 113 8 206c0 260 -20 308 -52 350c-26 34 -76 62 -140 62s-114 -28 -140 -62
c-32 -42 -52 -90 -52 -350s20 -306 52 -348c26 -34 76 -64 140 -64c10 0 20 0 30 2z" />
    <glyph glyph-name="R" unicode="R" horiz-adv-x="1304" 
d="M840 132l-227 398h-119v-302c0 -80 -1 -108 -22 -150c-25 -50 -84 -86 -154 -86s-129 36 -154 86c-21 42 -22 70 -22 150v981c0 52 0 117 49 166s114 49 166 49h351c316 0 486 -224 486 -458c0 -151 -80 -292 -227 -370l168 -295c40 -70 52 -101 52 -145
c0 -60 -30 -107 -86 -139c-28 -16 -58 -25 -88 -25c-90 0 -133 70 -173 140zM494 822h198c96 0 152 70 152 144c0 75 -56 146 -152 146h-198v-290z" />
    <glyph glyph-name="S" unicode="S" horiz-adv-x="1189" 
d="M639 550l-172 24c-126 18 -222 60 -286 126c-66 68 -98 164 -98 286c0 260 196 450 520 450c124 0 219 -20 306 -54c88 -35 146 -96 146 -172c0 -34 -15 -76 -42 -108c-23 -28 -58 -48 -102 -48c-40 0 -86 18 -124 34c-61 26 -130 40 -194 40c-122 0 -172 -68 -172 -120
c0 -28 6 -54 28 -76c18 -18 48 -35 98 -42l172 -24c128 -18 220 -58 280 -118c76 -74 106 -180 106 -312c0 -290 -250 -448 -550 -448c-121 0 -230 10 -326 48c-116 46 -186 100 -186 204c0 38 18 84 48 114c28 28 60 38 96 38c37 0 67 -13 136 -42c70 -30 147 -52 234 -52
c138 0 204 48 204 130c0 34 -8 62 -28 84c-18 18 -48 32 -94 38z" />
    <glyph glyph-name="T" unicode="T" horiz-adv-x="1162" 
d="M405 228v884h-147c-72 0 -99 2 -134 19c-44 21 -76 75 -76 137s32 116 76 137c35 17 62 19 134 19h646c72 0 99 -2 134 -19c44 -21 76 -75 76 -137s-32 -116 -76 -137c-35 -17 -62 -19 -134 -19h-147v-884c0 -80 -1 -108 -22 -150c-25 -50 -84 -86 -154 -86
s-129 36 -154 86c-21 42 -22 70 -22 150z" />
    <glyph glyph-name="U" unicode="U" horiz-adv-x="1320" 
d="M850 508v688c0 80 1 108 22 150c25 50 84 86 154 86s129 -36 154 -86c21 -42 22 -70 22 -150v-696c0 -312 -248 -512 -544 -512s-540 200 -540 512v696c0 80 1 108 22 150c25 50 84 86 154 86s129 -36 154 -86c21 -42 22 -70 22 -150v-688c0 -132 72 -208 188 -208
s192 76 192 208z" />
    <glyph glyph-name="V" unicode="V" horiz-adv-x="1176" 
d="M399 160l-334 999c-24 72 -30 101 -25 141c12 94 111 132 169 132c41 0 78 -15 104 -41c29 -29 40 -56 64 -128l211 -651l211 651c24 72 35 99 64 128c26 26 63 41 104 41c58 0 157 -38 169 -132c5 -40 -1 -69 -25 -141l-334 -999c-24 -72 -43 -102 -70 -126
c-32 -29 -69 -42 -119 -42s-87 13 -119 42c-27 24 -46 54 -70 126z" />
    <glyph glyph-name="W" unicode="W" horiz-adv-x="1764" 
d="M1052 181l-170 551l-170 -551c-17 -56 -35 -116 -82 -151c-31 -23 -70 -38 -117 -38c-45 0 -86 15 -117 38c-46 35 -67 89 -82 151l-246 991c-19 76 -24 103 -16 143c14 65 87 117 167 117c46 0 86 -18 112 -48c26 -31 34 -57 53 -133l143 -579l190 621
c16 52 30 76 54 100c27 27 62 39 111 39s84 -12 111 -39c24 -24 38 -48 54 -100l190 -621l143 579c19 76 27 102 53 133c26 30 66 48 112 48c80 0 153 -52 167 -117c8 -40 3 -67 -16 -143l-246 -991c-15 -62 -36 -116 -82 -151c-31 -23 -72 -38 -117 -38
c-47 0 -86 15 -117 38c-47 35 -65 95 -82 151z" />
    <glyph glyph-name="X" unicode="X" horiz-adv-x="1152" 
d="M109 302l250 430l-227 391c-40 70 -52 101 -52 145c0 60 30 107 86 139c28 16 58 25 88 25c90 0 133 -70 173 -140l149 -265l149 265c40 70 83 140 173 140c30 0 60 -9 88 -25c56 -32 86 -79 86 -139c0 -44 -12 -75 -52 -145l-227 -391l250 -430c40 -70 53 -102 53 -146
c0 -60 -30 -107 -86 -139c-28 -16 -58 -25 -88 -25c-90 0 -133 70 -173 140l-173 306l-173 -306c-40 -70 -83 -140 -173 -140c-30 0 -60 9 -88 25c-56 32 -86 79 -86 139c0 44 13 76 53 146z" />
    <glyph glyph-name="Y" unicode="Y" horiz-adv-x="1114" 
d="M381 228v319l-297 594c-35 70 -46 95 -46 135c0 53 33 106 93 136c27 14 56 20 82 20c31 0 60 -10 83 -27c32 -24 45 -48 80 -118l181 -367l181 367c35 70 48 94 80 118c23 17 52 27 83 27c26 0 55 -6 82 -20c60 -30 93 -83 93 -136c0 -40 -11 -65 -46 -135l-297 -594
v-319c0 -80 -1 -108 -22 -150c-25 -50 -84 -86 -154 -86s-129 36 -154 86c-21 42 -22 70 -22 150z" />
    <glyph glyph-name="Z" unicode="Z" horiz-adv-x="1149" 
d="M859 0h-538c-71 0 -143 1 -196 54c-37 38 -55 83 -55 136c0 44 19 88 58 148l505 774h-328c-72 0 -99 2 -134 19c-44 21 -76 75 -76 137s32 116 76 137c35 17 62 19 134 19h512c71 0 143 -1 196 -54c37 -38 55 -83 55 -136c0 -44 -19 -88 -58 -148l-505 -774h354
c72 0 99 -2 134 -19c44 -21 76 -75 76 -137s-32 -116 -76 -137c-35 -17 -62 -19 -134 -19z" />
    <glyph glyph-name="bracketleft" unicode="[" horiz-adv-x="832" 
d="M560 -148h-216c-52 0 -108 0 -152 44c-48 48 -48 116 -48 156v1320c0 40 0 108 48 156c44 44 100 44 152 44h216c69 0 96 -2 128 -18c42 -21 72 -70 72 -130s-30 -109 -72 -130c-32 -16 -59 -18 -128 -18h-88v-1128h88c69 0 96 -2 128 -18c42 -21 72 -70 72 -130
s-30 -109 -72 -130c-32 -16 -59 -18 -128 -18z" />
    <glyph glyph-name="backslash" unicode="\" horiz-adv-x="862" 
d="M507 -2l-443 1328c-17 51 -34 105 -19 150c19 58 81 103 154 103c104 0 131 -81 156 -156l443 -1328c17 -51 34 -105 19 -150c-19 -58 -81 -103 -154 -103c-104 0 -131 81 -156 156z" />
    <glyph glyph-name="bracketright" unicode="]" horiz-adv-x="832" 
d="M488 -148h-216c-69 0 -96 2 -128 18c-42 21 -72 70 -72 130s30 109 72 130c32 16 59 18 128 18h88v1128h-88c-69 0 -96 2 -128 18c-42 21 -72 70 -72 130s30 109 72 130c32 16 59 18 128 18h216c52 0 108 0 152 -44c48 -48 48 -116 48 -156v-1320c0 -40 0 -108 -48 -156
c-44 -44 -100 -44 -152 -44z" />
    <glyph glyph-name="asciicircum" unicode="^" 
d="M556 1432c101 0 139 -71 170 -133l241 -482c34 -68 40 -89 40 -127c0 -82 -79 -144 -158 -144c-31 0 -58 10 -80 27c-28 22 -43 41 -76 107l-137 274l-137 -274c-33 -66 -48 -85 -76 -107c-22 -17 -49 -27 -80 -27c-79 0 -158 62 -158 144c0 38 6 59 40 127l241 482
c31 62 69 133 170 133z" />
    <glyph glyph-name="underscore" unicode="_" horiz-adv-x="1280" 
d="M1096 -408h-912c-61 0 -81 3 -108 16c-39 19 -62 59 -62 110s23 91 62 110c27 13 47 16 108 16h912c61 0 81 -3 108 -16c39 -19 62 -59 62 -110s-23 -91 -62 -110c-27 -13 -47 -16 -108 -16z" />
    <glyph glyph-name="grave" unicode="`" horiz-adv-x="1000" 
d="M376 1288l-75 120c-35 56 -45 76 -48 110c-4 44 18 88 66 118c24 15 50 23 76 23c27 0 47 -7 69 -22c24 -17 45 -50 67 -85l75 -120c35 -56 45 -76 48 -110c4 -44 -18 -88 -66 -118c-24 -15 -50 -23 -76 -23c-27 0 -47 7 -69 22c-24 17 -45 50 -67 85z" />
    <glyph glyph-name="a" unicode="a" horiz-adv-x="1076" 
d="M962 698v-484c0 -78 -2 -106 -20 -142c-23 -47 -78 -80 -144 -80c-90 0 -130 50 -154 96c-75 -70 -130 -98 -242 -98c-108 0 -198 36 -258 96c-62 62 -94 152 -94 252c0 162 110 312 372 312h212v28c0 98 -50 134 -152 134c-38 0 -96 -14 -134 -30
c-43 -18 -74 -26 -100 -26c-32 0 -68 14 -92 44c-27 33 -36 62 -36 98c0 70 58 113 100 132c85 38 164 58 268 58c308 0 474 -128 474 -390zM634 404v28h-156c-76 0 -114 -34 -114 -88c0 -50 38 -88 118 -88c54 0 84 8 118 38c26 24 34 54 34 110z" />
    <glyph glyph-name="b" unicode="b" horiz-adv-x="1138" 
d="M124 214v996c0 78 2 106 20 142c23 47 78 80 144 80s121 -33 144 -80c18 -36 20 -64 20 -142v-212c60 60 134 90 240 90c104 0 196 -34 258 -98c100 -104 102 -266 102 -452s-2 -348 -102 -452c-62 -64 -156 -98 -260 -98c-112 0 -182 34 -248 100
c-24 -46 -64 -96 -154 -96c-66 0 -121 33 -144 80c-18 36 -20 64 -20 142zM588 284c122 0 136 98 136 254s-14 254 -136 254s-136 -98 -136 -254s14 -254 136 -254z" />
    <glyph glyph-name="c" unicode="c" horiz-adv-x="954" 
d="M746 22c-56 -24 -112 -34 -186 -34c-186 0 -484 80 -484 550s298 550 484 550c74 0 130 -10 186 -34c68 -29 158 -94 158 -178c0 -42 -16 -76 -46 -108c-22 -24 -62 -44 -100 -44c-36 0 -62 12 -102 38c-29 19 -58 30 -96 30c-44 0 -74 -14 -102 -42
c-38 -40 -54 -110 -54 -212s16 -172 54 -212c28 -28 58 -42 102 -42c38 0 67 11 96 30c40 26 66 38 102 38c38 0 78 -20 100 -44c30 -32 46 -66 46 -108c0 -84 -90 -149 -158 -178z" />
    <glyph glyph-name="d" unicode="d" horiz-adv-x="1138" 
d="M1014 214c0 -78 -2 -106 -20 -142c-23 -47 -78 -80 -144 -80c-90 0 -130 50 -154 96c-66 -66 -136 -100 -248 -100c-104 0 -198 34 -260 98c-100 104 -102 266 -102 452s2 348 102 452c62 64 154 98 258 98c106 0 180 -30 240 -90v212c0 78 2 106 20 142
c23 47 78 80 144 80s121 -33 144 -80c18 -36 20 -64 20 -142v-996zM550 284c122 0 136 98 136 254s-14 254 -136 254s-136 -98 -136 -254s14 -254 136 -254z" />
    <glyph glyph-name="e" unicode="e" horiz-adv-x="1113" 
d="M861 432h-463c0 -88 68 -170 194 -170c58 0 116 18 162 48c48 32 78 42 114 42c60 0 130 -60 130 -136c0 -52 -30 -98 -102 -148c-78 -54 -184 -80 -308 -80c-238 0 -512 86 -512 550c0 352 200 550 482 550c300 0 470 -214 482 -470c2 -52 -5 -107 -44 -146
s-89 -40 -135 -40zM398 650h320c0 26 -4 56 -18 84c-22 46 -64 84 -142 84s-121 -38 -142 -84c-13 -28 -18 -58 -18 -84z" />
    <glyph glyph-name="f" unicode="f" horiz-adv-x="743" 
d="M189 214v568h-1c-61 0 -81 3 -108 16c-39 19 -62 59 -62 110s23 91 62 110c27 13 47 16 108 16h1v94c0 148 98 318 330 318h6c60 0 104 -8 132 -22c40 -20 68 -58 68 -116s-26 -98 -66 -118c-18 -9 -45 -17 -76 -18c-44 -2 -66 -26 -66 -68v-70h38c61 0 81 -3 108 -16
c39 -19 62 -59 62 -110s-23 -91 -62 -110c-27 -13 -47 -16 -108 -16h-38v-568c0 -78 -2 -106 -20 -142c-23 -47 -78 -80 -144 -80s-121 33 -144 80c-18 36 -20 64 -20 142z" />
    <glyph glyph-name="g" unicode="g" horiz-adv-x="1122" 
d="M670 84v74c-60 -60 -132 -90 -232 -90c-104 0 -190 34 -252 96c-98 98 -100 218 -100 414s2 316 100 414c62 62 150 96 254 96c110 0 174 -34 240 -100c24 46 64 96 154 96c66 0 121 -33 144 -80c18 -36 20 -64 20 -142v-784c0 -252 -190 -438 -486 -438
c-128 0 -210 22 -286 64c-69 38 -104 84 -104 146c0 80 68 136 128 136c38 0 58 -4 112 -30c60 -29 98 -40 134 -40c130 0 174 83 174 168zM542 364c120 0 128 104 128 214s-8 214 -128 214s-128 -104 -128 -214s8 -214 128 -214z" />
    <glyph glyph-name="h" unicode="h" horiz-adv-x="1158" 
d="M716 214v430c0 124 -88 148 -132 148s-132 -24 -132 -148v-430c0 -78 -2 -106 -20 -142c-23 -47 -78 -80 -144 -80s-121 33 -144 80c-18 36 -20 64 -20 142v996c0 78 2 106 20 142c23 47 78 80 144 80s121 -33 144 -80c18 -36 20 -64 20 -142v-215c66 60 160 93 242 93
c102 0 184 -34 242 -92c92 -92 108 -194 108 -308v-474c0 -78 -2 -106 -20 -142c-23 -47 -78 -80 -144 -80s-121 33 -144 80c-18 36 -20 64 -20 142z" />
    <glyph glyph-name="i" unicode="i" horiz-adv-x="576" 
d="M124 214v606c0 78 2 106 20 142c23 47 78 80 144 80s121 -33 144 -80c18 -36 20 -64 20 -142v-606c0 -78 -2 -106 -20 -142c-23 -47 -78 -80 -144 -80s-121 33 -144 80c-18 36 -20 64 -20 142zM288 1142c-100 0 -182 82 -182 182s82 182 182 182s182 -82 182 -182
s-82 -182 -182 -182z" />
    <glyph glyph-name="j" unicode="j" horiz-adv-x="576" 
d="M122 -360h-6c-60 0 -104 8 -132 22c-40 20 -68 58 -68 116s26 98 66 118c18 9 43 16 81 18c41 2 61 26 61 68v838c0 78 2 106 20 142c23 47 78 80 144 80s121 -33 144 -80c18 -36 20 -64 20 -142v-862c0 -148 -98 -318 -330 -318zM288 1142c-100 0 -182 82 -182 182
s82 182 182 182s182 -82 182 -182s-82 -182 -182 -182z" />
    <glyph glyph-name="k" unicode="k" horiz-adv-x="1062" 
d="M692 114l-163 262l-77 -89v-73c0 -78 -2 -106 -20 -142c-23 -47 -78 -80 -144 -80s-121 33 -144 80c-18 36 -20 64 -20 142v996c0 78 2 106 20 142c23 47 78 80 144 80s121 -33 144 -80c18 -36 20 -64 20 -142v-510l253 290c56 64 91 93 146 93c35 0 68 -10 100 -38
c36 -32 53 -69 53 -109c0 -45 -22 -82 -75 -142l-172 -197l199 -318c40 -64 54 -98 54 -140c0 -49 -27 -90 -75 -120c-32 -20 -58 -27 -85 -27c-71 0 -108 42 -158 122z" />
    <glyph glyph-name="l" unicode="l" horiz-adv-x="664" 
d="M450 0h-6c-232 0 -330 170 -330 318v892c0 78 2 106 20 142c23 47 78 80 144 80s121 -33 144 -80c18 -36 20 -64 20 -142v-868c0 -42 20 -66 61 -68c38 -2 63 -9 81 -18c40 -20 66 -60 66 -118s-28 -96 -68 -116c-28 -14 -72 -22 -132 -22z" />
    <glyph glyph-name="m" unicode="m" horiz-adv-x="1750" 
d="M1308 214v430c0 124 -88 148 -132 148s-132 -24 -132 -148v-430c0 -78 -2 -106 -20 -142c-23 -47 -78 -80 -144 -80s-121 33 -144 80c-18 36 -20 64 -20 142v430c0 124 -88 148 -132 148s-132 -24 -132 -148v-430c0 -78 -2 -106 -20 -142c-23 -47 -78 -80 -144 -80
s-121 33 -144 80c-18 36 -20 64 -20 142v648c0 78 2 106 20 142c23 47 78 80 144 80c90 0 130 -50 154 -96c66 66 164 100 252 100c106 0 192 -34 262 -114c94 82 180 114 304 114c102 0 200 -34 258 -92c92 -92 118 -194 118 -308v-474c0 -78 -2 -106 -20 -142
c-23 -47 -78 -80 -144 -80s-121 33 -144 80c-18 36 -20 64 -20 142z" />
    <glyph glyph-name="n" unicode="n" horiz-adv-x="1158" 
d="M716 214v430c0 124 -88 148 -132 148s-132 -24 -132 -148v-430c0 -78 -2 -106 -20 -142c-23 -47 -78 -80 -144 -80s-121 33 -144 80c-18 36 -20 64 -20 142v648c0 78 2 106 20 142c23 47 78 80 144 80c90 0 130 -50 154 -96c66 66 166 100 252 100c102 0 184 -34 242 -92
c92 -92 108 -194 108 -308v-474c0 -78 -2 -106 -20 -142c-23 -47 -78 -80 -144 -80s-121 33 -144 80c-18 36 -20 64 -20 142z" />
    <glyph glyph-name="o" unicode="o" horiz-adv-x="1100" 
d="M638 314c42 42 48 118 48 224s-6 182 -48 224c-20 20 -48 30 -88 30s-68 -10 -88 -30c-42 -42 -48 -118 -48 -224s6 -182 48 -224c20 -20 48 -30 88 -30s68 10 88 30zM896 126c-64 -68 -172 -138 -346 -138s-282 70 -346 138c-90 98 -118 200 -118 412
c0 210 28 314 118 412c64 68 172 138 346 138s282 -70 346 -138c90 -98 118 -202 118 -412c0 -212 -28 -314 -118 -412z" />
    <glyph glyph-name="p" unicode="p" horiz-adv-x="1138" 
d="M144 -276c-18 36 -20 64 -20 142v996c0 78 2 106 20 142c23 47 78 80 144 80c90 0 130 -50 154 -96c66 66 136 100 248 100c104 0 198 -34 260 -98c100 -104 102 -266 102 -452s-2 -348 -102 -452c-62 -64 -154 -98 -258 -98c-106 0 -180 30 -240 90v-212
c0 -78 -2 -106 -20 -142c-23 -47 -78 -80 -144 -80s-121 33 -144 80zM588 284c122 0 136 98 136 254s-14 254 -136 254s-136 -98 -136 -254s14 -254 136 -254z" />
    <glyph glyph-name="q" unicode="q" horiz-adv-x="1138" 
d="M686 -134v212c-60 -60 -134 -90 -240 -90c-104 0 -196 34 -258 98c-100 104 -102 266 -102 452s2 348 102 452c62 64 156 98 260 98c112 0 182 -34 248 -100c24 46 64 96 154 96c66 0 121 -33 144 -80c18 -36 20 -64 20 -142v-996c0 -78 -2 -106 -20 -142
c-23 -47 -78 -80 -144 -80s-121 33 -144 80c-18 36 -20 64 -20 142zM550 284c122 0 136 98 136 254s-14 254 -136 254s-136 -98 -136 -254s14 -254 136 -254z" />
    <glyph glyph-name="r" unicode="r" horiz-adv-x="956" 
d="M124 214v648c0 78 2 106 20 142c23 47 78 80 144 80c90 0 130 -50 154 -96c48 48 138 100 235 100c87 0 138 -20 181 -50c47 -33 74 -76 74 -128c0 -49 -21 -93 -50 -122s-69 -44 -110 -44c-30 0 -66 10 -100 26c-28 13 -54 22 -84 22c-48 0 -136 -26 -136 -148v-430
c0 -78 -2 -106 -20 -142c-23 -47 -78 -80 -144 -80s-121 33 -144 80c-18 36 -20 64 -20 142z" />
    <glyph glyph-name="s" unicode="s" horiz-adv-x="1008" 
d="M552 404l-166 16c-186 18 -312 102 -312 312c0 238 214 356 428 356c104 0 184 -14 266 -44c40 -15 82 -40 102 -60c26 -27 36 -54 36 -94c0 -38 -20 -82 -44 -104c-26 -24 -52 -36 -88 -36c-25 0 -58 11 -89 24c-61 25 -123 50 -191 50c-61 0 -104 -26 -104 -67
c0 -43 30 -57 70 -61l166 -16c226 -22 324 -156 324 -328c0 -254 -216 -364 -466 -364c-171 0 -276 29 -370 92c-41 28 -72 68 -72 120c0 44 22 89 52 112c26 20 52 31 86 31c28 0 55 -9 98 -31c70 -36 126 -52 214 -52c73 0 138 24 138 76c0 39 -23 63 -78 68z" />
    <glyph glyph-name="t" unicode="t" horiz-adv-x="767" 
d="M525 0h-6c-232 0 -330 170 -330 318v464h-1c-61 0 -81 3 -108 16c-39 19 -62 59 -62 110s23 91 62 110c27 13 47 16 108 16h1v94c0 78 2 106 20 142c23 47 78 80 144 80s121 -33 144 -80c18 -36 20 -64 20 -142v-94h38c61 0 81 -3 108 -16c39 -19 62 -59 62 -110
s-23 -91 -62 -110c-27 -13 -47 -16 -108 -16h-38v-440c0 -42 20 -66 61 -68c38 -2 63 -9 81 -18c40 -20 66 -60 66 -118s-28 -96 -68 -116c-28 -14 -72 -22 -132 -22z" />
    <glyph glyph-name="u" unicode="u" horiz-adv-x="1158" 
d="M706 432v430c0 78 2 106 20 142c23 47 78 80 144 80s121 -33 144 -80c18 -36 20 -64 20 -142v-648c0 -78 -2 -106 -20 -142c-23 -47 -78 -80 -144 -80c-90 0 -130 50 -154 96c-66 -66 -166 -100 -252 -100c-102 0 -184 34 -242 92c-92 92 -108 194 -108 308v474
c0 78 2 106 20 142c23 47 78 80 144 80s121 -33 144 -80c18 -36 20 -64 20 -142v-430c0 -124 88 -148 132 -148s132 24 132 148z" />
    <glyph glyph-name="v" unicode="v" horiz-adv-x="946" 
d="M284 160l-227 671c-17 51 -34 105 -19 150c19 58 81 103 154 103c104 0 131 -81 156 -156l125 -385l125 385c25 75 52 156 156 156c73 0 135 -45 154 -103c15 -45 -2 -99 -19 -150l-227 -671c-24 -72 -43 -102 -70 -126c-32 -29 -69 -42 -119 -42s-87 13 -119 42
c-27 24 -46 54 -70 126z" />
    <glyph glyph-name="w" unicode="w" horiz-adv-x="1518" 
d="M252 155l-199 682c-20 70 -25 95 -18 132c12 63 81 115 154 115c41 0 80 -15 104 -42c25 -27 35 -51 54 -121l112 -403l137 416c21 64 37 92 61 114c27 25 59 36 102 36s75 -11 102 -36c24 -22 40 -50 61 -114l137 -416l112 403c19 70 29 94 54 121c24 27 63 42 104 42
c73 0 142 -52 154 -115c7 -37 2 -62 -18 -132l-199 -682c-21 -71 -41 -101 -66 -122c-32 -27 -69 -41 -116 -41c-46 0 -83 14 -115 41c-25 21 -44 51 -67 122l-143 435l-143 -435c-23 -71 -42 -101 -67 -122c-32 -27 -69 -41 -115 -41c-47 0 -84 14 -116 41
c-25 21 -45 51 -66 122z" />
    <glyph glyph-name="x" unicode="x" horiz-adv-x="945" 
d="M109 279l175 265l-165 252c-42 63 -54 98 -54 140c0 49 27 90 75 120c32 20 58 27 85 27c71 0 106 -39 158 -122l90 -145l90 145c52 83 87 122 158 122c27 0 53 -7 85 -27c48 -30 75 -71 75 -120c0 -42 -12 -77 -54 -140l-165 -252l175 -265c42 -63 54 -98 54 -140
c0 -49 -27 -90 -75 -120c-32 -20 -58 -27 -85 -27c-71 0 -109 41 -158 122l-100 164l-100 -164c-49 -81 -87 -122 -158 -122c-27 0 -53 7 -85 27c-48 30 -75 71 -75 120c0 42 12 77 54 140z" />
    <glyph glyph-name="y" unicode="y" horiz-adv-x="946" 
d="M288 12l23 68l-254 751c-17 51 -34 105 -19 150c19 58 81 103 154 103c104 0 133 -81 156 -156l125 -414l125 414c23 75 52 156 156 156c73 0 135 -45 154 -103c15 -45 -2 -99 -19 -150l-331 -963c-21 -62 -51 -107 -84 -142c-64 -66 -146 -90 -234 -90
c-46 0 -115 5 -150 40c-26 26 -44 60 -44 108c0 52 16 90 48 116c30 24 50 30 100 30c36 0 72 16 94 82z" />
    <glyph glyph-name="z" unicode="z" horiz-adv-x="960" 
d="M718 0h-476c-67 0 -97 4 -132 22c-48 24 -68 72 -68 114c0 56 15 88 66 156l366 488h-208c-69 0 -96 2 -128 18c-42 21 -72 70 -72 130s30 109 72 130c32 16 59 18 128 18h452c67 0 97 -4 132 -22c48 -24 68 -72 68 -114c0 -56 -15 -88 -66 -156l-368 -488h234
c69 0 96 -2 128 -18c42 -21 72 -70 72 -130s-30 -109 -72 -130c-32 -16 -59 -18 -128 -18z" />
    <glyph glyph-name="braceleft" unicode="{" horiz-adv-x="1036" 
d="M765 -148h-89c-106 0 -186 32 -238 84c-68 68 -96 152 -96 234v238c0 56 -10 96 -34 120c-16 16 -37 26 -62 31c-57 11 -103 15 -134 47c-26 26 -40 60 -40 106s14 80 40 106c31 32 77 36 134 47c25 5 46 15 62 31c24 24 34 64 34 120v237c0 82 28 167 96 235
c52 52 132 84 238 84h89c69 0 96 -2 128 -18c42 -21 72 -70 72 -130s-30 -109 -72 -130c-27 -13 -50 -17 -92 -18c-46 -1 -79 -8 -99 -28c-24 -24 -32 -62 -32 -128v-208c0 -162 -108 -190 -146 -200c38 -10 146 -38 146 -200v-208c0 -66 8 -104 32 -128
c20 -20 53 -27 99 -28c42 -1 65 -5 92 -18c42 -21 72 -70 72 -130s-30 -109 -72 -130c-32 -16 -59 -18 -128 -18z" />
    <glyph glyph-name="bar" unicode="|" horiz-adv-x="728" 
d="M200 67v1291c0 78 2 106 20 142c23 47 78 80 144 80s121 -33 144 -80c18 -36 20 -64 20 -142v-1291c0 -78 -2 -106 -20 -142c-23 -47 -78 -80 -144 -80s-121 33 -144 80c-18 36 -20 64 -20 142z" />
    <glyph glyph-name="braceright" unicode="}" horiz-adv-x="1036" 
d="M361 -148h-89c-69 0 -96 2 -128 18c-42 21 -72 70 -72 130s30 109 72 130c27 13 50 17 92 18c46 1 79 8 99 28c24 24 32 62 32 128v208c0 162 108 190 146 200c-38 10 -146 38 -146 200v208c0 66 -8 104 -32 128c-20 20 -53 27 -99 28c-42 1 -65 5 -92 18
c-42 21 -72 70 -72 130s30 109 72 130c32 16 59 18 128 18h89c106 0 186 -32 238 -84c68 -68 96 -153 96 -235v-237c0 -56 10 -96 34 -120c16 -16 37 -26 62 -31c57 -11 103 -15 134 -47c26 -26 40 -60 40 -106s-14 -80 -40 -106c-31 -32 -77 -36 -134 -47
c-25 -5 -46 -15 -62 -31c-24 -24 -34 -64 -34 -120v-238c0 -82 -28 -166 -96 -234c-52 -52 -132 -84 -238 -84z" />
    <glyph glyph-name="asciitilde" unicode="~" horiz-adv-x="1292" 
d="M1136 474c-90 -75 -166 -100 -276 -100c-84 0 -168 24 -246 68c-58 33 -112 50 -168 50c-44 0 -84 -14 -130 -48c-30 -22 -62 -34 -92 -34c-40 0 -80 18 -112 56c-26 31 -38 67 -38 100c0 50 22 94 82 144c90 75 166 100 276 100c84 0 168 -23 246 -68
c58 -33 112 -50 168 -50c44 0 84 14 130 48c30 22 62 34 92 34c40 0 80 -18 112 -56c26 -31 38 -67 38 -100c0 -50 -22 -94 -82 -144z" />
    <glyph glyph-name="uni00A0" unicode="&#xa0;" horiz-adv-x="444" 
 />
    <glyph glyph-name="exclamdown" unicode="&#xa1;" horiz-adv-x="732" 
d="M149 -119v494c0 80 1 108 22 150c25 50 84 86 154 86s129 -36 154 -86c21 -42 22 -70 22 -150v-494c0 -80 -1 -108 -22 -150c-25 -50 -84 -86 -154 -86s-129 36 -154 86c-21 42 -22 70 -22 150zM326 1083c104 0 190 -86 190 -190s-86 -190 -190 -190s-190 86 -190 190
s86 190 190 190z" />
    <glyph glyph-name="cent" unicode="&#xa2;" horiz-adv-x="954" 
d="M746 216c-20 -9 -40 -16 -60 -21v-19c0 -64 -2 -88 -18 -119c-20 -39 -63 -65 -118 -65s-98 26 -118 65c-16 31 -18 55 -18 119v23c-165 43 -338 174 -338 533c0 358 173 490 338 532c0 52 3 75 18 103c20 39 63 65 118 65s98 -26 118 -65c14 -28 17 -50 18 -99
c20 -5 40 -12 60 -20c68 -29 158 -94 158 -178c0 -42 -16 -76 -46 -108c-22 -24 -62 -44 -100 -44c-36 0 -62 12 -102 38c-29 19 -58 30 -96 30c-44 0 -74 -14 -102 -42c-38 -40 -54 -110 -54 -212s16 -172 54 -212c28 -28 58 -42 102 -42c38 0 67 11 96 30
c40 26 66 38 102 38c38 0 78 -20 100 -44c30 -32 46 -66 46 -108c0 -84 -90 -149 -158 -178z" />
    <glyph glyph-name="sterling" unicode="&#xa3;" horiz-adv-x="1270" 
d="M988 0h-509c-52 0 -117 0 -166 49s-49 114 -49 166v341h-6c-61 0 -81 3 -108 16c-39 19 -62 59 -62 110s23 91 62 110c27 13 47 16 108 16h6v128c0 338 266 500 536 500c128 0 213 -25 289 -72c69 -43 104 -95 104 -165c0 -48 -19 -89 -46 -116c-24 -24 -54 -38 -82 -38
c-38 0 -58 5 -112 34c-60 33 -98 45 -151 45c-108 0 -186 -60 -186 -196v-120h79c61 0 81 -3 108 -16c39 -19 62 -59 62 -110s-23 -91 -62 -110c-27 -13 -47 -16 -108 -16h-79v-244h372c72 0 99 -2 134 -19c44 -21 76 -75 76 -137s-32 -116 -76 -137
c-35 -17 -62 -19 -134 -19z" />
    <glyph glyph-name="currency" unicode="&#xa4;" horiz-adv-x="1348" 
d="M943 105l-52 52c-65 -34 -142 -53 -217 -53s-152 19 -217 53l-52 -52c-52 -52 -72 -68 -107 -80c-47 -16 -104 0 -147 43s-59 100 -43 147c12 35 29 56 80 107l53 53c-33 64 -52 139 -52 215s19 151 52 215l-53 53c-51 51 -68 72 -80 107c-16 47 0 104 43 147
s100 59 147 43c35 -12 55 -28 107 -80l52 -52c65 34 142 53 217 53s152 -19 217 -53l52 52c52 52 72 68 107 80c47 16 104 0 147 -43s59 -100 43 -147c-12 -35 -29 -56 -80 -107l-53 -53c33 -64 52 -139 52 -215s-19 -151 -52 -215l53 -53c51 -51 68 -72 80 -107
c16 -47 0 -104 -43 -147s-100 -59 -147 -43c-35 12 -55 28 -107 80zM864 590c0 104 -86 190 -190 190s-190 -86 -190 -190s86 -190 190 -190s190 86 190 190z" />
    <glyph glyph-name="yen" unicode="&#xa5;" horiz-adv-x="1178" 
d="M922 255h-157v-17c0 -80 -1 -118 -22 -160c-25 -50 -84 -86 -154 -86s-129 36 -154 86c-21 42 -22 80 -22 160v17h-157c-61 0 -81 3 -108 16c-39 19 -62 59 -62 110s23 91 62 110c27 13 47 16 108 16h157v80l-29 57h-128c-61 0 -81 3 -108 16c-39 19 -62 59 -62 110
s23 91 62 110c27 13 47 16 108 16h2l-122 245c-35 70 -46 95 -46 135c0 53 33 106 93 136c27 14 56 20 82 20c31 0 60 -10 83 -27c32 -24 45 -48 80 -118l161 -327l161 327c35 70 48 94 80 118c23 17 52 27 83 27c26 0 55 -6 82 -20c60 -30 93 -83 93 -136
c0 -40 -11 -65 -46 -135l-123 -245h3c61 0 81 -3 108 -16c39 -19 62 -59 62 -110s-23 -91 -62 -110c-27 -13 -47 -16 -108 -16h-129l-28 -57v-80h157c61 0 81 -3 108 -16c39 -19 62 -59 62 -110s-23 -91 -62 -110c-27 -13 -47 -16 -108 -16z" />
    <glyph glyph-name="brokenbar" unicode="&#xa6;" horiz-adv-x="728" 
d="M200 66v272c0 80 2 102 20 142c22 46 78 80 144 80s120 -34 144 -80c20 -40 20 -62 20 -142v-272c0 -80 0 -102 -20 -142c-24 -46 -78 -80 -144 -80s-122 34 -144 80c-18 40 -20 62 -20 142zM200 1086v272c0 80 2 102 20 142c22 46 78 80 144 80s120 -34 144 -80
c20 -40 20 -62 20 -142v-272c0 -80 0 -102 -20 -142c-24 -46 -78 -80 -144 -80s-122 34 -144 80c-18 40 -20 62 -20 142z" />
    <glyph glyph-name="section" unicode="&#xa7;" horiz-adv-x="1032" 
d="M500 119l-108 40c-200 74 -302 152 -302 372c0 148 106 252 166 290c-66 40 -132 111 -132 257c0 170 108 358 398 358c149 0 251 -46 314 -110c51 -52 75 -116 75 -176c0 -27 -7 -61 -18 -84c-22 -44 -73 -74 -134 -74c-46 0 -85 17 -110 42c-20 20 -30 43 -37 69
c-11 43 -43 61 -90 61c-63 0 -94 -32 -94 -71c0 -44 21 -72 112 -106l108 -40c200 -74 302 -152 302 -372c0 -148 -106 -252 -162 -290c72 -44 142 -107 142 -265c0 -270 -218 -380 -413 -380c-113 0 -201 28 -264 71c-85 58 -125 142 -125 222c0 28 7 62 18 85
c22 45 73 76 134 76c44 0 84 -16 108 -40c22 -22 31 -46 38 -73c11 -41 41 -62 91 -62c68 0 101 32 101 83c0 40 -14 79 -118 117zM520 421c32 0 62 10 82 30c23 23 36 51 36 102s-13 79 -36 102c-20 20 -50 30 -82 30s-62 -10 -82 -30c-23 -23 -36 -51 -36 -102
s13 -79 36 -102c20 -20 50 -30 82 -30z" />
    <glyph glyph-name="dieresis" unicode="&#xa8;" horiz-adv-x="1000" 
d="M267 1200c-88 0 -160 72 -160 160s72 160 160 160s160 -72 160 -160s-72 -160 -160 -160zM735 1200c-88 0 -160 72 -160 160s72 160 160 160s160 -72 160 -160s-72 -160 -160 -160z" />
    <glyph glyph-name="copyright" unicode="&#xa9;" horiz-adv-x="1644" 
d="M1546 712c0 -400 -324 -724 -724 -724s-724 324 -724 724s324 724 724 724s724 -324 724 -724zM1342 712c0 312 -224 530 -520 530s-520 -218 -520 -530s224 -530 520 -530s520 218 520 530zM684 712c0 -134 64 -200 156 -200c33 0 56 11 79 26c24 17 46 27 70 27
c27 0 49 -9 66 -26c18 -18 26 -38 26 -66c0 -29 -16 -53 -36 -73c-53 -53 -133 -72 -205 -72c-180 0 -360 114 -360 384s180 384 360 384c72 0 152 -19 205 -72c20 -20 36 -44 36 -73c0 -28 -8 -48 -26 -66c-17 -17 -39 -26 -66 -26c-24 0 -46 10 -70 27
c-23 15 -46 26 -79 26c-92 0 -156 -66 -156 -200z" />
    <glyph glyph-name="ordfeminine" unicode="&#xaa;" horiz-adv-x="912" 
d="M800 729c0 -59 -3 -77 -15 -102c-18 -37 -56 -59 -104 -59c-53 0 -94 26 -111 75c-61 -58 -109 -79 -206 -79c-178 0 -274 115 -274 271c0 131 87 245 294 245h178v40c0 79 -46 110 -134 110c-50 0 -81 -10 -118 -28c-33 -16 -59 -23 -80 -23s-47 7 -63 26
c-19 22 -26 45 -26 73c0 99 154 152 298 152c235 0 361 -100 361 -303v-398zM562 887v35h-146c-65 0 -96 -34 -96 -81c0 -49 32 -80 108 -80c46 0 80 8 103 31c24 24 31 49 31 95z" />
    <glyph glyph-name="guillemotleft" unicode="&#xab;" horiz-adv-x="1369" 
d="M357 263l-297 297l297 297c52 52 72 68 107 80c47 16 104 0 147 -43s59 -100 43 -147c-12 -35 -29 -56 -80 -107l-80 -80l80 -80c51 -51 68 -72 80 -107c16 -47 0 -104 -43 -147s-100 -59 -147 -43c-35 12 -55 28 -107 80zM975 263l-297 297l297 297c52 52 72 68 107 80
c47 16 104 0 147 -43s59 -100 43 -147c-12 -35 -29 -56 -80 -107l-80 -80l80 -80c51 -51 68 -72 80 -107c16 -47 0 -104 -43 -147s-100 -59 -147 -43c-35 12 -55 28 -107 80z" />
    <glyph glyph-name="logicalnot" unicode="&#xac;" 
d="M1026 572v-199c0 -69 -2 -96 -18 -128c-21 -42 -70 -72 -130 -72s-109 30 -130 72c-16 32 -18 59 -18 128v103h-452c-69 0 -96 2 -128 18c-42 21 -72 70 -72 130s30 109 72 130c32 16 59 18 128 18h548c48 0 108 0 154 -46s46 -106 46 -154z" />
    <glyph glyph-name="uni00AD" unicode="&#xad;" horiz-adv-x="852" 
d="M562 442h-272c-69 0 -96 2 -128 18c-42 21 -72 70 -72 130s30 109 72 130c32 16 59 18 128 18h272c69 0 96 -2 128 -18c42 -21 72 -70 72 -130s-30 -109 -72 -130c-32 -16 -59 -18 -128 -18z" />
    <glyph glyph-name="registered" unicode="&#xae;" horiz-adv-x="1644" 
d="M1138 846c0 -102 -60 -166 -120 -196l84 -145c23 -41 30 -57 32 -80c2 -31 -15 -63 -52 -84c-17 -10 -36 -15 -53 -15c-48 0 -70 33 -98 82l-119 208h-62v-151c0 -51 -2 -66 -13 -89c-15 -31 -47 -50 -89 -50c-41 0 -74 19 -89 50c-11 23 -13 38 -13 89v499
c0 29 0 68 29 97s67 29 97 29h208c168 0 258 -120 258 -244zM934 846c0 49 -34 76 -80 76h-104v-152h104c46 0 80 27 80 76zM1342 712c0 312 -224 530 -520 530s-520 -218 -520 -530s224 -530 520 -530s520 218 520 530zM1546 712c0 -400 -324 -724 -724 -724
s-724 324 -724 724s324 724 724 724s724 -324 724 -724z" />
    <glyph glyph-name="macron" unicode="&#xaf;" horiz-adv-x="1000" 
d="M664 1258h-328c-61 0 -81 3 -108 16c-39 19 -62 59 -62 110s23 91 62 110c27 13 47 16 108 16h328c61 0 81 -3 108 -16c39 -19 62 -59 62 -110s-23 -91 -62 -110c-27 -13 -47 -16 -108 -16z" />
    <glyph glyph-name="degree" unicode="&#xb0;" horiz-adv-x="972" 
d="M486 676c-216 0 -392 176 -392 392s176 392 392 392s392 -176 392 -392s-176 -392 -392 -392zM486 934c72 0 130 60 130 134s-58 134 -130 134s-130 -60 -130 -134s58 -134 130 -134z" />
    <glyph glyph-name="plusminus" unicode="&#xb1;" 
d="M822 749h-118v-118c0 -69 -2 -96 -18 -128c-21 -42 -70 -72 -130 -72s-109 30 -130 72c-16 32 -18 59 -18 128v118h-118c-69 0 -96 2 -128 18c-42 21 -72 70 -72 130s30 109 72 130c32 16 59 18 128 18h118v118c0 69 2 96 18 128c21 42 70 72 130 72s109 -30 130 -72
c16 -32 18 -59 18 -128v-118h118c69 0 96 -2 128 -18c42 -21 72 -70 72 -130s-30 -109 -72 -130c-32 -16 -59 -18 -128 -18zM822 -1h-532c-69 0 -96 2 -128 18c-42 21 -72 70 -72 130s30 109 72 130c32 16 59 18 128 18h532c69 0 96 -2 128 -18c42 -21 72 -70 72 -130
s-30 -109 -72 -130c-32 -16 -59 -18 -128 -18z" />
    <glyph glyph-name="twosuperior" unicode="&#xb2;" horiz-adv-x="680" 
d="M491 570h-299c-39 0 -81 3 -108 31c-19 20 -31 49 -31 85c0 46 23 79 53 111l244 267c35 38 54 68 54 106c0 31 -23 54 -61 54c-35 0 -51 -17 -69 -51c-11 -23 -24 -40 -44 -53c-11 -7 -35 -15 -60 -15c-41 0 -70 12 -91 45c-11 18 -18 42 -18 66c0 57 39 118 86 154
c54 41 113 62 196 62c180 0 293 -89 293 -262c0 -97 -47 -164 -160 -277l-115 -115h130c50 0 67 -3 89 -14c31 -16 63 -49 63 -90s-32 -74 -63 -90c-22 -11 -39 -14 -89 -14z" />
    <glyph glyph-name="threesuperior" unicode="&#xb3;" horiz-adv-x="680" 
d="M632 1172c0 -96 -46 -134 -80 -160c34 -32 88 -80 88 -180c0 -186 -142 -270 -296 -270c-94 0 -160 27 -213 74c-47 41 -70 95 -70 149c0 28 11 59 24 74c20 23 52 41 88 41c29 0 54 -11 69 -22c16 -13 23 -27 32 -52c14 -39 32 -56 70 -56c40 0 64 24 64 70
c0 36 -31 68 -63 69c-29 1 -53 9 -69 25c-18 18 -26 41 -26 71s8 57 26 75s40 26 69 26c39 0 57 38 57 58c0 40 -28 60 -56 60c-32 0 -47 -15 -59 -49c-9 -24 -17 -37 -34 -52c-13 -10 -40 -22 -67 -22c-63 0 -111 50 -111 114c0 55 22 106 71 147c53 46 125 70 200 70
c164 0 286 -110 286 -260z" />
    <glyph glyph-name="acute" unicode="&#xb4;" horiz-adv-x="1000" 
d="M799 1408l-75 -120c-22 -35 -43 -68 -67 -85c-22 -15 -42 -22 -69 -22c-26 0 -52 8 -76 23c-48 30 -70 74 -66 118c3 34 13 54 48 110l75 120c22 35 43 68 67 85c22 15 42 22 69 22c26 0 52 -8 76 -23c48 -30 70 -74 66 -118c-3 -34 -13 -54 -48 -110z" />
    <glyph glyph-name="mu" unicode="&#xb5;" horiz-adv-x="1168" 
d="M452 -11v-123c0 -78 -2 -106 -20 -142c-23 -47 -78 -80 -144 -80s-121 33 -144 80c-18 36 -20 64 -20 142v996c0 78 2 106 20 142c23 47 78 80 144 80s121 -33 144 -80c18 -36 20 -64 20 -142v-430c0 -124 88 -148 132 -148s132 24 132 148v430c0 78 2 106 20 142
c23 47 78 80 144 80s121 -33 144 -80c18 -36 20 -64 20 -142v-648c0 -78 -2 -106 -20 -142c-23 -47 -78 -80 -144 -80c-90 0 -130 50 -154 96c-66 -66 -166 -100 -252 -100c-8 0 -15 0 -22 1z" />
    <glyph glyph-name="paragraph" unicode="&#xb6;" horiz-adv-x="1414" 
d="M942 -134v1246h-180v-1246c0 -78 -2 -106 -20 -142c-23 -47 -78 -80 -144 -80s-121 33 -144 80c-18 36 -20 64 -20 142v730c-178 0 -374 174 -374 410c0 290 206 418 482 418h528c48 0 108 0 154 -46s46 -106 46 -154v-1358c0 -78 -2 -106 -20 -142
c-23 -47 -78 -80 -144 -80s-121 33 -144 80c-18 36 -20 64 -20 142z" />
    <glyph glyph-name="periodcentered" unicode="&#xb7;" horiz-adv-x="678" 
d="M339 380c-116 0 -210 94 -210 210s94 210 210 210s210 -94 210 -210s-94 -210 -210 -210z" />
    <glyph glyph-name="cedilla" unicode="&#xb8;" horiz-adv-x="1100" 
d="M626 -328l-75 -120c-22 -35 -43 -68 -67 -85c-22 -15 -42 -22 -69 -22c-26 0 -52 8 -76 23c-48 30 -70 74 -66 118c3 34 13 54 48 110l75 120c22 35 43 68 67 85c22 15 42 22 69 22c26 0 52 -8 76 -23c48 -30 70 -74 66 -118c-3 -34 -13 -54 -48 -110z" />
    <glyph glyph-name="onesuperior" unicode="&#xb9;" horiz-adv-x="680" 
d="M284 723v341l-15 -15c-39 -39 -54 -50 -79 -59c-38 -13 -78 -3 -111 30s-43 73 -30 111c9 25 20 40 59 79l164 164c31 31 67 58 123 58c37 0 69 -13 90 -33c36 -33 37 -77 37 -117v-559c0 -59 -3 -77 -15 -102c-18 -37 -56 -59 -104 -59s-86 22 -104 59
c-12 25 -15 43 -15 102z" />
    <glyph glyph-name="ordmasculine" unicode="&#xba;" horiz-adv-x="926" 
d="M825 997c0 -177 -31 -261 -104 -334c-62 -62 -143 -99 -258 -99s-196 37 -258 99c-73 73 -104 157 -104 334s31 261 103 333c63 63 144 100 259 100s196 -37 259 -100c72 -72 103 -156 103 -333zM588 997c0 84 -4 151 -40 187c-22 22 -49 33 -85 33s-63 -11 -85 -33
c-36 -36 -39 -103 -39 -187s3 -151 39 -187c22 -22 49 -33 85 -33s63 11 85 33c36 36 40 103 40 187z" />
    <glyph glyph-name="guillemotright" unicode="&#xbb;" horiz-adv-x="1369" 
d="M691 560l-297 -297c-52 -52 -72 -68 -107 -80c-47 -16 -104 0 -147 43s-59 100 -43 147c12 35 29 56 80 107l80 80l-80 80c-51 51 -68 72 -80 107c-16 47 0 104 43 147s100 59 147 43c35 -12 55 -28 107 -80zM1309 560l-297 -297c-52 -52 -72 -68 -107 -80
c-47 -16 -104 0 -147 43s-59 100 -43 147c12 35 29 56 80 107l80 80l-80 80c-51 51 -68 72 -80 107c-16 47 0 104 43 147s100 59 147 43c35 -12 55 -28 107 -80z" />
    <glyph glyph-name="onequarter" unicode="&#xbc;" horiz-adv-x="1716" 
d="M284 723v341l-15 -15c-39 -39 -54 -50 -79 -59c-38 -13 -78 -3 -111 30s-43 73 -30 111c9 25 20 40 59 79l164 164c31 31 67 58 123 58c37 0 69 -13 90 -33c36 -33 37 -77 37 -117v-559c0 -59 -3 -77 -15 -102c-18 -37 -56 -59 -104 -59s-86 22 -104 59
c-12 25 -15 43 -15 102zM471 196l570 1134c25 50 36 65 57 81c19 14 37 21 60 21c20 0 36 -5 55 -14c42 -21 63 -56 63 -96c0 -26 -6 -44 -31 -94l-570 -1134c-25 -50 -36 -65 -57 -81c-19 -14 -37 -21 -60 -21c-20 0 -36 5 -55 14c-42 21 -63 56 -63 96c0 26 6 44 31 94z
M1079 297l236 469c22 44 54 96 114 96c56 0 113 -45 113 -104c0 -27 -4 -43 -28 -91l-175 -349h65c5 52 46 90 104 90s99 -38 104 -90c52 -5 89 -46 89 -104s-37 -99 -89 -104c-1 -34 -5 -49 -14 -67c-16 -31 -49 -50 -90 -50s-74 19 -90 50c-10 18 -13 33 -14 67h-209
c-52 0 -75 5 -93 15c-31 18 -52 49 -52 86c0 25 6 40 29 86z" />
    <glyph glyph-name="onehalf" unicode="&#xbd;" horiz-adv-x="1716" 
d="M284 723v341l-15 -15c-39 -39 -54 -50 -79 -59c-38 -13 -78 -3 -111 30s-43 73 -30 111c9 25 20 40 59 79l164 164c31 31 67 58 123 58c37 0 69 -13 90 -33c36 -33 37 -77 37 -117v-559c0 -59 -3 -77 -15 -102c-18 -37 -56 -59 -104 -59s-86 22 -104 59
c-12 25 -15 43 -15 102zM471 196l570 1134c25 50 36 65 57 81c19 14 37 21 60 21c20 0 36 -5 55 -14c42 -21 63 -56 63 -96c0 -26 -6 -44 -31 -94l-570 -1134c-25 -50 -36 -65 -57 -81c-19 -14 -37 -21 -60 -21c-20 0 -36 5 -55 14c-42 21 -63 56 -63 96c0 26 6 44 31 94z
M1527 0h-299c-39 0 -81 3 -108 31c-19 20 -31 49 -31 85c0 46 23 79 53 111l244 267c35 38 54 68 54 106c0 31 -23 54 -61 54c-35 0 -51 -17 -69 -51c-11 -23 -24 -40 -44 -53c-11 -7 -35 -15 -60 -15c-41 0 -70 12 -91 45c-11 18 -18 42 -18 66c0 57 39 118 86 154
c54 41 113 62 196 62c180 0 293 -89 293 -262c0 -97 -47 -164 -160 -277l-115 -115h130c50 0 67 -3 89 -14c31 -16 63 -49 63 -90s-32 -74 -63 -90c-22 -11 -39 -14 -89 -14z" />
    <glyph glyph-name="threequarters" unicode="&#xbe;" horiz-adv-x="1716" 
d="M632 1172c0 -96 -46 -134 -80 -160c34 -32 88 -80 88 -180c0 -186 -142 -270 -296 -270c-94 0 -160 27 -213 74c-47 41 -70 95 -70 149c0 28 11 59 24 74c20 23 52 41 88 41c29 0 54 -11 69 -22c16 -13 23 -27 32 -52c14 -39 32 -56 70 -56c40 0 64 24 64 70
c0 36 -31 68 -63 69c-29 1 -53 9 -69 25c-18 18 -26 41 -26 71s8 57 26 75s40 26 69 26c39 0 57 38 57 58c0 40 -28 60 -56 60c-32 0 -47 -15 -59 -49c-9 -24 -17 -37 -34 -52c-13 -10 -40 -22 -67 -22c-63 0 -111 50 -111 114c0 55 22 106 71 147c53 46 125 70 200 70
c164 0 286 -110 286 -260zM471 196l570 1134c25 50 36 65 57 81c19 14 37 21 60 21c20 0 36 -5 55 -14c42 -21 63 -56 63 -96c0 -26 -6 -44 -31 -94l-570 -1134c-25 -50 -36 -65 -57 -81c-19 -14 -37 -21 -60 -21c-20 0 -36 5 -55 14c-42 21 -63 56 -63 96c0 26 6 44 31 94z
M1079 297l236 469c22 44 54 96 114 96c56 0 113 -45 113 -104c0 -27 -4 -43 -28 -91l-175 -349h65c5 52 46 90 104 90s99 -38 104 -90c52 -5 89 -46 89 -104s-37 -99 -89 -104c-1 -34 -5 -49 -14 -67c-16 -31 -49 -50 -90 -50s-74 19 -90 50c-10 18 -13 33 -14 67h-209
c-52 0 -75 5 -93 15c-31 18 -52 49 -52 86c0 25 6 40 29 86z" />
    <glyph glyph-name="questiondown" unicode="&#xbf;" horiz-adv-x="1076" 
d="M60 46c0 119 42 189 102 259l99 117c33 38 53 74 64 100c13 30 30 62 54 86c30 30 68 45 121 45c52 0 90 -17 121 -48c27 -27 39 -66 39 -106c0 -48 -20 -103 -78 -171l-140 -162c-32 -38 -54 -74 -54 -120c0 -62 41 -110 116 -110c44 0 73 11 98 39c16 18 29 43 39 68
c12 30 29 56 46 73c29 29 68 38 111 38c47 0 83 -17 109 -43c27 -27 40 -63 40 -115c0 -58 -32 -160 -122 -241c-82 -73 -191 -113 -317 -115c-244 -3 -448 142 -448 406zM500 1082c104 0 190 -86 190 -190s-86 -190 -190 -190s-190 86 -190 190s86 190 190 190z" />
    <glyph glyph-name="Agrave" unicode="&#xc0;" horiz-adv-x="1294" 
d="M70 268l380 1009c25 65 44 93 73 116c35 28 72 39 124 39s89 -11 124 -39c29 -23 48 -51 73 -116l380 -1009c33 -88 55 -157 -12 -224c-31 -31 -78 -52 -126 -52c-39 0 -74 13 -99 36c-30 27 -43 54 -69 126l-21 58h-500l-21 -58c-26 -72 -39 -99 -69 -126
c-25 -23 -60 -36 -99 -36c-48 0 -95 21 -126 52c-67 67 -45 136 -12 224zM791 504l-144 396l-144 -396h288zM473 1634l-75 120c-35 56 -45 76 -48 110c-4 44 18 88 66 118c24 15 50 23 76 23c27 0 47 -7 69 -22c24 -17 45 -50 67 -85l75 -120c35 -56 45 -76 48 -110
c4 -44 -18 -88 -66 -118c-24 -15 -50 -23 -76 -23c-27 0 -47 7 -69 22c-24 17 -45 50 -67 85z" />
    <glyph glyph-name="Aacute" unicode="&#xc1;" horiz-adv-x="1294" 
d="M70 268l380 1009c25 65 44 93 73 116c35 28 72 39 124 39s89 -11 124 -39c29 -23 48 -51 73 -116l380 -1009c33 -88 55 -157 -12 -224c-31 -31 -78 -52 -126 -52c-39 0 -74 13 -99 36c-30 27 -43 54 -69 126l-21 58h-500l-21 -58c-26 -72 -39 -99 -69 -126
c-25 -23 -60 -36 -99 -36c-48 0 -95 21 -126 52c-67 67 -45 136 -12 224zM791 504l-144 396l-144 -396h288zM896 1754l-75 -120c-22 -35 -43 -68 -67 -85c-22 -15 -42 -22 -69 -22c-26 0 -52 8 -76 23c-48 30 -70 74 -66 118c3 34 13 54 48 110l75 120c22 35 43 68 67 85
c22 15 42 22 69 22c26 0 52 -8 76 -23c48 -30 70 -74 66 -118c-3 -34 -13 -54 -48 -110z" />
    <glyph glyph-name="Acircumflex" unicode="&#xc2;" horiz-adv-x="1294" 
d="M70 268l380 1009c25 65 44 93 73 116c35 28 72 39 124 39s89 -11 124 -39c29 -23 48 -51 73 -116l380 -1009c33 -88 55 -157 -12 -224c-31 -31 -78 -52 -126 -52c-39 0 -74 13 -99 36c-30 27 -43 54 -69 126l-21 58h-500l-21 -58c-26 -72 -39 -99 -69 -126
c-25 -23 -60 -36 -99 -36c-48 0 -95 21 -126 52c-67 67 -45 136 -12 224zM791 504l-144 396l-144 -396h288zM749 1589l-102 102l-102 -102c-43 -43 -60 -55 -88 -65c-41 -14 -86 -2 -122 34s-48 82 -34 123c10 28 22 44 65 87l139 139c34 34 77 76 142 76s108 -42 142 -76
l139 -139c43 -43 55 -59 65 -87c14 -41 2 -87 -34 -123s-81 -48 -122 -34c-28 10 -45 22 -88 65z" />
    <glyph glyph-name="Atilde" unicode="&#xc3;" horiz-adv-x="1294" 
d="M70 268l380 1009c25 65 44 93 73 116c35 28 72 39 124 39s89 -11 124 -39c29 -23 48 -51 73 -116l380 -1009c33 -88 55 -157 -12 -224c-31 -31 -78 -52 -126 -52c-39 0 -74 13 -99 36c-30 27 -43 54 -69 126l-21 58h-500l-21 -58c-26 -72 -39 -99 -69 -126
c-25 -23 -60 -36 -99 -36c-48 0 -95 21 -126 52c-67 67 -45 136 -12 224zM791 504l-144 396l-144 -396h288zM1045 1740c0 -37 -23 -76 -65 -111c-59 -47 -114 -62 -194 -62c-60 0 -97 7 -164 43c-40 22 -65 31 -105 31c-36 0 -58 -9 -87 -29c-24 -17 -50 -27 -73 -27
c-29 0 -59 9 -84 40c-18 22 -24 48 -24 77c0 37 23 76 65 111c59 47 114 62 194 62c60 0 97 -7 164 -43c40 -22 65 -31 105 -31c36 0 58 9 87 29c24 17 50 27 73 27c29 0 59 -9 84 -40c18 -22 24 -48 24 -77z" />
    <glyph glyph-name="Adieresis" unicode="&#xc4;" horiz-adv-x="1294" 
d="M70 268l380 1009c25 65 44 93 73 116c35 28 72 39 124 39s89 -11 124 -39c29 -23 48 -51 73 -116l380 -1009c33 -88 55 -157 -12 -224c-31 -31 -78 -52 -126 -52c-39 0 -74 13 -99 36c-30 27 -43 54 -69 126l-21 58h-500l-21 -58c-26 -72 -39 -99 -69 -126
c-25 -23 -60 -36 -99 -36c-48 0 -95 21 -126 52c-67 67 -45 136 -12 224zM791 504l-144 396l-144 -396h288zM413 1547c-88 0 -160 72 -160 160s72 160 160 160s160 -72 160 -160s-72 -160 -160 -160zM881 1547c-88 0 -160 72 -160 160s72 160 160 160s160 -72 160 -160
s-72 -160 -160 -160z" />
    <glyph glyph-name="Aring" unicode="&#xc5;" horiz-adv-x="1294" 
d="M70 268l380 1009c25 65 44 93 73 116c35 28 72 39 124 39s89 -11 124 -39c29 -23 48 -51 73 -116l380 -1009c33 -88 55 -157 -12 -224c-31 -31 -78 -52 -126 -52c-39 0 -74 13 -99 36c-30 27 -43 54 -69 126l-21 58h-500l-21 -58c-26 -72 -39 -99 -69 -126
c-25 -23 -60 -36 -99 -36c-48 0 -95 21 -126 52c-67 67 -45 136 -12 224zM791 504l-144 396l-144 -396h288zM751 1786c0 57 -47 104 -104 104s-104 -47 -104 -104s47 -104 104 -104s104 47 104 104zM647 1510c-152 0 -276 124 -276 276s124 276 276 276s276 -124 276 -276
s-124 -276 -276 -276z" />
    <glyph glyph-name="AE" unicode="&#xc6;" horiz-adv-x="1952" 
d="M84 283l463 928c46 91 82 137 117 165c42 33 96 48 144 48h844c72 0 99 -2 134 -19c44 -21 76 -75 76 -137s-32 -116 -76 -137c-35 -17 -62 -19 -134 -19h-418v-238h328c72 0 99 -2 134 -19c44 -21 76 -75 76 -137s-32 -116 -76 -137c-35 -17 -62 -19 -134 -19h-328v-250
h418c72 0 99 -2 134 -19c44 -21 76 -75 76 -137s-32 -116 -76 -137c-35 -17 -62 -19 -134 -19h-555c-52 0 -117 0 -166 49s-49 114 -49 166v83h-426l-80 -161c-35 -70 -48 -94 -80 -118c-23 -17 -52 -27 -83 -27c-26 0 -55 6 -82 20c-60 30 -93 83 -93 136
c0 40 11 65 46 135zM602 590h280v561z" />
    <glyph glyph-name="Ccedilla" unicode="&#xc7;" horiz-adv-x="1209" 
d="M96 712c0 240 2 423 147 568c102 102 223 156 393 156c174 0 271 -29 359 -108c108 -97 135 -202 135 -264s-17 -101 -49 -133s-75 -49 -121 -49c-39 0 -70 10 -94 27c-38 26 -63 64 -93 117c-40 71 -82 98 -145 98c-60 0 -100 -28 -126 -62c-41 -54 -54 -116 -54 -350
s13 -296 54 -350c26 -34 66 -62 126 -62c63 0 105 27 145 98c30 53 55 91 93 117c24 17 55 27 94 27c46 0 89 -17 121 -49s49 -71 49 -133s-27 -167 -135 -264c-88 -79 -185 -108 -359 -108c-170 0 -291 54 -393 156c-145 145 -147 328 -147 568zM746 -328l-75 -120
c-22 -35 -43 -68 -67 -85c-22 -15 -42 -22 -69 -22c-26 0 -52 8 -76 23c-48 30 -70 74 -66 118c3 34 13 54 48 110l75 120c22 35 43 68 67 85c22 15 42 22 69 22c26 0 52 -8 76 -23c48 -30 70 -74 66 -118c-3 -34 -13 -54 -48 -110z" />
    <glyph glyph-name="Egrave" unicode="&#xc8;" horiz-adv-x="1212" 
d="M912 0h-555c-52 0 -117 0 -166 49s-49 114 -49 166v994c0 52 0 117 49 166s114 49 166 49h555c72 0 99 -2 134 -19c44 -21 76 -75 76 -137s-32 -116 -76 -137c-35 -17 -62 -19 -134 -19h-418v-238h328c72 0 99 -2 134 -19c44 -21 76 -75 76 -137s-32 -116 -76 -137
c-35 -17 -62 -19 -134 -19h-328v-250h418c72 0 99 -2 134 -19c44 -21 76 -75 76 -137s-32 -116 -76 -137c-35 -17 -62 -19 -134 -19zM456 1634l-75 120c-35 56 -45 76 -48 110c-4 44 18 88 66 118c24 15 50 23 76 23c27 0 47 -7 69 -22c24 -17 45 -50 67 -85l75 -120
c35 -56 45 -76 48 -110c4 -44 -18 -88 -66 -118c-24 -15 -50 -23 -76 -23c-27 0 -47 7 -69 22c-24 17 -45 50 -67 85z" />
    <glyph glyph-name="Eacute" unicode="&#xc9;" horiz-adv-x="1212" 
d="M912 0h-555c-52 0 -117 0 -166 49s-49 114 -49 166v994c0 52 0 117 49 166s114 49 166 49h555c72 0 99 -2 134 -19c44 -21 76 -75 76 -137s-32 -116 -76 -137c-35 -17 -62 -19 -134 -19h-418v-238h328c72 0 99 -2 134 -19c44 -21 76 -75 76 -137s-32 -116 -76 -137
c-35 -17 -62 -19 -134 -19h-328v-250h418c72 0 99 -2 134 -19c44 -21 76 -75 76 -137s-32 -116 -76 -137c-35 -17 -62 -19 -134 -19zM879 1754l-75 -120c-22 -35 -43 -68 -67 -85c-22 -15 -42 -22 -69 -22c-26 0 -52 8 -76 23c-48 30 -70 74 -66 118c3 34 13 54 48 110
l75 120c22 35 43 68 67 85c22 15 42 22 69 22c26 0 52 -8 76 -23c48 -30 70 -74 66 -118c-3 -34 -13 -54 -48 -110z" />
    <glyph glyph-name="Ecircumflex" unicode="&#xca;" horiz-adv-x="1212" 
d="M912 0h-555c-52 0 -117 0 -166 49s-49 114 -49 166v994c0 52 0 117 49 166s114 49 166 49h555c72 0 99 -2 134 -19c44 -21 76 -75 76 -137s-32 -116 -76 -137c-35 -17 -62 -19 -134 -19h-418v-238h328c72 0 99 -2 134 -19c44 -21 76 -75 76 -137s-32 -116 -76 -137
c-35 -17 -62 -19 -134 -19h-328v-250h418c72 0 99 -2 134 -19c44 -21 76 -75 76 -137s-32 -116 -76 -137c-35 -17 -62 -19 -134 -19zM732 1589l-102 102l-102 -102c-43 -43 -60 -55 -88 -65c-41 -14 -86 -2 -122 34s-48 82 -34 123c10 28 22 44 65 87l139 139
c34 34 77 76 142 76s108 -42 142 -76l139 -139c43 -43 55 -59 65 -87c14 -41 2 -87 -34 -123s-81 -48 -122 -34c-28 10 -45 22 -88 65z" />
    <glyph glyph-name="Edieresis" unicode="&#xcb;" horiz-adv-x="1212" 
d="M912 0h-555c-52 0 -117 0 -166 49s-49 114 -49 166v994c0 52 0 117 49 166s114 49 166 49h555c72 0 99 -2 134 -19c44 -21 76 -75 76 -137s-32 -116 -76 -137c-35 -17 -62 -19 -134 -19h-418v-238h328c72 0 99 -2 134 -19c44 -21 76 -75 76 -137s-32 -116 -76 -137
c-35 -17 -62 -19 -134 -19h-328v-250h418c72 0 99 -2 134 -19c44 -21 76 -75 76 -137s-32 -116 -76 -137c-35 -17 -62 -19 -134 -19zM396 1547c-88 0 -160 72 -160 160s72 160 160 160s160 -72 160 -160s-72 -160 -160 -160zM864 1547c-88 0 -160 72 -160 160
s72 160 160 160s160 -72 160 -160s-72 -160 -160 -160z" />
    <glyph glyph-name="Igrave" unicode="&#xcc;" horiz-adv-x="636" 
d="M142 228v968c0 80 1 108 22 150c25 50 84 86 154 86s129 -36 154 -86c21 -42 22 -70 22 -150v-968c0 -80 -1 -108 -22 -150c-25 -50 -84 -86 -154 -86s-129 36 -154 86c-21 42 -22 70 -22 150zM144 1634l-75 120c-35 56 -45 76 -48 110c-4 44 18 88 66 118
c24 15 50 23 76 23c27 0 47 -7 69 -22c24 -17 45 -50 67 -85l75 -120c35 -56 45 -76 48 -110c4 -44 -18 -88 -66 -118c-24 -15 -50 -23 -76 -23c-27 0 -47 7 -69 22c-24 17 -45 50 -67 85z" />
    <glyph glyph-name="Iacute" unicode="&#xcd;" horiz-adv-x="636" 
d="M142 228v968c0 80 1 108 22 150c25 50 84 86 154 86s129 -36 154 -86c21 -42 22 -70 22 -150v-968c0 -80 -1 -108 -22 -150c-25 -50 -84 -86 -154 -86s-129 36 -154 86c-21 42 -22 70 -22 150zM567 1754l-75 -120c-22 -35 -43 -68 -67 -85c-22 -15 -42 -22 -69 -22
c-26 0 -52 8 -76 23c-48 30 -70 74 -66 118c3 34 13 54 48 110l75 120c22 35 43 68 67 85c22 15 42 22 69 22c26 0 52 -8 76 -23c48 -30 70 -74 66 -118c-3 -34 -13 -54 -48 -110z" />
    <glyph glyph-name="Icircumflex" unicode="&#xce;" horiz-adv-x="636" 
d="M142 228v968c0 80 1 108 22 150c25 50 84 86 154 86s129 -36 154 -86c21 -42 22 -70 22 -150v-968c0 -80 -1 -108 -22 -150c-25 -50 -84 -86 -154 -86s-129 36 -154 86c-21 42 -22 70 -22 150zM420 1589l-102 102l-102 -102c-43 -43 -60 -55 -88 -65
c-41 -14 -86 -2 -122 34s-48 82 -34 123c10 28 22 44 65 87l139 139c34 34 77 76 142 76s108 -42 142 -76l139 -139c43 -43 55 -59 65 -87c14 -41 2 -87 -34 -123s-81 -48 -122 -34c-28 10 -45 22 -88 65z" />
    <glyph glyph-name="Idieresis" unicode="&#xcf;" horiz-adv-x="636" 
d="M99 1547c-88 0 -160 72 -160 160s72 160 160 160s160 -72 160 -160s-72 -160 -160 -160zM537 1547c-88 0 -160 72 -160 160s72 160 160 160s160 -72 160 -160s-72 -160 -160 -160zM142 228v968c0 80 1 108 22 150c25 50 84 86 154 86s129 -36 154 -86
c21 -42 22 -70 22 -150v-968c0 -80 -1 -108 -22 -150c-25 -50 -84 -86 -154 -86s-129 36 -154 86c-21 42 -22 70 -22 150z" />
    <glyph glyph-name="Eth" unicode="&#xd0;" horiz-adv-x="1364" 
d="M734 0h-315c-52 0 -117 0 -166 49s-49 114 -49 166v367h-2c-64 0 -88 2 -119 18c-39 20 -65 63 -65 118s26 98 65 118c31 16 55 18 119 18h2v355c0 52 0 117 49 166s114 49 166 49h315c214 0 364 -82 462 -240c70 -114 70 -226 70 -472s0 -358 -70 -472
c-98 -158 -248 -240 -462 -240zM556 312h154c88 0 136 32 168 80c28 40 38 78 38 320c0 240 -10 280 -38 320c-32 48 -80 80 -168 80h-154v-258h30c64 0 88 -2 119 -18c39 -20 65 -63 65 -118s-26 -98 -65 -118c-31 -16 -55 -18 -119 -18h-30v-270z" />
    <glyph glyph-name="Ntilde" unicode="&#xd1;" horiz-adv-x="1400" 
d="M1258 208c0 -68 -6 -122 -46 -162c-36 -36 -78 -54 -132 -54c-80 0 -129 50 -207 166l-379 558v-488c0 -80 -1 -108 -22 -150c-25 -50 -84 -86 -154 -86s-129 36 -154 86c-21 42 -22 70 -22 150v988c0 68 6 122 46 162c36 36 78 54 132 54c80 0 129 -50 207 -166
l379 -558v488c0 80 1 108 22 150c25 50 84 86 154 86s129 -36 154 -86c21 -42 22 -70 22 -150v-988zM1098 1740c0 -37 -23 -76 -65 -111c-59 -47 -114 -62 -194 -62c-60 0 -97 7 -164 43c-40 22 -65 31 -105 31c-36 0 -58 -9 -87 -29c-24 -17 -50 -27 -73 -27
c-29 0 -59 9 -84 40c-18 22 -24 48 -24 77c0 37 23 76 65 111c59 47 114 62 194 62c60 0 97 -7 164 -43c40 -22 65 -31 105 -31c36 0 58 9 87 29c24 17 50 27 73 27c29 0 59 -9 84 -40c18 -22 24 -48 24 -77z" />
    <glyph glyph-name="Ograve" unicode="&#xd2;" horiz-adv-x="1280" 
d="M1037 144c-102 -102 -223 -156 -397 -156s-295 54 -397 156c-145 145 -147 328 -147 568s2 423 147 568c102 102 223 156 397 156s295 -54 397 -156c145 -145 147 -328 147 -568s-2 -423 -147 -568zM780 364c32 42 52 88 52 348s-20 308 -52 350c-26 34 -76 62 -140 62
s-114 -28 -140 -62c-32 -42 -52 -90 -52 -350s20 -306 52 -348c26 -34 76 -64 140 -64s114 30 140 64zM466 1634l-75 120c-35 56 -45 76 -48 110c-4 44 18 88 66 118c24 15 50 23 76 23c27 0 47 -7 69 -22c24 -17 45 -50 67 -85l75 -120c35 -56 45 -76 48 -110
c4 -44 -18 -88 -66 -118c-24 -15 -50 -23 -76 -23c-27 0 -47 7 -69 22c-24 17 -45 50 -67 85z" />
    <glyph glyph-name="Oacute" unicode="&#xd3;" horiz-adv-x="1280" 
d="M1037 144c-102 -102 -223 -156 -397 -156s-295 54 -397 156c-145 145 -147 328 -147 568s2 423 147 568c102 102 223 156 397 156s295 -54 397 -156c145 -145 147 -328 147 -568s-2 -423 -147 -568zM780 364c32 42 52 88 52 348s-20 308 -52 350c-26 34 -76 62 -140 62
s-114 -28 -140 -62c-32 -42 -52 -90 -52 -350s20 -306 52 -348c26 -34 76 -64 140 -64s114 30 140 64zM889 1754l-75 -120c-22 -35 -43 -68 -67 -85c-22 -15 -42 -22 -69 -22c-26 0 -52 8 -76 23c-48 30 -70 74 -66 118c3 34 13 54 48 110l75 120c22 35 43 68 67 85
c22 15 42 22 69 22c26 0 52 -8 76 -23c48 -30 70 -74 66 -118c-3 -34 -13 -54 -48 -110z" />
    <glyph glyph-name="Ocircumflex" unicode="&#xd4;" horiz-adv-x="1280" 
d="M1037 144c-102 -102 -223 -156 -397 -156s-295 54 -397 156c-145 145 -147 328 -147 568s2 423 147 568c102 102 223 156 397 156s295 -54 397 -156c145 -145 147 -328 147 -568s-2 -423 -147 -568zM780 364c32 42 52 88 52 348s-20 308 -52 350c-26 34 -76 62 -140 62
s-114 -28 -140 -62c-32 -42 -52 -90 -52 -350s20 -306 52 -348c26 -34 76 -64 140 -64s114 30 140 64zM742 1589l-102 102l-102 -102c-43 -43 -60 -55 -88 -65c-41 -14 -86 -2 -122 34s-48 82 -34 123c10 28 22 44 65 87l139 139c34 34 77 76 142 76s108 -42 142 -76
l139 -139c43 -43 55 -59 65 -87c14 -41 2 -87 -34 -123s-81 -48 -122 -34c-28 10 -45 22 -88 65z" />
    <glyph glyph-name="Otilde" unicode="&#xd5;" horiz-adv-x="1280" 
d="M1037 144c-102 -102 -223 -156 -397 -156s-295 54 -397 156c-145 145 -147 328 -147 568s2 423 147 568c102 102 223 156 397 156s295 -54 397 -156c145 -145 147 -328 147 -568s-2 -423 -147 -568zM780 364c32 42 52 88 52 348s-20 308 -52 350c-26 34 -76 62 -140 62
s-114 -28 -140 -62c-32 -42 -52 -90 -52 -350s20 -306 52 -348c26 -34 76 -64 140 -64s114 30 140 64zM1038 1740c0 -37 -23 -76 -65 -111c-59 -47 -114 -62 -194 -62c-60 0 -97 7 -164 43c-40 22 -65 31 -105 31c-36 0 -58 -9 -87 -29c-24 -17 -50 -27 -73 -27
c-29 0 -59 9 -84 40c-18 22 -24 48 -24 77c0 37 23 76 65 111c59 47 114 62 194 62c60 0 97 -7 164 -43c40 -22 65 -31 105 -31c36 0 58 9 87 29c24 17 50 27 73 27c29 0 59 -9 84 -40c18 -22 24 -48 24 -77z" />
    <glyph glyph-name="Odieresis" unicode="&#xd6;" horiz-adv-x="1280" 
d="M1037 144c-102 -102 -223 -156 -397 -156s-295 54 -397 156c-145 145 -147 328 -147 568s2 423 147 568c102 102 223 156 397 156s295 -54 397 -156c145 -145 147 -328 147 -568s-2 -423 -147 -568zM780 364c32 42 52 88 52 348s-20 308 -52 350c-26 34 -76 62 -140 62
s-114 -28 -140 -62c-32 -42 -52 -90 -52 -350s20 -306 52 -348c26 -34 76 -64 140 -64s114 30 140 64zM406 1547c-88 0 -160 72 -160 160s72 160 160 160s160 -72 160 -160s-72 -160 -160 -160zM874 1547c-88 0 -160 72 -160 160s72 160 160 160s160 -72 160 -160
s-72 -160 -160 -160z" />
    <glyph glyph-name="multiply" unicode="&#xd7;" 
d="M978 358c16 -47 0 -104 -43 -147s-100 -59 -147 -43c-35 12 -55 28 -107 80l-125 125l-125 -125c-52 -52 -72 -68 -107 -80c-47 -16 -104 0 -147 43s-59 100 -43 147c12 35 29 56 80 107l125 125l-125 125c-51 51 -68 72 -80 107c-16 47 0 104 43 147s100 59 147 43
c35 -12 55 -28 107 -80l125 -125l125 125c52 52 72 68 107 80c47 16 104 0 147 -43s59 -100 43 -147c-12 -35 -29 -56 -80 -107l-125 -125l125 -125c51 -51 68 -72 80 -107z" />
    <glyph glyph-name="Oslash" unicode="&#xd8;" horiz-adv-x="1280" 
d="M640 -12c-72 0 -135 10 -191 28l-3 -6c-27 -54 -39 -71 -63 -90c-34 -26 -80 -29 -126 -6s-72 62 -71 105c0 30 7 50 34 104l15 30c-137 143 -139 324 -139 559c0 240 2 423 147 568c102 102 223 156 397 156c72 0 135 -10 191 -28l3 6c27 54 39 71 63 90
c34 26 80 29 126 6s72 -62 71 -105c0 -30 -7 -50 -34 -104l-15 -30c137 -143 139 -324 139 -559c0 -240 -2 -423 -147 -568c-102 -102 -223 -156 -397 -156zM453 525l276 578c-25 13 -55 21 -89 21c-64 0 -114 -28 -140 -62c-32 -42 -52 -90 -52 -350c0 -81 2 -141 5 -187z
M640 300c64 0 114 30 140 64c32 42 52 88 52 348c0 80 -2 141 -6 187l-275 -578c24 -13 55 -21 89 -21z" />
    <glyph glyph-name="Ugrave" unicode="&#xd9;" horiz-adv-x="1320" 
d="M850 508v688c0 80 1 108 22 150c25 50 84 86 154 86s129 -36 154 -86c21 -42 22 -70 22 -150v-696c0 -312 -248 -512 -544 -512s-540 200 -540 512v696c0 80 1 108 22 150c25 50 84 86 154 86s129 -36 154 -86c21 -42 22 -70 22 -150v-688c0 -132 72 -208 188 -208
s192 76 192 208zM486 1634l-75 120c-35 56 -45 76 -48 110c-4 44 18 88 66 118c24 15 50 23 76 23c27 0 47 -7 69 -22c24 -17 45 -50 67 -85l75 -120c35 -56 45 -76 48 -110c4 -44 -18 -88 -66 -118c-24 -15 -50 -23 -76 -23c-27 0 -47 7 -69 22c-24 17 -45 50 -67 85z" />
    <glyph glyph-name="Uacute" unicode="&#xda;" horiz-adv-x="1320" 
d="M850 508v688c0 80 1 108 22 150c25 50 84 86 154 86s129 -36 154 -86c21 -42 22 -70 22 -150v-696c0 -312 -248 -512 -544 -512s-540 200 -540 512v696c0 80 1 108 22 150c25 50 84 86 154 86s129 -36 154 -86c21 -42 22 -70 22 -150v-688c0 -132 72 -208 188 -208
s192 76 192 208zM909 1754l-75 -120c-22 -35 -43 -68 -67 -85c-22 -15 -42 -22 -69 -22c-26 0 -52 8 -76 23c-48 30 -70 74 -66 118c3 34 13 54 48 110l75 120c22 35 43 68 67 85c22 15 42 22 69 22c26 0 52 -8 76 -23c48 -30 70 -74 66 -118c-3 -34 -13 -54 -48 -110z" />
    <glyph glyph-name="Ucircumflex" unicode="&#xdb;" horiz-adv-x="1320" 
d="M850 508v688c0 80 1 108 22 150c25 50 84 86 154 86s129 -36 154 -86c21 -42 22 -70 22 -150v-696c0 -312 -248 -512 -544 -512s-540 200 -540 512v696c0 80 1 108 22 150c25 50 84 86 154 86s129 -36 154 -86c21 -42 22 -70 22 -150v-688c0 -132 72 -208 188 -208
s192 76 192 208zM762 1589l-102 102l-102 -102c-43 -43 -60 -55 -88 -65c-41 -14 -86 -2 -122 34s-48 82 -34 123c10 28 22 44 65 87l139 139c34 34 77 76 142 76s108 -42 142 -76l139 -139c43 -43 55 -59 65 -87c14 -41 2 -87 -34 -123s-81 -48 -122 -34
c-28 10 -45 22 -88 65z" />
    <glyph glyph-name="Udieresis" unicode="&#xdc;" horiz-adv-x="1320" 
d="M850 508v688c0 80 1 108 22 150c25 50 84 86 154 86s129 -36 154 -86c21 -42 22 -70 22 -150v-696c0 -312 -248 -512 -544 -512s-540 200 -540 512v696c0 80 1 108 22 150c25 50 84 86 154 86s129 -36 154 -86c21 -42 22 -70 22 -150v-688c0 -132 72 -208 188 -208
s192 76 192 208zM426 1547c-88 0 -160 72 -160 160s72 160 160 160s160 -72 160 -160s-72 -160 -160 -160zM894 1547c-88 0 -160 72 -160 160s72 160 160 160s160 -72 160 -160s-72 -160 -160 -160z" />
    <glyph glyph-name="Yacute" unicode="&#xdd;" horiz-adv-x="1114" 
d="M381 228v319l-297 594c-35 70 -46 95 -46 135c0 53 33 106 93 136c27 14 56 20 82 20c31 0 60 -10 83 -27c32 -24 45 -48 80 -118l181 -367l181 367c35 70 48 94 80 118c23 17 52 27 83 27c26 0 55 -6 82 -20c60 -30 93 -83 93 -136c0 -40 -11 -65 -46 -135l-297 -594
v-319c0 -80 -1 -108 -22 -150c-25 -50 -84 -86 -154 -86s-129 36 -154 86c-21 42 -22 70 -22 150zM806 1754l-75 -120c-22 -35 -43 -68 -67 -85c-22 -15 -42 -22 -69 -22c-26 0 -52 8 -76 23c-48 30 -70 74 -66 118c3 34 13 54 48 110l75 120c22 35 43 68 67 85
c22 15 42 22 69 22c26 0 52 -8 76 -23c48 -30 70 -74 66 -118c-3 -34 -13 -54 -48 -110z" />
    <glyph glyph-name="Thorn" unicode="&#xde;" horiz-adv-x="1254" 
d="M708 262h-214v-34c0 -80 -1 -108 -22 -150c-25 -50 -84 -86 -154 -86s-129 36 -154 86c-21 42 -22 70 -22 150v968c0 80 1 108 22 150c25 50 84 86 154 86s129 -36 154 -86c21 -42 22 -70 22 -150v-18h214c316 0 486 -224 486 -458s-170 -458 -486 -458zM494 574h198
c96 0 152 71 152 146s-56 146 -152 146h-198v-292z" />
    <glyph glyph-name="germandbls" unicode="&#xdf;" horiz-adv-x="1166" 
d="M746 -4h-6c-68 0 -116 14 -149 47c-25 25 -39 55 -39 99s14 78 37 101s50 33 87 35s62 19 62 78v294c0 59 -25 76 -62 78s-67 8 -92 33c-21 21 -32 49 -32 89s11 68 32 89c25 25 55 31 92 33s62 19 62 78c0 28 -9 50 -25 66c-22 22 -62 34 -111 34
c-118 0 -150 -51 -150 -148v-788c0 -78 -2 -106 -20 -142c-23 -47 -78 -80 -144 -80s-121 33 -144 80c-18 36 -20 64 -20 142v824c0 294 212 398 478 398c274 0 464 -112 464 -362c0 -130 -68 -188 -122 -218c62 -30 122 -80 122 -206v-336c0 -79 -26 -166 -86 -226
c-53 -53 -128 -92 -234 -92z" />
    <glyph glyph-name="agrave" unicode="&#xe0;" horiz-adv-x="1076" 
d="M962 698v-484c0 -78 -2 -106 -20 -142c-23 -47 -78 -80 -144 -80c-90 0 -130 50 -154 96c-75 -70 -130 -98 -242 -98c-108 0 -198 36 -258 96c-62 62 -94 152 -94 252c0 162 110 312 372 312h212v28c0 98 -50 134 -152 134c-38 0 -96 -14 -134 -30
c-43 -18 -74 -26 -100 -26c-32 0 -68 14 -92 44c-27 33 -36 62 -36 98c0 70 58 113 100 132c85 38 164 58 268 58c308 0 474 -128 474 -390zM634 404v28h-156c-76 0 -114 -34 -114 -88c0 -50 38 -88 118 -88c54 0 84 8 118 38c26 24 34 54 34 110zM354 1288l-75 120
c-35 56 -45 76 -48 110c-4 44 18 88 66 118c24 15 50 23 76 23c27 0 47 -7 69 -22c24 -17 45 -50 67 -85l75 -120c35 -56 45 -76 48 -110c4 -44 -18 -88 -66 -118c-24 -15 -50 -23 -76 -23c-27 0 -47 7 -69 22c-24 17 -45 50 -67 85z" />
    <glyph glyph-name="aacute" unicode="&#xe1;" horiz-adv-x="1076" 
d="M962 698v-484c0 -78 -2 -106 -20 -142c-23 -47 -78 -80 -144 -80c-90 0 -130 50 -154 96c-75 -70 -130 -98 -242 -98c-108 0 -198 36 -258 96c-62 62 -94 152 -94 252c0 162 110 312 372 312h212v28c0 98 -50 134 -152 134c-38 0 -96 -14 -134 -30
c-43 -18 -74 -26 -100 -26c-32 0 -68 14 -92 44c-27 33 -36 62 -36 98c0 70 58 113 100 132c85 38 164 58 268 58c308 0 474 -128 474 -390zM634 404v28h-156c-76 0 -114 -34 -114 -88c0 -50 38 -88 118 -88c54 0 84 8 118 38c26 24 34 54 34 110zM777 1408l-75 -120
c-22 -35 -43 -68 -67 -85c-22 -15 -42 -22 -69 -22c-26 0 -52 8 -76 23c-48 30 -70 74 -66 118c3 34 13 54 48 110l75 120c22 35 43 68 67 85c22 15 42 22 69 22c26 0 52 -8 76 -23c48 -30 70 -74 66 -118c-3 -34 -13 -54 -48 -110z" />
    <glyph glyph-name="acircumflex" unicode="&#xe2;" horiz-adv-x="1076" 
d="M962 698v-484c0 -78 -2 -106 -20 -142c-23 -47 -78 -80 -144 -80c-90 0 -130 50 -154 96c-75 -70 -130 -98 -242 -98c-108 0 -198 36 -258 96c-62 62 -94 152 -94 252c0 162 110 312 372 312h212v28c0 98 -50 134 -152 134c-38 0 -96 -14 -134 -30
c-43 -18 -74 -26 -100 -26c-32 0 -68 14 -92 44c-27 33 -36 62 -36 98c0 70 58 113 100 132c85 38 164 58 268 58c308 0 474 -128 474 -390zM634 404v28h-156c-76 0 -114 -34 -114 -88c0 -50 38 -88 118 -88c54 0 84 8 118 38c26 24 34 54 34 110zM630 1243l-102 102
l-102 -102c-43 -43 -60 -55 -88 -65c-41 -14 -86 -2 -122 34s-48 82 -34 123c10 28 22 44 65 87l139 139c34 34 77 76 142 76s108 -42 142 -76l139 -139c43 -43 55 -59 65 -87c14 -41 2 -87 -34 -123s-81 -48 -122 -34c-28 10 -45 22 -88 65z" />
    <glyph glyph-name="atilde" unicode="&#xe3;" horiz-adv-x="1076" 
d="M962 698v-484c0 -78 -2 -106 -20 -142c-23 -47 -78 -80 -144 -80c-90 0 -130 50 -154 96c-75 -70 -130 -98 -242 -98c-108 0 -198 36 -258 96c-62 62 -94 152 -94 252c0 162 110 312 372 312h212v28c0 98 -50 134 -152 134c-38 0 -96 -14 -134 -30
c-43 -18 -74 -26 -100 -26c-32 0 -68 14 -92 44c-27 33 -36 62 -36 98c0 70 58 113 100 132c85 38 164 58 268 58c308 0 474 -128 474 -390zM634 404v28h-156c-76 0 -114 -34 -114 -88c0 -50 38 -88 118 -88c54 0 84 8 118 38c26 24 34 54 34 110zM926 1395
c0 -37 -23 -76 -65 -111c-59 -47 -114 -62 -194 -62c-60 0 -97 7 -164 43c-40 22 -65 31 -105 31c-36 0 -58 -9 -87 -29c-24 -17 -50 -27 -73 -27c-29 0 -59 9 -84 40c-18 22 -24 48 -24 77c0 37 23 76 65 111c59 47 114 62 194 62c60 0 97 -7 164 -43
c40 -22 65 -31 105 -31c36 0 58 9 87 29c24 17 50 27 73 27c29 0 59 -9 84 -40c18 -22 24 -48 24 -77z" />
    <glyph glyph-name="adieresis" unicode="&#xe4;" horiz-adv-x="1076" 
d="M962 698v-484c0 -78 -2 -106 -20 -142c-23 -47 -78 -80 -144 -80c-90 0 -130 50 -154 96c-75 -70 -130 -98 -242 -98c-108 0 -198 36 -258 96c-62 62 -94 152 -94 252c0 162 110 312 372 312h212v28c0 98 -50 134 -152 134c-38 0 -96 -14 -134 -30
c-43 -18 -74 -26 -100 -26c-32 0 -68 14 -92 44c-27 33 -36 62 -36 98c0 70 58 113 100 132c85 38 164 58 268 58c308 0 474 -128 474 -390zM634 404v28h-156c-76 0 -114 -34 -114 -88c0 -50 38 -88 118 -88c54 0 84 8 118 38c26 24 34 54 34 110zM294 1200
c-88 0 -160 72 -160 160s72 160 160 160s160 -72 160 -160s-72 -160 -160 -160zM762 1200c-88 0 -160 72 -160 160s72 160 160 160s160 -72 160 -160s-72 -160 -160 -160z" />
    <glyph glyph-name="aring" unicode="&#xe5;" horiz-adv-x="1076" 
d="M962 698v-484c0 -78 -2 -106 -20 -142c-23 -47 -78 -80 -144 -80c-90 0 -130 50 -154 96c-75 -70 -130 -98 -242 -98c-108 0 -198 36 -258 96c-62 62 -94 152 -94 252c0 162 110 312 372 312h212v28c0 98 -50 134 -152 134c-38 0 -96 -14 -134 -30
c-43 -18 -74 -26 -100 -26c-32 0 -68 14 -92 44c-27 33 -36 62 -36 98c0 70 58 113 100 132c85 38 164 58 268 58c308 0 474 -128 474 -390zM634 404v28h-156c-76 0 -114 -34 -114 -88c0 -50 38 -88 118 -88c54 0 84 8 118 38c26 24 34 54 34 110zM632 1462
c0 57 -47 104 -104 104s-104 -47 -104 -104s47 -104 104 -104s104 47 104 104zM528 1186c-152 0 -276 124 -276 276s124 276 276 276s276 -124 276 -276s-124 -276 -276 -276z" />
    <glyph glyph-name="ae" unicode="&#xe6;" horiz-adv-x="1675" 
d="M1423 432h-463c0 -88 68 -170 194 -170c58 0 116 18 162 48c48 32 78 42 114 42c60 0 130 -60 130 -136c0 -52 -30 -98 -102 -148c-78 -54 -184 -80 -308 -80c-132 0 -274 28 -376 130c-130 -120 -236 -130 -368 -130c-108 0 -198 37 -258 98c-62 62 -94 152 -94 252
c0 162 110 312 372 312h212v28c0 98 -50 134 -152 134c-38 0 -96 -14 -134 -30c-43 -18 -74 -26 -100 -26c-32 0 -68 14 -92 44c-27 33 -36 62 -36 98c0 70 58 113 100 132c85 38 164 58 268 58c147 0 261 -30 340 -90c78 60 178 90 288 90c300 0 470 -214 482 -470
c2 -52 -5 -107 -44 -146s-89 -40 -135 -40zM638 404v28h-156c-76 0 -114 -34 -114 -88c0 -50 38 -88 118 -88c54 0 84 8 118 38c26 24 34 54 34 110zM960 650h320c0 26 -4 56 -18 84c-22 46 -64 84 -142 84s-121 -38 -142 -84c-13 -28 -18 -58 -18 -84z" />
    <glyph glyph-name="ccedilla" unicode="&#xe7;" horiz-adv-x="954" 
d="M746 22c-56 -24 -112 -34 -186 -34c-186 0 -484 80 -484 550s298 550 484 550c74 0 130 -10 186 -34c68 -29 158 -94 158 -178c0 -42 -16 -76 -46 -108c-22 -24 -62 -44 -100 -44c-36 0 -62 12 -102 38c-29 19 -58 30 -96 30c-44 0 -74 -14 -102 -42
c-38 -40 -54 -110 -54 -212s16 -172 54 -212c28 -28 58 -42 102 -42c38 0 67 11 96 30c40 26 66 38 102 38c38 0 78 -20 100 -44c30 -32 46 -66 46 -108c0 -84 -90 -149 -158 -178zM626 -328l-75 -120c-22 -35 -43 -68 -67 -85c-22 -15 -42 -22 -69 -22c-26 0 -52 8 -76 23
c-48 30 -70 74 -66 118c3 34 13 54 48 110l75 120c22 35 43 68 67 85c22 15 42 22 69 22c26 0 52 -8 76 -23c48 -30 70 -74 66 -118c-3 -34 -13 -54 -48 -110z" />
    <glyph glyph-name="egrave" unicode="&#xe8;" horiz-adv-x="1113" 
d="M861 432h-463c0 -88 68 -170 194 -170c58 0 116 18 162 48c48 32 78 42 114 42c60 0 130 -60 130 -136c0 -52 -30 -98 -102 -148c-78 -54 -184 -80 -308 -80c-238 0 -512 86 -512 550c0 352 200 550 482 550c300 0 470 -214 482 -470c2 -52 -5 -107 -44 -146
s-89 -40 -135 -40zM398 650h320c0 26 -4 56 -18 84c-22 46 -64 84 -142 84s-121 -38 -142 -84c-13 -28 -18 -58 -18 -84zM392 1288l-75 120c-35 56 -45 76 -48 110c-4 44 18 88 66 118c24 15 50 23 76 23c27 0 47 -7 69 -22c24 -17 45 -50 67 -85l75 -120
c35 -56 45 -76 48 -110c4 -44 -18 -88 -66 -118c-24 -15 -50 -23 -76 -23c-27 0 -47 7 -69 22c-24 17 -45 50 -67 85z" />
    <glyph glyph-name="eacute" unicode="&#xe9;" horiz-adv-x="1113" 
d="M861 432h-463c0 -88 68 -170 194 -170c58 0 116 18 162 48c48 32 78 42 114 42c60 0 130 -60 130 -136c0 -52 -30 -98 -102 -148c-78 -54 -184 -80 -308 -80c-238 0 -512 86 -512 550c0 352 200 550 482 550c300 0 470 -214 482 -470c2 -52 -5 -107 -44 -146
s-89 -40 -135 -40zM398 650h320c0 26 -4 56 -18 84c-22 46 -64 84 -142 84s-121 -38 -142 -84c-13 -28 -18 -58 -18 -84zM815 1408l-75 -120c-22 -35 -43 -68 -67 -85c-22 -15 -42 -22 -69 -22c-26 0 -52 8 -76 23c-48 30 -70 74 -66 118c3 34 13 54 48 110l75 120
c22 35 43 68 67 85c22 15 42 22 69 22c26 0 52 -8 76 -23c48 -30 70 -74 66 -118c-3 -34 -13 -54 -48 -110z" />
    <glyph glyph-name="ecircumflex" unicode="&#xea;" horiz-adv-x="1113" 
d="M861 432h-463c0 -88 68 -170 194 -170c58 0 116 18 162 48c48 32 78 42 114 42c60 0 130 -60 130 -136c0 -52 -30 -98 -102 -148c-78 -54 -184 -80 -308 -80c-238 0 -512 86 -512 550c0 352 200 550 482 550c300 0 470 -214 482 -470c2 -52 -5 -107 -44 -146
s-89 -40 -135 -40zM398 650h320c0 26 -4 56 -18 84c-22 46 -64 84 -142 84s-121 -38 -142 -84c-13 -28 -18 -58 -18 -84zM668 1243l-102 102l-102 -102c-43 -43 -60 -55 -88 -65c-41 -14 -86 -2 -122 34s-48 82 -34 123c10 28 22 44 65 87l139 139c34 34 77 76 142 76
s108 -42 142 -76l139 -139c43 -43 55 -59 65 -87c14 -41 2 -87 -34 -123s-81 -48 -122 -34c-28 10 -45 22 -88 65z" />
    <glyph glyph-name="edieresis" unicode="&#xeb;" horiz-adv-x="1113" 
d="M861 432h-463c0 -88 68 -170 194 -170c58 0 116 18 162 48c48 32 78 42 114 42c60 0 130 -60 130 -136c0 -52 -30 -98 -102 -148c-78 -54 -184 -80 -308 -80c-238 0 -512 86 -512 550c0 352 200 550 482 550c300 0 470 -214 482 -470c2 -52 -5 -107 -44 -146
s-89 -40 -135 -40zM398 650h320c0 26 -4 56 -18 84c-22 46 -64 84 -142 84s-121 -38 -142 -84c-13 -28 -18 -58 -18 -84zM332 1200c-88 0 -160 72 -160 160s72 160 160 160s160 -72 160 -160s-72 -160 -160 -160zM800 1200c-88 0 -160 72 -160 160s72 160 160 160
s160 -72 160 -160s-72 -160 -160 -160z" />
    <glyph glyph-name="igrave" unicode="&#xec;" horiz-adv-x="576" 
d="M124 214v606c0 78 2 106 20 142c23 47 78 80 144 80s121 -33 144 -80c18 -36 20 -64 20 -142v-606c0 -78 -2 -106 -20 -142c-23 -47 -78 -80 -144 -80s-121 33 -144 80c-18 36 -20 64 -20 142zM114 1288l-75 120c-35 56 -45 76 -48 110c-4 44 18 88 66 118
c24 15 50 23 76 23c27 0 47 -7 69 -22c24 -17 45 -50 67 -85l75 -120c35 -56 45 -76 48 -110c4 -44 -18 -88 -66 -118c-24 -15 -50 -23 -76 -23c-27 0 -47 7 -69 22c-24 17 -45 50 -67 85z" />
    <glyph glyph-name="iacute" unicode="&#xed;" horiz-adv-x="576" 
d="M124 214v606c0 78 2 106 20 142c23 47 78 80 144 80s121 -33 144 -80c18 -36 20 -64 20 -142v-606c0 -78 -2 -106 -20 -142c-23 -47 -78 -80 -144 -80s-121 33 -144 80c-18 36 -20 64 -20 142zM537 1408l-75 -120c-22 -35 -43 -68 -67 -85c-22 -15 -42 -22 -69 -22
c-26 0 -52 8 -76 23c-48 30 -70 74 -66 118c3 34 13 54 48 110l75 120c22 35 43 68 67 85c22 15 42 22 69 22c26 0 52 -8 76 -23c48 -30 70 -74 66 -118c-3 -34 -13 -54 -48 -110z" />
    <glyph glyph-name="icircumflex" unicode="&#xee;" horiz-adv-x="576" 
d="M124 214v606c0 78 2 106 20 142c23 47 78 80 144 80s121 -33 144 -80c18 -36 20 -64 20 -142v-606c0 -78 -2 -106 -20 -142c-23 -47 -78 -80 -144 -80s-121 33 -144 80c-18 36 -20 64 -20 142zM390 1243l-102 102l-102 -102c-43 -43 -60 -55 -88 -65
c-41 -14 -86 -2 -122 34s-48 82 -34 123c10 28 22 44 65 87l139 139c34 34 77 76 142 76s108 -42 142 -76l139 -139c43 -43 55 -59 65 -87c14 -41 2 -87 -34 -123s-81 -48 -122 -34c-28 10 -45 22 -88 65z" />
    <glyph glyph-name="idieresis" unicode="&#xef;" horiz-adv-x="576" 
d="M69 1200c-88 0 -160 72 -160 160s72 160 160 160s160 -72 160 -160s-72 -160 -160 -160zM507 1200c-88 0 -160 72 -160 160s72 160 160 160s160 -72 160 -160s-72 -160 -160 -160zM124 214v606c0 78 2 106 20 142c23 47 78 80 144 80s121 -33 144 -80
c18 -36 20 -64 20 -142v-606c0 -78 -2 -106 -20 -142c-23 -47 -78 -80 -144 -80s-121 33 -144 80c-18 36 -20 64 -20 142z" />
    <glyph glyph-name="eth" unicode="&#xf0;" horiz-adv-x="1100" 
d="M628 312c38 38 42 108 42 206s-4 168 -42 206c-18 18 -42 28 -78 28s-60 -10 -78 -28c-38 -38 -42 -108 -42 -206s4 -168 42 -206c18 -18 42 -28 78 -28s60 10 78 28zM339 1354h69c22 59 86 100 150 100c31 0 58 -10 80 -27c22 -18 36 -33 58 -73h109c55 0 74 -3 98 -14
c36 -18 57 -54 57 -100s-21 -82 -57 -100c-23 -11 -41 -14 -89 -14h-3l100 -201c54 -110 87 -232 87 -407c0 -204 -26 -304 -114 -398c-62 -66 -166 -132 -334 -132s-272 66 -334 132c-88 94 -114 194 -114 398c0 202 26 304 114 398c30 32 78 68 138 94c44 20 96 34 154 36
l-40 80h-129c-55 0 -74 3 -98 14c-36 18 -57 54 -57 100s21 82 57 100c24 11 43 14 98 14z" />
    <glyph glyph-name="ntilde" unicode="&#xf1;" horiz-adv-x="1158" 
d="M716 214v430c0 124 -88 148 -132 148s-132 -24 -132 -148v-430c0 -78 -2 -106 -20 -142c-23 -47 -78 -80 -144 -80s-121 33 -144 80c-18 36 -20 64 -20 142v648c0 78 2 106 20 142c23 47 78 80 144 80c90 0 130 -50 154 -96c66 66 166 100 252 100c102 0 184 -34 242 -92
c92 -92 108 -194 108 -308v-474c0 -78 -2 -106 -20 -142c-23 -47 -78 -80 -144 -80s-121 33 -144 80c-18 36 -20 64 -20 142zM982 1395c0 -37 -23 -76 -65 -111c-59 -47 -114 -62 -194 -62c-60 0 -97 7 -164 43c-40 22 -65 31 -105 31c-36 0 -58 -9 -87 -29
c-24 -17 -50 -27 -73 -27c-29 0 -59 9 -84 40c-18 22 -24 48 -24 77c0 37 23 76 65 111c59 47 114 62 194 62c60 0 97 -7 164 -43c40 -22 65 -31 105 -31c36 0 58 9 87 29c24 17 50 27 73 27c29 0 59 -9 84 -40c18 -22 24 -48 24 -77z" />
    <glyph glyph-name="ograve" unicode="&#xf2;" horiz-adv-x="1100" 
d="M638 314c42 42 48 118 48 224s-6 182 -48 224c-20 20 -48 30 -88 30s-68 -10 -88 -30c-42 -42 -48 -118 -48 -224s6 -182 48 -224c20 -20 48 -30 88 -30s68 10 88 30zM896 126c-64 -68 -172 -138 -346 -138s-282 70 -346 138c-90 98 -118 200 -118 412
c0 210 28 314 118 412c64 68 172 138 346 138s282 -70 346 -138c90 -98 118 -202 118 -412c0 -212 -28 -314 -118 -412zM376 1288l-75 120c-35 56 -45 76 -48 110c-4 44 18 88 66 118c24 15 50 23 76 23c27 0 47 -7 69 -22c24 -17 45 -50 67 -85l75 -120
c35 -56 45 -76 48 -110c4 -44 -18 -88 -66 -118c-24 -15 -50 -23 -76 -23c-27 0 -47 7 -69 22c-24 17 -45 50 -67 85z" />
    <glyph glyph-name="oacute" unicode="&#xf3;" horiz-adv-x="1100" 
d="M638 314c42 42 48 118 48 224s-6 182 -48 224c-20 20 -48 30 -88 30s-68 -10 -88 -30c-42 -42 -48 -118 -48 -224s6 -182 48 -224c20 -20 48 -30 88 -30s68 10 88 30zM896 126c-64 -68 -172 -138 -346 -138s-282 70 -346 138c-90 98 -118 200 -118 412
c0 210 28 314 118 412c64 68 172 138 346 138s282 -70 346 -138c90 -98 118 -202 118 -412c0 -212 -28 -314 -118 -412zM799 1408l-75 -120c-22 -35 -43 -68 -67 -85c-22 -15 -42 -22 -69 -22c-26 0 -52 8 -76 23c-48 30 -70 74 -66 118c3 34 13 54 48 110l75 120
c22 35 43 68 67 85c22 15 42 22 69 22c26 0 52 -8 76 -23c48 -30 70 -74 66 -118c-3 -34 -13 -54 -48 -110z" />
    <glyph glyph-name="ocircumflex" unicode="&#xf4;" horiz-adv-x="1100" 
d="M638 314c42 42 48 118 48 224s-6 182 -48 224c-20 20 -48 30 -88 30s-68 -10 -88 -30c-42 -42 -48 -118 -48 -224s6 -182 48 -224c20 -20 48 -30 88 -30s68 10 88 30zM896 126c-64 -68 -172 -138 -346 -138s-282 70 -346 138c-90 98 -118 200 -118 412
c0 210 28 314 118 412c64 68 172 138 346 138s282 -70 346 -138c90 -98 118 -202 118 -412c0 -212 -28 -314 -118 -412zM652 1243l-102 102l-102 -102c-43 -43 -60 -55 -88 -65c-41 -14 -86 -2 -122 34s-48 82 -34 123c10 28 22 44 65 87l139 139c34 34 77 76 142 76
s108 -42 142 -76l139 -139c43 -43 55 -59 65 -87c14 -41 2 -87 -34 -123s-81 -48 -122 -34c-28 10 -45 22 -88 65z" />
    <glyph glyph-name="otilde" unicode="&#xf5;" horiz-adv-x="1100" 
d="M638 314c42 42 48 118 48 224s-6 182 -48 224c-20 20 -48 30 -88 30s-68 -10 -88 -30c-42 -42 -48 -118 -48 -224s6 -182 48 -224c20 -20 48 -30 88 -30s68 10 88 30zM896 126c-64 -68 -172 -138 -346 -138s-282 70 -346 138c-90 98 -118 200 -118 412
c0 210 28 314 118 412c64 68 172 138 346 138s282 -70 346 -138c90 -98 118 -202 118 -412c0 -212 -28 -314 -118 -412zM948 1395c0 -37 -23 -76 -65 -111c-59 -47 -114 -62 -194 -62c-60 0 -97 7 -164 43c-40 22 -65 31 -105 31c-36 0 -58 -9 -87 -29
c-24 -17 -50 -27 -73 -27c-29 0 -59 9 -84 40c-18 22 -24 48 -24 77c0 37 23 76 65 111c59 47 114 62 194 62c60 0 97 -7 164 -43c40 -22 65 -31 105 -31c36 0 58 9 87 29c24 17 50 27 73 27c29 0 59 -9 84 -40c18 -22 24 -48 24 -77z" />
    <glyph glyph-name="odieresis" unicode="&#xf6;" horiz-adv-x="1100" 
d="M638 314c42 42 48 118 48 224s-6 182 -48 224c-20 20 -48 30 -88 30s-68 -10 -88 -30c-42 -42 -48 -118 -48 -224s6 -182 48 -224c20 -20 48 -30 88 -30s68 10 88 30zM896 126c-64 -68 -172 -138 -346 -138s-282 70 -346 138c-90 98 -118 200 -118 412
c0 210 28 314 118 412c64 68 172 138 346 138s282 -70 346 -138c90 -98 118 -202 118 -412c0 -212 -28 -314 -118 -412zM316 1200c-88 0 -160 72 -160 160s72 160 160 160s160 -72 160 -160s-72 -160 -160 -160zM784 1200c-88 0 -160 72 -160 160s72 160 160 160
s160 -72 160 -160s-72 -160 -160 -160z" />
    <glyph glyph-name="divide" unicode="&#xf7;" 
d="M822 442h-532c-69 0 -96 2 -128 18c-42 21 -72 70 -72 130s30 109 72 130c32 16 59 18 128 18h532c69 0 96 -2 128 -18c42 -21 72 -70 72 -130s-30 -109 -72 -130c-32 -16 -59 -18 -128 -18zM556 -67c-116 0 -210 94 -210 210s94 210 210 210s210 -94 210 -210
s-94 -210 -210 -210zM556 825c-116 0 -210 94 -210 210s94 210 210 210s210 -94 210 -210s-94 -210 -210 -210z" />
    <glyph glyph-name="oslash" unicode="&#xf8;" horiz-adv-x="1100" 
d="M732 1058l12 21c27 45 41 62 63 77c33 22 74 21 114 -3s59 -59 56 -100c-2 -26 -11 -46 -38 -91l-22 -36c73 -91 97 -196 97 -388c0 -212 -28 -314 -118 -412c-64 -68 -172 -138 -346 -138c-71 0 -131 12 -182 30l-12 -21c-27 -45 -41 -62 -63 -77
c-33 -22 -74 -21 -114 3s-59 59 -56 100c2 26 11 46 38 91l22 36c-73 91 -97 193 -97 388c0 210 28 314 118 412c64 68 172 138 346 138c71 0 132 -12 182 -30zM417 437l200 340c-17 10 -39 15 -67 15c-40 0 -68 -10 -88 -30c-42 -42 -48 -118 -48 -224c0 -38 0 -71 3 -101z
M682 639l-200 -341c18 -10 40 -14 68 -14c40 0 68 10 88 30c42 42 48 118 48 224c0 37 -1 71 -4 101z" />
    <glyph glyph-name="ugrave" unicode="&#xf9;" horiz-adv-x="1158" 
d="M706 432v430c0 78 2 106 20 142c23 47 78 80 144 80s121 -33 144 -80c18 -36 20 -64 20 -142v-648c0 -78 -2 -106 -20 -142c-23 -47 -78 -80 -144 -80c-90 0 -130 50 -154 96c-66 -66 -166 -100 -252 -100c-102 0 -184 34 -242 92c-92 92 -108 194 -108 308v474
c0 78 2 106 20 142c23 47 78 80 144 80s121 -33 144 -80c18 -36 20 -64 20 -142v-430c0 -124 88 -148 132 -148s132 24 132 148zM400 1288l-75 120c-35 56 -45 76 -48 110c-4 44 18 88 66 118c24 15 50 23 76 23c27 0 47 -7 69 -22c24 -17 45 -50 67 -85l75 -120
c35 -56 45 -76 48 -110c4 -44 -18 -88 -66 -118c-24 -15 -50 -23 -76 -23c-27 0 -47 7 -69 22c-24 17 -45 50 -67 85z" />
    <glyph glyph-name="uacute" unicode="&#xfa;" horiz-adv-x="1158" 
d="M706 432v430c0 78 2 106 20 142c23 47 78 80 144 80s121 -33 144 -80c18 -36 20 -64 20 -142v-648c0 -78 -2 -106 -20 -142c-23 -47 -78 -80 -144 -80c-90 0 -130 50 -154 96c-66 -66 -166 -100 -252 -100c-102 0 -184 34 -242 92c-92 92 -108 194 -108 308v474
c0 78 2 106 20 142c23 47 78 80 144 80s121 -33 144 -80c18 -36 20 -64 20 -142v-430c0 -124 88 -148 132 -148s132 24 132 148zM823 1408l-75 -120c-22 -35 -43 -68 -67 -85c-22 -15 -42 -22 -69 -22c-26 0 -52 8 -76 23c-48 30 -70 74 -66 118c3 34 13 54 48 110l75 120
c22 35 43 68 67 85c22 15 42 22 69 22c26 0 52 -8 76 -23c48 -30 70 -74 66 -118c-3 -34 -13 -54 -48 -110z" />
    <glyph glyph-name="ucircumflex" unicode="&#xfb;" horiz-adv-x="1158" 
d="M706 432v430c0 78 2 106 20 142c23 47 78 80 144 80s121 -33 144 -80c18 -36 20 -64 20 -142v-648c0 -78 -2 -106 -20 -142c-23 -47 -78 -80 -144 -80c-90 0 -130 50 -154 96c-66 -66 -166 -100 -252 -100c-102 0 -184 34 -242 92c-92 92 -108 194 -108 308v474
c0 78 2 106 20 142c23 47 78 80 144 80s121 -33 144 -80c18 -36 20 -64 20 -142v-430c0 -124 88 -148 132 -148s132 24 132 148zM676 1243l-102 102l-102 -102c-43 -43 -60 -55 -88 -65c-41 -14 -86 -2 -122 34s-48 82 -34 123c10 28 22 44 65 87l139 139
c34 34 77 76 142 76s108 -42 142 -76l139 -139c43 -43 55 -59 65 -87c14 -41 2 -87 -34 -123s-81 -48 -122 -34c-28 10 -45 22 -88 65z" />
    <glyph glyph-name="udieresis" unicode="&#xfc;" horiz-adv-x="1158" 
d="M706 432v430c0 78 2 106 20 142c23 47 78 80 144 80s121 -33 144 -80c18 -36 20 -64 20 -142v-648c0 -78 -2 -106 -20 -142c-23 -47 -78 -80 -144 -80c-90 0 -130 50 -154 96c-66 -66 -166 -100 -252 -100c-102 0 -184 34 -242 92c-92 92 -108 194 -108 308v474
c0 78 2 106 20 142c23 47 78 80 144 80s121 -33 144 -80c18 -36 20 -64 20 -142v-430c0 -124 88 -148 132 -148s132 24 132 148zM340 1200c-88 0 -160 72 -160 160s72 160 160 160s160 -72 160 -160s-72 -160 -160 -160zM808 1200c-88 0 -160 72 -160 160s72 160 160 160
s160 -72 160 -160s-72 -160 -160 -160z" />
    <glyph glyph-name="yacute" unicode="&#xfd;" horiz-adv-x="946" 
d="M288 12l23 68l-254 751c-17 51 -34 105 -19 150c19 58 81 103 154 103c104 0 133 -81 156 -156l125 -414l125 414c23 75 52 156 156 156c73 0 135 -45 154 -103c15 -45 -2 -99 -19 -150l-331 -963c-21 -62 -51 -107 -84 -142c-64 -66 -146 -90 -234 -90
c-46 0 -115 5 -150 40c-26 26 -44 60 -44 108c0 52 16 90 48 116c30 24 50 30 100 30c36 0 72 16 94 82zM722 1408l-75 -120c-22 -35 -43 -68 -67 -85c-22 -15 -42 -22 -69 -22c-26 0 -52 8 -76 23c-48 30 -70 74 -66 118c3 34 13 54 48 110l75 120c22 35 43 68 67 85
c22 15 42 22 69 22c26 0 52 -8 76 -23c48 -30 70 -74 66 -118c-3 -34 -13 -54 -48 -110z" />
    <glyph glyph-name="thorn" unicode="&#xfe;" horiz-adv-x="1138" 
d="M124 -134v1344c0 78 2 106 20 142c23 47 78 80 144 80s121 -33 144 -80c18 -36 20 -64 20 -142v-212c60 60 134 90 240 90c104 0 196 -34 258 -98c100 -104 102 -266 102 -452s-2 -348 -102 -452c-62 -64 -154 -98 -258 -98c-106 0 -180 30 -240 90v-212
c0 -78 -2 -106 -20 -142c-23 -47 -78 -80 -144 -80s-121 33 -144 80c-18 36 -20 64 -20 142zM588 284c122 0 136 98 136 254s-14 254 -136 254s-136 -98 -136 -254s14 -254 136 -254z" />
    <glyph glyph-name="ydieresis" unicode="&#xff;" horiz-adv-x="946" 
d="M288 12l23 68l-254 751c-17 51 -34 105 -19 150c19 58 81 103 154 103c104 0 133 -81 156 -156l125 -414l125 414c23 75 52 156 156 156c73 0 135 -45 154 -103c15 -45 -2 -99 -19 -150l-331 -963c-21 -62 -51 -107 -84 -142c-64 -66 -146 -90 -234 -90
c-46 0 -115 5 -150 40c-26 26 -44 60 -44 108c0 52 16 90 48 116c30 24 50 30 100 30c36 0 72 16 94 82zM239 1200c-88 0 -160 72 -160 160s72 160 160 160s160 -72 160 -160s-72 -160 -160 -160zM707 1200c-88 0 -160 72 -160 160s72 160 160 160s160 -72 160 -160
s-72 -160 -160 -160z" />
    <glyph glyph-name="Amacron" unicode="&#x100;" horiz-adv-x="1294" 
d="M70 268l380 1009c25 65 44 93 73 116c35 28 72 39 124 39s89 -11 124 -39c29 -23 48 -51 73 -116l380 -1009c33 -88 55 -157 -12 -224c-31 -31 -78 -52 -126 -52c-39 0 -74 13 -99 36c-30 27 -43 54 -69 126l-21 58h-500l-21 -58c-26 -72 -39 -99 -69 -126
c-25 -23 -60 -36 -99 -36c-48 0 -95 21 -126 52c-67 67 -45 136 -12 224zM791 504l-144 396l-144 -396h288zM811 1604h-328c-61 0 -81 3 -108 16c-39 19 -62 59 -62 110s23 91 62 110c27 13 47 16 108 16h328c61 0 81 -3 108 -16c39 -19 62 -59 62 -110s-23 -91 -62 -110
c-27 -13 -47 -16 -108 -16z" />
    <glyph glyph-name="amacron" unicode="&#x101;" horiz-adv-x="1076" 
d="M962 698v-484c0 -78 -2 -106 -20 -142c-23 -47 -78 -80 -144 -80c-90 0 -130 50 -154 96c-75 -70 -130 -98 -242 -98c-108 0 -198 36 -258 96c-62 62 -94 152 -94 252c0 162 110 312 372 312h212v28c0 98 -50 134 -152 134c-38 0 -96 -14 -134 -30
c-43 -18 -74 -26 -100 -26c-32 0 -68 14 -92 44c-27 33 -36 62 -36 98c0 70 58 113 100 132c85 38 164 58 268 58c308 0 474 -128 474 -390zM634 404v28h-156c-76 0 -114 -34 -114 -88c0 -50 38 -88 118 -88c54 0 84 8 118 38c26 24 34 54 34 110zM692 1258h-328
c-61 0 -81 3 -108 16c-39 19 -62 59 -62 110s23 91 62 110c27 13 47 16 108 16h328c61 0 81 -3 108 -16c39 -19 62 -59 62 -110s-23 -91 -62 -110c-27 -13 -47 -16 -108 -16z" />
    <glyph glyph-name="Abreve" unicode="&#x102;" horiz-adv-x="1294" 
d="M70 268l380 1009c25 65 44 93 73 116c35 28 72 39 124 39s89 -11 124 -39c29 -23 48 -51 73 -116l380 -1009c33 -88 55 -157 -12 -224c-31 -31 -78 -52 -126 -52c-39 0 -74 13 -99 36c-30 27 -43 54 -69 126l-21 58h-500l-21 -58c-26 -72 -39 -99 -69 -126
c-25 -23 -60 -36 -99 -36c-48 0 -95 21 -126 52c-67 67 -45 136 -12 224zM791 504l-144 396l-144 -396h288zM915 1643c-82 -69 -154 -92 -268 -92s-186 23 -268 92c-51 42 -69 78 -69 117c0 25 9 53 30 78c26 30 55 43 85 43c22 0 47 -10 71 -27c50 -37 100 -55 151 -55
s101 18 151 55c24 17 49 27 71 27c30 0 59 -13 85 -43c21 -25 30 -53 30 -78c0 -39 -18 -75 -69 -117z" />
    <glyph glyph-name="abreve" unicode="&#x103;" horiz-adv-x="1076" 
d="M962 698v-484c0 -78 -2 -106 -20 -142c-23 -47 -78 -80 -144 -80c-90 0 -130 50 -154 96c-75 -70 -130 -98 -242 -98c-108 0 -198 36 -258 96c-62 62 -94 152 -94 252c0 162 110 312 372 312h212v28c0 98 -50 134 -152 134c-38 0 -96 -14 -134 -30
c-43 -18 -74 -26 -100 -26c-32 0 -68 14 -92 44c-27 33 -36 62 -36 98c0 70 58 113 100 132c85 38 164 58 268 58c308 0 474 -128 474 -390zM634 404v28h-156c-76 0 -114 -34 -114 -88c0 -50 38 -88 118 -88c54 0 84 8 118 38c26 24 34 54 34 110zM796 1297
c-82 -69 -154 -92 -268 -92s-186 23 -268 92c-51 42 -69 78 -69 117c0 25 9 53 30 78c26 30 55 43 85 43c22 0 47 -10 71 -27c50 -37 100 -55 151 -55s101 18 151 55c24 17 49 27 71 27c30 0 59 -13 85 -43c21 -25 30 -53 30 -78c0 -39 -18 -75 -69 -117z" />
    <glyph glyph-name="Aogonek" unicode="&#x104;" horiz-adv-x="1294" 
d="M70 268l380 1009c25 65 44 93 73 116c35 28 72 39 124 39s89 -11 124 -39c29 -23 48 -51 73 -116l380 -1009c33 -88 55 -157 -12 -224c-31 -31 -78 -52 -126 -52c-39 0 -74 13 -99 36c-30 27 -43 54 -69 126l-21 58h-500l-21 -58c-26 -72 -39 -99 -69 -126
c-25 -23 -60 -36 -99 -36c-48 0 -95 21 -126 52c-67 67 -45 136 -12 224zM791 504l-144 396l-144 -396h288zM1196 -328l-75 -120c-22 -35 -43 -68 -67 -85c-22 -15 -42 -22 -69 -22c-26 0 -52 8 -76 23c-48 30 -70 74 -66 118c3 34 13 54 48 110l75 120c22 35 43 68 67 85
c22 15 42 22 69 22c26 0 52 -8 76 -23c48 -30 70 -74 66 -118c-3 -34 -13 -54 -48 -110z" />
    <glyph glyph-name="aogonek" unicode="&#x105;" horiz-adv-x="1076" 
d="M962 698v-484c0 -78 -2 -106 -20 -142c-23 -47 -78 -80 -144 -80c-90 0 -130 50 -154 96c-75 -70 -130 -98 -242 -98c-108 0 -198 36 -258 96c-62 62 -94 152 -94 252c0 162 110 312 372 312h212v28c0 98 -50 134 -152 134c-38 0 -96 -14 -134 -30
c-43 -18 -74 -26 -100 -26c-32 0 -68 14 -92 44c-27 33 -36 62 -36 98c0 70 58 113 100 132c85 38 164 58 268 58c308 0 474 -128 474 -390zM634 404v28h-156c-76 0 -114 -34 -114 -88c0 -50 38 -88 118 -88c54 0 84 8 118 38c26 24 34 54 34 110zM844 -328l-75 -120
c-22 -35 -43 -68 -67 -85c-22 -15 -42 -22 -69 -22c-26 0 -52 8 -76 23c-48 30 -70 74 -66 118c3 34 13 54 48 110l75 120c22 35 43 68 67 85c22 15 42 22 69 22c26 0 52 -8 76 -23c48 -30 70 -74 66 -118c-3 -34 -13 -54 -48 -110z" />
    <glyph glyph-name="Cacute" unicode="&#x106;" horiz-adv-x="1209" 
d="M96 712c0 240 2 423 147 568c102 102 223 156 393 156c174 0 271 -29 359 -108c108 -97 135 -202 135 -264s-17 -101 -49 -133s-75 -49 -121 -49c-39 0 -70 10 -94 27c-38 26 -63 64 -93 117c-40 71 -82 98 -145 98c-60 0 -100 -28 -126 -62c-41 -54 -54 -116 -54 -350
s13 -296 54 -350c26 -34 66 -62 126 -62c63 0 105 27 145 98c30 53 55 91 93 117c24 17 55 27 94 27c46 0 89 -17 121 -49s49 -71 49 -133s-27 -167 -135 -264c-88 -79 -185 -108 -359 -108c-170 0 -291 54 -393 156c-145 145 -147 328 -147 568zM885 1754l-75 -120
c-22 -35 -43 -68 -67 -85c-22 -15 -42 -22 -69 -22c-26 0 -52 8 -76 23c-48 30 -70 74 -66 118c3 34 13 54 48 110l75 120c22 35 43 68 67 85c22 15 42 22 69 22c26 0 52 -8 76 -23c48 -30 70 -74 66 -118c-3 -34 -13 -54 -48 -110z" />
    <glyph glyph-name="cacute" unicode="&#x107;" horiz-adv-x="954" 
d="M746 22c-56 -24 -112 -34 -186 -34c-186 0 -484 80 -484 550s298 550 484 550c74 0 130 -10 186 -34c68 -29 158 -94 158 -178c0 -42 -16 -76 -46 -108c-22 -24 -62 -44 -100 -44c-36 0 -62 12 -102 38c-29 19 -58 30 -96 30c-44 0 -74 -14 -102 -42
c-38 -40 -54 -110 -54 -212s16 -172 54 -212c28 -28 58 -42 102 -42c38 0 67 11 96 30c40 26 66 38 102 38c38 0 78 -20 100 -44c30 -32 46 -66 46 -108c0 -84 -90 -149 -158 -178zM809 1408l-75 -120c-22 -35 -43 -68 -67 -85c-22 -15 -42 -22 -69 -22c-26 0 -52 8 -76 23
c-48 30 -70 74 -66 118c3 34 13 54 48 110l75 120c22 35 43 68 67 85c22 15 42 22 69 22c26 0 52 -8 76 -23c48 -30 70 -74 66 -118c-3 -34 -13 -54 -48 -110z" />
    <glyph glyph-name="Ccircumflex" unicode="&#x108;" horiz-adv-x="1209" 
d="M96 712c0 240 2 423 147 568c102 102 223 156 393 156c174 0 271 -29 359 -108c108 -97 135 -202 135 -264s-17 -101 -49 -133s-75 -49 -121 -49c-39 0 -70 10 -94 27c-38 26 -63 64 -93 117c-40 71 -82 98 -145 98c-60 0 -100 -28 -126 -62c-41 -54 -54 -116 -54 -350
s13 -296 54 -350c26 -34 66 -62 126 -62c63 0 105 27 145 98c30 53 55 91 93 117c24 17 55 27 94 27c46 0 89 -17 121 -49s49 -71 49 -133s-27 -167 -135 -264c-88 -79 -185 -108 -359 -108c-170 0 -291 54 -393 156c-145 145 -147 328 -147 568zM738 1589l-102 102
l-102 -102c-43 -43 -60 -55 -88 -65c-41 -14 -86 -2 -122 34s-48 82 -34 123c10 28 22 44 65 87l139 139c34 34 77 76 142 76s108 -42 142 -76l139 -139c43 -43 55 -59 65 -87c14 -41 2 -87 -34 -123s-81 -48 -122 -34c-28 10 -45 22 -88 65z" />
    <glyph glyph-name="ccircumflex" unicode="&#x109;" horiz-adv-x="954" 
d="M746 22c-56 -24 -112 -34 -186 -34c-186 0 -484 80 -484 550s298 550 484 550c74 0 130 -10 186 -34c68 -29 158 -94 158 -178c0 -42 -16 -76 -46 -108c-22 -24 -62 -44 -100 -44c-36 0 -62 12 -102 38c-29 19 -58 30 -96 30c-44 0 -74 -14 -102 -42
c-38 -40 -54 -110 -54 -212s16 -172 54 -212c28 -28 58 -42 102 -42c38 0 67 11 96 30c40 26 66 38 102 38c38 0 78 -20 100 -44c30 -32 46 -66 46 -108c0 -84 -90 -149 -158 -178zM662 1243l-102 102l-102 -102c-43 -43 -60 -55 -88 -65c-41 -14 -86 -2 -122 34
s-48 82 -34 123c10 28 22 44 65 87l139 139c34 34 77 76 142 76s108 -42 142 -76l139 -139c43 -43 55 -59 65 -87c14 -41 2 -87 -34 -123s-81 -48 -122 -34c-28 10 -45 22 -88 65z" />
    <glyph glyph-name="Cdotaccent" unicode="&#x10a;" horiz-adv-x="1209" 
d="M96 712c0 240 2 423 147 568c102 102 223 156 393 156c174 0 271 -29 359 -108c108 -97 135 -202 135 -264s-17 -101 -49 -133s-75 -49 -121 -49c-39 0 -70 10 -94 27c-38 26 -63 64 -93 117c-40 71 -82 98 -145 98c-60 0 -100 -28 -126 -62c-41 -54 -54 -116 -54 -350
s13 -296 54 -350c26 -34 66 -62 126 -62c63 0 105 27 145 98c30 53 55 91 93 117c24 17 55 27 94 27c46 0 89 -17 121 -49s49 -71 49 -133s-27 -167 -135 -264c-88 -79 -185 -108 -359 -108c-170 0 -291 54 -393 156c-145 145 -147 328 -147 568zM636 1550
c-88 0 -160 72 -160 160s72 160 160 160s160 -72 160 -160s-72 -160 -160 -160z" />
    <glyph glyph-name="cdotaccent" unicode="&#x10b;" horiz-adv-x="954" 
d="M746 22c-56 -24 -112 -34 -186 -34c-186 0 -484 80 -484 550s298 550 484 550c74 0 130 -10 186 -34c68 -29 158 -94 158 -178c0 -42 -16 -76 -46 -108c-22 -24 -62 -44 -100 -44c-36 0 -62 12 -102 38c-29 19 -58 30 -96 30c-44 0 -74 -14 -102 -42
c-38 -40 -54 -110 -54 -212s16 -172 54 -212c28 -28 58 -42 102 -42c38 0 67 11 96 30c40 26 66 38 102 38c38 0 78 -20 100 -44c30 -32 46 -66 46 -108c0 -84 -90 -149 -158 -178zM560 1204c-88 0 -160 72 -160 160s72 160 160 160s160 -72 160 -160s-72 -160 -160 -160z
" />
    <glyph glyph-name="Ccaron" unicode="&#x10c;" horiz-adv-x="1209" 
d="M96 712c0 240 2 423 147 568c102 102 223 156 393 156c174 0 271 -29 359 -108c108 -97 135 -202 135 -264s-17 -101 -49 -133s-75 -49 -121 -49c-39 0 -70 10 -94 27c-38 26 -63 64 -93 117c-40 71 -82 98 -145 98c-60 0 -100 -28 -126 -62c-41 -54 -54 -116 -54 -350
s13 -296 54 -350c26 -34 66 -62 126 -62c63 0 105 27 145 98c30 53 55 91 93 117c24 17 55 27 94 27c46 0 89 -17 121 -49s49 -71 49 -133s-27 -167 -135 -264c-88 -79 -185 -108 -359 -108c-170 0 -291 54 -393 156c-145 145 -147 328 -147 568zM917 1725l-139 -139
c-34 -34 -77 -76 -142 -76s-108 42 -142 76l-139 139c-43 43 -55 59 -65 87c-14 41 -2 87 34 123s81 48 122 34c28 -10 45 -22 88 -65l102 -102l102 102c43 43 60 55 88 65c41 14 86 2 122 -34s48 -82 34 -123c-10 -28 -22 -44 -65 -87z" />
    <glyph glyph-name="ccaron" unicode="&#x10d;" horiz-adv-x="954" 
d="M746 22c-56 -24 -112 -34 -186 -34c-186 0 -484 80 -484 550s298 550 484 550c74 0 130 -10 186 -34c68 -29 158 -94 158 -178c0 -42 -16 -76 -46 -108c-22 -24 -62 -44 -100 -44c-36 0 -62 12 -102 38c-29 19 -58 30 -96 30c-44 0 -74 -14 -102 -42
c-38 -40 -54 -110 -54 -212s16 -172 54 -212c28 -28 58 -42 102 -42c38 0 67 11 96 30c40 26 66 38 102 38c38 0 78 -20 100 -44c30 -32 46 -66 46 -108c0 -84 -90 -149 -158 -178zM841 1379l-139 -139c-34 -34 -77 -76 -142 -76s-108 42 -142 76l-139 139
c-43 43 -55 59 -65 87c-14 41 -2 87 34 123s81 48 122 34c28 -10 45 -22 88 -65l102 -102l102 102c43 43 60 55 88 65c41 14 86 2 122 -34s48 -82 34 -123c-10 -28 -22 -44 -65 -87z" />
    <glyph glyph-name="Dcaron" unicode="&#x10e;" horiz-adv-x="1302" 
d="M672 0h-315c-52 0 -117 0 -166 49s-49 114 -49 166v994c0 52 0 117 49 166s114 49 166 49h315c214 0 364 -82 462 -240c70 -114 70 -226 70 -472s0 -358 -70 -472c-98 -158 -248 -240 -462 -240zM494 312h154c88 0 136 32 168 80c28 40 38 78 38 320
c0 240 -10 280 -38 320c-32 48 -80 80 -168 80h-154v-800zM931 1725l-139 -139c-34 -34 -77 -76 -142 -76s-108 42 -142 76l-139 139c-43 43 -55 59 -65 87c-14 41 -2 87 34 123s81 48 122 34c28 -10 45 -22 88 -65l102 -102l102 102c43 43 60 55 88 65c41 14 86 2 122 -34
s48 -82 34 -123c-10 -28 -22 -44 -65 -87z" />
    <glyph glyph-name="dcaron" unicode="&#x10f;" horiz-adv-x="1138" 
d="M1431 1414l-49 -147c-20 -60 -29 -83 -54 -108c-19 -19 -49 -32 -83 -32c-65 0 -125 40 -139 96c-11 44 2 82 18 130l49 147c20 60 29 83 54 108c19 19 49 32 83 32c65 0 125 -40 139 -96c11 -44 -2 -82 -18 -130zM1014 214c0 -78 -2 -106 -20 -142
c-23 -47 -78 -80 -144 -80c-90 0 -130 50 -154 96c-66 -66 -136 -100 -248 -100c-104 0 -198 34 -260 98c-100 104 -102 266 -102 452s2 348 102 452c62 64 154 98 258 98c106 0 180 -30 240 -90v212c0 78 2 106 20 142c23 47 78 80 144 80s121 -33 144 -80
c18 -36 20 -64 20 -142v-996zM550 284c122 0 136 98 136 254s-14 254 -136 254s-136 -98 -136 -254s14 -254 136 -254z" />
    <glyph glyph-name="Dcroat" unicode="&#x110;" horiz-adv-x="1364" 
d="M734 0h-315c-52 0 -117 0 -166 49s-49 114 -49 166v367h-2c-64 0 -88 2 -119 18c-39 20 -65 63 -65 118s26 98 65 118c31 16 55 18 119 18h2v355c0 52 0 117 49 166s114 49 166 49h315c214 0 364 -82 462 -240c70 -114 70 -226 70 -472s0 -358 -70 -472
c-98 -158 -248 -240 -462 -240zM556 312h154c88 0 136 32 168 80c28 40 38 78 38 320c0 240 -10 280 -38 320c-32 48 -80 80 -168 80h-154v-258h30c64 0 88 -2 119 -18c39 -20 65 -63 65 -118s-26 -98 -65 -118c-31 -16 -55 -18 -119 -18h-30v-270z" />
    <glyph glyph-name="dcroat" unicode="&#x111;" horiz-adv-x="1138" 
d="M448 -12c-104 0 -198 34 -260 98c-100 104 -102 266 -102 452s2 348 102 452c62 64 154 98 258 98c106 0 180 -30 240 -90v102h-13c-61 0 -81 3 -108 16c-39 19 -62 59 -62 110s23 91 62 110c27 13 47 16 108 16h33c23 47 78 80 144 80s121 -33 144 -80
c41 -1 59 -5 82 -16c39 -19 62 -59 62 -110s-23 -91 -62 -110c-19 -9 -34 -13 -62 -15v-887c0 -78 -2 -106 -20 -142c-23 -47 -78 -80 -144 -80c-48 0 -82 14 -107 35c-21 18 -34 37 -45 57l-2 4c-66 -66 -136 -100 -248 -100zM550 284c122 0 136 98 136 254
s-14 254 -136 254s-136 -98 -136 -254s14 -254 136 -254z" />
    <glyph glyph-name="Emacron" unicode="&#x112;" horiz-adv-x="1212" 
d="M912 0h-555c-52 0 -117 0 -166 49s-49 114 -49 166v994c0 52 0 117 49 166s114 49 166 49h555c72 0 99 -2 134 -19c44 -21 76 -75 76 -137s-32 -116 -76 -137c-35 -17 -62 -19 -134 -19h-418v-238h328c72 0 99 -2 134 -19c44 -21 76 -75 76 -137s-32 -116 -76 -137
c-35 -17 -62 -19 -134 -19h-328v-250h418c72 0 99 -2 134 -19c44 -21 76 -75 76 -137s-32 -116 -76 -137c-35 -17 -62 -19 -134 -19zM794 1604h-328c-61 0 -81 3 -108 16c-39 19 -62 59 -62 110s23 91 62 110c27 13 47 16 108 16h328c61 0 81 -3 108 -16
c39 -19 62 -59 62 -110s-23 -91 -62 -110c-27 -13 -47 -16 -108 -16z" />
    <glyph glyph-name="emacron" unicode="&#x113;" horiz-adv-x="1113" 
d="M861 432h-463c0 -88 68 -170 194 -170c58 0 116 18 162 48c48 32 78 42 114 42c60 0 130 -60 130 -136c0 -52 -30 -98 -102 -148c-78 -54 -184 -80 -308 -80c-238 0 -512 86 -512 550c0 352 200 550 482 550c300 0 470 -214 482 -470c2 -52 -5 -107 -44 -146
s-89 -40 -135 -40zM398 650h320c0 26 -4 56 -18 84c-22 46 -64 84 -142 84s-121 -38 -142 -84c-13 -28 -18 -58 -18 -84zM730 1258h-328c-61 0 -81 3 -108 16c-39 19 -62 59 -62 110s23 91 62 110c27 13 47 16 108 16h328c61 0 81 -3 108 -16c39 -19 62 -59 62 -110
s-23 -91 -62 -110c-27 -13 -47 -16 -108 -16z" />
    <glyph glyph-name="Ebreve" unicode="&#x114;" horiz-adv-x="1212" 
d="M912 0h-555c-52 0 -117 0 -166 49s-49 114 -49 166v994c0 52 0 117 49 166s114 49 166 49h555c72 0 99 -2 134 -19c44 -21 76 -75 76 -137s-32 -116 -76 -137c-35 -17 -62 -19 -134 -19h-418v-238h328c72 0 99 -2 134 -19c44 -21 76 -75 76 -137s-32 -116 -76 -137
c-35 -17 -62 -19 -134 -19h-328v-250h418c72 0 99 -2 134 -19c44 -21 76 -75 76 -137s-32 -116 -76 -137c-35 -17 -62 -19 -134 -19zM898 1643c-82 -69 -154 -92 -268 -92s-186 23 -268 92c-51 42 -69 78 -69 117c0 25 9 53 30 78c26 30 55 43 85 43c22 0 47 -10 71 -27
c50 -37 100 -55 151 -55s101 18 151 55c24 17 49 27 71 27c30 0 59 -13 85 -43c21 -25 30 -53 30 -78c0 -39 -18 -75 -69 -117z" />
    <glyph glyph-name="ebreve" unicode="&#x115;" horiz-adv-x="1113" 
d="M861 432h-463c0 -88 68 -170 194 -170c58 0 116 18 162 48c48 32 78 42 114 42c60 0 130 -60 130 -136c0 -52 -30 -98 -102 -148c-78 -54 -184 -80 -308 -80c-238 0 -512 86 -512 550c0 352 200 550 482 550c300 0 470 -214 482 -470c2 -52 -5 -107 -44 -146
s-89 -40 -135 -40zM398 650h320c0 26 -4 56 -18 84c-22 46 -64 84 -142 84s-121 -38 -142 -84c-13 -28 -18 -58 -18 -84zM834 1297c-82 -69 -154 -92 -268 -92s-186 23 -268 92c-51 42 -69 78 -69 117c0 25 9 53 30 78c26 30 55 43 85 43c22 0 47 -10 71 -27
c50 -37 100 -55 151 -55s101 18 151 55c24 17 49 27 71 27c30 0 59 -13 85 -43c21 -25 30 -53 30 -78c0 -39 -18 -75 -69 -117z" />
    <glyph glyph-name="Edotaccent" unicode="&#x116;" horiz-adv-x="1212" 
d="M912 0h-555c-52 0 -117 0 -166 49s-49 114 -49 166v994c0 52 0 117 49 166s114 49 166 49h555c72 0 99 -2 134 -19c44 -21 76 -75 76 -137s-32 -116 -76 -137c-35 -17 -62 -19 -134 -19h-418v-238h328c72 0 99 -2 134 -19c44 -21 76 -75 76 -137s-32 -116 -76 -137
c-35 -17 -62 -19 -134 -19h-328v-250h418c72 0 99 -2 134 -19c44 -21 76 -75 76 -137s-32 -116 -76 -137c-35 -17 -62 -19 -134 -19zM630 1550c-88 0 -160 72 -160 160s72 160 160 160s160 -72 160 -160s-72 -160 -160 -160z" />
    <glyph glyph-name="edotaccent" unicode="&#x117;" horiz-adv-x="1113" 
d="M861 432h-463c0 -88 68 -170 194 -170c58 0 116 18 162 48c48 32 78 42 114 42c60 0 130 -60 130 -136c0 -52 -30 -98 -102 -148c-78 -54 -184 -80 -308 -80c-238 0 -512 86 -512 550c0 352 200 550 482 550c300 0 470 -214 482 -470c2 -52 -5 -107 -44 -146
s-89 -40 -135 -40zM398 650h320c0 26 -4 56 -18 84c-22 46 -64 84 -142 84s-121 -38 -142 -84c-13 -28 -18 -58 -18 -84zM566 1204c-88 0 -160 72 -160 160s72 160 160 160s160 -72 160 -160s-72 -160 -160 -160z" />
    <glyph glyph-name="Eogonek" unicode="&#x118;" horiz-adv-x="1212" 
d="M912 0h-555c-52 0 -117 0 -166 49s-49 114 -49 166v994c0 52 0 117 49 166s114 49 166 49h555c72 0 99 -2 134 -19c44 -21 76 -75 76 -137s-32 -116 -76 -137c-35 -17 -62 -19 -134 -19h-418v-238h328c72 0 99 -2 134 -19c44 -21 76 -75 76 -137s-32 -116 -76 -137
c-35 -17 -62 -19 -134 -19h-328v-250h418c72 0 99 -2 134 -19c44 -21 76 -75 76 -137s-32 -116 -76 -137c-35 -17 -62 -19 -134 -19zM1049 -328l-75 -120c-22 -35 -43 -68 -67 -85c-22 -15 -42 -22 -69 -22c-26 0 -52 8 -76 23c-48 30 -70 74 -66 118c3 34 13 54 48 110
l75 120c22 35 43 68 67 85c22 15 42 22 69 22c26 0 52 -8 76 -23c48 -30 70 -74 66 -118c-3 -34 -13 -54 -48 -110z" />
    <glyph glyph-name="eogonek" unicode="&#x119;" horiz-adv-x="1113" 
d="M861 432h-463c0 -88 68 -170 194 -170c58 0 116 18 162 48c48 32 78 42 114 42c60 0 130 -60 130 -136c0 -52 -30 -98 -102 -148c-78 -54 -184 -80 -308 -80c-238 0 -512 86 -512 550c0 352 200 550 482 550c300 0 470 -214 482 -470c2 -52 -5 -107 -44 -146
s-89 -40 -135 -40zM398 650h320c0 26 -4 56 -18 84c-22 46 -64 84 -142 84s-121 -38 -142 -84c-13 -28 -18 -58 -18 -84zM826 -328l-75 -120c-22 -35 -43 -68 -67 -85c-22 -15 -42 -22 -69 -22c-26 0 -52 8 -76 23c-48 30 -70 74 -66 118c3 34 13 54 48 110l75 120
c22 35 43 68 67 85c22 15 42 22 69 22c26 0 52 -8 76 -23c48 -30 70 -74 66 -118c-3 -34 -13 -54 -48 -110z" />
    <glyph glyph-name="Ecaron" unicode="&#x11a;" horiz-adv-x="1212" 
d="M912 0h-555c-52 0 -117 0 -166 49s-49 114 -49 166v994c0 52 0 117 49 166s114 49 166 49h555c72 0 99 -2 134 -19c44 -21 76 -75 76 -137s-32 -116 -76 -137c-35 -17 -62 -19 -134 -19h-418v-238h328c72 0 99 -2 134 -19c44 -21 76 -75 76 -137s-32 -116 -76 -137
c-35 -17 -62 -19 -134 -19h-328v-250h418c72 0 99 -2 134 -19c44 -21 76 -75 76 -137s-32 -116 -76 -137c-35 -17 -62 -19 -134 -19zM911 1725l-139 -139c-34 -34 -77 -76 -142 -76s-108 42 -142 76l-139 139c-43 43 -55 59 -65 87c-14 41 -2 87 34 123s81 48 122 34
c28 -10 45 -22 88 -65l102 -102l102 102c43 43 60 55 88 65c41 14 86 2 122 -34s48 -82 34 -123c-10 -28 -22 -44 -65 -87z" />
    <glyph glyph-name="ecaron" unicode="&#x11b;" horiz-adv-x="1113" 
d="M861 432h-463c0 -88 68 -170 194 -170c58 0 116 18 162 48c48 32 78 42 114 42c60 0 130 -60 130 -136c0 -52 -30 -98 -102 -148c-78 -54 -184 -80 -308 -80c-238 0 -512 86 -512 550c0 352 200 550 482 550c300 0 470 -214 482 -470c2 -52 -5 -107 -44 -146
s-89 -40 -135 -40zM398 650h320c0 26 -4 56 -18 84c-22 46 -64 84 -142 84s-121 -38 -142 -84c-13 -28 -18 -58 -18 -84zM847 1379l-139 -139c-34 -34 -77 -76 -142 -76s-108 42 -142 76l-139 139c-43 43 -55 59 -65 87c-14 41 -2 87 34 123s81 48 122 34
c28 -10 45 -22 88 -65l102 -102l102 102c43 43 60 55 88 65c41 14 86 2 122 -34s48 -82 34 -123c-10 -28 -22 -44 -65 -87z" />
    <glyph glyph-name="Gcircumflex" unicode="&#x11c;" horiz-adv-x="1252" 
d="M448 712c0 -260 20 -308 52 -350c26 -34 79 -62 140 -62c60 0 106 23 135 56s45 69 45 116h-4c-72 0 -99 2 -134 19c-44 21 -76 75 -76 137s32 116 76 137c35 17 62 19 134 19h121c52 0 117 0 166 -49s49 -114 49 -166v-8c0 -170 -31 -312 -129 -412
c-115 -118 -225 -161 -387 -161c-170 0 -291 51 -393 153c-145 145 -147 331 -147 571s2 423 147 568c102 102 223 156 393 156c174 0 271 -29 359 -108c108 -97 135 -202 135 -264s-17 -101 -49 -133s-75 -49 -121 -49c-39 0 -70 10 -94 27c-38 26 -63 64 -93 117
c-40 71 -82 98 -145 98c-60 0 -100 -28 -126 -62c-41 -54 -54 -116 -54 -350zM738 1589l-102 102l-102 -102c-43 -43 -60 -55 -88 -65c-41 -14 -86 -2 -122 34s-48 82 -34 123c10 28 22 44 65 87l139 139c34 34 77 76 142 76s108 -42 142 -76l139 -139c43 -43 55 -59 65 -87
c14 -41 2 -87 -34 -123s-81 -48 -122 -34c-28 10 -45 22 -88 65z" />
    <glyph glyph-name="gcircumflex" unicode="&#x11d;" horiz-adv-x="1122" 
d="M670 84v74c-60 -60 -132 -90 -232 -90c-104 0 -190 34 -252 96c-98 98 -100 218 -100 414s2 316 100 414c62 62 150 96 254 96c110 0 174 -34 240 -100c24 46 64 96 154 96c66 0 121 -33 144 -80c18 -36 20 -64 20 -142v-784c0 -252 -190 -438 -486 -438
c-128 0 -210 22 -286 64c-69 38 -104 84 -104 146c0 80 68 136 128 136c38 0 58 -4 112 -30c60 -29 98 -40 134 -40c130 0 174 83 174 168zM542 364c120 0 128 104 128 214s-8 214 -128 214s-128 -104 -128 -214s8 -214 128 -214zM645 1243l-102 102l-102 -102
c-43 -43 -60 -55 -88 -65c-41 -14 -86 -2 -122 34s-48 82 -34 123c10 28 22 44 65 87l139 139c34 34 77 76 142 76s108 -42 142 -76l139 -139c43 -43 55 -59 65 -87c14 -41 2 -87 -34 -123s-81 -48 -122 -34c-28 10 -45 22 -88 65z" />
    <glyph glyph-name="Gbreve" unicode="&#x11e;" horiz-adv-x="1252" 
d="M448 712c0 -260 20 -308 52 -350c26 -34 79 -62 140 -62c60 0 106 23 135 56s45 69 45 116h-4c-72 0 -99 2 -134 19c-44 21 -76 75 -76 137s32 116 76 137c35 17 62 19 134 19h121c52 0 117 0 166 -49s49 -114 49 -166v-8c0 -170 -31 -312 -129 -412
c-115 -118 -225 -161 -387 -161c-170 0 -291 51 -393 153c-145 145 -147 331 -147 571s2 423 147 568c102 102 223 156 393 156c174 0 271 -29 359 -108c108 -97 135 -202 135 -264s-17 -101 -49 -133s-75 -49 -121 -49c-39 0 -70 10 -94 27c-38 26 -63 64 -93 117
c-40 71 -82 98 -145 98c-60 0 -100 -28 -126 -62c-41 -54 -54 -116 -54 -350zM904 1643c-82 -69 -154 -92 -268 -92s-186 23 -268 92c-51 42 -69 78 -69 117c0 25 9 53 30 78c26 30 55 43 85 43c22 0 47 -10 71 -27c50 -37 100 -55 151 -55s101 18 151 55c24 17 49 27 71 27
c30 0 59 -13 85 -43c21 -25 30 -53 30 -78c0 -39 -18 -75 -69 -117z" />
    <glyph glyph-name="gbreve" unicode="&#x11f;" horiz-adv-x="1122" 
d="M670 84v74c-60 -60 -132 -90 -232 -90c-104 0 -190 34 -252 96c-98 98 -100 218 -100 414s2 316 100 414c62 62 150 96 254 96c110 0 174 -34 240 -100c24 46 64 96 154 96c66 0 121 -33 144 -80c18 -36 20 -64 20 -142v-784c0 -252 -190 -438 -486 -438
c-128 0 -210 22 -286 64c-69 38 -104 84 -104 146c0 80 68 136 128 136c38 0 58 -4 112 -30c60 -29 98 -40 134 -40c130 0 174 83 174 168zM542 364c120 0 128 104 128 214s-8 214 -128 214s-128 -104 -128 -214s8 -214 128 -214zM811 1297c-82 -69 -154 -92 -268 -92
s-186 23 -268 92c-51 42 -69 78 -69 117c0 25 9 53 30 78c26 30 55 43 85 43c22 0 47 -10 71 -27c50 -37 100 -55 151 -55s101 18 151 55c24 17 49 27 71 27c30 0 59 -13 85 -43c21 -25 30 -53 30 -78c0 -39 -18 -75 -69 -117z" />
    <glyph glyph-name="Gdotaccent" unicode="&#x120;" horiz-adv-x="1252" 
d="M448 712c0 -260 20 -308 52 -350c26 -34 79 -62 140 -62c60 0 106 23 135 56s45 69 45 116h-4c-72 0 -99 2 -134 19c-44 21 -76 75 -76 137s32 116 76 137c35 17 62 19 134 19h121c52 0 117 0 166 -49s49 -114 49 -166v-8c0 -170 -31 -312 -129 -412
c-115 -118 -225 -161 -387 -161c-170 0 -291 51 -393 153c-145 145 -147 331 -147 571s2 423 147 568c102 102 223 156 393 156c174 0 271 -29 359 -108c108 -97 135 -202 135 -264s-17 -101 -49 -133s-75 -49 -121 -49c-39 0 -70 10 -94 27c-38 26 -63 64 -93 117
c-40 71 -82 98 -145 98c-60 0 -100 -28 -126 -62c-41 -54 -54 -116 -54 -350zM636 1550c-88 0 -160 72 -160 160s72 160 160 160s160 -72 160 -160s-72 -160 -160 -160z" />
    <glyph glyph-name="gdotaccent" unicode="&#x121;" horiz-adv-x="1122" 
d="M670 84v74c-60 -60 -132 -90 -232 -90c-104 0 -190 34 -252 96c-98 98 -100 218 -100 414s2 316 100 414c62 62 150 96 254 96c110 0 174 -34 240 -100c24 46 64 96 154 96c66 0 121 -33 144 -80c18 -36 20 -64 20 -142v-784c0 -252 -190 -438 -486 -438
c-128 0 -210 22 -286 64c-69 38 -104 84 -104 146c0 80 68 136 128 136c38 0 58 -4 112 -30c60 -29 98 -40 134 -40c130 0 174 83 174 168zM542 364c120 0 128 104 128 214s-8 214 -128 214s-128 -104 -128 -214s8 -214 128 -214zM543 1204c-88 0 -160 72 -160 160
s72 160 160 160s160 -72 160 -160s-72 -160 -160 -160z" />
    <glyph glyph-name="Gcommaaccent" unicode="&#x122;" horiz-adv-x="1252" 
d="M448 712c0 -260 20 -308 52 -350c26 -34 79 -62 140 -62c60 0 106 23 135 56s45 69 45 116h-4c-72 0 -99 2 -134 19c-44 21 -76 75 -76 137s32 116 76 137c35 17 62 19 134 19h121c52 0 117 0 166 -49s49 -114 49 -166v-8c0 -170 -31 -312 -129 -412
c-115 -118 -225 -161 -387 -161c-170 0 -291 51 -393 153c-145 145 -147 331 -147 571s2 423 147 568c102 102 223 156 393 156c174 0 271 -29 359 -108c108 -97 135 -202 135 -264s-17 -101 -49 -133s-75 -49 -121 -49c-39 0 -70 10 -94 27c-38 26 -63 64 -93 117
c-40 71 -82 98 -145 98c-60 0 -100 -28 -126 -62c-41 -54 -54 -116 -54 -350zM746 -328l-75 -120c-22 -35 -43 -68 -67 -85c-22 -15 -42 -22 -69 -22c-26 0 -52 8 -76 23c-48 30 -70 74 -66 118c3 34 13 54 48 110l75 120c22 35 43 68 67 85c22 15 42 22 69 22
c26 0 52 -8 76 -23c48 -30 70 -74 66 -118c-3 -34 -13 -54 -48 -110z" />
    <glyph glyph-name="gcommaaccent" unicode="&#x123;" horiz-adv-x="1122" 
d="M670 84v74c-60 -60 -132 -90 -232 -90c-104 0 -190 34 -252 96c-98 98 -100 218 -100 414s2 316 100 414c62 62 150 96 254 96c110 0 174 -34 240 -100c24 46 64 96 154 96c66 0 121 -33 144 -80c18 -36 20 -64 20 -142v-784c0 -252 -190 -438 -486 -438
c-128 0 -210 22 -286 64c-69 38 -104 84 -104 146c0 80 68 136 128 136c38 0 58 -4 112 -30c60 -29 98 -40 134 -40c130 0 174 83 174 168zM542 364c120 0 128 104 128 214s-8 214 -128 214s-128 -104 -128 -214s8 -214 128 -214zM792 1408l-75 -120
c-22 -35 -43 -68 -67 -85c-22 -15 -42 -22 -69 -22c-26 0 -52 8 -76 23c-48 30 -70 74 -66 118c3 34 13 54 48 110l75 120c22 35 43 68 67 85c22 15 42 22 69 22c26 0 52 -8 76 -23c48 -30 70 -74 66 -118c-3 -34 -13 -54 -48 -110z" />
    <glyph glyph-name="Hcircumflex" unicode="&#x124;" horiz-adv-x="1360" 
d="M1218 228c0 -80 -1 -108 -22 -150c-25 -50 -84 -86 -154 -86s-129 36 -154 86c-21 42 -22 70 -22 150v336h-372v-336c0 -80 -1 -108 -22 -150c-25 -50 -84 -86 -154 -86s-129 36 -154 86c-21 42 -22 70 -22 150v968c0 80 1 108 22 150c25 50 84 86 154 86
s129 -36 154 -86c21 -42 22 -70 22 -150v-320h372v320c0 80 1 108 22 150c25 50 84 86 154 86s129 -36 154 -86c21 -42 22 -70 22 -150v-968zM781 1589l-102 102l-102 -102c-43 -43 -60 -55 -88 -65c-41 -14 -86 -2 -122 34s-48 82 -34 123c10 28 22 44 65 87l139 139
c34 34 77 76 142 76s108 -42 142 -76l139 -139c43 -43 55 -59 65 -87c14 -41 2 -87 -34 -123s-81 -48 -122 -34c-28 10 -45 22 -88 65z" />
    <glyph glyph-name="hcircumflex" unicode="&#x125;" horiz-adv-x="1158" 
d="M716 214v430c0 124 -88 148 -132 148s-132 -24 -132 -148v-430c0 -78 -2 -106 -20 -142c-23 -47 -78 -80 -144 -80s-121 33 -144 80c-18 36 -20 64 -20 142v996c0 78 2 106 20 142c23 47 78 80 144 80s121 -33 144 -80c18 -36 20 -64 20 -142v-215c66 60 160 93 242 93
c102 0 184 -34 242 -92c92 -92 108 -194 108 -308v-474c0 -78 -2 -106 -20 -142c-23 -47 -78 -80 -144 -80s-121 33 -144 80c-18 36 -20 64 -20 142zM390 1579l-102 102l-102 -102c-43 -43 -60 -55 -88 -65c-41 -14 -86 -2 -122 34s-48 82 -34 123c10 28 22 44 65 87
l139 139c34 34 77 76 142 76s108 -42 142 -76l139 -139c43 -43 55 -59 65 -87c14 -41 2 -87 -34 -123s-81 -48 -122 -34c-28 10 -45 22 -88 65z" />
    <glyph glyph-name="Hbar" unicode="&#x126;" horiz-adv-x="1484" 
d="M928 228v336h-372v-336c0 -80 -1 -108 -22 -150c-25 -50 -84 -86 -154 -86s-129 36 -154 86c-21 42 -22 70 -22 150v788h-16c-61 0 -81 3 -108 16c-39 19 -62 59 -62 110s23 91 62 110c27 13 47 16 108 16h17c2 31 8 52 21 78c25 50 84 86 154 86s129 -36 154 -86
c13 -26 18 -47 20 -78h375c2 31 8 52 21 78c25 50 84 86 154 86s129 -36 154 -86c13 -26 18 -47 20 -78h18c61 0 81 -3 108 -16c39 -19 62 -59 62 -110s-23 -91 -62 -110c-27 -13 -47 -16 -108 -16h-16v-788c0 -80 -1 -108 -22 -150c-25 -50 -84 -86 -154 -86
s-129 36 -154 86c-21 42 -22 70 -22 150zM556 876h372v140h-372v-140z" />
    <glyph glyph-name="hbar" unicode="&#x127;" horiz-adv-x="1158" 
d="M716 214v430c0 124 -88 148 -132 148s-132 -24 -132 -148v-430c0 -78 -2 -106 -20 -142c-23 -47 -78 -80 -144 -80s-121 33 -144 80c-18 36 -20 64 -20 142v887c-28 1 -44 6 -62 15c-39 19 -62 59 -62 110s23 91 62 110c23 11 40 15 82 16c23 47 78 80 144 80
s121 -33 144 -80h33c61 0 81 -3 108 -16c39 -19 62 -59 62 -110s-23 -91 -62 -110c-27 -13 -47 -16 -108 -16h-13v-105c66 60 160 93 242 93c102 0 184 -34 242 -92c92 -92 108 -194 108 -308v-474c0 -78 -2 -106 -20 -142c-23 -47 -78 -80 -144 -80s-121 33 -144 80
c-18 36 -20 64 -20 142z" />
    <glyph glyph-name="Itilde" unicode="&#x128;" horiz-adv-x="636" 
d="M142 228v968c0 80 1 108 22 150c25 50 84 86 154 86s129 -36 154 -86c21 -42 22 -70 22 -150v-968c0 -80 -1 -108 -22 -150c-25 -50 -84 -86 -154 -86s-129 36 -154 86c-21 42 -22 70 -22 150zM716 1740c0 -37 -23 -76 -65 -111c-59 -47 -114 -62 -194 -62
c-60 0 -97 7 -164 43c-40 22 -65 31 -105 31c-36 0 -58 -9 -87 -29c-24 -17 -50 -27 -73 -27c-29 0 -59 9 -84 40c-18 22 -24 48 -24 77c0 37 23 76 65 111c59 47 114 62 194 62c60 0 97 -7 164 -43c40 -22 65 -31 105 -31c36 0 58 9 87 29c24 17 50 27 73 27
c29 0 59 -9 84 -40c18 -22 24 -48 24 -77z" />
    <glyph glyph-name="itilde" unicode="&#x129;" horiz-adv-x="576" 
d="M124 214v606c0 78 2 106 20 142c23 47 78 80 144 80s121 -33 144 -80c18 -36 20 -64 20 -142v-606c0 -78 -2 -106 -20 -142c-23 -47 -78 -80 -144 -80s-121 33 -144 80c-18 36 -20 64 -20 142zM686 1395c0 -37 -23 -76 -65 -111c-59 -47 -114 -62 -194 -62
c-60 0 -97 7 -164 43c-40 22 -65 31 -105 31c-36 0 -58 -9 -87 -29c-24 -17 -50 -27 -73 -27c-29 0 -59 9 -84 40c-18 22 -24 48 -24 77c0 37 23 76 65 111c59 47 114 62 194 62c60 0 97 -7 164 -43c40 -22 65 -31 105 -31c36 0 58 9 87 29c24 17 50 27 73 27
c29 0 59 -9 84 -40c18 -22 24 -48 24 -77z" />
    <glyph glyph-name="Imacron" unicode="&#x12a;" horiz-adv-x="636" 
d="M142 228v968c0 80 1 108 22 150c25 50 84 86 154 86s129 -36 154 -86c21 -42 22 -70 22 -150v-968c0 -80 -1 -108 -22 -150c-25 -50 -84 -86 -154 -86s-129 36 -154 86c-21 42 -22 70 -22 150zM482 1604h-328c-61 0 -81 3 -108 16c-39 19 -62 59 -62 110s23 91 62 110
c27 13 47 16 108 16h328c61 0 81 -3 108 -16c39 -19 62 -59 62 -110s-23 -91 -62 -110c-27 -13 -47 -16 -108 -16z" />
    <glyph glyph-name="imacron" unicode="&#x12b;" horiz-adv-x="576" 
d="M124 214v606c0 78 2 106 20 142c23 47 78 80 144 80s121 -33 144 -80c18 -36 20 -64 20 -142v-606c0 -78 -2 -106 -20 -142c-23 -47 -78 -80 -144 -80s-121 33 -144 80c-18 36 -20 64 -20 142zM452 1258h-328c-61 0 -81 3 -108 16c-39 19 -62 59 -62 110s23 91 62 110
c27 13 47 16 108 16h328c61 0 81 -3 108 -16c39 -19 62 -59 62 -110s-23 -91 -62 -110c-27 -13 -47 -16 -108 -16z" />
    <glyph glyph-name="Ibreve" unicode="&#x12c;" horiz-adv-x="636" 
d="M142 228v968c0 80 1 108 22 150c25 50 84 86 154 86s129 -36 154 -86c21 -42 22 -70 22 -150v-968c0 -80 -1 -108 -22 -150c-25 -50 -84 -86 -154 -86s-129 36 -154 86c-21 42 -22 70 -22 150zM586 1643c-82 -69 -154 -92 -268 -92s-186 23 -268 92
c-51 42 -69 78 -69 117c0 25 9 53 30 78c26 30 55 43 85 43c22 0 47 -10 71 -27c50 -37 100 -55 151 -55s101 18 151 55c24 17 49 27 71 27c30 0 59 -13 85 -43c21 -25 30 -53 30 -78c0 -39 -18 -75 -69 -117z" />
    <glyph glyph-name="ibreve" unicode="&#x12d;" horiz-adv-x="576" 
d="M124 214v606c0 78 2 106 20 142c23 47 78 80 144 80s121 -33 144 -80c18 -36 20 -64 20 -142v-606c0 -78 -2 -106 -20 -142c-23 -47 -78 -80 -144 -80s-121 33 -144 80c-18 36 -20 64 -20 142zM556 1297c-82 -69 -154 -92 -268 -92s-186 23 -268 92
c-51 42 -69 78 -69 117c0 25 9 53 30 78c26 30 55 43 85 43c22 0 47 -10 71 -27c50 -37 100 -55 151 -55s101 18 151 55c24 17 49 27 71 27c30 0 59 -13 85 -43c21 -25 30 -53 30 -78c0 -39 -18 -75 -69 -117z" />
    <glyph glyph-name="Iogonek" unicode="&#x12e;" horiz-adv-x="636" 
d="M142 228v968c0 80 1 108 22 150c25 50 84 86 154 86s129 -36 154 -86c21 -42 22 -70 22 -150v-968c0 -80 -1 -108 -22 -150c-25 -50 -84 -86 -154 -86s-129 36 -154 86c-21 42 -22 70 -22 150zM407 -328l-75 -120c-22 -35 -43 -68 -67 -85c-22 -15 -42 -22 -69 -22
c-26 0 -52 8 -76 23c-48 30 -70 74 -66 118c3 34 13 54 48 110l75 120c22 35 43 68 67 85c22 15 42 22 69 22c26 0 52 -8 76 -23c48 -30 70 -74 66 -118c-3 -34 -13 -54 -48 -110z" />
    <glyph glyph-name="iogonek" unicode="&#x12f;" horiz-adv-x="576" 
d="M124 214v606c0 78 2 106 20 142c23 47 78 80 144 80s121 -33 144 -80c18 -36 20 -64 20 -142v-606c0 -78 -2 -106 -20 -142c-23 -47 -78 -80 -144 -80s-121 33 -144 80c-18 36 -20 64 -20 142zM288 1142c-100 0 -182 82 -182 182s82 182 182 182s182 -82 182 -182
s-82 -182 -182 -182zM369 -328l-75 -120c-22 -35 -43 -68 -67 -85c-22 -15 -42 -22 -69 -22c-26 0 -52 8 -76 23c-48 30 -70 74 -66 118c3 34 13 54 48 110l75 120c22 35 43 68 67 85c22 15 42 22 69 22c26 0 52 -8 76 -23c48 -30 70 -74 66 -118c-3 -34 -13 -54 -48 -110z
" />
    <glyph glyph-name="Idotaccent" unicode="&#x130;" horiz-adv-x="636" 
d="M142 228v968c0 80 1 108 22 150c25 50 84 86 154 86s129 -36 154 -86c21 -42 22 -70 22 -150v-968c0 -80 -1 -108 -22 -150c-25 -50 -84 -86 -154 -86s-129 36 -154 86c-21 42 -22 70 -22 150zM318 1550c-88 0 -160 72 -160 160s72 160 160 160s160 -72 160 -160
s-72 -160 -160 -160z" />
    <glyph glyph-name="dotlessi" unicode="&#x131;" horiz-adv-x="576" 
d="M124 214v606c0 78 2 106 20 142c23 47 78 80 144 80s121 -33 144 -80c18 -36 20 -64 20 -142v-606c0 -78 -2 -106 -20 -142c-23 -47 -78 -80 -144 -80s-121 33 -144 80c-18 36 -20 64 -20 142z" />
    <glyph glyph-name="IJ" unicode="&#x132;" horiz-adv-x="1669" 
d="M142 228v968c0 80 1 108 22 150c25 50 84 86 154 86s129 -36 154 -86c21 -42 22 -70 22 -150v-968c0 -80 -1 -108 -22 -150c-25 -50 -84 -86 -154 -86s-129 36 -154 86c-21 42 -22 70 -22 150zM1195 496v700c0 80 1 108 22 150c25 50 84 86 154 86s129 -36 154 -86
c21 -42 22 -70 22 -150v-708c0 -338 -270 -500 -538 -500c-108 0 -204 22 -278 77c-57 42 -76 83 -76 137c0 42 21 87 50 112c28 24 60 34 92 34c42 0 66 -12 110 -28c29 -11 64 -18 102 -18c108 0 186 58 186 194z" />
    <glyph glyph-name="ij" unicode="&#x133;" horiz-adv-x="1152" 
d="M124 214v606c0 78 2 106 20 142c23 47 78 80 144 80s121 -33 144 -80c18 -36 20 -64 20 -142v-606c0 -78 -2 -106 -20 -142c-23 -47 -78 -80 -144 -80s-121 33 -144 80c-18 36 -20 64 -20 142zM288 1142c-100 0 -182 82 -182 182s82 182 182 182s182 -82 182 -182
s-82 -182 -182 -182zM698 -360h-6c-60 0 -104 8 -132 22c-40 20 -68 58 -68 116s26 98 66 118c18 9 43 16 81 18c41 2 61 26 61 68v838c0 78 2 106 20 142c23 47 78 80 144 80s121 -33 144 -80c18 -36 20 -64 20 -142v-862c0 -148 -98 -318 -330 -318zM864 1142
c-100 0 -182 82 -182 182s82 182 182 182s182 -82 182 -182s-82 -182 -182 -182z" />
    <glyph glyph-name="Jcircumflex" unicode="&#x134;" horiz-adv-x="1058" 
d="M588 496v700c0 80 1 108 22 150c25 50 84 86 154 86s129 -36 154 -86c21 -42 22 -70 22 -150v-708c0 -338 -270 -500 -538 -500c-108 0 -204 22 -278 77c-57 42 -76 83 -76 137c0 42 21 87 50 112c28 24 60 34 92 34c42 0 66 -12 110 -28c29 -11 64 -18 102 -18
c108 0 186 58 186 194zM862 1589l-102 102l-102 -102c-43 -43 -60 -55 -88 -65c-41 -14 -86 -2 -122 34s-48 82 -34 123c10 28 22 44 65 87l139 139c34 34 77 76 142 76s108 -42 142 -76l139 -139c43 -43 55 -59 65 -87c14 -41 2 -87 -34 -123s-81 -48 -122 -34
c-28 10 -45 22 -88 65z" />
    <glyph glyph-name="jcircumflex" unicode="&#x135;" horiz-adv-x="576" 
d="M122 -360h-6c-60 0 -104 8 -132 22c-40 20 -68 58 -68 116s26 98 66 118c18 9 43 16 81 18c41 2 61 26 61 68v838c0 78 2 106 20 142c23 47 78 80 144 80s121 -33 144 -80c18 -36 20 -64 20 -142v-862c0 -148 -98 -318 -330 -318zM390 1243l-102 102l-102 -102
c-43 -43 -60 -55 -88 -65c-41 -14 -86 -2 -122 34s-48 82 -34 123c10 28 22 44 65 87l139 139c34 34 77 76 142 76s108 -42 142 -76l139 -139c43 -43 55 -59 65 -87c14 -41 2 -87 -34 -123s-81 -48 -122 -34c-28 10 -45 22 -88 65z" />
    <glyph glyph-name="Kcommaaccent" unicode="&#x136;" horiz-adv-x="1277" 
d="M874 132l-259 453l-121 -145v-212c0 -80 -1 -108 -22 -150c-25 -50 -84 -86 -154 -86s-129 36 -154 86c-21 42 -22 70 -22 150v968c0 80 1 108 22 150c25 50 84 86 154 86s129 -36 154 -86c21 -42 22 -70 22 -150v-272l334 401c59 71 95 107 163 107c40 0 75 -15 106 -41
c38 -32 61 -72 61 -119c0 -54 -19 -87 -78 -157l-223 -268l312 -546c40 -70 52 -101 52 -145c0 -60 -30 -107 -86 -139c-28 -16 -58 -25 -88 -25c-90 0 -133 70 -173 140zM789 -328l-75 -120c-22 -35 -43 -68 -67 -85c-22 -15 -42 -22 -69 -22c-26 0 -52 8 -76 23
c-48 30 -70 74 -66 118c3 34 13 54 48 110l75 120c22 35 43 68 67 85c22 15 42 22 69 22c26 0 52 -8 76 -23c48 -30 70 -74 66 -118c-3 -34 -13 -54 -48 -110z" />
    <glyph glyph-name="kcommaaccent" unicode="&#x137;" horiz-adv-x="1062" 
d="M692 114l-163 262l-77 -89v-73c0 -78 -2 -106 -20 -142c-23 -47 -78 -80 -144 -80s-121 33 -144 80c-18 36 -20 64 -20 142v996c0 78 2 106 20 142c23 47 78 80 144 80s121 -33 144 -80c18 -36 20 -64 20 -142v-510l253 290c56 64 91 93 146 93c35 0 68 -10 100 -38
c36 -32 53 -69 53 -109c0 -45 -22 -82 -75 -142l-172 -197l199 -318c40 -64 54 -98 54 -140c0 -49 -27 -90 -75 -120c-32 -20 -58 -27 -85 -27c-71 0 -108 42 -158 122zM645 -328l-75 -120c-22 -35 -43 -68 -67 -85c-22 -15 -42 -22 -69 -22c-26 0 -52 8 -76 23
c-48 30 -70 74 -66 118c3 34 13 54 48 110l75 120c22 35 43 68 67 85c22 15 42 22 69 22c26 0 52 -8 76 -23c48 -30 70 -74 66 -118c-3 -34 -13 -54 -48 -110z" />
    <glyph glyph-name="kgreenlandic" unicode="&#x138;" horiz-adv-x="1065" 
d="M693 114l-164 262l-77 -89v-73c0 -78 -2 -106 -20 -142c-23 -47 -78 -80 -144 -80s-121 33 -144 80c-18 36 -20 64 -20 142v648c0 78 2 106 20 142c23 47 78 80 144 80s121 -33 144 -80c18 -36 20 -64 20 -142v-160l253 288c57 64 87 93 143 93c34 0 70 -13 101 -40
c36 -32 55 -73 55 -111c0 -42 -22 -78 -75 -138l-172 -196l200 -319c40 -64 56 -96 56 -136c0 -46 -29 -94 -77 -123c-28 -19 -61 -28 -88 -28c-71 0 -105 42 -155 122z" />
    <glyph glyph-name="Lacute" unicode="&#x139;" horiz-adv-x="1148" 
d="M892 0h-535c-52 0 -117 0 -166 49s-49 114 -49 166v981c0 80 1 108 22 150c25 50 84 86 154 86s129 -36 154 -86c21 -42 22 -70 22 -150v-884h396c72 0 99 -2 134 -19c44 -21 76 -75 76 -137s-32 -116 -76 -137c-35 -17 -62 -19 -132 -19zM566 1754l-75 -120
c-22 -35 -43 -68 -67 -85c-22 -15 -42 -22 -69 -22c-26 0 -52 8 -76 23c-48 30 -70 74 -66 118c3 34 13 54 48 110l75 120c22 35 43 68 67 85c22 15 42 22 69 22c26 0 52 -8 76 -23c48 -30 70 -74 66 -118c-3 -34 -13 -54 -48 -110z" />
    <glyph glyph-name="lacute" unicode="&#x13a;" horiz-adv-x="664" 
d="M450 0h-6c-232 0 -330 170 -330 318v892c0 78 2 106 20 142c23 47 78 80 144 80s121 -33 144 -80c18 -36 20 -64 20 -142v-868c0 -42 20 -66 61 -68c38 -2 63 -9 81 -18c40 -20 66 -60 66 -118s-28 -96 -68 -116c-28 -14 -72 -22 -132 -22zM527 1735l-75 -120
c-22 -35 -43 -68 -67 -85c-22 -15 -42 -22 -69 -22c-26 0 -52 8 -76 23c-48 30 -70 74 -66 118c3 34 13 54 48 110l75 120c22 35 43 68 67 85c22 15 42 22 69 22c26 0 52 -8 76 -23c48 -30 70 -74 66 -118c-3 -34 -13 -54 -48 -110z" />
    <glyph glyph-name="Lcommaaccent" unicode="&#x13b;" horiz-adv-x="1148" 
d="M892 0h-535c-52 0 -117 0 -166 49s-49 114 -49 166v981c0 80 1 108 22 150c25 50 84 86 154 86s129 -36 154 -86c21 -42 22 -70 22 -150v-884h396c72 0 99 -2 134 -19c44 -21 76 -75 76 -137s-32 -116 -76 -137c-35 -17 -62 -19 -132 -19zM709 -328l-75 -120
c-22 -35 -43 -68 -67 -85c-22 -15 -42 -22 -69 -22c-26 0 -52 8 -76 23c-48 30 -70 74 -66 118c3 34 13 54 48 110l75 120c22 35 43 68 67 85c22 15 42 22 69 22c26 0 52 -8 76 -23c48 -30 70 -74 66 -118c-3 -34 -13 -54 -48 -110z" />
    <glyph glyph-name="lcommaaccent" unicode="&#x13c;" horiz-adv-x="664" 
d="M450 0h-6c-232 0 -330 170 -330 318v892c0 78 2 106 20 142c23 47 78 80 144 80s121 -33 144 -80c18 -36 20 -64 20 -142v-868c0 -42 20 -66 61 -68c38 -2 63 -9 81 -18c40 -20 66 -60 66 -118s-28 -96 -68 -116c-28 -14 -72 -22 -132 -22zM475 -328l-75 -120
c-22 -35 -43 -68 -67 -85c-22 -15 -42 -22 -69 -22c-26 0 -52 8 -76 23c-48 30 -70 74 -66 118c3 34 13 54 48 110l75 120c22 35 43 68 67 85c22 15 42 22 69 22c26 0 52 -8 76 -23c48 -30 70 -74 66 -118c-3 -34 -13 -54 -48 -110z" />
    <glyph glyph-name="Lcaron" unicode="&#x13d;" horiz-adv-x="1148" 
d="M892 0h-535c-52 0 -117 0 -166 49s-49 114 -49 166v981c0 80 1 108 22 150c25 50 84 86 154 86s129 -36 154 -86c21 -42 22 -70 22 -150v-884h396c72 0 99 -2 134 -19c44 -21 76 -75 76 -137s-32 -116 -76 -137c-35 -17 -62 -19 -132 -19zM987 1414l-49 -147
c-20 -60 -29 -83 -54 -108c-19 -19 -49 -32 -83 -32c-65 0 -125 40 -139 96c-11 44 2 82 18 130l49 147c20 60 29 83 54 108c19 19 49 32 83 32c65 0 125 -40 139 -96c11 -44 -2 -82 -18 -130z" />
    <glyph glyph-name="lcaron" unicode="&#x13e;" horiz-adv-x="664" 
d="M450 0h-6c-232 0 -330 170 -330 318v892c0 78 2 106 20 142c23 47 78 80 144 80s121 -33 144 -80c18 -36 20 -64 20 -142v-868c0 -42 20 -66 61 -68c38 -2 63 -9 81 -18c40 -20 66 -60 66 -118s-28 -96 -68 -116c-28 -14 -72 -22 -132 -22zM866 1414l-49 -147
c-20 -60 -29 -83 -54 -108c-19 -19 -49 -32 -83 -32c-65 0 -125 40 -139 96c-11 44 2 82 18 130l49 147c20 60 29 83 54 108c19 19 49 32 83 32c65 0 125 -40 139 -96c11 -44 -2 -82 -18 -130z" />
    <glyph glyph-name="Ldot" unicode="&#x13f;" horiz-adv-x="1148" 
d="M892 0h-535c-52 0 -117 0 -166 49s-49 114 -49 166v981c0 80 1 108 22 150c25 50 84 86 154 86s129 -36 154 -86c21 -42 22 -70 22 -150v-884h396c72 0 99 -2 134 -19c44 -21 76 -75 76 -137s-32 -116 -76 -137c-35 -17 -62 -19 -132 -19zM886 559
c-88 0 -160 72 -160 160s72 160 160 160s160 -72 160 -160s-72 -160 -160 -160z" />
    <glyph glyph-name="ldot" unicode="&#x140;" horiz-adv-x="926" 
d="M450 0h-6c-232 0 -330 170 -330 318v892c0 78 2 106 20 142c23 47 78 80 144 80s121 -33 144 -80c18 -36 20 -64 20 -142v-868c0 -42 20 -66 61 -68c38 -2 63 -9 81 -18c40 -20 66 -60 66 -118s-28 -96 -68 -116c-28 -14 -72 -22 -132 -22zM733 424
c-88 0 -160 72 -160 160s72 160 160 160s160 -72 160 -160s-72 -160 -160 -160z" />
    <glyph glyph-name="Lslash" unicode="&#x141;" horiz-adv-x="1210" 
d="M954 0h-535c-52 0 -117 0 -166 49s-49 114 -49 166v252c-21 -9 -36 -11 -59 -11c-32 0 -60 13 -85 38c-23 23 -42 64 -42 104c0 72 45 102 119 139l67 33v426c0 80 1 108 22 150c25 50 84 86 154 86s129 -36 154 -86c21 -42 22 -70 22 -150v-250l63 32
c60 30 76 37 114 37c32 0 60 -13 85 -38c23 -23 42 -64 42 -104c0 -72 -45 -102 -119 -139l-185 -93v-329h396c72 0 99 -2 134 -19c44 -21 76 -75 76 -137s-32 -116 -76 -137c-35 -17 -62 -19 -132 -19z" />
    <glyph glyph-name="lslash" unicode="&#x142;" horiz-adv-x="761" 
d="M519 0h-6c-232 0 -330 170 -330 318v248c-19 -7 -33 -9 -51 -9c-43 0 -82 24 -105 70c-10 20 -15 40 -15 62c0 25 8 47 22 65c19 24 36 36 90 63l59 29v364c0 78 2 106 20 142c23 47 78 80 144 80s121 -33 144 -80c18 -36 20 -64 20 -142v-200c38 19 57 24 84 24
c43 0 82 -24 105 -70c10 -20 15 -40 15 -62c0 -25 -8 -47 -22 -65c-19 -24 -36 -36 -90 -63l-92 -46v-386c0 -42 20 -66 61 -68c38 -2 63 -9 81 -18c40 -20 66 -60 66 -118s-28 -96 -68 -116c-28 -14 -72 -22 -132 -22z" />
    <glyph glyph-name="Nacute" unicode="&#x143;" horiz-adv-x="1400" 
d="M1258 208c0 -68 -6 -122 -46 -162c-36 -36 -78 -54 -132 -54c-80 0 -129 50 -207 166l-379 558v-488c0 -80 -1 -108 -22 -150c-25 -50 -84 -86 -154 -86s-129 36 -154 86c-21 42 -22 70 -22 150v988c0 68 6 122 46 162c36 36 78 54 132 54c80 0 129 -50 207 -166
l379 -558v488c0 80 1 108 22 150c25 50 84 86 154 86s129 -36 154 -86c21 -42 22 -70 22 -150v-988zM949 1754l-75 -120c-22 -35 -43 -68 -67 -85c-22 -15 -42 -22 -69 -22c-26 0 -52 8 -76 23c-48 30 -70 74 -66 118c3 34 13 54 48 110l75 120c22 35 43 68 67 85
c22 15 42 22 69 22c26 0 52 -8 76 -23c48 -30 70 -74 66 -118c-3 -34 -13 -54 -48 -110z" />
    <glyph glyph-name="nacute" unicode="&#x144;" horiz-adv-x="1158" 
d="M716 214v430c0 124 -88 148 -132 148s-132 -24 -132 -148v-430c0 -78 -2 -106 -20 -142c-23 -47 -78 -80 -144 -80s-121 33 -144 80c-18 36 -20 64 -20 142v648c0 78 2 106 20 142c23 47 78 80 144 80c90 0 130 -50 154 -96c66 66 166 100 252 100c102 0 184 -34 242 -92
c92 -92 108 -194 108 -308v-474c0 -78 -2 -106 -20 -142c-23 -47 -78 -80 -144 -80s-121 33 -144 80c-18 36 -20 64 -20 142zM833 1408l-75 -120c-22 -35 -43 -68 -67 -85c-22 -15 -42 -22 -69 -22c-26 0 -52 8 -76 23c-48 30 -70 74 -66 118c3 34 13 54 48 110l75 120
c22 35 43 68 67 85c22 15 42 22 69 22c26 0 52 -8 76 -23c48 -30 70 -74 66 -118c-3 -34 -13 -54 -48 -110z" />
    <glyph glyph-name="Ncommaaccent" unicode="&#x145;" horiz-adv-x="1400" 
d="M1258 208c0 -68 -6 -122 -46 -162c-36 -36 -78 -54 -132 -54c-80 0 -129 50 -207 166l-379 558v-488c0 -80 -1 -108 -22 -150c-25 -50 -84 -86 -154 -86s-129 36 -154 86c-21 42 -22 70 -22 150v988c0 68 6 122 46 162c36 36 78 54 132 54c80 0 129 -50 207 -166
l379 -558v488c0 80 1 108 22 150c25 50 84 86 154 86s129 -36 154 -86c21 -42 22 -70 22 -150v-988zM818 -328l-75 -120c-22 -35 -43 -68 -67 -85c-22 -15 -42 -22 -69 -22c-26 0 -52 8 -76 23c-48 30 -70 74 -66 118c3 34 13 54 48 110l75 120c22 35 43 68 67 85
c22 15 42 22 69 22c26 0 52 -8 76 -23c48 -30 70 -74 66 -118c-3 -34 -13 -54 -48 -110z" />
    <glyph glyph-name="ncommaaccent" unicode="&#x146;" horiz-adv-x="1158" 
d="M716 214v430c0 124 -88 148 -132 148s-132 -24 -132 -148v-430c0 -78 -2 -106 -20 -142c-23 -47 -78 -80 -144 -80s-121 33 -144 80c-18 36 -20 64 -20 142v648c0 78 2 106 20 142c23 47 78 80 144 80c90 0 130 -50 154 -96c66 66 166 100 252 100c102 0 184 -34 242 -92
c92 -92 108 -194 108 -308v-474c0 -78 -2 -106 -20 -142c-23 -47 -78 -80 -144 -80s-121 33 -144 80c-18 36 -20 64 -20 142zM660 -328l-75 -120c-22 -35 -43 -68 -67 -85c-22 -15 -42 -22 -69 -22c-26 0 -52 8 -76 23c-48 30 -70 74 -66 118c3 34 13 54 48 110l75 120
c22 35 43 68 67 85c22 15 42 22 69 22c26 0 52 -8 76 -23c48 -30 70 -74 66 -118c-3 -34 -13 -54 -48 -110z" />
    <glyph glyph-name="Ncaron" unicode="&#x147;" horiz-adv-x="1400" 
d="M1258 208c0 -68 -6 -122 -46 -162c-36 -36 -78 -54 -132 -54c-80 0 -129 50 -207 166l-379 558v-488c0 -80 -1 -108 -22 -150c-25 -50 -84 -86 -154 -86s-129 36 -154 86c-21 42 -22 70 -22 150v988c0 68 6 122 46 162c36 36 78 54 132 54c80 0 129 -50 207 -166
l379 -558v488c0 80 1 108 22 150c25 50 84 86 154 86s129 -36 154 -86c21 -42 22 -70 22 -150v-988zM981 1725l-139 -139c-34 -34 -77 -76 -142 -76s-108 42 -142 76l-139 139c-43 43 -55 59 -65 87c-14 41 -2 87 34 123s81 48 122 34c28 -10 45 -22 88 -65l102 -102
l102 102c43 43 60 55 88 65c41 14 86 2 122 -34s48 -82 34 -123c-10 -28 -22 -44 -65 -87z" />
    <glyph glyph-name="ncaron" unicode="&#x148;" horiz-adv-x="1158" 
d="M716 214v430c0 124 -88 148 -132 148s-132 -24 -132 -148v-430c0 -78 -2 -106 -20 -142c-23 -47 -78 -80 -144 -80s-121 33 -144 80c-18 36 -20 64 -20 142v648c0 78 2 106 20 142c23 47 78 80 144 80c90 0 130 -50 154 -96c66 66 166 100 252 100c102 0 184 -34 242 -92
c92 -92 108 -194 108 -308v-474c0 -78 -2 -106 -20 -142c-23 -47 -78 -80 -144 -80s-121 33 -144 80c-18 36 -20 64 -20 142zM865 1379l-139 -139c-34 -34 -77 -76 -142 -76s-108 42 -142 76l-139 139c-43 43 -55 59 -65 87c-14 41 -2 87 34 123s81 48 122 34
c28 -10 45 -22 88 -65l102 -102l102 102c43 43 60 55 88 65c41 14 86 2 122 -34s48 -82 34 -123c-10 -28 -22 -44 -65 -87z" />
    <glyph glyph-name="napostrophe" unicode="&#x149;" horiz-adv-x="1658" 
d="M1216 214v430c0 124 -88 148 -132 148s-132 -24 -132 -148v-430c0 -78 -2 -106 -20 -142c-23 -47 -78 -80 -144 -80s-121 33 -144 80c-18 36 -20 64 -20 142v648c0 78 2 106 20 142c23 47 78 80 144 80c90 0 130 -50 154 -96c66 66 166 100 252 100
c102 0 184 -34 242 -92c92 -92 108 -194 108 -308v-474c0 -78 -2 -106 -20 -142c-23 -47 -78 -80 -144 -80s-121 33 -144 80c-18 36 -20 64 -20 142zM113 1066l67 201c24 72 35 99 64 128c26 26 63 41 104 41c58 0 157 -38 169 -132c5 -40 -1 -69 -25 -141l-67 -201
c-24 -72 -35 -99 -64 -128c-26 -26 -63 -41 -104 -41c-58 0 -157 38 -169 132c-5 40 1 69 25 141z" />
    <glyph glyph-name="Eng" unicode="&#x14a;" horiz-adv-x="1400" 
d="M928 -360h-6c-60 0 -104 8 -132 22c-40 20 -68 58 -68 116s26 98 66 118c18 9 43 16 81 18c41 2 61 26 61 68v97l-436 637v-488c0 -80 -1 -108 -22 -150c-25 -50 -84 -86 -154 -86s-129 36 -154 86c-21 42 -22 70 -22 150v988c0 68 6 122 46 162c36 36 78 54 132 54
c80 0 129 -50 207 -166l379 -558v488c0 80 1 108 22 150c25 50 84 86 154 86s129 -36 154 -86c21 -42 22 -70 22 -150v-1238c0 -148 -98 -318 -330 -318z" />
    <glyph glyph-name="eng" unicode="&#x14b;" horiz-adv-x="1158" 
d="M714 -360h-6c-60 0 -104 8 -132 22c-40 20 -68 58 -68 116s26 98 66 118c18 9 43 16 81 18c41 2 61 26 61 68v662c0 124 -88 148 -132 148s-132 -24 -132 -148v-430c0 -78 -2 -106 -20 -142c-23 -47 -78 -80 -144 -80s-121 33 -144 80c-18 36 -20 64 -20 142v648
c0 78 2 106 20 142c23 47 78 80 144 80c90 0 130 -50 154 -96c66 66 166 100 252 100c102 0 184 -34 242 -92c92 -92 108 -194 108 -308v-730c0 -148 -98 -318 -330 -318z" />
    <glyph glyph-name="Omacron" unicode="&#x14c;" horiz-adv-x="1280" 
d="M1037 144c-102 -102 -223 -156 -397 -156s-295 54 -397 156c-145 145 -147 328 -147 568s2 423 147 568c102 102 223 156 397 156s295 -54 397 -156c145 -145 147 -328 147 -568s-2 -423 -147 -568zM780 364c32 42 52 88 52 348s-20 308 -52 350c-26 34 -76 62 -140 62
s-114 -28 -140 -62c-32 -42 -52 -90 -52 -350s20 -306 52 -348c26 -34 76 -64 140 -64s114 30 140 64zM804 1604h-328c-61 0 -81 3 -108 16c-39 19 -62 59 -62 110s23 91 62 110c27 13 47 16 108 16h328c61 0 81 -3 108 -16c39 -19 62 -59 62 -110s-23 -91 -62 -110
c-27 -13 -47 -16 -108 -16z" />
    <glyph glyph-name="omacron" unicode="&#x14d;" horiz-adv-x="1100" 
d="M638 314c42 42 48 118 48 224s-6 182 -48 224c-20 20 -48 30 -88 30s-68 -10 -88 -30c-42 -42 -48 -118 -48 -224s6 -182 48 -224c20 -20 48 -30 88 -30s68 10 88 30zM896 126c-64 -68 -172 -138 -346 -138s-282 70 -346 138c-90 98 -118 200 -118 412
c0 210 28 314 118 412c64 68 172 138 346 138s282 -70 346 -138c90 -98 118 -202 118 -412c0 -212 -28 -314 -118 -412zM714 1258h-328c-61 0 -81 3 -108 16c-39 19 -62 59 -62 110s23 91 62 110c27 13 47 16 108 16h328c61 0 81 -3 108 -16c39 -19 62 -59 62 -110
s-23 -91 -62 -110c-27 -13 -47 -16 -108 -16z" />
    <glyph glyph-name="Obreve" unicode="&#x14e;" horiz-adv-x="1280" 
d="M1037 144c-102 -102 -223 -156 -397 -156s-295 54 -397 156c-145 145 -147 328 -147 568s2 423 147 568c102 102 223 156 397 156s295 -54 397 -156c145 -145 147 -328 147 -568s-2 -423 -147 -568zM780 364c32 42 52 88 52 348s-20 308 -52 350c-26 34 -76 62 -140 62
s-114 -28 -140 -62c-32 -42 -52 -90 -52 -350s20 -306 52 -348c26 -34 76 -64 140 -64s114 30 140 64zM908 1643c-82 -69 -154 -92 -268 -92s-186 23 -268 92c-51 42 -69 78 -69 117c0 25 9 53 30 78c26 30 55 43 85 43c22 0 47 -10 71 -27c50 -37 100 -55 151 -55
s101 18 151 55c24 17 49 27 71 27c30 0 59 -13 85 -43c21 -25 30 -53 30 -78c0 -39 -18 -75 -69 -117z" />
    <glyph glyph-name="obreve" unicode="&#x14f;" horiz-adv-x="1100" 
d="M638 314c42 42 48 118 48 224s-6 182 -48 224c-20 20 -48 30 -88 30s-68 -10 -88 -30c-42 -42 -48 -118 -48 -224s6 -182 48 -224c20 -20 48 -30 88 -30s68 10 88 30zM896 126c-64 -68 -172 -138 -346 -138s-282 70 -346 138c-90 98 -118 200 -118 412
c0 210 28 314 118 412c64 68 172 138 346 138s282 -70 346 -138c90 -98 118 -202 118 -412c0 -212 -28 -314 -118 -412zM818 1297c-82 -69 -154 -92 -268 -92s-186 23 -268 92c-51 42 -69 78 -69 117c0 25 9 53 30 78c26 30 55 43 85 43c22 0 47 -10 71 -27
c50 -37 100 -55 151 -55s101 18 151 55c24 17 49 27 71 27c30 0 59 -13 85 -43c21 -25 30 -53 30 -78c0 -39 -18 -75 -69 -117z" />
    <glyph glyph-name="Ohungarumlaut" unicode="&#x150;" horiz-adv-x="1280" 
d="M1037 144c-102 -102 -223 -156 -397 -156s-295 54 -397 156c-145 145 -147 328 -147 568s2 423 147 568c102 102 223 156 397 156s295 -54 397 -156c145 -145 147 -328 147 -568s-2 -423 -147 -568zM780 364c32 42 52 88 52 348s-20 308 -52 350c-26 34 -76 62 -140 62
s-114 -28 -140 -62c-32 -42 -52 -90 -52 -350s20 -306 52 -348c26 -34 76 -64 140 -64s114 30 140 64zM642 1754l-75 -120c-22 -35 -43 -68 -67 -85c-22 -15 -42 -22 -69 -22c-26 0 -52 8 -76 23c-48 30 -70 74 -66 118c3 34 13 54 48 110l75 120c22 35 43 68 67 85
c22 15 42 22 69 22c26 0 52 -8 76 -23c48 -30 70 -74 66 -118c-3 -34 -13 -54 -48 -110zM1100 1754l-75 -120c-22 -35 -43 -68 -67 -85c-22 -15 -42 -22 -69 -22c-26 0 -52 8 -76 23c-48 30 -70 74 -66 118c3 34 13 54 48 110l75 120c22 35 43 68 67 85c22 15 42 22 69 22
c26 0 52 -8 76 -23c48 -30 70 -74 66 -118c-3 -34 -13 -54 -48 -110z" />
    <glyph glyph-name="ohungarumlaut" unicode="&#x151;" horiz-adv-x="1100" 
d="M638 314c42 42 48 118 48 224s-6 182 -48 224c-20 20 -48 30 -88 30s-68 -10 -88 -30c-42 -42 -48 -118 -48 -224s6 -182 48 -224c20 -20 48 -30 88 -30s68 10 88 30zM896 126c-64 -68 -172 -138 -346 -138s-282 70 -346 138c-90 98 -118 200 -118 412
c0 210 28 314 118 412c64 68 172 138 346 138s282 -70 346 -138c90 -98 118 -202 118 -412c0 -212 -28 -314 -118 -412zM552 1408l-75 -120c-22 -35 -43 -68 -67 -85c-22 -15 -42 -22 -69 -22c-26 0 -52 8 -76 23c-48 30 -70 74 -66 118c3 34 13 54 48 110l75 120
c22 35 43 68 67 85c22 15 42 22 69 22c26 0 52 -8 76 -23c48 -30 70 -74 66 -118c-3 -34 -13 -54 -48 -110zM1010 1408l-75 -120c-22 -35 -43 -68 -67 -85c-22 -15 -42 -22 -69 -22c-26 0 -52 8 -76 23c-48 30 -70 74 -66 118c3 34 13 54 48 110l75 120c22 35 43 68 67 85
c22 15 42 22 69 22c26 0 52 -8 76 -23c48 -30 70 -74 66 -118c-3 -34 -13 -54 -48 -110z" />
    <glyph glyph-name="OE" unicode="&#x152;" horiz-adv-x="1901" 
d="M1601 0h-555c-52 0 -117 0 -166 49c-67 -41 -145 -61 -240 -61c-174 0 -295 54 -397 156c-145 145 -147 328 -147 568s2 423 147 568c102 102 223 156 397 156c95 0 173 -21 240 -62c49 49 114 50 166 50h555c72 0 99 -2 134 -19c44 -21 76 -75 76 -137
s-32 -116 -76 -137c-35 -17 -62 -19 -134 -19h-418v-238h328c72 0 99 -2 134 -19c44 -21 76 -75 76 -137s-32 -116 -76 -137c-35 -17 -62 -19 -134 -19h-328v-250h418c72 0 99 -2 134 -19c44 -21 76 -75 76 -137s-32 -116 -76 -137c-35 -17 -62 -19 -134 -19zM640 300
c64 0 114 30 140 64c32 42 52 88 52 348s-20 308 -52 350c-26 34 -76 62 -140 62s-114 -28 -140 -62c-32 -42 -52 -90 -52 -350s20 -306 52 -348c26 -34 76 -64 140 -64z" />
    <glyph glyph-name="oe" unicode="&#x153;" horiz-adv-x="1723" 
d="M1464 432h-456c0 -88 68 -170 194 -170c58 0 116 18 162 48c48 32 78 42 114 42c60 0 130 -60 130 -136c0 -52 -30 -98 -102 -148c-78 -54 -184 -80 -308 -80c-118 0 -246 21 -344 100c-66 -54 -163 -100 -304 -100c-174 0 -282 70 -346 138c-90 98 -118 200 -118 412
c0 210 28 314 118 412c64 68 172 138 346 138c145 0 246 -50 312 -106c82 69 183 106 306 106c300 0 470 -214 482 -470c2 -52 -5 -107 -44 -146c-41 -41 -94 -40 -142 -40zM638 314c42 42 48 118 48 224s-6 182 -48 224c-20 20 -48 30 -88 30s-68 -10 -88 -30
c-42 -42 -48 -118 -48 -224s6 -182 48 -224c20 -20 48 -30 88 -30s68 10 88 30zM1008 650h320c0 26 -4 56 -18 84c-22 46 -64 84 -142 84s-121 -38 -142 -84c-13 -28 -18 -58 -18 -84z" />
    <glyph glyph-name="Racute" unicode="&#x154;" horiz-adv-x="1304" 
d="M840 132l-227 398h-119v-302c0 -80 -1 -108 -22 -150c-25 -50 -84 -86 -154 -86s-129 36 -154 86c-21 42 -22 70 -22 150v981c0 52 0 117 49 166s114 49 166 49h351c316 0 486 -224 486 -458c0 -151 -80 -292 -227 -370l168 -295c40 -70 52 -101 52 -145
c0 -60 -30 -107 -86 -139c-28 -16 -58 -25 -88 -25c-90 0 -133 70 -173 140zM494 822h198c96 0 152 70 152 144c0 75 -56 146 -152 146h-198v-290zM901 1754l-75 -120c-22 -35 -43 -68 -67 -85c-22 -15 -42 -22 -69 -22c-26 0 -52 8 -76 23c-48 30 -70 74 -66 118
c3 34 13 54 48 110l75 120c22 35 43 68 67 85c22 15 42 22 69 22c26 0 52 -8 76 -23c48 -30 70 -74 66 -118c-3 -34 -13 -54 -48 -110z" />
    <glyph glyph-name="racute" unicode="&#x155;" horiz-adv-x="956" 
d="M124 214v648c0 78 2 106 20 142c23 47 78 80 144 80c90 0 130 -50 154 -96c48 48 138 100 235 100c87 0 138 -20 181 -50c47 -33 74 -76 74 -128c0 -49 -21 -93 -50 -122s-69 -44 -110 -44c-30 0 -66 10 -100 26c-28 13 -54 22 -84 22c-48 0 -136 -26 -136 -148v-430
c0 -78 -2 -106 -20 -142c-23 -47 -78 -80 -144 -80s-121 33 -144 80c-18 36 -20 64 -20 142zM725 1408l-75 -120c-22 -35 -43 -68 -67 -85c-22 -15 -42 -22 -69 -22c-26 0 -52 8 -76 23c-48 30 -70 74 -66 118c3 34 13 54 48 110l75 120c22 35 43 68 67 85
c22 15 42 22 69 22c26 0 52 -8 76 -23c48 -30 70 -74 66 -118c-3 -34 -13 -54 -48 -110z" />
    <glyph glyph-name="Rcommaaccent" unicode="&#x156;" horiz-adv-x="1304" 
d="M840 132l-227 398h-119v-302c0 -80 -1 -108 -22 -150c-25 -50 -84 -86 -154 -86s-129 36 -154 86c-21 42 -22 70 -22 150v981c0 52 0 117 49 166s114 49 166 49h351c316 0 486 -224 486 -458c0 -151 -80 -292 -227 -370l168 -295c40 -70 52 -101 52 -145
c0 -60 -30 -107 -86 -139c-28 -16 -58 -25 -88 -25c-90 0 -133 70 -173 140zM494 822h198c96 0 152 70 152 144c0 75 -56 146 -152 146h-198v-290zM771 -328l-75 -120c-22 -35 -43 -68 -67 -85c-22 -15 -42 -22 -69 -22c-26 0 -52 8 -76 23c-48 30 -70 74 -66 118
c3 34 13 54 48 110l75 120c22 35 43 68 67 85c22 15 42 22 69 22c26 0 52 -8 76 -23c48 -30 70 -74 66 -118c-3 -34 -13 -54 -48 -110z" />
    <glyph glyph-name="rcommaaccent" unicode="&#x157;" horiz-adv-x="956" 
d="M124 214v648c0 78 2 106 20 142c23 47 78 80 144 80c90 0 130 -50 154 -96c48 48 138 100 235 100c87 0 138 -20 181 -50c47 -33 74 -76 74 -128c0 -49 -21 -93 -50 -122s-69 -44 -110 -44c-30 0 -66 10 -100 26c-28 13 -54 22 -84 22c-48 0 -136 -26 -136 -148v-430
c0 -78 -2 -106 -20 -142c-23 -47 -78 -80 -144 -80s-121 33 -144 80c-18 36 -20 64 -20 142zM364 -328l-75 -120c-22 -35 -43 -68 -67 -85c-22 -15 -42 -22 -69 -22c-26 0 -52 8 -76 23c-48 30 -70 74 -66 118c3 34 13 54 48 110l75 120c22 35 43 68 67 85
c22 15 42 22 69 22c26 0 52 -8 76 -23c48 -30 70 -74 66 -118c-3 -34 -13 -54 -48 -110z" />
    <glyph glyph-name="Rcaron" unicode="&#x158;" horiz-adv-x="1304" 
d="M840 132l-227 398h-119v-302c0 -80 -1 -108 -22 -150c-25 -50 -84 -86 -154 -86s-129 36 -154 86c-21 42 -22 70 -22 150v981c0 52 0 117 49 166s114 49 166 49h351c316 0 486 -224 486 -458c0 -151 -80 -292 -227 -370l168 -295c40 -70 52 -101 52 -145
c0 -60 -30 -107 -86 -139c-28 -16 -58 -25 -88 -25c-90 0 -133 70 -173 140zM494 822h198c96 0 152 70 152 144c0 75 -56 146 -152 146h-198v-290zM933 1725l-139 -139c-34 -34 -77 -76 -142 -76s-108 42 -142 76l-139 139c-43 43 -55 59 -65 87c-14 41 -2 87 34 123
s81 48 122 34c28 -10 45 -22 88 -65l102 -102l102 102c43 43 60 55 88 65c41 14 86 2 122 -34s48 -82 34 -123c-10 -28 -22 -44 -65 -87z" />
    <glyph glyph-name="rcaron" unicode="&#x159;" horiz-adv-x="956" 
d="M124 214v648c0 78 2 106 20 142c23 47 78 80 144 80c90 0 130 -50 154 -96c48 48 138 100 235 100c87 0 138 -20 181 -50c47 -33 74 -76 74 -128c0 -49 -21 -93 -50 -122s-69 -44 -110 -44c-30 0 -66 10 -100 26c-28 13 -54 22 -84 22c-48 0 -136 -26 -136 -148v-430
c0 -78 -2 -106 -20 -142c-23 -47 -78 -80 -144 -80s-121 33 -144 80c-18 36 -20 64 -20 142zM757 1379l-139 -139c-34 -34 -77 -76 -142 -76s-108 42 -142 76l-139 139c-43 43 -55 59 -65 87c-14 41 -2 87 34 123s81 48 122 34c28 -10 45 -22 88 -65l102 -102l102 102
c43 43 60 55 88 65c41 14 86 2 122 -34s48 -82 34 -123c-10 -28 -22 -44 -65 -87z" />
    <glyph glyph-name="Sacute" unicode="&#x15a;" horiz-adv-x="1189" 
d="M639 550l-172 24c-126 18 -222 60 -286 126c-66 68 -98 164 -98 286c0 260 196 450 520 450c124 0 219 -20 306 -54c88 -35 146 -96 146 -172c0 -34 -15 -76 -42 -108c-23 -28 -58 -48 -102 -48c-40 0 -86 18 -124 34c-61 26 -130 40 -194 40c-122 0 -172 -68 -172 -120
c0 -28 6 -54 28 -76c18 -18 48 -35 98 -42l172 -24c128 -18 220 -58 280 -118c76 -74 106 -180 106 -312c0 -290 -250 -448 -550 -448c-121 0 -230 10 -326 48c-116 46 -186 100 -186 204c0 38 18 84 48 114c28 28 60 38 96 38c37 0 67 -13 136 -42c70 -30 147 -52 234 -52
c138 0 204 48 204 130c0 34 -8 62 -28 84c-18 18 -48 32 -94 38zM848 1754l-75 -120c-22 -35 -43 -68 -67 -85c-22 -15 -42 -22 -69 -22c-26 0 -52 8 -76 23c-48 30 -70 74 -66 118c3 34 13 54 48 110l75 120c22 35 43 68 67 85c22 15 42 22 69 22c26 0 52 -8 76 -23
c48 -30 70 -74 66 -118c-3 -34 -13 -54 -48 -110z" />
    <glyph glyph-name="sacute" unicode="&#x15b;" horiz-adv-x="1008" 
d="M552 404l-166 16c-186 18 -312 102 -312 312c0 238 214 356 428 356c104 0 184 -14 266 -44c40 -15 82 -40 102 -60c26 -27 36 -54 36 -94c0 -38 -20 -82 -44 -104c-26 -24 -52 -36 -88 -36c-25 0 -58 11 -89 24c-61 25 -123 50 -191 50c-61 0 -104 -26 -104 -67
c0 -43 30 -57 70 -61l166 -16c226 -22 324 -156 324 -328c0 -254 -216 -364 -466 -364c-171 0 -276 29 -370 92c-41 28 -72 68 -72 120c0 44 22 89 52 112c26 20 52 31 86 31c28 0 55 -9 98 -31c70 -36 126 -52 214 -52c73 0 138 24 138 76c0 39 -23 63 -78 68zM766 1408
l-75 -120c-22 -35 -43 -68 -67 -85c-22 -15 -42 -22 -69 -22c-26 0 -52 8 -76 23c-48 30 -70 74 -66 118c3 34 13 54 48 110l75 120c22 35 43 68 67 85c22 15 42 22 69 22c26 0 52 -8 76 -23c48 -30 70 -74 66 -118c-3 -34 -13 -54 -48 -110z" />
    <glyph glyph-name="Scircumflex" unicode="&#x15c;" horiz-adv-x="1189" 
d="M639 550l-172 24c-126 18 -222 60 -286 126c-66 68 -98 164 -98 286c0 260 196 450 520 450c124 0 219 -20 306 -54c88 -35 146 -96 146 -172c0 -34 -15 -76 -42 -108c-23 -28 -58 -48 -102 -48c-40 0 -86 18 -124 34c-61 26 -130 40 -194 40c-122 0 -172 -68 -172 -120
c0 -28 6 -54 28 -76c18 -18 48 -35 98 -42l172 -24c128 -18 220 -58 280 -118c76 -74 106 -180 106 -312c0 -290 -250 -448 -550 -448c-121 0 -230 10 -326 48c-116 46 -186 100 -186 204c0 38 18 84 48 114c28 28 60 38 96 38c37 0 67 -13 136 -42c70 -30 147 -52 234 -52
c138 0 204 48 204 130c0 34 -8 62 -28 84c-18 18 -48 32 -94 38zM701 1589l-102 102l-102 -102c-43 -43 -60 -55 -88 -65c-41 -14 -86 -2 -122 34s-48 82 -34 123c10 28 22 44 65 87l139 139c34 34 77 76 142 76s108 -42 142 -76l139 -139c43 -43 55 -59 65 -87
c14 -41 2 -87 -34 -123s-81 -48 -122 -34c-28 10 -45 22 -88 65z" />
    <glyph glyph-name="scircumflex" unicode="&#x15d;" horiz-adv-x="1008" 
d="M552 404l-166 16c-186 18 -312 102 -312 312c0 238 214 356 428 356c104 0 184 -14 266 -44c40 -15 82 -40 102 -60c26 -27 36 -54 36 -94c0 -38 -20 -82 -44 -104c-26 -24 -52 -36 -88 -36c-25 0 -58 11 -89 24c-61 25 -123 50 -191 50c-61 0 -104 -26 -104 -67
c0 -43 30 -57 70 -61l166 -16c226 -22 324 -156 324 -328c0 -254 -216 -364 -466 -364c-171 0 -276 29 -370 92c-41 28 -72 68 -72 120c0 44 22 89 52 112c26 20 52 31 86 31c28 0 55 -9 98 -31c70 -36 126 -52 214 -52c73 0 138 24 138 76c0 39 -23 63 -78 68zM619 1243
l-102 102l-102 -102c-43 -43 -60 -55 -88 -65c-41 -14 -86 -2 -122 34s-48 82 -34 123c10 28 22 44 65 87l139 139c34 34 77 76 142 76s108 -42 142 -76l139 -139c43 -43 55 -59 65 -87c14 -41 2 -87 -34 -123s-81 -48 -122 -34c-28 10 -45 22 -88 65z" />
    <glyph glyph-name="Scedilla" unicode="&#x15e;" horiz-adv-x="1189" 
d="M639 550l-172 24c-126 18 -222 60 -286 126c-66 68 -98 164 -98 286c0 260 196 450 520 450c124 0 219 -20 306 -54c88 -35 146 -96 146 -172c0 -34 -15 -76 -42 -108c-23 -28 -58 -48 -102 -48c-40 0 -86 18 -124 34c-61 26 -130 40 -194 40c-122 0 -172 -68 -172 -120
c0 -28 6 -54 28 -76c18 -18 48 -35 98 -42l172 -24c128 -18 220 -58 280 -118c76 -74 106 -180 106 -312c0 -290 -250 -448 -550 -448c-121 0 -230 10 -326 48c-116 46 -186 100 -186 204c0 38 18 84 48 114c28 28 60 38 96 38c37 0 67 -13 136 -42c70 -30 147 -52 234 -52
c138 0 204 48 204 130c0 34 -8 62 -28 84c-18 18 -48 32 -94 38zM659 -328l-75 -120c-22 -35 -43 -68 -67 -85c-22 -15 -42 -22 -69 -22c-26 0 -52 8 -76 23c-48 30 -70 74 -66 118c3 34 13 54 48 110l75 120c22 35 43 68 67 85c22 15 42 22 69 22c26 0 52 -8 76 -23
c48 -30 70 -74 66 -118c-3 -34 -13 -54 -48 -110z" />
    <glyph glyph-name="scedilla" unicode="&#x15f;" horiz-adv-x="1008" 
d="M552 404l-166 16c-186 18 -312 102 -312 312c0 238 214 356 428 356c104 0 184 -14 266 -44c40 -15 82 -40 102 -60c26 -27 36 -54 36 -94c0 -38 -20 -82 -44 -104c-26 -24 -52 -36 -88 -36c-25 0 -58 11 -89 24c-61 25 -123 50 -191 50c-61 0 -104 -26 -104 -67
c0 -43 30 -57 70 -61l166 -16c226 -22 324 -156 324 -328c0 -254 -216 -364 -466 -364c-171 0 -276 29 -370 92c-41 28 -72 68 -72 120c0 44 22 89 52 112c26 20 52 31 86 31c28 0 55 -9 98 -31c70 -36 126 -52 214 -52c73 0 138 24 138 76c0 39 -23 63 -78 68zM593 -328
l-75 -120c-22 -35 -43 -68 -67 -85c-22 -15 -42 -22 -69 -22c-26 0 -52 8 -76 23c-48 30 -70 74 -66 118c3 34 13 54 48 110l75 120c22 35 43 68 67 85c22 15 42 22 69 22c26 0 52 -8 76 -23c48 -30 70 -74 66 -118c-3 -34 -13 -54 -48 -110z" />
    <glyph glyph-name="Scaron" unicode="&#x160;" horiz-adv-x="1189" 
d="M639 550l-172 24c-126 18 -222 60 -286 126c-66 68 -98 164 -98 286c0 260 196 450 520 450c124 0 219 -20 306 -54c88 -35 146 -96 146 -172c0 -34 -15 -76 -42 -108c-23 -28 -58 -48 -102 -48c-40 0 -86 18 -124 34c-61 26 -130 40 -194 40c-122 0 -172 -68 -172 -120
c0 -28 6 -54 28 -76c18 -18 48 -35 98 -42l172 -24c128 -18 220 -58 280 -118c76 -74 106 -180 106 -312c0 -290 -250 -448 -550 -448c-121 0 -230 10 -326 48c-116 46 -186 100 -186 204c0 38 18 84 48 114c28 28 60 38 96 38c37 0 67 -13 136 -42c70 -30 147 -52 234 -52
c138 0 204 48 204 130c0 34 -8 62 -28 84c-18 18 -48 32 -94 38zM880 1725l-139 -139c-34 -34 -77 -76 -142 -76s-108 42 -142 76l-139 139c-43 43 -55 59 -65 87c-14 41 -2 87 34 123s81 48 122 34c28 -10 45 -22 88 -65l102 -102l102 102c43 43 60 55 88 65
c41 14 86 2 122 -34s48 -82 34 -123c-10 -28 -22 -44 -65 -87z" />
    <glyph glyph-name="scaron" unicode="&#x161;" horiz-adv-x="1008" 
d="M552 404l-166 16c-186 18 -312 102 -312 312c0 238 214 356 428 356c104 0 184 -14 266 -44c40 -15 82 -40 102 -60c26 -27 36 -54 36 -94c0 -38 -20 -82 -44 -104c-26 -24 -52 -36 -88 -36c-25 0 -58 11 -89 24c-61 25 -123 50 -191 50c-61 0 -104 -26 -104 -67
c0 -43 30 -57 70 -61l166 -16c226 -22 324 -156 324 -328c0 -254 -216 -364 -466 -364c-171 0 -276 29 -370 92c-41 28 -72 68 -72 120c0 44 22 89 52 112c26 20 52 31 86 31c28 0 55 -9 98 -31c70 -36 126 -52 214 -52c73 0 138 24 138 76c0 39 -23 63 -78 68zM798 1379
l-139 -139c-34 -34 -77 -76 -142 -76s-108 42 -142 76l-139 139c-43 43 -55 59 -65 87c-14 41 -2 87 34 123s81 48 122 34c28 -10 45 -22 88 -65l102 -102l102 102c43 43 60 55 88 65c41 14 86 2 122 -34s48 -82 34 -123c-10 -28 -22 -44 -65 -87z" />
    <glyph glyph-name="Tcommaaccent" unicode="&#x162;" horiz-adv-x="1162" 
d="M405 228v884h-147c-72 0 -99 2 -134 19c-44 21 -76 75 -76 137s32 116 76 137c35 17 62 19 134 19h646c72 0 99 -2 134 -19c44 -21 76 -75 76 -137s-32 -116 -76 -137c-35 -17 -62 -19 -134 -19h-147v-884c0 -80 -1 -108 -22 -150c-25 -50 -84 -86 -154 -86
s-129 36 -154 86c-21 42 -22 70 -22 150zM668 -328l-75 -120c-22 -35 -43 -68 -67 -85c-22 -15 -42 -22 -69 -22c-26 0 -52 8 -76 23c-48 30 -70 74 -66 118c3 34 13 54 48 110l75 120c22 35 43 68 67 85c22 15 42 22 69 22c26 0 52 -8 76 -23c48 -30 70 -74 66 -118
c-3 -34 -13 -54 -48 -110z" />
    <glyph glyph-name="tcommaaccent" unicode="&#x163;" horiz-adv-x="767" 
d="M525 0h-6c-232 0 -330 170 -330 318v464h-1c-61 0 -81 3 -108 16c-39 19 -62 59 -62 110s23 91 62 110c27 13 47 16 108 16h1v94c0 78 2 106 20 142c23 47 78 80 144 80s121 -33 144 -80c18 -36 20 -64 20 -142v-94h38c61 0 81 -3 108 -16c39 -19 62 -59 62 -110
s-23 -91 -62 -110c-27 -13 -47 -16 -108 -16h-38v-440c0 -42 20 -66 61 -68c38 -2 63 -9 81 -18c40 -20 66 -60 66 -118s-28 -96 -68 -116c-28 -14 -72 -22 -132 -22zM489 -328l-75 -120c-22 -35 -43 -68 -67 -85c-22 -15 -42 -22 -69 -22c-26 0 -52 8 -76 23
c-48 30 -70 74 -66 118c3 34 13 54 48 110l75 120c22 35 43 68 67 85c22 15 42 22 69 22c26 0 52 -8 76 -23c48 -30 70 -74 66 -118c-3 -34 -13 -54 -48 -110z" />
    <glyph glyph-name="Tcaron" unicode="&#x164;" horiz-adv-x="1162" 
d="M405 228v884h-147c-72 0 -99 2 -134 19c-44 21 -76 75 -76 137s32 116 76 137c35 17 62 19 134 19h646c72 0 99 -2 134 -19c44 -21 76 -75 76 -137s-32 -116 -76 -137c-35 -17 -62 -19 -134 -19h-147v-884c0 -80 -1 -108 -22 -150c-25 -50 -84 -86 -154 -86
s-129 36 -154 86c-21 42 -22 70 -22 150zM862 1725l-139 -139c-34 -34 -77 -76 -142 -76s-108 42 -142 76l-139 139c-43 43 -55 59 -65 87c-14 41 -2 87 34 123s81 48 122 34c28 -10 45 -22 88 -65l102 -102l102 102c43 43 60 55 88 65c41 14 86 2 122 -34s48 -82 34 -123
c-10 -28 -22 -44 -65 -87z" />
    <glyph glyph-name="tcaron" unicode="&#x165;" horiz-adv-x="767" 
d="M525 0h-6c-232 0 -330 170 -330 318v464h-1c-61 0 -81 3 -108 16c-39 19 -62 59 -62 110s23 91 62 110c27 13 47 16 108 16h1v94c0 78 2 106 20 142c23 47 78 80 144 80s121 -33 144 -80c18 -36 20 -64 20 -142v-94h38c61 0 81 -3 108 -16c39 -19 62 -59 62 -110
s-23 -91 -62 -110c-27 -13 -47 -16 -108 -16h-38v-440c0 -42 20 -66 61 -68c38 -2 63 -9 81 -18c40 -20 66 -60 66 -118s-28 -96 -68 -116c-28 -14 -72 -22 -132 -22zM923 1414l-49 -147c-20 -60 -29 -83 -54 -108c-19 -19 -49 -32 -83 -32c-65 0 -125 40 -139 96
c-11 44 2 82 18 130l49 147c20 60 29 83 54 108c19 19 49 32 83 32c65 0 125 -40 139 -96c11 -44 -2 -82 -18 -130z" />
    <glyph glyph-name="Tbar" unicode="&#x166;" horiz-adv-x="1162" 
d="M405 228v354h-20c-64 0 -88 2 -119 18c-39 20 -65 63 -65 118s26 98 65 118c31 16 55 18 119 18h20v258h-147c-72 0 -99 2 -134 19c-44 21 -76 75 -76 137s32 116 76 137c35 17 62 19 134 19h646c72 0 99 -2 134 -19c44 -21 76 -75 76 -137s-32 -116 -76 -137
c-35 -17 -62 -19 -134 -19h-147v-258h20c64 0 88 -2 119 -18c39 -20 65 -63 65 -118s-26 -98 -65 -118c-31 -16 -55 -18 -119 -18h-20v-354c0 -80 -1 -108 -22 -150c-25 -50 -84 -86 -154 -86s-129 36 -154 86c-21 42 -22 70 -22 150z" />
    <glyph glyph-name="tbar" unicode="&#x167;" horiz-adv-x="767" 
d="M525 0h-6c-232 0 -330 170 -330 318v114h-1c-61 0 -81 3 -108 16c-39 19 -62 59 -62 110s23 91 62 110c27 13 47 16 109 16v98h-1c-61 0 -81 3 -108 16c-39 19 -62 59 -62 110s23 91 62 110c27 13 47 16 108 16h1v94c0 78 2 106 20 142c23 47 78 80 144 80
s121 -33 144 -80c18 -36 20 -64 20 -142v-94h38c61 0 81 -3 108 -16c39 -19 62 -59 62 -110s-23 -91 -62 -110c-27 -13 -47 -16 -108 -16h-38v-98h18c61 0 81 -3 108 -16c39 -19 62 -59 62 -110s-23 -91 -62 -110c-27 -13 -47 -16 -108 -16h-18v-90c0 -42 20 -66 61 -68
c38 -2 63 -9 81 -18c40 -20 66 -60 66 -118s-28 -96 -68 -116c-28 -14 -72 -22 -132 -22z" />
    <glyph glyph-name="Utilde" unicode="&#x168;" horiz-adv-x="1320" 
d="M850 508v688c0 80 1 108 22 150c25 50 84 86 154 86s129 -36 154 -86c21 -42 22 -70 22 -150v-696c0 -312 -248 -512 -544 -512s-540 200 -540 512v696c0 80 1 108 22 150c25 50 84 86 154 86s129 -36 154 -86c21 -42 22 -70 22 -150v-688c0 -132 72 -208 188 -208
s192 76 192 208zM1058 1740c0 -37 -23 -76 -65 -111c-59 -47 -114 -62 -194 -62c-60 0 -97 7 -164 43c-40 22 -65 31 -105 31c-36 0 -58 -9 -87 -29c-24 -17 -50 -27 -73 -27c-29 0 -59 9 -84 40c-18 22 -24 48 -24 77c0 37 23 76 65 111c59 47 114 62 194 62
c60 0 97 -7 164 -43c40 -22 65 -31 105 -31c36 0 58 9 87 29c24 17 50 27 73 27c29 0 59 -9 84 -40c18 -22 24 -48 24 -77z" />
    <glyph glyph-name="utilde" unicode="&#x169;" horiz-adv-x="1158" 
d="M706 432v430c0 78 2 106 20 142c23 47 78 80 144 80s121 -33 144 -80c18 -36 20 -64 20 -142v-648c0 -78 -2 -106 -20 -142c-23 -47 -78 -80 -144 -80c-90 0 -130 50 -154 96c-66 -66 -166 -100 -252 -100c-102 0 -184 34 -242 92c-92 92 -108 194 -108 308v474
c0 78 2 106 20 142c23 47 78 80 144 80s121 -33 144 -80c18 -36 20 -64 20 -142v-430c0 -124 88 -148 132 -148s132 24 132 148zM972 1395c0 -37 -23 -76 -65 -111c-59 -47 -114 -62 -194 -62c-60 0 -97 7 -164 43c-40 22 -65 31 -105 31c-36 0 -58 -9 -87 -29
c-24 -17 -50 -27 -73 -27c-29 0 -59 9 -84 40c-18 22 -24 48 -24 77c0 37 23 76 65 111c59 47 114 62 194 62c60 0 97 -7 164 -43c40 -22 65 -31 105 -31c36 0 58 9 87 29c24 17 50 27 73 27c29 0 59 -9 84 -40c18 -22 24 -48 24 -77z" />
    <glyph glyph-name="Umacron" unicode="&#x16a;" horiz-adv-x="1320" 
d="M850 508v688c0 80 1 108 22 150c25 50 84 86 154 86s129 -36 154 -86c21 -42 22 -70 22 -150v-696c0 -312 -248 -512 -544 -512s-540 200 -540 512v696c0 80 1 108 22 150c25 50 84 86 154 86s129 -36 154 -86c21 -42 22 -70 22 -150v-688c0 -132 72 -208 188 -208
s192 76 192 208zM824 1604h-328c-61 0 -81 3 -108 16c-39 19 -62 59 -62 110s23 91 62 110c27 13 47 16 108 16h328c61 0 81 -3 108 -16c39 -19 62 -59 62 -110s-23 -91 -62 -110c-27 -13 -47 -16 -108 -16z" />
    <glyph glyph-name="umacron" unicode="&#x16b;" horiz-adv-x="1158" 
d="M706 432v430c0 78 2 106 20 142c23 47 78 80 144 80s121 -33 144 -80c18 -36 20 -64 20 -142v-648c0 -78 -2 -106 -20 -142c-23 -47 -78 -80 -144 -80c-90 0 -130 50 -154 96c-66 -66 -166 -100 -252 -100c-102 0 -184 34 -242 92c-92 92 -108 194 -108 308v474
c0 78 2 106 20 142c23 47 78 80 144 80s121 -33 144 -80c18 -36 20 -64 20 -142v-430c0 -124 88 -148 132 -148s132 24 132 148zM738 1258h-328c-61 0 -81 3 -108 16c-39 19 -62 59 -62 110s23 91 62 110c27 13 47 16 108 16h328c61 0 81 -3 108 -16c39 -19 62 -59 62 -110
s-23 -91 -62 -110c-27 -13 -47 -16 -108 -16z" />
    <glyph glyph-name="Ubreve" unicode="&#x16c;" horiz-adv-x="1320" 
d="M850 508v688c0 80 1 108 22 150c25 50 84 86 154 86s129 -36 154 -86c21 -42 22 -70 22 -150v-696c0 -312 -248 -512 -544 -512s-540 200 -540 512v696c0 80 1 108 22 150c25 50 84 86 154 86s129 -36 154 -86c21 -42 22 -70 22 -150v-688c0 -132 72 -208 188 -208
s192 76 192 208zM928 1643c-82 -69 -154 -92 -268 -92s-186 23 -268 92c-51 42 -69 78 -69 117c0 25 9 53 30 78c26 30 55 43 85 43c22 0 47 -10 71 -27c50 -37 100 -55 151 -55s101 18 151 55c24 17 49 27 71 27c30 0 59 -13 85 -43c21 -25 30 -53 30 -78
c0 -39 -18 -75 -69 -117z" />
    <glyph glyph-name="ubreve" unicode="&#x16d;" horiz-adv-x="1158" 
d="M706 432v430c0 78 2 106 20 142c23 47 78 80 144 80s121 -33 144 -80c18 -36 20 -64 20 -142v-648c0 -78 -2 -106 -20 -142c-23 -47 -78 -80 -144 -80c-90 0 -130 50 -154 96c-66 -66 -166 -100 -252 -100c-102 0 -184 34 -242 92c-92 92 -108 194 -108 308v474
c0 78 2 106 20 142c23 47 78 80 144 80s121 -33 144 -80c18 -36 20 -64 20 -142v-430c0 -124 88 -148 132 -148s132 24 132 148zM842 1297c-82 -69 -154 -92 -268 -92s-186 23 -268 92c-51 42 -69 78 -69 117c0 25 9 53 30 78c26 30 55 43 85 43c22 0 47 -10 71 -27
c50 -37 100 -55 151 -55s101 18 151 55c24 17 49 27 71 27c30 0 59 -13 85 -43c21 -25 30 -53 30 -78c0 -39 -18 -75 -69 -117z" />
    <glyph glyph-name="Uring" unicode="&#x16e;" horiz-adv-x="1320" 
d="M850 508v688c0 80 1 108 22 150c25 50 84 86 154 86s129 -36 154 -86c21 -42 22 -70 22 -150v-696c0 -312 -248 -512 -544 -512s-540 200 -540 512v696c0 80 1 108 22 150c25 50 84 86 154 86s129 -36 154 -86c21 -42 22 -70 22 -150v-688c0 -132 72 -208 188 -208
s192 76 192 208zM764 1786c0 57 -47 104 -104 104s-104 -47 -104 -104s47 -104 104 -104s104 47 104 104zM660 1510c-152 0 -276 124 -276 276s124 276 276 276s276 -124 276 -276s-124 -276 -276 -276z" />
    <glyph glyph-name="uring" unicode="&#x16f;" horiz-adv-x="1158" 
d="M706 432v430c0 78 2 106 20 142c23 47 78 80 144 80s121 -33 144 -80c18 -36 20 -64 20 -142v-648c0 -78 -2 -106 -20 -142c-23 -47 -78 -80 -144 -80c-90 0 -130 50 -154 96c-66 -66 -166 -100 -252 -100c-102 0 -184 34 -242 92c-92 92 -108 194 -108 308v474
c0 78 2 106 20 142c23 47 78 80 144 80s121 -33 144 -80c18 -36 20 -64 20 -142v-430c0 -124 88 -148 132 -148s132 24 132 148zM678 1462c0 57 -47 104 -104 104s-104 -47 -104 -104s47 -104 104 -104s104 47 104 104zM574 1186c-152 0 -276 124 -276 276s124 276 276 276
s276 -124 276 -276s-124 -276 -276 -276z" />
    <glyph glyph-name="Uhungarumlaut" unicode="&#x170;" horiz-adv-x="1320" 
d="M850 508v688c0 80 1 108 22 150c25 50 84 86 154 86s129 -36 154 -86c21 -42 22 -70 22 -150v-696c0 -312 -248 -512 -544 -512s-540 200 -540 512v696c0 80 1 108 22 150c25 50 84 86 154 86s129 -36 154 -86c21 -42 22 -70 22 -150v-688c0 -132 72 -208 188 -208
s192 76 192 208zM662 1754l-75 -120c-22 -35 -43 -68 -67 -85c-22 -15 -42 -22 -69 -22c-26 0 -52 8 -76 23c-48 30 -70 74 -66 118c3 34 13 54 48 110l75 120c22 35 43 68 67 85c22 15 42 22 69 22c26 0 52 -8 76 -23c48 -30 70 -74 66 -118c-3 -34 -13 -54 -48 -110z
M1120 1754l-75 -120c-22 -35 -43 -68 -67 -85c-22 -15 -42 -22 -69 -22c-26 0 -52 8 -76 23c-48 30 -70 74 -66 118c3 34 13 54 48 110l75 120c22 35 43 68 67 85c22 15 42 22 69 22c26 0 52 -8 76 -23c48 -30 70 -74 66 -118c-3 -34 -13 -54 -48 -110z" />
    <glyph glyph-name="uhungarumlaut" unicode="&#x171;" horiz-adv-x="1158" 
d="M706 432v430c0 78 2 106 20 142c23 47 78 80 144 80s121 -33 144 -80c18 -36 20 -64 20 -142v-648c0 -78 -2 -106 -20 -142c-23 -47 -78 -80 -144 -80c-90 0 -130 50 -154 96c-66 -66 -166 -100 -252 -100c-102 0 -184 34 -242 92c-92 92 -108 194 -108 308v474
c0 78 2 106 20 142c23 47 78 80 144 80s121 -33 144 -80c18 -36 20 -64 20 -142v-430c0 -124 88 -148 132 -148s132 24 132 148zM576 1408l-75 -120c-22 -35 -43 -68 -67 -85c-22 -15 -42 -22 -69 -22c-26 0 -52 8 -76 23c-48 30 -70 74 -66 118c3 34 13 54 48 110l75 120
c22 35 43 68 67 85c22 15 42 22 69 22c26 0 52 -8 76 -23c48 -30 70 -74 66 -118c-3 -34 -13 -54 -48 -110zM1034 1408l-75 -120c-22 -35 -43 -68 -67 -85c-22 -15 -42 -22 -69 -22c-26 0 -52 8 -76 23c-48 30 -70 74 -66 118c3 34 13 54 48 110l75 120c22 35 43 68 67 85
c22 15 42 22 69 22c26 0 52 -8 76 -23c48 -30 70 -74 66 -118c-3 -34 -13 -54 -48 -110z" />
    <glyph glyph-name="Uogonek" unicode="&#x172;" horiz-adv-x="1320" 
d="M850 508v688c0 80 1 108 22 150c25 50 84 86 154 86s129 -36 154 -86c21 -42 22 -70 22 -150v-696c0 -312 -248 -512 -544 -512s-540 200 -540 512v696c0 80 1 108 22 150c25 50 84 86 154 86s129 -36 154 -86c21 -42 22 -70 22 -150v-688c0 -132 72 -208 188 -208
s192 76 192 208zM982 -328l-75 -120c-22 -35 -43 -68 -67 -85c-22 -15 -42 -22 -69 -22c-26 0 -52 8 -76 23c-48 30 -70 74 -66 118c3 34 13 54 48 110l75 120c22 35 43 68 67 85c22 15 42 22 69 22c26 0 52 -8 76 -23c48 -30 70 -74 66 -118c-3 -34 -13 -54 -48 -110z" />
    <glyph glyph-name="uogonek" unicode="&#x173;" horiz-adv-x="1158" 
d="M706 432v430c0 78 2 106 20 142c23 47 78 80 144 80s121 -33 144 -80c18 -36 20 -64 20 -142v-648c0 -78 -2 -106 -20 -142c-23 -47 -78 -80 -144 -80c-90 0 -130 50 -154 96c-66 -66 -166 -100 -252 -100c-102 0 -184 34 -242 92c-92 92 -108 194 -108 308v474
c0 78 2 106 20 142c23 47 78 80 144 80s121 -33 144 -80c18 -36 20 -64 20 -142v-430c0 -124 88 -148 132 -148s132 24 132 148zM924 -328l-75 -120c-22 -35 -43 -68 -67 -85c-22 -15 -42 -22 -69 -22c-26 0 -52 8 -76 23c-48 30 -70 74 -66 118c3 34 13 54 48 110l75 120
c22 35 43 68 67 85c22 15 42 22 69 22c26 0 52 -8 76 -23c48 -30 70 -74 66 -118c-3 -34 -13 -54 -48 -110z" />
    <glyph glyph-name="Wcircumflex" unicode="&#x174;" horiz-adv-x="1764" 
d="M1052 181l-170 551l-170 -551c-17 -56 -35 -116 -82 -151c-31 -23 -70 -38 -117 -38c-45 0 -86 15 -117 38c-46 35 -67 89 -82 151l-246 991c-19 76 -24 103 -16 143c14 65 87 117 167 117c46 0 86 -18 112 -48c26 -31 34 -57 53 -133l143 -579l190 621
c16 52 30 76 54 100c27 27 62 39 111 39s84 -12 111 -39c24 -24 38 -48 54 -100l190 -621l143 579c19 76 27 102 53 133c26 30 66 48 112 48c80 0 153 -52 167 -117c8 -40 3 -67 -16 -143l-246 -991c-15 -62 -36 -116 -82 -151c-31 -23 -72 -38 -117 -38
c-47 0 -86 15 -117 38c-47 35 -65 95 -82 151zM984 1589l-102 102l-102 -102c-43 -43 -60 -55 -88 -65c-41 -14 -86 -2 -122 34s-48 82 -34 123c10 28 22 44 65 87l139 139c34 34 77 76 142 76s108 -42 142 -76l139 -139c43 -43 55 -59 65 -87c14 -41 2 -87 -34 -123
s-81 -48 -122 -34c-28 10 -45 22 -88 65z" />
    <glyph glyph-name="wcircumflex" unicode="&#x175;" horiz-adv-x="1518" 
d="M252 155l-199 682c-20 70 -25 95 -18 132c12 63 81 115 154 115c41 0 80 -15 104 -42c25 -27 35 -51 54 -121l112 -403l137 416c21 64 37 92 61 114c27 25 59 36 102 36s75 -11 102 -36c24 -22 40 -50 61 -114l137 -416l112 403c19 70 29 94 54 121c24 27 63 42 104 42
c73 0 142 -52 154 -115c7 -37 2 -62 -18 -132l-199 -682c-21 -71 -41 -101 -66 -122c-32 -27 -69 -41 -116 -41c-46 0 -83 14 -115 41c-25 21 -44 51 -67 122l-143 435l-143 -435c-23 -71 -42 -101 -67 -122c-32 -27 -69 -41 -115 -41c-47 0 -84 14 -116 41
c-25 21 -45 51 -66 122zM861 1243l-102 102l-102 -102c-43 -43 -60 -55 -88 -65c-41 -14 -86 -2 -122 34s-48 82 -34 123c10 28 22 44 65 87l139 139c34 34 77 76 142 76s108 -42 142 -76l139 -139c43 -43 55 -59 65 -87c14 -41 2 -87 -34 -123s-81 -48 -122 -34
c-28 10 -45 22 -88 65z" />
    <glyph glyph-name="Ycircumflex" unicode="&#x176;" horiz-adv-x="1114" 
d="M381 228v319l-297 594c-35 70 -46 95 -46 135c0 53 33 106 93 136c27 14 56 20 82 20c31 0 60 -10 83 -27c32 -24 45 -48 80 -118l181 -367l181 367c35 70 48 94 80 118c23 17 52 27 83 27c26 0 55 -6 82 -20c60 -30 93 -83 93 -136c0 -40 -11 -65 -46 -135l-297 -594
v-319c0 -80 -1 -108 -22 -150c-25 -50 -84 -86 -154 -86s-129 36 -154 86c-21 42 -22 70 -22 150zM658 1589l-102 102l-102 -102c-43 -43 -60 -55 -88 -65c-41 -14 -86 -2 -122 34s-48 82 -34 123c10 28 22 44 65 87l139 139c34 34 77 76 142 76s108 -42 142 -76l139 -139
c43 -43 55 -59 65 -87c14 -41 2 -87 -34 -123s-81 -48 -122 -34c-28 10 -45 22 -88 65z" />
    <glyph glyph-name="ycircumflex" unicode="&#x177;" horiz-adv-x="946" 
d="M288 12l23 68l-254 751c-17 51 -34 105 -19 150c19 58 81 103 154 103c104 0 133 -81 156 -156l125 -414l125 414c23 75 52 156 156 156c73 0 135 -45 154 -103c15 -45 -2 -99 -19 -150l-331 -963c-21 -62 -51 -107 -84 -142c-64 -66 -146 -90 -234 -90
c-46 0 -115 5 -150 40c-26 26 -44 60 -44 108c0 52 16 90 48 116c30 24 50 30 100 30c36 0 72 16 94 82zM575 1243l-102 102l-102 -102c-43 -43 -60 -55 -88 -65c-41 -14 -86 -2 -122 34s-48 82 -34 123c10 28 22 44 65 87l139 139c34 34 77 76 142 76s108 -42 142 -76
l139 -139c43 -43 55 -59 65 -87c14 -41 2 -87 -34 -123s-81 -48 -122 -34c-28 10 -45 22 -88 65z" />
    <glyph glyph-name="Ydieresis" unicode="&#x178;" horiz-adv-x="1114" 
d="M381 228v319l-297 594c-35 70 -46 95 -46 135c0 53 33 106 93 136c27 14 56 20 82 20c31 0 60 -10 83 -27c32 -24 45 -48 80 -118l181 -367l181 367c35 70 48 94 80 118c23 17 52 27 83 27c26 0 55 -6 82 -20c60 -30 93 -83 93 -136c0 -40 -11 -65 -46 -135l-297 -594
v-319c0 -80 -1 -108 -22 -150c-25 -50 -84 -86 -154 -86s-129 36 -154 86c-21 42 -22 70 -22 150zM320 1547c-88 0 -160 72 -160 160s72 160 160 160s160 -72 160 -160s-72 -160 -160 -160zM788 1547c-88 0 -160 72 -160 160s72 160 160 160s160 -72 160 -160
s-72 -160 -160 -160z" />
    <glyph glyph-name="Zacute" unicode="&#x179;" horiz-adv-x="1149" 
d="M859 0h-538c-71 0 -143 1 -196 54c-37 38 -55 83 -55 136c0 44 19 88 58 148l505 774h-328c-72 0 -99 2 -134 19c-44 21 -76 75 -76 137s32 116 76 137c35 17 62 19 134 19h512c71 0 143 -1 196 -54c37 -38 55 -83 55 -136c0 -44 -19 -88 -58 -148l-505 -774h354
c72 0 99 -2 134 -19c44 -21 76 -75 76 -137s-32 -116 -76 -137c-35 -17 -62 -19 -134 -19zM841 1754l-75 -120c-22 -35 -43 -68 -67 -85c-22 -15 -42 -22 -69 -22c-26 0 -52 8 -76 23c-48 30 -70 74 -66 118c3 34 13 54 48 110l75 120c22 35 43 68 67 85c22 15 42 22 69 22
c26 0 52 -8 76 -23c48 -30 70 -74 66 -118c-3 -34 -13 -54 -48 -110z" />
    <glyph glyph-name="zacute" unicode="&#x17a;" horiz-adv-x="960" 
d="M718 0h-476c-67 0 -97 4 -132 22c-48 24 -68 72 -68 114c0 56 15 88 66 156l366 488h-208c-69 0 -96 2 -128 18c-42 21 -72 70 -72 130s30 109 72 130c32 16 59 18 128 18h452c67 0 97 -4 132 -22c48 -24 68 -72 68 -114c0 -56 -15 -88 -66 -156l-368 -488h234
c69 0 96 -2 128 -18c42 -21 72 -70 72 -130s-30 -109 -72 -130c-32 -16 -59 -18 -128 -18zM741 1408l-75 -120c-22 -35 -43 -68 -67 -85c-22 -15 -42 -22 -69 -22c-26 0 -52 8 -76 23c-48 30 -70 74 -66 118c3 34 13 54 48 110l75 120c22 35 43 68 67 85c22 15 42 22 69 22
c26 0 52 -8 76 -23c48 -30 70 -74 66 -118c-3 -34 -13 -54 -48 -110z" />
    <glyph glyph-name="Zdotaccent" unicode="&#x17b;" horiz-adv-x="1149" 
d="M859 0h-538c-71 0 -143 1 -196 54c-37 38 -55 83 -55 136c0 44 19 88 58 148l505 774h-328c-72 0 -99 2 -134 19c-44 21 -76 75 -76 137s32 116 76 137c35 17 62 19 134 19h512c71 0 143 -1 196 -54c37 -38 55 -83 55 -136c0 -44 -19 -88 -58 -148l-505 -774h354
c72 0 99 -2 134 -19c44 -21 76 -75 76 -137s-32 -116 -76 -137c-35 -17 -62 -19 -134 -19zM592 1550c-88 0 -160 72 -160 160s72 160 160 160s160 -72 160 -160s-72 -160 -160 -160z" />
    <glyph glyph-name="zdotaccent" unicode="&#x17c;" horiz-adv-x="960" 
d="M718 0h-476c-67 0 -97 4 -132 22c-48 24 -68 72 -68 114c0 56 15 88 66 156l366 488h-208c-69 0 -96 2 -128 18c-42 21 -72 70 -72 130s30 109 72 130c32 16 59 18 128 18h452c67 0 97 -4 132 -22c48 -24 68 -72 68 -114c0 -56 -15 -88 -66 -156l-368 -488h234
c69 0 96 -2 128 -18c42 -21 72 -70 72 -130s-30 -109 -72 -130c-32 -16 -59 -18 -128 -18zM492 1204c-88 0 -160 72 -160 160s72 160 160 160s160 -72 160 -160s-72 -160 -160 -160z" />
    <glyph glyph-name="Zcaron" unicode="&#x17d;" horiz-adv-x="1149" 
d="M859 0h-538c-71 0 -143 1 -196 54c-37 38 -55 83 -55 136c0 44 19 88 58 148l505 774h-328c-72 0 -99 2 -134 19c-44 21 -76 75 -76 137s32 116 76 137c35 17 62 19 134 19h512c71 0 143 -1 196 -54c37 -38 55 -83 55 -136c0 -44 -19 -88 -58 -148l-505 -774h354
c72 0 99 -2 134 -19c44 -21 76 -75 76 -137s-32 -116 -76 -137c-35 -17 -62 -19 -134 -19zM873 1725l-139 -139c-34 -34 -77 -76 -142 -76s-108 42 -142 76l-139 139c-43 43 -55 59 -65 87c-14 41 -2 87 34 123s81 48 122 34c28 -10 45 -22 88 -65l102 -102l102 102
c43 43 60 55 88 65c41 14 86 2 122 -34s48 -82 34 -123c-10 -28 -22 -44 -65 -87z" />
    <glyph glyph-name="zcaron" unicode="&#x17e;" horiz-adv-x="960" 
d="M718 0h-476c-67 0 -97 4 -132 22c-48 24 -68 72 -68 114c0 56 15 88 66 156l366 488h-208c-69 0 -96 2 -128 18c-42 21 -72 70 -72 130s30 109 72 130c32 16 59 18 128 18h452c67 0 97 -4 132 -22c48 -24 68 -72 68 -114c0 -56 -15 -88 -66 -156l-368 -488h234
c69 0 96 -2 128 -18c42 -21 72 -70 72 -130s-30 -109 -72 -130c-32 -16 -59 -18 -128 -18zM773 1379l-139 -139c-34 -34 -77 -76 -142 -76s-108 42 -142 76l-139 139c-43 43 -55 59 -65 87c-14 41 -2 87 34 123s81 48 122 34c28 -10 45 -22 88 -65l102 -102l102 102
c43 43 60 55 88 65c41 14 86 2 122 -34s48 -82 34 -123c-10 -28 -22 -44 -65 -87z" />
    <glyph glyph-name="longs" unicode="&#x17f;" horiz-adv-x="576" 
d="M124 214v914c0 148 98 318 330 318h6c60 0 104 -8 132 -22c40 -20 68 -58 68 -116s-26 -98 -66 -118c-18 -9 -45 -17 -76 -18c-44 -2 -66 -26 -66 -68v-890c0 -78 -2 -106 -20 -142c-23 -47 -78 -80 -144 -80s-121 33 -144 80c-18 36 -20 64 -20 142z" />
    <glyph glyph-name="uni018F" unicode="&#x18f;" horiz-adv-x="1262" 
d="M100 561v18c0 52 0 117 49 166s114 49 166 49h498c-2 181 -25 231 -53 268c-26 34 -65 62 -126 62c-66 0 -114 -27 -154 -98c-30 -53 -53 -87 -90 -114c-23 -17 -55 -29 -96 -29c-48 0 -88 17 -121 50c-32 32 -47 69 -47 131s34 167 148 266c88 76 192 106 358 106
s287 -54 389 -156c145 -145 145 -328 145 -568s-2 -423 -147 -568c-102 -102 -223 -156 -397 -156c-163 0 -270 40 -390 160c-98 98 -132 245 -132 413zM809 532h-376c8 -108 25 -141 47 -170c26 -34 76 -62 141 -62s115 28 141 62c22 29 39 62 47 170z" />
    <glyph glyph-name="florin" unicode="&#x192;" horiz-adv-x="981" 
d="M126 -120l134 676h-4c-61 0 -81 3 -108 16c-39 19 -62 59 -62 110s23 91 62 110c27 13 47 16 108 16h54l64 320c45 228 182 319 345 319h6c60 0 104 -8 132 -22c40 -20 68 -58 68 -116s-26 -98 -66 -118c-18 -9 -45 -17 -76 -18h-2c-64 -4 -90 -24 -99 -69l-59 -296h46
c61 0 81 -3 108 -16c39 -19 62 -59 62 -110s-23 -91 -62 -110c-27 -13 -47 -16 -108 -16h-97l-146 -736c-13 -65 -20 -104 -60 -142c-24 -22 -58 -34 -96 -34c-42 0 -85 17 -115 45c-56 53 -42 126 -29 191z" />
    <glyph glyph-name="uni01B5" unicode="&#x1b5;" horiz-adv-x="1149" 
d="M859 0h-538c-71 0 -143 1 -196 54c-37 38 -55 83 -55 136c0 44 19 88 58 148l160 246c-19 3 -32 7 -48 16c-39 20 -65 63 -65 118s26 98 65 118c31 16 55 18 119 18h105l169 258h-328c-72 0 -99 2 -134 19c-44 21 -76 75 -76 137s32 116 76 137c35 17 62 19 134 19h512
c71 0 143 -1 196 -54c37 -38 55 -83 55 -136c0 -44 -19 -88 -58 -148l-154 -235h1c19 -2 33 -7 49 -15c39 -20 65 -63 65 -118s-26 -98 -65 -118c-31 -16 -55 -18 -119 -18h-106l-176 -270h354c72 0 99 -2 134 -19c44 -21 76 -75 76 -137s-32 -116 -76 -137
c-35 -17 -62 -19 -134 -19z" />
    <glyph glyph-name="uni01B6" unicode="&#x1b6;" horiz-adv-x="960" 
d="M718 0h-476c-67 0 -97 4 -132 22c-48 24 -68 72 -68 114c0 56 15 88 66 156l100 133c-15 3 -27 6 -40 13c-39 19 -62 59 -62 110s23 91 62 110c27 13 47 16 108 16h118l80 106h-208c-69 0 -96 2 -128 18c-42 21 -72 70 -72 130s30 109 72 130c32 16 59 18 128 18h452
c67 0 97 -4 132 -22c48 -24 68 -72 68 -114c0 -56 -15 -88 -66 -156l-88 -116c9 -3 18 -6 27 -10c39 -19 62 -59 62 -110s-23 -91 -62 -110c-27 -13 -47 -16 -108 -16h-104l-95 -126h234c69 0 96 -2 128 -18c42 -21 72 -70 72 -130s-30 -109 -72 -130
c-32 -16 -59 -18 -128 -18z" />
    <glyph glyph-name="uni01C4" unicode="&#x1c4;" horiz-adv-x="2425" 
d="M672 0h-315c-52 0 -117 0 -166 49s-49 114 -49 166v994c0 52 0 117 49 166s114 49 166 49h315c214 0 364 -82 462 -240c70 -114 70 -226 70 -472s0 -358 -70 -472c-98 -158 -248 -240 -462 -240zM494 312h154c88 0 136 32 168 80c28 40 38 78 38 320
c0 240 -10 280 -38 320c-32 48 -80 80 -168 80h-154v-800zM2135 0h-538c-71 0 -143 1 -196 54c-37 38 -55 83 -55 136c0 44 19 88 58 148l505 774h-328c-72 0 -99 2 -134 19c-44 21 -76 75 -76 137s32 116 76 137c35 17 62 19 134 19h512c71 0 143 -1 196 -54
c37 -38 55 -83 55 -136c0 -44 -19 -88 -58 -148l-505 -774h354c72 0 99 -2 134 -19c44 -21 76 -75 76 -137s-32 -116 -76 -137c-35 -17 -62 -19 -134 -19zM2156 1725l-139 -139c-34 -34 -77 -76 -142 -76s-108 42 -142 76l-139 139c-43 43 -55 59 -65 87
c-14 41 -2 87 34 123s81 48 122 34c28 -10 45 -22 88 -65l102 -102l102 102c43 43 60 55 88 65c41 14 86 2 122 -34s48 -82 34 -123c-10 -28 -22 -44 -65 -87z" />
    <glyph glyph-name="uni01C5" unicode="&#x1c5;" horiz-adv-x="2259" 
d="M672 0h-315c-52 0 -117 0 -166 49s-49 114 -49 166v994c0 52 0 117 49 166s114 49 166 49h315c214 0 364 -82 462 -240c70 -114 70 -226 70 -472s0 -358 -70 -472c-98 -158 -248 -240 -462 -240zM494 312h154c88 0 136 32 168 80c28 40 38 78 38 320
c0 240 -10 280 -38 320c-32 48 -80 80 -168 80h-154v-800zM2017 0h-476c-67 0 -97 4 -132 22c-48 24 -68 72 -68 114c0 56 15 88 66 156l366 488h-208c-69 0 -96 2 -128 18c-42 21 -72 70 -72 130s30 109 72 130c32 16 59 18 128 18h452c67 0 97 -4 132 -22
c48 -24 68 -72 68 -114c0 -56 -15 -88 -66 -156l-368 -488h234c69 0 96 -2 128 -18c42 -21 72 -70 72 -130s-30 -109 -72 -130c-32 -16 -59 -18 -128 -18zM2075 1379l-139 -139c-34 -34 -77 -76 -142 -76s-108 42 -142 76l-139 139c-43 43 -55 59 -65 87
c-14 41 -2 87 34 123s81 48 122 34c28 -10 45 -22 88 -65l102 -102l102 102c43 43 60 55 88 65c41 14 86 2 122 -34s48 -82 34 -123c-10 -28 -22 -44 -65 -87z" />
    <glyph glyph-name="uni01C6" unicode="&#x1c6;" horiz-adv-x="2097" 
d="M1014 214v996c0 78 -2 106 -20 142c-23 47 -78 80 -144 80s-121 -33 -144 -80c-18 -36 -20 -64 -20 -142v-212c-60 60 -134 90 -240 90c-104 0 -196 -34 -258 -98c-100 -104 -102 -266 -102 -452s2 -348 102 -452c62 -64 156 -98 260 -98c112 0 182 34 248 100
c24 -46 64 -96 154 -96c66 0 121 33 144 80c18 36 20 64 20 142zM550 284c-122 0 -136 98 -136 254s14 254 136 254s136 -98 136 -254s-14 -254 -136 -254zM1855 0h-476c-67 0 -97 4 -132 22c-48 24 -68 72 -68 114c0 56 15 88 66 156l366 488h-208c-69 0 -96 2 -128 18
c-42 21 -72 70 -72 130s30 109 72 130c32 16 59 18 128 18h452c67 0 97 -4 132 -22c48 -24 68 -72 68 -114c0 -56 -15 -88 -66 -156l-368 -488h234c69 0 96 -2 128 -18c42 -21 72 -70 72 -130s-30 -109 -72 -130c-32 -16 -59 -18 -128 -18zM1911 1379l-139 -139
c-34 -34 -77 -76 -142 -76s-108 42 -142 76l-139 139c-43 43 -55 59 -65 87c-14 41 -2 87 34 123s81 48 122 34c28 -10 45 -22 88 -65l102 -102l102 102c43 43 60 55 88 65c41 14 86 2 122 -34s48 -82 34 -123c-10 -28 -22 -44 -65 -87z" />
    <glyph glyph-name="uni01C7" unicode="&#x1c7;" horiz-adv-x="2184" 
d="M892 0h-535c-52 0 -117 0 -166 49s-49 114 -49 166v981c0 80 1 108 22 150c25 50 84 86 154 86s129 -36 154 -86c21 -42 22 -70 22 -150v-884h396c72 0 99 -2 134 -19c44 -21 76 -75 76 -137s-32 -116 -76 -137c-35 -17 -62 -19 -132 -19zM1710 496v700
c0 80 1 108 22 150c25 50 84 86 154 86s129 -36 154 -86c21 -42 22 -70 22 -150v-708c0 -338 -270 -500 -538 -500c-108 0 -204 22 -278 77c-57 42 -76 83 -76 137c0 42 21 87 50 112c28 24 60 34 92 34c42 0 66 -12 110 -28c29 -11 64 -18 102 -18c108 0 186 58 186 194z
" />
    <glyph glyph-name="uni01C8" unicode="&#x1c8;" horiz-adv-x="1727" 
d="M892 0h-535c-52 0 -117 0 -166 49s-49 114 -49 166v981c0 80 1 108 22 150c25 50 84 86 154 86s129 -36 154 -86c21 -42 22 -70 22 -150v-884h396c72 0 99 -2 134 -19c44 -21 76 -75 76 -137s-32 -116 -76 -137c-35 -17 -62 -19 -132 -19zM1273 -360h-6
c-60 0 -104 8 -132 22c-40 20 -68 58 -68 116s26 98 66 118c18 9 43 16 81 18c41 2 61 26 61 68v838c0 78 2 106 20 142c23 47 78 80 144 80s121 -33 144 -80c18 -36 20 -64 20 -142v-862c0 -148 -98 -318 -330 -318zM1439 1142c-100 0 -182 82 -182 182s82 182 182 182
s182 -82 182 -182s-82 -182 -182 -182z" />
    <glyph glyph-name="uni01C9" unicode="&#x1c9;" horiz-adv-x="1257" 
d="M450 0h-6c-232 0 -330 170 -330 318v892c0 78 2 106 20 142c23 47 78 80 144 80s121 -33 144 -80c18 -36 20 -64 20 -142v-868c0 -42 20 -66 61 -68c38 -2 63 -9 81 -18c40 -20 66 -60 66 -118s-28 -96 -68 -116c-28 -14 -72 -22 -132 -22zM803 -360h-6
c-60 0 -104 8 -132 22c-40 20 -68 58 -68 116s26 98 66 118c18 9 43 16 81 18c41 2 61 26 61 68v838c0 78 2 106 20 142c23 47 78 80 144 80s121 -33 144 -80c18 -36 20 -64 20 -142v-862c0 -148 -98 -318 -330 -318zM969 1142c-100 0 -182 82 -182 182s82 182 182 182
s182 -82 182 -182s-82 -182 -182 -182z" />
    <glyph glyph-name="uni01CA" unicode="&#x1ca;" horiz-adv-x="2432" 
d="M1258 208c0 -68 -6 -122 -46 -162c-36 -36 -78 -54 -132 -54c-80 0 -129 50 -207 166l-379 558v-488c0 -80 -1 -108 -22 -150c-25 -50 -84 -86 -154 -86s-129 36 -154 86c-21 42 -22 70 -22 150v988c0 68 6 122 46 162c36 36 78 54 132 54c80 0 129 -50 207 -166
l379 -558v488c0 80 1 108 22 150c25 50 84 86 154 86s129 -36 154 -86c21 -42 22 -70 22 -150v-988zM1958 496v700c0 80 1 108 22 150c25 50 84 86 154 86s129 -36 154 -86c21 -42 22 -70 22 -150v-708c0 -338 -270 -500 -538 -500c-108 0 -204 22 -278 77
c-57 42 -76 83 -76 137c0 42 21 87 50 112c28 24 60 34 92 34c42 0 66 -12 110 -28c29 -11 64 -18 102 -18c108 0 186 58 186 194z" />
    <glyph glyph-name="uni01CB" unicode="&#x1cb;" horiz-adv-x="1976" 
d="M1258 208c0 -68 -6 -122 -46 -162c-36 -36 -78 -54 -132 -54c-80 0 -129 50 -207 166l-379 558v-488c0 -80 -1 -108 -22 -150c-25 -50 -84 -86 -154 -86s-129 36 -154 86c-21 42 -22 70 -22 150v988c0 68 6 122 46 162c36 36 78 54 132 54c80 0 129 -50 207 -166
l379 -558v488c0 80 1 108 22 150c25 50 84 86 154 86s129 -36 154 -86c21 -42 22 -70 22 -150v-988zM1522 -360h-6c-60 0 -104 8 -132 22c-40 20 -68 58 -68 116s26 98 66 118c18 9 43 16 81 18c41 2 61 26 61 68v838c0 78 2 106 20 142c23 47 78 80 144 80s121 -33 144 -80
c18 -36 20 -64 20 -142v-862c0 -148 -98 -318 -330 -318zM1688 1142c-100 0 -182 82 -182 182s82 182 182 182s182 -82 182 -182s-82 -182 -182 -182z" />
    <glyph glyph-name="uni01CC" unicode="&#x1cc;" horiz-adv-x="1735" 
d="M1281 -360h-6c-60 0 -104 8 -132 22c-40 20 -68 58 -68 116s26 98 66 118c18 9 43 16 81 18c41 2 61 26 61 68v838c0 78 2 106 20 142c23 47 78 80 144 80s121 -33 144 -80c18 -36 20 -64 20 -142v-862c0 -148 -98 -318 -330 -318zM1447 1142c-100 0 -182 82 -182 182
s82 182 182 182s182 -82 182 -182s-82 -182 -182 -182zM716 214v430c0 124 -88 148 -132 148s-132 -24 -132 -148v-430c0 -78 -2 -106 -20 -142c-23 -47 -78 -80 -144 -80s-121 33 -144 80c-18 36 -20 64 -20 142v648c0 78 2 106 20 142c23 47 78 80 144 80
c90 0 130 -50 154 -96c66 66 166 100 252 100c102 0 184 -34 242 -92c92 -92 108 -194 108 -308v-474c0 -78 -2 -106 -20 -142c-23 -47 -78 -80 -144 -80s-121 33 -144 80c-18 36 -20 64 -20 142z" />
    <glyph glyph-name="uni01F1" unicode="&#x1f1;" horiz-adv-x="2424" 
d="M672 0h-315c-52 0 -117 0 -166 49s-49 114 -49 166v994c0 52 0 117 49 166s114 49 166 49h315c214 0 364 -82 462 -240c70 -114 70 -226 70 -472s0 -358 -70 -472c-98 -158 -248 -240 -462 -240zM494 312h154c88 0 136 32 168 80c28 40 38 78 38 320
c0 240 -10 280 -38 320c-32 48 -80 80 -168 80h-154v-800zM2134 0h-538c-71 0 -143 1 -196 54c-37 38 -55 83 -55 136c0 44 19 88 58 148l505 774h-328c-72 0 -99 2 -134 19c-44 21 -76 75 -76 137s32 116 76 137c35 17 62 19 134 19h512c71 0 143 -1 196 -54
c37 -38 55 -83 55 -136c0 -44 -19 -88 -58 -148l-505 -774h354c72 0 99 -2 134 -19c44 -21 76 -75 76 -137s-32 -116 -76 -137c-35 -17 -62 -19 -134 -19z" />
    <glyph glyph-name="uni01F2" unicode="&#x1f2;" horiz-adv-x="2259" 
d="M672 0h-315c-52 0 -117 0 -166 49s-49 114 -49 166v994c0 52 0 117 49 166s114 49 166 49h315c214 0 364 -82 462 -240c70 -114 70 -226 70 -472s0 -358 -70 -472c-98 -158 -248 -240 -462 -240zM494 312h154c88 0 136 32 168 80c28 40 38 78 38 320
c0 240 -10 280 -38 320c-32 48 -80 80 -168 80h-154v-800zM2017 0h-476c-67 0 -97 4 -132 22c-48 24 -68 72 -68 114c0 56 15 88 66 156l366 488h-208c-69 0 -96 2 -128 18c-42 21 -72 70 -72 130s30 109 72 130c32 16 59 18 128 18h452c67 0 97 -4 132 -22
c48 -24 68 -72 68 -114c0 -56 -15 -88 -66 -156l-368 -488h234c69 0 96 -2 128 -18c42 -21 72 -70 72 -130s-30 -109 -72 -130c-32 -16 -59 -18 -128 -18z" />
    <glyph glyph-name="uni01F3" unicode="&#x1f3;" horiz-adv-x="2093" 
d="M1014 1210v-996c0 -78 -2 -106 -20 -142c-23 -47 -78 -80 -144 -80c-90 0 -130 50 -154 96c-66 -66 -136 -100 -248 -100c-104 0 -198 34 -260 98c-100 104 -102 266 -102 452s2 348 102 452c62 64 154 98 258 98c106 0 180 -30 240 -90v212c0 78 2 106 20 142
c23 47 78 80 144 80s121 -33 144 -80c18 -36 20 -64 20 -142zM550 284c122 0 136 98 136 254s-14 254 -136 254s-136 -98 -136 -254s14 -254 136 -254zM1851 0h-476c-67 0 -97 4 -132 22c-48 24 -68 72 -68 114c0 56 15 88 66 156l366 488h-208c-69 0 -96 2 -128 18
c-42 21 -72 70 -72 130s30 109 72 130c32 16 59 18 128 18h452c67 0 97 -4 132 -22c48 -24 68 -72 68 -114c0 -56 -15 -88 -66 -156l-368 -488h234c69 0 96 -2 128 -18c42 -21 72 -70 72 -130s-30 -109 -72 -130c-32 -16 -59 -18 -128 -18z" />
    <glyph glyph-name="Aringacute" unicode="&#x1fa;" horiz-adv-x="1294" 
d="M70 268l378 1003c-48 49 -77 117 -77 191c0 152 124 276 276 276s276 -124 276 -276c0 -74 -30 -142 -77 -191l378 -1003c33 -88 55 -157 -12 -224c-31 -31 -78 -52 -126 -52c-39 0 -74 13 -99 36c-30 27 -43 54 -69 126l-21 58h-500l-21 -58c-26 -72 -39 -99 -69 -126
c-25 -23 -60 -36 -99 -36c-48 0 -95 21 -126 52c-67 67 -45 136 -12 224zM844 1904l-69 -69c-43 -43 -60 -55 -88 -65c-41 -14 -86 -2 -122 34s-48 82 -34 123c10 28 22 44 65 87l69 69c43 43 60 55 88 65c41 14 86 2 122 -34s48 -82 34 -123c-10 -28 -22 -44 -65 -87z
M791 504l-144 396l-144 -396h288zM751 1462c0 57 -47 104 -104 104s-104 -47 -104 -104s47 -104 104 -104s104 47 104 104z" />
    <glyph glyph-name="aringacute" unicode="&#x1fb;" horiz-adv-x="1076" 
d="M735 1904l-69 -69c-43 -43 -60 -55 -88 -65c-41 -14 -86 -2 -122 34s-48 82 -34 123c10 28 22 44 65 87l69 69c43 43 60 55 88 65c41 14 86 2 122 -34s48 -82 34 -123c-10 -28 -22 -44 -65 -87zM962 698v-484c0 -78 -2 -106 -20 -142c-23 -47 -78 -80 -144 -80
c-90 0 -130 50 -154 96c-75 -70 -130 -98 -242 -98c-108 0 -198 36 -258 96c-62 62 -94 152 -94 252c0 162 110 312 372 312h212v28c0 98 -50 134 -152 134c-38 0 -96 -14 -134 -30c-43 -18 -74 -26 -100 -26c-32 0 -68 14 -92 44c-27 33 -36 62 -36 98c0 70 58 113 100 132
c85 38 164 58 268 58c308 0 474 -128 474 -390zM634 404v28h-156c-76 0 -114 -34 -114 -88c0 -50 38 -88 118 -88c54 0 84 8 118 38c26 24 34 54 34 110zM632 1462c0 57 -47 104 -104 104s-104 -47 -104 -104s47 -104 104 -104s104 47 104 104zM528 1186
c-152 0 -276 124 -276 276s124 276 276 276s276 -124 276 -276s-124 -276 -276 -276z" />
    <glyph glyph-name="AEacute" unicode="&#x1fc;" horiz-adv-x="1952" 
d="M84 283l463 928c46 91 82 137 117 165c42 33 96 48 144 48h844c72 0 99 -2 134 -19c44 -21 76 -75 76 -137s-32 -116 -76 -137c-35 -17 -62 -19 -134 -19h-418v-238h328c72 0 99 -2 134 -19c44 -21 76 -75 76 -137s-32 -116 -76 -137c-35 -17 -62 -19 -134 -19h-328v-250
h418c72 0 99 -2 134 -19c44 -21 76 -75 76 -137s-32 -116 -76 -137c-35 -17 -62 -19 -134 -19h-555c-52 0 -117 0 -166 49s-49 114 -49 166v83h-426l-80 -161c-35 -70 -48 -94 -80 -118c-23 -17 -52 -27 -83 -27c-26 0 -55 6 -82 20c-60 30 -93 83 -93 136
c0 40 11 65 46 135zM602 590h280v561zM1287 1754l-75 -120c-22 -35 -43 -68 -67 -85c-22 -15 -42 -22 -69 -22c-26 0 -52 8 -76 23c-48 30 -70 74 -66 118c3 34 13 54 48 110l75 120c22 35 43 68 67 85c22 15 42 22 69 22c26 0 52 -8 76 -23c48 -30 70 -74 66 -118
c-3 -34 -13 -54 -48 -110z" />
    <glyph glyph-name="aeacute" unicode="&#x1fd;" horiz-adv-x="1675" 
d="M1423 432h-463c0 -88 68 -170 194 -170c58 0 116 18 162 48c48 32 78 42 114 42c60 0 130 -60 130 -136c0 -52 -30 -98 -102 -148c-78 -54 -184 -80 -308 -80c-132 0 -274 28 -376 130c-130 -120 -236 -130 -368 -130c-108 0 -198 37 -258 98c-62 62 -94 152 -94 252
c0 162 110 312 372 312h212v28c0 98 -50 134 -152 134c-38 0 -96 -14 -134 -30c-43 -18 -74 -26 -100 -26c-32 0 -68 14 -92 44c-27 33 -36 62 -36 98c0 70 58 113 100 132c85 38 164 58 268 58c147 0 261 -30 340 -90c78 60 178 90 288 90c300 0 470 -214 482 -470
c2 -52 -5 -107 -44 -146s-89 -40 -135 -40zM638 404v28h-156c-76 0 -114 -34 -114 -88c0 -50 38 -88 118 -88c54 0 84 8 118 38c26 24 34 54 34 110zM960 650h320c0 26 -4 56 -18 84c-22 46 -64 84 -142 84s-121 -38 -142 -84c-13 -28 -18 -58 -18 -84zM991 1408l-75 -120
c-22 -35 -43 -68 -67 -85c-22 -15 -42 -22 -69 -22c-26 0 -52 8 -76 23c-48 30 -70 74 -66 118c3 34 13 54 48 110l75 120c22 35 43 68 67 85c22 15 42 22 69 22c26 0 52 -8 76 -23c48 -30 70 -74 66 -118c-3 -34 -13 -54 -48 -110z" />
    <glyph glyph-name="Oslashacute" unicode="&#x1fe;" horiz-adv-x="1280" 
d="M640 -12c-72 0 -135 10 -191 28l-3 -6c-27 -54 -39 -71 -63 -90c-34 -26 -80 -29 -126 -6s-72 62 -71 105c0 30 7 50 34 104l15 30c-137 143 -139 324 -139 559c0 240 2 423 147 568c102 102 223 156 397 156c72 0 135 -10 191 -28l3 6c27 54 39 71 63 90
c34 26 80 29 126 6s72 -62 71 -105c0 -30 -7 -50 -34 -104l-15 -30c137 -143 139 -324 139 -559c0 -240 -2 -423 -147 -568c-102 -102 -223 -156 -397 -156zM453 525l276 578c-25 13 -55 21 -89 21c-64 0 -114 -28 -140 -62c-32 -42 -52 -90 -52 -350c0 -81 2 -141 5 -187z
M640 300c64 0 114 30 140 64c32 42 52 88 52 348c0 80 -2 141 -6 187l-275 -578c24 -13 55 -21 89 -21zM889 1754l-75 -120c-22 -35 -43 -68 -67 -85c-22 -15 -42 -22 -69 -22c-26 0 -52 8 -76 23c-48 30 -70 74 -66 118c3 34 13 54 48 110l75 120c22 35 43 68 67 85
c22 15 42 22 69 22c26 0 52 -8 76 -23c48 -30 70 -74 66 -118c-3 -34 -13 -54 -48 -110z" />
    <glyph glyph-name="oslashacute" unicode="&#x1ff;" horiz-adv-x="1100" 
d="M732 1058l12 21c27 45 41 62 63 77c33 22 74 21 114 -3s59 -59 56 -100c-2 -26 -11 -46 -38 -91l-22 -36c73 -91 97 -196 97 -388c0 -212 -28 -314 -118 -412c-64 -68 -172 -138 -346 -138c-71 0 -131 12 -182 30l-12 -21c-27 -45 -41 -62 -63 -77
c-33 -22 -74 -21 -114 3s-59 59 -56 100c2 26 11 46 38 91l22 36c-73 91 -97 193 -97 388c0 210 28 314 118 412c64 68 172 138 346 138c71 0 132 -12 182 -30zM417 437l200 340c-17 10 -39 15 -67 15c-40 0 -68 -10 -88 -30c-42 -42 -48 -118 -48 -224c0 -38 0 -71 3 -101z
M682 639l-200 -341c18 -10 40 -14 68 -14c40 0 68 10 88 30c42 42 48 118 48 224c0 37 -1 71 -4 101zM799 1408l-75 -120c-22 -35 -43 -68 -67 -85c-22 -15 -42 -22 -69 -22c-26 0 -52 8 -76 23c-48 30 -70 74 -66 118c3 34 13 54 48 110l75 120c22 35 43 68 67 85
c22 15 42 22 69 22c26 0 52 -8 76 -23c48 -30 70 -74 66 -118c-3 -34 -13 -54 -48 -110z" />
    <glyph glyph-name="Scommaaccent" unicode="&#x218;" horiz-adv-x="1189" 
d="M639 550l-172 24c-126 18 -222 60 -286 126c-66 68 -98 164 -98 286c0 260 196 450 520 450c124 0 219 -20 306 -54c88 -35 146 -96 146 -172c0 -34 -15 -76 -42 -108c-23 -28 -58 -48 -102 -48c-40 0 -86 18 -124 34c-61 26 -130 40 -194 40c-122 0 -172 -68 -172 -120
c0 -28 6 -54 28 -76c18 -18 48 -35 98 -42l172 -24c128 -18 220 -58 280 -118c76 -74 106 -180 106 -312c0 -290 -250 -448 -550 -448c-121 0 -230 10 -326 48c-116 46 -186 100 -186 204c0 38 18 84 48 114c28 28 60 38 96 38c37 0 67 -13 136 -42c70 -30 147 -52 234 -52
c138 0 204 48 204 130c0 34 -8 62 -28 84c-18 18 -48 32 -94 38zM659 -328l-75 -120c-22 -35 -43 -68 -67 -85c-22 -15 -42 -22 -69 -22c-26 0 -52 8 -76 23c-48 30 -70 74 -66 118c3 34 13 54 48 110l75 120c22 35 43 68 67 85c22 15 42 22 69 22c26 0 52 -8 76 -23
c48 -30 70 -74 66 -118c-3 -34 -13 -54 -48 -110z" />
    <glyph glyph-name="scommaaccent" unicode="&#x219;" horiz-adv-x="1008" 
d="M552 404l-166 16c-186 18 -312 102 -312 312c0 238 214 356 428 356c104 0 184 -14 266 -44c40 -15 82 -40 102 -60c26 -27 36 -54 36 -94c0 -38 -20 -82 -44 -104c-26 -24 -52 -36 -88 -36c-25 0 -58 11 -89 24c-61 25 -123 50 -191 50c-61 0 -104 -26 -104 -67
c0 -43 30 -57 70 -61l166 -16c226 -22 324 -156 324 -328c0 -254 -216 -364 -466 -364c-171 0 -276 29 -370 92c-41 28 -72 68 -72 120c0 44 22 89 52 112c26 20 52 31 86 31c28 0 55 -9 98 -31c70 -36 126 -52 214 -52c73 0 138 24 138 76c0 39 -23 63 -78 68zM593 -328
l-75 -120c-22 -35 -43 -68 -67 -85c-22 -15 -42 -22 -69 -22c-26 0 -52 8 -76 23c-48 30 -70 74 -66 118c3 34 13 54 48 110l75 120c22 35 43 68 67 85c22 15 42 22 69 22c26 0 52 -8 76 -23c48 -30 70 -74 66 -118c-3 -34 -13 -54 -48 -110z" />
    </font>
</defs>
</svg>
