<?xml version="1.0" standalone="no"?>
<!DOCTYPE svg PUBLIC "-//W3C//DTD SVG 20010904//EN"
 "http://www.w3.org/TR/2001/REC-SVG-20010904/DTD/svg10.dtd">
<svg version="1.0" xmlns="http://www.w3.org/2000/svg"
 width="280.000000pt" height="280.000000pt" viewBox="0 0 280.000000 280.000000"
 preserveAspectRatio="xMidYMid meet">
<metadata>
Created by potrace 1.11, written by Peter Selinger 2001-2013
</metadata>
<g transform="translate(0.000000,280.000000) scale(0.100000,-0.100000)"
fill="#000000" stroke="none">
<path d="M1330 2735 c0 -21 5 -25 31 -25 l31 0 -4 -70 c-2 -42 1 -70 7 -71 6
0 18 -2 28 -4 19 -4 19 -7 20 80 1 64 1 65 29 65 23 0 28 4 28 25 0 25 -1 25
-85 25 -84 0 -85 0 -85 -25z"/>
<path d="M1180 2720 c-15 -36 -17 -36 -39 -9 -14 17 -23 20 -49 14 l-33 -7 40
-41 40 -41 -16 -35 c-30 -70 -30 -75 3 -67 16 4 29 8 29 9 1 1 6 15 13 31 l13
28 19 -24 c15 -19 26 -24 49 -20 17 2 31 7 31 11 0 3 -16 22 -35 41 -41 40
-41 41 -15 98 l19 42 -28 0 c-22 0 -31 -7 -41 -30z"/>
<path d="M1577 2730 c-4 -17 0 -24 24 -32 20 -7 28 -15 25 -27 -6 -19 -19
-107 -17 -118 0 -4 11 -8 25 -10 23 -3 25 1 37 67 12 67 13 69 37 63 24 -6 42
8 42 33 0 6 -28 17 -62 23 -35 7 -73 15 -84 17 -16 4 -23 0 -27 -16z"/>
<path d="M1824 2652 c-29 -69 -56 -143 -52 -146 8 -7 141 -57 143 -54 1 2 5
12 9 23 5 17 -1 23 -36 36 -24 9 -44 23 -46 33 -3 16 -1 16 33 1 49 -20 62
-19 68 4 3 15 -4 21 -34 31 -22 7 -39 19 -39 27 0 17 9 16 55 -3 25 -10 41
-12 48 -5 18 18 -1 37 -67 63 l-66 26 -16 -36z"/>
<path d="M884 2660 c-20 -8 -22 -16 -23 -114 -1 -58 2 -106 7 -106 15 0 47 28
47 42 0 7 13 19 29 26 22 11 33 12 51 2 18 -9 27 -9 45 0 22 12 21 14 -51 86
-40 41 -76 74 -79 73 -3 0 -15 -4 -26 -9z m51 -84 c15 -15 10 -26 -12 -26 -7
0 -13 9 -13 20 0 24 6 25 25 6z"/>
<path d="M2019 2503 l-52 -76 23 -19 c24 -19 24 -19 38 7 10 20 16 24 26 16 7
-6 11 -22 9 -35 -3 -16 2 -31 16 -45 30 -30 39 -26 37 15 -1 32 2 37 23 41 32
5 51 32 48 68 -1 22 -14 38 -52 67 -27 21 -53 38 -57 38 -4 0 -31 -35 -59 -77z
m102 -9 c18 -16 15 -44 -5 -44 -6 0 -20 7 -30 15 -16 12 -17 17 -6 30 16 19
19 19 41 -1z"/>
<path d="M628 2520 c-27 -17 -48 -36 -48 -43 0 -6 23 -45 51 -85 34 -48 55
-70 63 -65 53 33 97 72 105 95 8 24 6 30 -16 48 -14 11 -30 17 -35 14 -5 -3
-8 0 -7 7 2 8 -1 24 -5 37 -10 31 -50 28 -108 -8z m72 -29 c0 -12 -28 -41 -40
-41 -20 0 -18 31 3 40 29 12 37 12 37 1z m50 -61 c0 -5 -12 -17 -26 -26 -21
-14 -27 -15 -34 -4 -6 9 -3 18 8 27 20 15 52 17 52 3z"/>
<path d="M1375 2330 c-10 -20 -23 -30 -38 -30 -44 0 -52 -15 -24 -45 20 -23
24 -35 20 -63 -6 -34 -5 -35 18 -27 31 10 67 10 98 0 22 -8 23 -6 18 26 -4 27
0 40 21 62 22 24 24 29 12 37 -8 5 -25 10 -37 10 -15 0 -28 10 -38 30 -9 17
-20 30 -25 30 -5 0 -16 -13 -25 -30z"/>
<path d="M354 2212 c-20 -14 -23 -40 -5 -56 24 -21 37 -20 55 6 26 36 -13 76
-50 50z"/>
<path d="M2391 2202 c-12 -22 11 -62 34 -62 8 0 21 10 29 22 20 28 4 58 -29
58 -13 0 -29 -8 -34 -18z"/>
<path d="M1005 1962 c-3 -3 -5 -24 -5 -47 0 -32 6 -46 26 -64 62 -54 78 -196
33 -287 -30 -60 -70 -82 -161 -88 -79 -5 -88 -9 -88 -41 0 -31 21 -41 95 -43
78 -3 135 -31 162 -80 28 -50 34 -82 34 -170 0 -60 -5 -85 -26 -128 -15 -30
-39 -61 -54 -70 -24 -14 -27 -20 -22 -57 5 -36 9 -42 31 -43 35 -1 116 24 170
51 220 112 233 414 22 506 -24 11 -61 22 -83 25 -39 7 -55 24 -21 24 26 0 113
43 151 76 59 50 84 137 65 231 -9 47 -74 123 -130 155 -49 27 -187 62 -199 50z"/>
<path d="M841 1940 c-112 -41 -173 -113 -179 -216 -3 -48 0 -70 12 -89 37 -56
100 -75 165 -49 46 18 66 52 66 110 0 34 -6 49 -29 73 -17 17 -36 31 -43 31
-8 0 -16 7 -20 16 -9 23 36 64 79 70 35 6 38 9 38 40 0 40 -10 42 -89 14z"/>
<path d="M1677 1946 c-126 -45 -216 -181 -246 -371 -16 -104 -11 -321 11 -405
47 -190 143 -301 281 -324 l37 -7 0 36 c0 22 -8 47 -20 62 -49 63 -65 179 -65
473 0 288 18 412 65 455 13 12 20 31 20 57 0 33 -3 38 -22 38 -13 -1 -40 -7
-61 -14z"/>
<path d="M1828 1925 c-3 -23 1 -40 11 -48 14 -12 39 -65 47 -99 2 -10 6 -28 9
-40 18 -83 25 -402 12 -572 -8 -104 -32 -197 -58 -225 -12 -13 -19 -35 -19
-61 l0 -42 33 7 c89 19 168 79 220 167 31 53 64 159 74 236 12 95 6 292 -10
369 -40 183 -147 314 -278 338 -36 7 -37 6 -41 -30z"/>
<path d="M2630 1724 c0 -3 5 -14 10 -25 13 -24 -7 -26 -36 -4 -10 8 -27 15
-38 15 -15 0 -17 -5 -12 -31 3 -17 6 -35 6 -40 0 -5 7 -6 15 -3 11 4 13 13 9
28 -6 20 -6 20 13 4 24 -22 62 -23 69 -3 9 23 -5 65 -21 65 -8 0 -15 -3 -15
-6z"/>
<path d="M136 1691 c-9 -14 7 -61 20 -61 8 0 13 6 12 13 -2 8 9 11 35 10 57
-4 48 22 -13 34 -28 6 -52 7 -54 4z"/>
<path d="M2592 1520 c-17 -27 -15 -44 6 -63 50 -46 137 24 90 71 -20 20 -81
15 -96 -8z m68 -10 c27 -14 14 -40 -20 -40 -33 0 -47 25 -22 39 21 13 20 13
42 1z"/>
<path d="M112 1518 c-34 -34 6 -90 48 -68 11 6 20 15 20 19 0 5 9 7 20 4 31
-8 24 15 -12 37 -38 23 -59 25 -76 8z m38 -42 c-14 -14 -24 0 -16 21 6 15 8
15 16 3 6 -9 5 -19 0 -24z"/>
<path d="M116 1324 c-20 -19 -20 -35 -3 -59 16 -21 67 -14 67 10 0 8 9 15 20
15 32 0 23 18 -16 35 -45 19 -49 19 -68 -1z m42 -26 c-6 -18 -28 -21 -28 -4 0
9 7 16 16 16 9 0 14 -5 12 -12z"/>
<path d="M2587 1333 c-4 -3 -7 -21 -7 -40 0 -23 5 -33 15 -33 8 0 14 3 14 8
-5 28 3 32 22 8 24 -30 32 -32 53 -10 21 21 21 64 0 64 -9 0 -14 -6 -11 -13 3
-8 1 -20 -4 -28 -8 -12 -11 -11 -19 3 -23 39 -49 56 -63 41z"/>
<path d="M753 1219 c-42 -8 -78 -32 -100 -65 -22 -34 -22 -128 0 -169 39 -75
124 -128 225 -141 l52 -7 0 37 c0 20 -4 37 -10 37 -5 1 -13 2 -17 3 -5 1 -25
5 -45 9 -22 5 -46 19 -58 35 l-21 27 40 17 c22 9 47 28 57 42 21 33 20 107 -1
140 -19 28 -77 45 -122 35z"/>
<path d="M175 1148 c-51 -13 -50 -12 -30 -42 20 -31 40 -34 32 -6 -4 16 1 21
29 26 19 3 34 12 34 20 0 16 -9 16 -65 2z"/>
<path d="M2630 1136 c0 -11 -8 -12 -34 -6 -34 7 -46 5 -46 -10 0 -8 77 -30
103 -30 9 0 12 9 9 30 -4 30 -32 43 -32 16z"/>
<path d="M1390 655 c0 -9 -6 -12 -15 -9 -8 4 -15 2 -15 -4 0 -5 7 -12 15 -16
8 -3 15 -17 15 -31 0 -23 -2 -24 -20 -13 -11 7 -20 21 -20 30 0 10 -4 18 -10
18 -5 0 -10 -5 -10 -11 0 -6 -7 -9 -15 -5 -17 6 -20 -9 -4 -20 8 -4 7 -9 -2
-15 -21 -12 -3 -22 19 -10 14 7 24 7 37 -3 18 -13 18 -14 -1 -24 -12 -7 -25
-7 -37 0 -22 11 -38 1 -18 -11 9 -6 10 -11 2 -15 -6 -4 -11 -12 -11 -17 0 -6
5 -7 11 -4 6 4 17 -1 24 -11 14 -18 14 -18 15 6 0 14 9 31 20 38 18 11 20 10
20 -13 0 -14 -7 -28 -15 -31 -8 -4 -15 -11 -15 -16 0 -6 7 -8 15 -4 9 3 15 0
15 -9 0 -8 5 -15 10 -15 6 0 10 7 10 15 0 9 6 12 15 9 8 -4 15 -2 15 4 0 5 -7
12 -15 16 -8 3 -15 17 -15 31 0 23 2 24 20 13 11 -7 20 -24 20 -38 1 -24 1
-24 15 -6 7 10 18 16 23 12 5 -3 9 8 9 24 0 25 -3 27 -23 20 -14 -6 -28 -4
-40 4 -17 13 -16 14 5 25 17 10 25 10 37 0 8 -6 18 -9 21 -5 4 4 1 11 -6 15
-9 6 -10 11 -2 15 17 11 13 29 -4 22 -8 -3 -15 -1 -15 4 0 6 -4 10 -10 10 -5
0 -10 -8 -10 -18 0 -9 -9 -23 -20 -30 -18 -11 -20 -10 -20 13 0 14 7 28 15 31
8 4 15 11 15 16 0 6 -7 8 -15 4 -9 -3 -15 0 -15 9 0 8 -4 15 -10 15 -5 0 -10
-7 -10 -15z"/>
<path d="M354 652 c-30 -21 -16 -72 21 -72 22 0 45 29 38 48 -7 19 -23 32 -38
32 -5 0 -15 -4 -21 -8z"/>
<path d="M2403 653 c-21 -8 -16 -61 6 -68 41 -13 74 31 44 60 -15 15 -28 17
-50 8z"/>
<path d="M2121 419 c-32 -13 -50 -38 -51 -69 0 -58 57 -93 109 -66 83 43 29
169 -58 135z m40 -39 c23 -13 25 -43 3 -61 -31 -26 -70 25 -44 56 15 18 16 18
41 5z"/>
<path d="M628 372 c-54 -35 -73 -61 -45 -63 6 -1 23 -2 36 -2 16 -1 30 -13 41
-31 9 -16 20 -31 26 -33 5 -2 16 29 25 68 14 61 14 72 2 85 -19 18 -19 18 -85
-24z m52 -37 c0 -9 -6 -12 -15 -9 -8 4 -12 10 -9 15 8 14 24 10 24 -6z"/>
<path d="M1988 336 c-14 -11 -12 -18 19 -74 30 -54 37 -61 54 -51 19 9 18 11
-7 57 -44 78 -47 82 -66 68z"/>
<path d="M788 317 c-20 -36 -48 -99 -48 -108 0 -23 38 -6 52 23 l15 33 7 -48
c5 -30 14 -50 25 -57 16 -8 23 -1 49 53 27 56 29 63 14 75 -14 11 -19 8 -33
-19 l-16 -32 -11 46 c-14 52 -36 66 -54 34z"/>
<path d="M1854 273 l-32 -16 25 -56 c31 -69 35 -73 56 -65 12 4 14 11 7 24
-13 25 -1 33 25 16 13 -8 32 -12 44 -9 l22 6 -22 23 c-12 13 -19 29 -17 36 3
7 2 23 -3 36 -10 27 -57 29 -105 5z m76 -31 c0 -11 -37 -32 -44 -25 -15 15 -4
33 19 33 14 0 25 -3 25 -8z"/>
<path d="M932 198 c-17 -48 -19 -64 -10 -70 22 -13 26 -10 51 55 26 66 26 77
-1 77 -12 0 -24 -19 -40 -62z"/>
<path d="M1023 233 c3 -5 8 -34 11 -66 4 -32 10 -65 13 -73 11 -28 39 -12 84
49 l46 63 -28 2 c-16 1 -29 -1 -29 -5 0 -5 -10 -21 -23 -36 l-22 -28 -3 43
c-1 23 -8 46 -15 50 -15 10 -40 10 -34 1z"/>
<path d="M1706 222 c-2 -4 -7 -28 -10 -52 -4 -25 -9 -57 -12 -73 -3 -15 -1
-27 4 -27 21 0 42 12 36 21 -8 14 47 32 60 19 13 -13 46 -13 46 0 0 5 -19 35
-42 65 -39 50 -69 67 -82 47z m44 -67 c0 -8 -4 -15 -10 -15 -5 0 -10 7 -10 15
0 8 5 15 10 15 6 0 10 -7 10 -15z"/>
<path d="M1200 181 c0 -12 -1 -23 -2 -26 0 -2 -4 -25 -8 -51 -8 -51 -9 -50 63
-58 42 -4 47 -3 47 15 0 12 -7 19 -19 19 -26 0 -51 10 -51 21 0 5 16 6 35 3
30 -4 35 -2 35 14 0 11 -6 20 -12 19 -38 -1 -59 4 -53 13 4 6 22 9 40 6 19 -3
36 -2 39 2 10 17 -11 30 -61 37 -49 6 -53 5 -53 -14z"/>
<path d="M1542 194 c-18 -8 -33 -40 -26 -58 3 -9 24 -21 45 -26 45 -12 45 -29
1 -22 -32 4 -53 -15 -31 -29 25 -15 75 -10 93 10 32 35 14 63 -48 76 -34 7
-28 18 11 19 39 1 37 30 -2 33 -16 1 -36 -1 -43 -3z"/>
<path d="M1355 182 c-3 -3 -5 -36 -5 -74 0 -66 1 -68 25 -68 17 0 23 4 19 15
-11 29 7 36 28 10 10 -14 28 -25 39 -25 23 0 25 13 4 30 -14 12 -14 15 0 30
19 21 19 54 0 70 -15 12 -100 21 -110 12z m81 -43 c8 -14 -14 -29 -33 -22 -7
3 -13 11 -13 19 0 17 36 19 46 3z"/>
</g>
</svg>
