<?xml version="1.0" standalone="no"?>
<!DOCTYPE svg PUBLIC "-//W3C//DTD SVG 20010904//EN"
 "http://www.w3.org/TR/2001/REC-SVG-20010904/DTD/svg10.dtd">
<svg version="1.0" xmlns="http://www.w3.org/2000/svg"
 width="512.000000pt" height="512.000000pt" viewBox="0 0 512.000000 512.000000"
 preserveAspectRatio="xMidYMid meet">
<metadata>
Created by potrace 1.11, written by Peter Selinger 2001-2013
</metadata>
<g transform="translate(0.000000,512.000000) scale(0.100000,-0.100000)"
fill="#000000" stroke="none">
<path d="M2230 4720 c-13 -13 -20 -15 -24 -7 -3 9 -5 9 -5 0 -1 -7 -6 -13 -12
-13 -5 0 -7 5 -3 11 5 8 1 8 -13 0 -11 -6 -23 -8 -26 -4 -4 3 -13 0 -22 -7
-12 -10 -15 -10 -15 0 0 7 -9 2 -20 -11 -11 -13 -20 -19 -19 -14 3 24 -2 27
-17 9 -8 -10 -13 -13 -9 -6 3 6 1 12 -4 12 -6 0 -11 -5 -11 -11 0 -7 -10 -9
-25 -7 -13 3 -22 1 -19 -3 3 -5 -7 -9 -21 -9 -18 0 -24 -4 -19 -12 6 -10 4
-10 -7 0 -7 6 -18 12 -24 12 -5 0 -3 -5 5 -10 10 -7 11 -10 3 -11 -7 -1 -19
-2 -25 -3 -7 -1 -16 3 -20 9 -5 6 -8 3 -8 -7 0 -12 -5 -15 -15 -11 -9 3 -23
-1 -33 -9 -29 -25 -46 -33 -37 -17 8 12 6 12 -8 1 -9 -8 -21 -11 -27 -7 -6 4
-10 3 -9 -2 3 -20 -2 -27 -11 -13 -8 13 -10 12 -10 -3 0 -10 -5 -15 -10 -12
-6 4 -17 1 -25 -5 -8 -7 -15 -9 -15 -6 0 4 -6 1 -14 -6 -8 -7 -12 -15 -11 -19
2 -3 -9 -4 -26 -3 -16 1 -29 -2 -29 -6 0 -5 -9 -12 -20 -15 -12 -4 -17 -11
-13 -18 4 -7 -2 -5 -12 3 -11 9 -16 10 -11 3 5 -9 0 -13 -14 -13 -12 0 -19 -4
-15 -9 3 -5 1 -12 -5 -16 -5 -3 -10 -1 -10 6 0 7 -6 5 -13 -6 -9 -11 -19 -15
-27 -10 -8 5 -11 4 -7 -2 4 -6 -3 -19 -16 -29 -19 -17 -20 -17 -8 -1 13 17 13
17 -12 6 -15 -7 -24 -16 -21 -20 3 -5 -2 -9 -10 -9 -9 0 -16 -5 -16 -11 0 -5
-3 -8 -7 -6 -5 2 -16 -4 -25 -15 -10 -10 -14 -18 -8 -18 5 0 7 -6 4 -14 -3 -8
4 -24 15 -35 13 -13 16 -21 8 -25 -7 -3 -6 -5 3 -5 14 -1 57 -42 52 -48 -1 -2
-2 -9 -2 -15 0 -10 2 -10 9 0 6 10 10 4 14 -18 4 -17 11 -29 17 -25 5 3 10 1
10 -5 0 -6 7 -18 15 -27 8 -8 12 -20 8 -26 -4 -7 1 -6 11 2 9 8 16 10 15 5 -5
-18 13 -54 23 -48 6 4 8 2 4 -4 -3 -6 -2 -13 4 -17 6 -4 7 -11 4 -17 -4 -7 -2
-8 4 -4 7 4 12 2 12 -3 0 -6 5 -10 12 -8 7 1 12 -4 13 -12 0 -8 12 -15 27 -17
21 -2 25 1 21 13 -4 11 -3 14 6 9 7 -5 21 0 32 10 10 9 19 13 20 8 0 -5 5 2
10 16 8 20 12 22 19 10 5 -8 10 -10 10 -4 0 7 9 14 21 17 13 4 18 10 14 17 -5
9 -1 10 15 5 15 -5 20 -4 16 4 -5 7 -1 9 8 5 9 -3 16 -1 16 5 0 6 14 18 31 27
17 8 28 11 25 5 -4 -7 -1 -8 8 -5 9 3 13 11 10 16 -4 6 4 4 17 -3 22 -11 23
-11 10 5 -12 14 -12 16 3 10 10 -4 16 -1 16 7 0 11 3 11 10 -1 7 -12 10 -12
10 -1 0 7 6 11 15 7 8 -3 15 -2 15 3 0 5 12 16 26 26 25 16 25 16 13 -7 -12
-22 -11 -22 8 -6 10 10 28 19 39 21 30 6 54 18 50 26 -2 3 29 6 69 6 42 0 71
4 67 9 -3 5 3 6 13 2 14 -5 16 -4 6 7 -9 12 -7 13 13 10 13 -3 33 0 45 6 14 8
21 8 21 1 0 -5 -5 -10 -12 -10 -6 0 -8 -3 -5 -6 4 -4 13 -1 22 6 8 7 15 9 15
4 0 -4 5 -3 12 4 15 15 31 16 22 0 -5 -7 -3 -8 7 -3 18 12 138 14 145 3 3 -5
12 -4 20 3 11 9 18 8 31 -2 9 -8 14 -9 10 -3 -4 8 12 11 53 10 33 0 60 -4 60
-8 0 -7 19 -5 35 3 6 3 21 4 35 2 14 -2 30 -4 37 -5 6 -1 8 -8 5 -17 -5 -14
-4 -14 13 -1 11 9 16 10 11 3 -7 -12 21 -17 101 -16 12 0 20 -4 17 -8 -8 -13
10 -11 25 4 11 10 12 8 3 -8 -9 -18 -6 -20 31 -22 23 -1 43 -6 45 -13 3 -8 8
-8 18 1 14 11 15 10 18 -13 0 -8 15 -13 34 -13 17 1 32 -3 32 -7 0 -4 3 -7 8
-6 14 4 52 -13 52 -24 0 -5 7 -8 15 -4 8 3 21 -1 29 -9 7 -8 16 -11 20 -8 3 4
6 -2 6 -13 0 -16 2 -17 10 -4 6 10 10 11 10 3 0 -7 6 -12 13 -10 6 1 11 -4 9
-12 -3 -12 0 -12 12 -2 11 9 16 9 22 0 5 -8 3 -9 -7 -4 -12 8 -12 6 0 -9 9
-10 17 -13 21 -7 3 6 13 3 23 -9 9 -11 26 -20 37 -20 12 0 18 -4 15 -10 -3 -5
1 -10 9 -10 9 0 16 -4 16 -9 0 -5 8 -8 18 -6 9 2 20 4 25 4 4 1 7 8 7 16 0 7
8 19 18 24 9 6 13 11 8 11 -5 0 -3 7 4 15 7 8 17 12 24 8 6 -4 4 2 -4 12 -9
11 -10 16 -2 11 8 -5 16 2 22 19 5 14 14 24 19 21 5 -3 12 6 15 19 4 15 11 23
18 19 6 -4 9 -1 6 6 -2 7 6 24 19 38 12 13 20 28 18 32 -3 4 2 11 11 14 9 3
12 11 8 18 -5 8 0 7 11 -2 13 -10 16 -11 11 -2 -5 9 -1 19 12 28 13 9 19 22
17 34 -2 11 1 20 7 20 7 0 3 7 -8 16 -10 8 -13 12 -5 8 10 -5 12 -3 7 5 -5 7
-14 10 -22 7 -8 -3 -14 -1 -14 4 0 6 -7 10 -16 10 -8 0 -12 5 -9 10 6 9 -8 14
-27 11 -5 0 -8 4 -8 9 0 6 -7 10 -16 10 -9 0 -12 5 -8 12 5 8 2 9 -9 5 -11 -4
-25 2 -38 16 -21 23 -23 23 -61 26 -19 1 -21 3 -8 12 12 9 11 10 -7 6 -13 -3
-21 0 -20 6 2 11 -4 13 -39 16 -9 0 -12 6 -8 12 5 8 -1 10 -20 7 -14 -3 -29
-1 -33 5 -4 6 -1 7 7 2 9 -5 11 -4 6 4 -4 6 -15 10 -24 9 -9 -2 -16 3 -15 10
3 11 -29 17 -64 13 -7 -1 -13 3 -13 10 0 6 -7 8 -16 5 -13 -5 -14 -3 -6 7 8
10 6 13 -8 13 -10 0 -16 -5 -13 -11 4 -5 -3 -1 -15 9 -17 14 -22 16 -22 5 -1
-10 -5 -8 -15 5 -9 12 -15 15 -15 7 0 -7 -8 -3 -19 10 -17 21 -21 22 -37 9
-10 -8 -15 -10 -11 -4 4 7 -3 12 -19 12 -15 0 -30 6 -35 13 -5 8 -9 9 -9 3 0
-6 -7 -11 -15 -11 -8 0 -11 5 -8 10 4 6 0 8 -10 4 -9 -3 -19 -1 -23 5 -4 6 -3
8 4 4 6 -3 13 -3 16 2 3 5 -20 8 -50 7 -30 -1 -57 2 -61 8 -3 5 -9 4 -13 -3
-6 -9 -13 -9 -29 -1 -12 7 -27 9 -33 5 -7 -5 -9 -2 -5 9 5 14 -23 16 -304 16
-290 0 -311 -1 -329 -19z m64 2 c2 -4 -7 -8 -20 -8 -13 -1 -24 1 -24 5 0 9 38
12 44 3z m516 2 c0 -8 -19 -13 -24 -6 -3 5 1 9 9 9 8 0 15 -2 15 -3z m385 -74
c3 -6 -1 -7 -9 -4 -18 7 -21 14 -7 14 6 0 13 -4 16 -10z m-831 -31 c-5 -8 1
-10 17 -7 19 3 25 0 25 -14 0 -10 -4 -18 -9 -18 -4 0 -5 -6 -1 -12 5 -8 0 -7
-11 2 -10 8 -16 10 -12 4 12 -20 -4 -74 -22 -75 -14 -1 -14 -2 1 -6 9 -2 23
-17 30 -33 7 -16 16 -26 20 -24 4 3 8 -2 8 -11 0 -9 5 -13 10 -10 6 3 10 -4
10 -17 0 -17 -6 -23 -25 -24 -14 -1 -22 2 -19 7 3 5 -2 9 -11 9 -9 0 -19 9
-22 20 -5 17 -8 18 -21 8 -12 -10 -14 -10 -8 0 4 6 3 12 -3 12 -9 0 -27 -38
-23 -51 1 -5 -39 -5 -59 -1 -13 3 -18 32 -6 29 7 -1 11 4 9 12 -2 8 3 11 12 8
10 -4 14 0 11 14 -3 12 2 19 13 20 10 0 12 3 5 6 -7 2 -13 12 -13 22 0 9 -9
23 -20 31 -11 8 -20 20 -20 28 0 7 -4 11 -9 8 -14 -9 -20 18 -7 30 7 6 19 10
29 8 18 -2 49 -29 41 -36 -2 -3 7 -4 22 -4 14 1 31 10 36 20 8 15 8 17 -3 12
-8 -4 -5 0 5 8 11 9 16 16 12 16 -4 0 -4 5 -1 10 3 6 8 10 11 10 3 0 2 -5 -2
-11z m176 -2 c0 -4 5 -5 10 -2 17 11 62 16 56 7 -3 -5 1 -9 9 -9 8 0 12 3 10
7 -2 3 5 6 16 6 10 0 19 -4 19 -8 0 -4 5 -8 11 -8 5 0 7 5 4 10 -3 6 -1 10 4
10 6 0 11 -5 11 -11 0 -5 3 -8 8 -6 4 3 7 -5 7 -18 0 -28 -55 -55 -56 -27 0
11 -4 8 -10 -8 -14 -34 -17 -130 -4 -131 6 0 5 -3 -2 -5 -7 -3 -10 -11 -7 -19
3 -7 -4 -18 -15 -25 -18 -9 -21 -8 -21 7 0 15 -2 16 -10 3 -11 -17 -11 -17
-14 25 -1 17 -6 37 -11 44 -5 9 -4 12 2 8 6 -4 10 9 10 33 0 22 -4 37 -9 34
-4 -3 -8 -1 -8 5 0 5 6 12 13 14 6 3 2 6 -10 7 -13 2 -27 4 -33 5 -5 1 -15 3
-20 4 -6 0 -9 14 -8 29 1 22 7 28 25 28 13 0 23 -4 23 -9z m305 -19 c6 -3 21
-5 35 -4 14 1 31 -2 38 -7 8 -6 12 -5 12 4 1 10 5 8 15 -5 12 -15 17 -17 29
-7 12 10 14 9 11 -6 -2 -10 -4 -21 -4 -25 -1 -5 -6 -8 -12 -8 -5 0 -7 5 -3 12
4 7 3 8 -4 4 -7 -4 -12 -13 -12 -21 0 -8 -7 -11 -20 -8 -12 3 -20 0 -20 -6 0
-7 -4 -10 -8 -7 -5 3 -10 -18 -11 -47 -1 -28 -8 -55 -14 -59 -9 -6 -8 -11 3
-18 14 -9 7 -15 -14 -11 -5 1 -6 -5 -3 -13 4 -10 1 -13 -8 -9 -8 3 -13 9 -10
13 3 4 -3 7 -12 6 -13 -1 -17 6 -17 27 2 54 4 58 17 51 7 -5 6 0 -3 11 -9 11
-10 16 -2 11 6 -4 12 -3 12 3 0 5 -5 13 -12 17 -8 5 -7 10 3 18 8 6 15 17 17
25 3 12 1 12 -14 0 -12 -9 -15 -9 -10 -1 5 8 0 12 -13 12 -12 0 -21 5 -21 11
0 5 -4 8 -9 4 -5 -3 -13 0 -17 6 -4 7 -3 9 4 5 6 -3 13 3 17 14 6 20 35 24 60
8z m285 -53 c9 5 11 4 6 -3 -4 -8 1 -12 13 -13 21 -2 37 -5 46 -9 3 -1 15 -3
27 -4 14 -1 22 -9 25 -25 3 -21 1 -22 -13 -10 -16 13 -16 12 -6 -8 10 -18 9
-21 -6 -18 -9 2 -20 4 -24 4 -5 1 -7 6 -5 12 1 6 -6 13 -16 14 -9 2 -14 -1
-11 -7 3 -5 -3 -4 -13 3 -14 8 -25 9 -37 2 -16 -9 -16 -11 -2 -25 8 -9 12 -19
8 -24 -4 -5 0 -3 8 3 10 7 21 8 30 3 9 -6 20 -4 30 3 13 11 13 10 1 -6 -12
-15 -12 -20 -1 -30 10 -9 11 -9 6 1 -4 6 -3 12 3 12 15 0 9 -39 -7 -45 -8 -3
-20 -1 -27 5 -7 6 -15 6 -22 -1 -8 -8 -13 -5 -17 9 -4 12 -14 19 -24 18 -21
-4 -18 -44 5 -66 9 -8 13 -10 9 -3 -3 6 -2 14 3 17 5 3 11 -1 15 -9 3 -8 11
-13 18 -10 18 7 34 -6 43 -35 7 -23 7 -23 -9 -7 -21 21 -33 23 -17 3 10 -12 9
-14 -6 -11 -10 2 -22 4 -26 4 -5 1 -5 5 -2 11 4 7 -3 7 -20 0 -17 -7 -24 -7
-20 0 4 6 -5 10 -19 10 -14 0 -26 5 -26 10 0 6 -5 10 -11 10 -5 0 -7 -6 -3
-12 4 -7 -2 -5 -13 5 -22 19 -23 50 -2 75 8 10 15 26 17 37 2 11 4 29 6 40 2
11 4 24 5 28 0 5 7 5 14 1 9 -6 9 -5 -1 8 -10 12 -10 17 0 25 21 16 42 21 49
10 4 -5 12 -6 19 -2z m-1130 -6 c0 -5 -5 -7 -12 -3 -7 5 -8 3 -3 -6 6 -10 11
-9 21 4 11 16 14 15 31 -11 25 -40 39 -53 48 -45 5 4 5 2 2 -4 -4 -7 8 -27 26
-45 17 -18 23 -27 12 -19 -18 14 -19 14 -6 -2 7 -10 20 -18 28 -18 8 0 11 -4
8 -10 -3 -5 -2 -10 3 -10 5 0 9 -7 9 -15 0 -8 -3 -13 -5 -10 -3 3 -11 0 -19
-6 -16 -14 -47 7 -36 24 3 6 1 7 -6 3 -6 -4 -9 -12 -6 -17 3 -5 -1 -6 -9 -3
-9 3 -14 10 -11 14 3 5 0 12 -6 16 -8 5 -9 3 -4 -6 6 -10 4 -12 -10 -6 -15 5
-16 4 -6 -8 10 -12 9 -14 -7 -9 -24 6 -62 -13 -62 -30 0 -7 -6 -21 -13 -32
-11 -14 -16 -15 -22 -5 -6 9 -4 11 6 6 9 -5 8 -2 -2 6 -16 14 -19 74 -4 98 4
7 2 16 -6 21 -12 7 -12 9 0 9 11 0 11 3 1 15 -15 18 0 20 20 3 12 -11 12 -10
1 5 -8 9 -11 20 -8 24 4 3 2 12 -4 20 -9 10 -7 13 6 13 10 0 15 3 12 6 -8 9
11 44 23 44 6 0 10 -5 10 -11z m1386 -92 c9 3 14 -2 15 -13 0 -18 1 -17 9 1 8
19 11 18 14 -4 0 -5 5 -13 10 -18 5 -5 6 -3 2 5 -10 17 0 15 23 -5 11 -9 17
-21 14 -26 -4 -6 1 -8 12 -4 14 6 16 3 12 -13 -5 -18 -3 -19 10 -8 14 12 15
11 5 -9 -15 -28 -15 -36 0 -27 7 5 8 3 4 -5 -5 -7 -14 -10 -20 -8 -7 3 -13 -1
-13 -9 0 -7 5 -10 10 -7 6 4 7 1 3 -6 -5 -7 -14 -10 -22 -7 -8 3 -13 0 -11 -6
1 -7 -4 -13 -10 -14 -7 -1 -16 -3 -20 -4 -5 -1 -12 -2 -16 -1 -5 1 -6 -3 -2
-9 3 -6 9 -8 13 -6 4 2 7 -7 7 -20 0 -13 -3 -24 -7 -24 -4 0 -5 -6 -2 -14 3
-7 -2 -16 -10 -19 -11 -4 -13 -1 -9 10 5 13 2 15 -15 11 -15 -4 -19 -2 -15 8
3 8 1 14 -5 14 -5 0 -8 13 -6 29 4 34 -24 52 -38 26 -5 -8 -13 -13 -19 -10 -5
4 -9 -2 -10 -12 0 -12 -2 -14 -6 -4 -4 10 -7 10 -13 2 -5 -9 -11 -7 -21 5 -12
16 -12 17 1 9 13 -8 13 -6 2 7 -18 22 2 62 26 54 14 -5 14 -4 -1 8 -10 8 -13
16 -7 18 5 1 12 14 15 27 2 13 11 31 18 40 8 9 17 24 20 34 4 10 11 15 17 12
5 -3 11 0 11 7 1 7 3 5 6 -4 2 -10 10 -15 19 -11z m-1626 -11 c0 -6 5 -4 10 4
7 11 10 11 10 2 0 -7 4 -11 9 -8 5 4 8 -5 6 -19 -2 -19 1 -23 10 -15 9 8 12 4
10 -14 -2 -14 -6 -30 -10 -35 -4 -7 0 -8 11 -4 12 4 15 3 10 -5 -5 -8 -2 -10
8 -6 20 8 38 -35 24 -53 -7 -9 -7 -13 1 -13 8 0 8 -4 -1 -14 -7 -8 -17 -13
-23 -13 -5 1 -9 -4 -7 -11 2 -9 -4 -11 -18 -7 -15 5 -22 1 -29 -17 -6 -13 -10
-17 -10 -10 -1 7 -6 10 -11 7 -6 -4 -8 -11 -5 -16 4 -5 -5 -5 -20 1 -15 6 -24
6 -20 1 3 -5 1 -12 -5 -16 -5 -3 -10 -1 -10 5 0 6 -4 9 -9 5 -6 -3 -8 4 -6 15
2 11 0 20 -5 20 -17 0 -34 43 -42 106 -1 6 -8 11 -17 10 -10 -1 -15 8 -15 24
0 18 5 25 17 24 15 -2 16 1 5 14 -9 10 -9 13 -1 9 6 -4 14 -3 17 2 3 5 16 7
28 3 14 -3 19 -2 14 6 -5 8 1 12 14 12 12 0 19 4 16 8 -2 4 6 8 20 8 13 0 24
-5 24 -10z m1353 -72 c-3 -8 -7 -14 -10 -14 -3 0 -3 6 0 14 3 7 0 20 -6 27
-10 11 -9 11 5 0 9 -7 14 -19 11 -27z m-858 -4 c3 -6 -1 -7 -9 -4 -18 7 -21
14 -7 14 6 0 13 -4 16 -10z m-245 -35 c-7 -9 -15 -13 -19 -10 -3 3 1 10 9 15
21 14 24 12 10 -5z"/>
<path d="M2500 4599 c0 -5 5 -7 10 -4 6 3 10 8 10 11 0 2 -4 4 -10 4 -5 0 -10
-5 -10 -11z"/>
<path d="M3021 4386 c-9 -11 -9 -16 1 -22 7 -4 10 -4 6 1 -4 4 -3 14 3 22 6 7
9 13 6 13 -2 0 -10 -6 -16 -14z"/>
<path d="M1997 4446 c-3 -8 -2 -18 3 -21 5 -3 6 -13 3 -23 -6 -16 -6 -16 11 1
20 20 33 23 17 4 -8 -10 -7 -14 2 -14 7 0 14 9 14 19 1 10 -4 18 -10 18 -7 0
-6 4 3 11 12 9 12 10 -4 5 -11 -4 -23 -2 -26 4 -5 8 -9 7 -13 -4z"/>
<path d="M3315 4400 c-3 -5 -1 -10 4 -10 6 0 11 5 11 10 0 6 -2 10 -4 10 -3 0
-8 -4 -11 -10z"/>
<path d="M3365 4381 c3 -2 0 -10 -5 -16 -8 -9 -2 -20 21 -39 30 -25 33 -26 50
-10 13 12 16 21 9 29 -5 6 -7 15 -3 18 3 4 -1 7 -10 7 -9 0 -17 4 -17 8 0 4
-11 8 -25 8 -13 0 -22 -2 -20 -5z m50 -61 c3 -6 -1 -7 -9 -4 -18 7 -21 14 -7
14 6 0 13 -4 16 -10z"/>
<path d="M3360 4300 c-8 -5 -12 -12 -9 -15 4 -3 12 1 19 10 14 17 11 19 -10 5z"/>
<path d="M1730 4381 c0 -5 -11 -8 -25 -5 -20 3 -23 1 -18 -12 5 -13 3 -15 -8
-9 -9 5 -8 2 3 -10 24 -26 68 -13 68 20 0 14 -4 25 -10 25 -5 0 -10 -4 -10 -9z"/>
<path d="M1763 4316 c5 -12 2 -17 -11 -15 -9 1 -24 1 -32 0 -13 -1 -13 -2 0
-11 10 -7 11 -13 4 -17 -6 -5 -4 -14 8 -25 15 -15 18 -15 18 -3 0 14 11 19 37
16 8 -1 10 5 6 15 -4 12 -3 15 5 10 21 -13 13 0 -15 23 -19 18 -25 19 -20 7z"/>
<path d="M2890 4736 c0 -2 8 -10 18 -17 15 -13 16 -12 3 4 -13 16 -21 21 -21
13z"/>
<path d="M3874 4247 c-12 -12 -24 -29 -28 -37 -4 -8 1 -6 11 5 10 11 27 28 38
38 10 9 15 17 10 16 -6 0 -19 -10 -31 -22z"/>
<path d="M2796 4252 c-3 -4 4 -9 15 -9 23 -2 25 3 4 10 -8 4 -16 3 -19 -1z"/>
<path d="M1201 4233 c-6 -10 -11 -14 -11 -10 0 5 -18 -10 -40 -32 -23 -23 -45
-41 -51 -41 -6 0 -8 -3 -6 -7 3 -5 -1 -13 -8 -20 -11 -10 -15 -10 -18 0 -3 7
-6 6 -6 -4 -1 -9 -12 -24 -26 -33 -14 -9 -23 -21 -20 -26 4 -6 0 -10 -8 -10
-8 0 -21 -8 -28 -17 -12 -14 -12 -16 0 -8 10 5 12 4 7 -3 -4 -7 -14 -12 -23
-12 -9 0 -14 -3 -10 -6 3 -3 -5 -16 -18 -29 -14 -12 -22 -25 -18 -28 6 -7 -12
-11 -30 -8 -5 1 -6 -3 -2 -9 3 -5 0 -10 -7 -10 -9 0 -9 -3 2 -10 13 -8 13 -10
-2 -10 -9 0 -20 -5 -24 -12 -5 -7 -2 -9 7 -4 9 5 8 3 -2 -6 -8 -7 -18 -21 -22
-32 -4 -10 -13 -16 -21 -13 -7 3 -13 0 -13 -6 1 -32 -4 -48 -13 -42 -5 3 -10
1 -10 -5 0 -6 -4 -9 -9 -6 -5 3 -9 0 -8 -7 1 -34 -5 -46 -24 -52 -17 -6 -19
-9 -8 -16 10 -6 11 -9 2 -9 -7 0 -13 -7 -13 -16 0 -8 -4 -12 -10 -9 -9 6 -14
-8 -11 -27 0 -5 -3 -8 -9 -8 -5 0 -9 -3 -9 -7 1 -5 1 -15 0 -23 -1 -13 -2 -13
-11 0 -8 13 -10 13 -11 -2 -1 -10 -3 -22 -4 -28 -1 -5 -3 -17 -4 -26 0 -10 -7
-14 -15 -11 -10 4 -14 0 -11 -13 2 -11 -2 -25 -9 -32 -7 -7 -11 -19 -8 -27 3
-9 0 -11 -8 -6 -10 6 -12 2 -8 -13 4 -12 2 -20 -3 -16 -5 3 -9 2 -10 -3 0 -4
-2 -19 -3 -32 -2 -13 -10 -29 -18 -35 -8 -6 -13 -17 -11 -23 3 -7 -3 -20 -11
-29 -9 -8 -16 -21 -15 -27 0 -9 2 -8 6 1 2 6 10 12 16 12 7 -1 3 -8 -8 -18
-11 -9 -22 -33 -24 -52 -3 -40 -9 -52 -20 -46 -4 3 -8 -1 -8 -9 0 -8 5 -12 11
-9 6 3 2 -2 -8 -10 -13 -10 -15 -16 -7 -16 11 0 11 -3 1 -15 -6 -8 -9 -19 -5
-25 3 -5 1 -10 -6 -10 -10 0 -10 -3 -1 -12 9 -9 7 -15 -6 -25 -12 -10 -14 -16
-5 -19 9 -4 10 -11 3 -23 -5 -10 -6 -21 -2 -25 3 -4 -1 -4 -9 -1 -13 5 -16 0
-14 -19 2 -14 6 -30 10 -35 3 -6 1 -11 -5 -11 -6 0 -8 -11 -6 -25 3 -14 0 -25
-5 -25 -6 0 -5 -9 2 -21 7 -13 7 -19 1 -15 -6 3 -13 2 -17 -4 -3 -5 -1 -10 4
-10 6 0 11 -5 11 -10 0 -7 -6 -7 -18 -1 -16 9 -58 -9 -47 -20 2 -3 -5 -5 -16
-6 -18 -2 -19 0 -7 14 9 12 9 15 1 9 -7 -4 -22 -9 -34 -11 -11 -2 -30 -7 -42
-11 -20 -6 -21 -5 -7 11 14 17 14 17 -16 2 -19 -10 -35 -12 -44 -7 -9 5 -20 5
-27 -2 -8 -6 -16 -8 -20 -4 -4 3 2 13 13 22 18 14 18 15 -4 4 -12 -6 -27 -8
-32 -5 -5 3 -12 0 -16 -6 -4 -8 -3 -9 4 -5 7 4 12 3 12 -3 0 -5 -9 -9 -20 -8
-23 1 -25 8 -8 25 7 7 -3 5 -22 -4 -19 -10 -38 -22 -41 -27 -3 -5 -9 -1 -13 8
-3 9 -10 13 -16 10 -14 -9 -14 -422 0 -430 6 -4 18 -1 27 7 9 7 14 8 10 2 -4
-6 8 -15 28 -22 19 -5 33 -6 29 -1 -3 5 12 9 33 9 28 0 34 -3 23 -10 -9 -6
-10 -10 -3 -10 7 0 17 8 22 18 10 16 10 16 11 0 0 -20 15 -24 26 -6 5 7 3 8
-6 3 -8 -5 -11 -4 -7 2 8 12 67 4 67 -9 0 -5 5 -6 10 -3 6 4 8 11 5 16 -3 5 1
6 9 3 9 -3 13 -10 10 -15 -3 -5 2 -6 10 -3 9 3 13 10 10 15 -3 5 2 6 10 3 9
-3 14 -9 12 -13 -3 -4 15 -6 40 -6 29 1 41 -2 35 -8 -7 -7 -4 -15 7 -24 11 -9
11 -12 2 -7 -10 5 -8 0 4 -15 20 -22 20 -22 0 -15 -16 7 -17 5 -7 -7 6 -8 10
-24 9 -34 -2 -11 2 -26 8 -34 9 -12 8 -13 -3 -6 -8 5 -5 -5 7 -22 15 -22 19
-34 11 -39 -8 -5 -8 -8 0 -13 6 -4 12 -29 14 -54 1 -26 6 -47 11 -47 4 0 6
-11 4 -24 -3 -15 -1 -23 6 -20 7 3 12 -6 13 -18 4 -53 15 -88 25 -82 7 4 8 -1
3 -16 -5 -17 -4 -21 6 -15 9 6 11 4 6 -7 -3 -9 0 -21 6 -28 9 -10 9 -11 -3 -5
-12 7 -13 6 -3 -7 7 -8 10 -18 6 -21 -3 -4 2 -9 11 -13 9 -3 13 -10 10 -15 -3
-5 0 -9 6 -9 7 0 10 -7 7 -15 -4 -8 -2 -17 4 -20 5 -4 6 -11 3 -17 -5 -7 -2
-9 7 -6 9 4 15 -1 15 -11 1 -28 8 -45 25 -61 9 -8 14 -21 12 -28 -3 -7 6 -21
19 -32 20 -18 21 -19 3 -14 -19 5 -19 5 1 -8 12 -7 19 -19 16 -27 -2 -8 0 -11
5 -8 5 3 15 -4 23 -16 12 -21 12 -21 -6 -7 -18 14 -18 14 -2 -6 10 -11 18 -26
18 -33 0 -7 4 -10 9 -6 12 7 32 -28 29 -47 -2 -7 5 -12 14 -12 10 1 15 -2 12
-8 -3 -5 4 -18 17 -29 15 -13 17 -19 8 -20 -8 0 -4 -4 9 -9 12 -5 23 -14 23
-20 1 -5 2 -14 3 -19 2 -12 96 -103 97 -94 1 4 1 12 0 17 -1 5 4 4 12 -3 12
-9 16 -9 20 3 3 7 0 19 -6 25 -8 8 -7 11 3 12 8 0 5 4 -7 9 -15 6 -23 18 -23
32 0 16 -3 19 -9 10 -6 -10 -11 -5 -21 17 -7 17 -16 28 -21 25 -5 -3 -9 2 -9
10 0 9 -5 16 -12 16 -6 0 -9 3 -6 6 4 3 -2 14 -13 25 -11 11 -17 23 -15 28 3
4 -6 18 -19 31 -13 13 -22 28 -18 33 4 6 0 8 -9 5 -8 -4 -15 -1 -16 5 -2 27
-9 47 -17 54 -4 4 -5 1 -1 -7 4 -8 -1 -4 -12 10 -11 13 -19 28 -16 31 2 4 -2
10 -8 12 -9 4 -8 6 2 6 11 1 8 7 -9 20 -13 10 -25 31 -27 47 -2 15 -10 31 -18
36 -8 5 -13 15 -10 23 4 8 1 15 -6 15 -6 0 -9 4 -5 9 3 5 -1 16 -9 24 -8 7
-16 25 -18 38 -1 13 -6 26 -10 29 -3 3 -8 14 -10 25 -1 11 -8 25 -13 31 -6 6
-10 28 -9 48 2 30 -1 35 -12 25 -10 -8 -12 -7 -9 10 2 12 -1 21 -8 21 -8 0 -8
3 1 9 11 6 10 10 -4 15 -16 6 -16 8 -4 16 12 8 12 10 1 10 -10 0 -11 3 -2 13
8 11 6 20 -9 37 -22 25 -26 35 -10 25 9 -6 5 16 -8 40 -3 5 -7 22 -9 39 -2 16
-9 36 -16 44 -10 13 -9 15 7 8 20 -7 20 -7 0 15 -10 12 -13 19 -7 15 7 -4 13
-2 13 3 0 6 -4 11 -10 11 -14 0 -12 43 2 59 11 11 10 13 -5 8 -11 -4 -16 -3
-12 4 4 6 21 9 39 8 17 -2 37 0 43 4 8 5 11 1 8 -12 -3 -15 1 -19 16 -16 10 2
18 1 18 -3 -1 -4 0 -9 1 -12 8 -20 5 -68 -4 -63 -6 3 -6 0 1 -7 6 -7 9 -19 6
-28 -4 -10 -2 -13 5 -8 15 9 15 1 2 -24 -11 -20 -3 -53 10 -45 5 3 6 -5 2 -17
-4 -16 -2 -19 9 -13 11 7 11 5 -1 -10 -8 -10 -10 -16 -4 -12 7 4 15 0 18 -9 9
-23 8 -26 -6 -18 -10 6 -10 5 -1 -8 7 -8 10 -18 6 -21 -3 -4 -2 -7 4 -7 6 0
10 -14 9 -31 -1 -18 3 -33 11 -36 7 -3 13 -14 13 -24 0 -10 5 -19 11 -19 8 0
8 -5 -1 -15 -9 -10 -9 -15 -1 -15 6 0 11 -5 11 -11 0 -5 -6 -7 -12 -3 -8 4
-10 3 -5 -2 5 -5 14 -9 20 -9 7 0 12 -10 11 -23 0 -12 4 -22 9 -22 5 0 7 -6 4
-12 -2 -7 5 -24 17 -37 12 -14 15 -21 6 -17 -12 6 -12 5 1 -6 9 -7 15 -23 14
-35 -1 -15 3 -19 13 -15 10 3 13 1 8 -6 -4 -7 -2 -12 4 -12 6 0 8 -5 5 -10 -3
-6 1 -13 9 -16 22 -8 20 -25 -2 -18 -9 3 -7 -1 6 -8 12 -8 19 -17 16 -21 -4
-4 -2 -7 5 -7 8 0 11 -6 7 -17 -4 -10 -4 -14 0 -11 8 9 33 -14 27 -25 -6 -10
17 -38 26 -33 6 4 9 -9 13 -50 1 -6 8 -11 17 -10 9 1 17 -8 19 -21 2 -12 11
-27 20 -35 16 -12 16 -11 2 7 -12 17 -12 18 0 7 15 -13 16 -16 19 -46 0 -7 11
-16 22 -19 14 -4 20 -11 16 -21 -3 -8 -1 -18 5 -22 7 -4 8 -3 4 4 -12 20 4 13
27 -11 12 -12 19 -18 14 -13 -13 18 -8 24 16 19 14 -3 18 -2 10 4 -7 5 -9 14
-3 22 6 10 1 20 -16 33 -13 11 -24 25 -24 32 0 6 -9 20 -21 29 -11 10 -18 25
-15 32 3 8 2 14 -2 14 -4 -1 -16 -1 -27 0 -17 1 -18 3 -5 11 10 6 11 10 3 10
-7 0 -13 7 -13 15 0 9 -7 18 -15 21 -8 4 -15 18 -15 33 0 20 -2 23 -10 11 -9
-13 -10 -13 -11 0 -1 8 -1 18 0 23 0 4 -4 7 -10 7 -6 0 -8 7 -5 16 3 8 2 13
-3 10 -5 -3 -15 2 -22 11 -12 14 -12 16 1 8 12 -7 13 -6 3 7 -7 8 -9 19 -5 23
4 5 1 5 -5 1 -9 -5 -13 0 -13 12 0 11 -7 23 -16 26 -9 4 -14 9 -10 13 3 3 -2
15 -11 25 -16 18 -16 19 3 13 13 -4 11 -2 -4 7 -15 7 -22 18 -19 30 3 10 2 18
-2 18 -14 0 -36 56 -43 108 -1 6 -6 12 -12 12 -6 0 -4 5 4 10 13 8 12 10 -3
10 -14 0 -17 5 -12 21 5 14 3 19 -4 15 -6 -4 -9 5 -7 28 1 19 -1 33 -5 30 -4
-2 -10 0 -14 6 -3 5 0 10 7 10 7 0 2 7 -10 16 -17 11 -20 19 -13 28 6 7 8 16
4 20 -4 4 -9 26 -10 49 -2 60 -2 59 -13 52 -6 -4 -10 8 -10 30 0 26 -3 34 -12
29 -7 -4 -4 3 7 16 11 13 14 20 8 16 -7 -4 -13 -2 -13 3 0 6 8 11 18 12 10 0
12 3 4 6 -6 2 -10 9 -7 13 8 13 36 0 28 -14 -3 -6 2 -3 13 6 13 12 24 14 34 8
8 -5 11 -10 6 -10 -6 0 -1 -7 10 -15 13 -10 14 -14 5 -15 -10 0 -11 -3 -2 -13
8 -10 7 -17 -1 -25 -8 -8 -7 -13 6 -18 12 -5 14 -10 6 -19 -8 -10 -8 -15 1
-21 8 -5 9 -3 4 6 -5 9 -4 11 4 6 6 -4 9 -11 6 -16 -3 -5 -1 -12 5 -15 8 -5 8
-11 0 -20 -8 -10 -8 -15 0 -20 8 -5 7 -11 -2 -23 -11 -13 -10 -15 5 -9 15 6
16 4 7 -13 -9 -16 -8 -18 6 -13 14 5 15 3 5 -15 -14 -27 -14 -32 4 -32 9 0 12
-6 9 -15 -4 -8 -1 -15 6 -15 9 0 9 -4 -1 -17 -12 -14 -12 -16 0 -8 11 6 13 4
8 -9 -6 -14 -3 -17 8 -12 9 3 13 2 10 -4 -3 -6 -3 -16 2 -22 4 -7 8 -24 8 -38
1 -29 13 -52 24 -45 5 2 9 -7 10 -20 3 -48 4 -54 13 -49 4 3 8 -2 8 -10 0 -9
5 -16 10 -16 6 0 10 -11 10 -24 0 -13 7 -27 16 -30 8 -3 12 -10 9 -16 -3 -5
-1 -10 6 -10 7 0 10 -3 6 -6 -3 -4 2 -14 11 -23 10 -9 13 -14 7 -11 -6 3 -3
-2 7 -12 21 -19 24 -33 6 -22 -9 5 -9 3 1 -9 7 -9 18 -14 24 -10 6 3 7 1 3 -5
-4 -7 -2 -12 4 -12 6 0 9 -4 6 -8 -3 -5 6 -21 19 -36 14 -16 22 -33 19 -37 -3
-5 2 -9 11 -9 9 0 19 -9 22 -20 3 -11 10 -20 15 -20 5 0 6 -4 3 -10 -3 -5 0
-10 9 -10 8 0 16 -5 18 -10 2 -6 13 -12 26 -15 12 -2 20 0 17 5 -3 5 -1 19 6
31 8 15 8 19 0 15 -6 -4 -11 -1 -11 8 0 8 -10 22 -22 30 -12 9 -19 16 -14 16
5 0 3 6 -3 13 -6 8 -7 18 -3 22 4 5 -1 6 -10 2 -17 -6 -33 17 -22 34 3 5 0 9
-6 9 -6 0 -18 7 -26 15 -9 9 -11 15 -4 15 7 0 6 5 -2 14 -7 8 -16 12 -20 10
-4 -2 -10 1 -14 7 -4 8 -3 9 4 5 7 -4 12 -2 12 3 0 6 -5 11 -12 11 -6 0 -9 3
-5 6 3 4 -1 13 -9 21 -8 8 -12 19 -9 24 4 5 -1 9 -9 9 -8 0 -13 6 -10 13 2 7
-4 22 -14 33 -10 10 -16 26 -14 33 3 9 0 11 -8 6 -9 -5 -10 -2 -5 15 5 15 4
20 -4 16 -7 -4 -11 1 -11 13 0 12 -5 21 -11 21 -6 0 -9 7 -5 15 3 8 0 15 -5
15 -6 0 -9 9 -6 20 3 11 1 18 -4 14 -5 -3 -9 0 -9 6 0 6 -6 8 -12 4 -10 -6
-10 -4 -1 7 16 17 17 33 1 23 -8 -5 -9 -2 -5 9 3 10 2 17 -3 17 -6 0 -10 5
-10 11 0 5 4 7 10 4 6 -3 7 1 4 9 -3 9 -10 13 -15 10 -5 -3 -10 6 -10 20 -2
38 -3 44 -11 52 -12 12 -9 26 4 18 7 -5 8 -3 2 7 -4 8 -9 20 -10 27 -2 8 -6
17 -10 20 -4 4 -4 -2 0 -13 5 -15 4 -17 -4 -9 -9 9 -9 17 0 33 8 17 8 22 -3
27 -9 3 -13 16 -11 35 2 16 -1 29 -7 29 -6 0 -6 6 0 18 5 9 10 22 11 27 1 6
10 9 21 8 11 -2 17 1 14 7 -3 6 1 7 9 4 9 -3 13 -11 9 -18 -3 -6 4 -2 16 8 17
15 20 16 16 4 -5 -12 0 -15 24 -13 17 1 38 8 46 15 13 11 14 10 10 -1 -6 -17
31 -24 40 -8 3 5 -1 6 -9 3 -9 -3 -16 -2 -16 3 0 10 88 9 98 -2 4 -5 1 -5 -5
-1 -7 4 -13 2 -13 -3 0 -17 18 -13 29 7 10 16 10 16 11 0 0 -20 15 -24 26 -6
5 7 2 8 -7 3 -8 -5 -11 -5 -7 0 11 11 67 14 74 4 3 -5 -2 -6 -10 -3 -9 3 -16
2 -16 -4 0 -6 8 -9 18 -7 9 1 16 9 14 18 -2 12 3 15 19 12 21 -4 21 -3 4 15
-16 18 -16 18 7 13 23 -5 23 -5 3 11 -11 10 -14 15 -8 11 9 -4 11 -1 7 9 -3 9
-10 13 -15 10 -5 -3 -9 0 -9 5 0 6 10 11 22 11 21 0 21 0 2 16 -10 8 -13 12
-5 8 9 -5 12 -3 7 5 -4 6 -2 19 6 28 11 14 11 16 -1 8 -11 -6 -13 -2 -9 18 3
15 2 24 -3 22 -4 -3 -10 -1 -14 5 -3 6 3 10 16 10 21 0 21 0 -2 20 -21 17 -21
19 -4 13 11 -3 17 -3 13 2 -4 4 -2 15 5 23 10 13 9 14 -2 7 -11 -6 -13 -2 -9
19 3 14 1 29 -5 33 -6 3 -7 1 -3 -5 4 -7 2 -12 -3 -12 -20 0 -11 20 12 30 17
7 18 9 5 9 -10 1 -18 6 -18 12 0 5 5 7 11 3 8 -5 8 -1 0 13 -6 11 -7 24 -3 29
4 5 -1 2 -11 -5 -15 -12 -17 -12 -11 4 6 15 3 16 -17 10 -20 -7 -22 -6 -12 6
10 12 8 15 -7 15 -10 0 -17 -3 -14 -7 7 -11 -22 -18 -37 -9 -8 5 -19 4 -26 -2
-8 -6 -16 -8 -20 -4 -4 3 2 13 13 22 18 14 18 15 -4 4 -12 -6 -27 -8 -32 -5
-5 3 -12 0 -16 -6 -4 -8 -3 -9 4 -5 7 4 12 3 12 -3 0 -5 -9 -9 -20 -8 -23 1
-25 7 -7 27 6 8 2 6 -10 -4 -21 -17 -28 -15 -24 7 1 5 -3 6 -9 2 -6 -3 -8 -11
-5 -16 4 -5 2 -9 -4 -9 -5 0 -18 -3 -28 -7 -16 -6 -17 -5 -3 12 14 17 14 18
-7 6 -21 -11 -27 -8 -24 12 1 5 -3 6 -9 2 -6 -3 -8 -11 -5 -16 4 -5 2 -9 -4
-9 -5 0 -18 -3 -28 -7 -16 -6 -16 -5 -4 10 17 21 8 22 -13 1 -9 -8 -16 -11
-16 -5 0 6 -8 11 -17 11 -9 0 -13 3 -10 7 4 3 2 12 -4 20 -6 7 -7 13 -2 13 5
0 9 25 10 56 0 30 6 60 12 67 10 9 11 8 6 -8 -5 -16 -5 -17 3 -5 8 10 8 18 0
27 -7 9 -7 13 0 13 7 0 9 7 5 17 -4 9 -2 14 3 11 5 -4 9 10 8 30 -1 41 12 65
30 55 6 -4 4 2 -4 12 -11 14 -11 17 -1 11 10 -7 12 -3 6 13 -3 12 -2 21 4 21
5 0 8 9 6 21 -3 14 0 19 9 16 10 -4 13 2 11 19 -1 13 2 24 7 24 5 0 7 4 4 9
-3 4 4 19 15 32 12 14 19 33 16 46 -2 12 -1 20 3 18 4 -2 17 10 30 28 15 20
17 27 6 18 -16 -13 -16 -12 -5 12 7 15 19 27 26 27 8 0 11 5 8 10 -3 6 0 10 7
10 9 0 9 3 -2 10 -10 6 -11 10 -2 10 6 0 12 7 12 16 0 9 5 12 12 8 8 -5 9 -2
5 9 -3 9 -3 16 1 14 4 -1 9 3 11 8 2 6 11 15 19 21 9 7 12 16 7 24 -5 9 -4 11
3 6 7 -4 12 -3 12 3 0 6 12 22 28 37 15 15 18 22 7 15 -11 -8 -8 -2 8 12 15
14 27 28 27 31 0 13 44 55 52 50 7 -5 12 17 9 38 0 4 7 4 16 1 11 -4 14 -3 9
5 -4 7 -1 12 8 12 8 0 18 5 22 12 4 7 3 8 -4 4 -8 -5 -10 -2 -6 8 3 9 9 15 12
14 19 -2 33 3 28 11 -3 5 2 15 11 22 12 10 14 10 9 2 -4 -8 -2 -13 5 -13 6 0
9 8 6 19 -3 14 -1 18 9 14 9 -3 14 1 14 12 0 11 5 15 15 11 9 -3 15 0 15 9 0
7 4 17 10 20 6 3 7 -1 4 -12 -4 -14 -4 -15 4 -3 5 8 9 29 8 45 -2 26 -6 30
-27 27 -13 -2 -28 -9 -34 -16 -5 -7 -20 -18 -33 -25 -12 -7 -20 -16 -17 -22 4
-5 -3 -9 -15 -9 -12 0 -18 -4 -15 -10 3 -5 0 -10 -8 -10 -7 0 -19 -12 -25 -26
-7 -14 -16 -23 -21 -20 -5 3 -14 -7 -21 -23 -8 -21 -17 -28 -28 -24 -10 4 -13
2 -8 -5 4 -7 2 -12 -4 -12 -6 0 -8 -4 -5 -10 3 -5 2 -10 -2 -10 -5 0 -18 -7
-29 -15 -19 -15 -19 -15 1 -9 17 4 16 3 -3 -8 -12 -8 -19 -18 -15 -23 4 -4 0
-5 -10 -2 -10 4 -16 3 -12 -3 3 -5 -3 -18 -15 -30 -11 -11 -20 -24 -20 -30 0
-5 -4 -10 -10 -10 -5 0 -10 -7 -10 -16 0 -8 -4 -13 -9 -10 -5 3 -12 -1 -15
-10 -4 -9 -2 -13 5 -8 6 3 3 -5 -6 -20 -10 -14 -21 -26 -26 -26 -5 0 -8 -5 -7
-12 2 -7 -2 -12 -9 -13 -6 0 -15 -4 -20 -9 -5 -5 -3 -6 5 -2 6 4 12 3 12 -3 0
-5 -4 -11 -10 -13 -5 -1 -11 -13 -13 -25 -2 -13 -14 -35 -28 -49 -13 -15 -17
-24 -9 -20 8 4 7 1 -4 -8 -10 -9 -15 -20 -10 -27 5 -8 2 -11 -8 -7 -11 5 -14
0 -12 -18 1 -13 -2 -24 -7 -24 -6 0 -8 -4 -4 -10 3 -5 -3 -18 -15 -30 -12 -12
-15 -20 -7 -20 9 0 9 -2 -1 -8 -8 -5 -10 -16 -6 -27 6 -14 4 -17 -8 -13 -10 4
-15 1 -15 -10 0 -33 -3 -43 -10 -39 -5 3 -8 -9 -8 -26 0 -34 -14 -58 -29 -49
-5 3 -6 0 -2 -7 6 -9 11 -9 23 1 15 12 15 11 2 -9 -8 -13 -17 -23 -21 -23 -4
0 -4 -7 -1 -17 5 -12 3 -14 -8 -8 -11 7 -12 6 -2 -6 7 -9 8 -20 3 -29 -5 -8
-6 -18 -4 -22 3 -4 1 -8 -5 -8 -7 0 -7 -8 -1 -24 6 -18 5 -28 -6 -37 -11 -9
-12 -15 -3 -26 10 -11 8 -12 -6 -7 -15 6 -16 4 -6 -15 10 -17 9 -22 -4 -27 -8
-3 -15 -10 -15 -16 0 -5 6 -6 13 -2 6 4 8 3 4 -1 -14 -16 -37 -14 -37 3 0 15
-2 15 -10 2 -5 -8 -10 -12 -10 -8 0 4 -11 3 -25 -2 -19 -7 -23 -6 -18 6 3 8 0
21 -6 28 -8 10 -9 16 -1 21 5 3 10 15 10 26 0 14 4 18 13 13 7 -5 6 0 -3 11
-14 17 -13 18 5 12 20 -7 20 -7 1 8 -17 13 -16 18 4 17 3 0 5 13 6 29 1 15 -3
26 -8 23 -5 -3 0 10 11 29 15 27 17 38 8 47 -9 10 -8 12 4 7 13 -4 16 1 14 24
-1 16 1 29 6 29 5 0 9 7 9 16 0 9 -5 12 -12 8 -10 -6 -10 -4 0 7 6 7 12 21 12
31 0 10 5 18 11 18 5 0 7 -6 3 -12 -4 -7 -3 -9 1 -5 14 12 15 38 2 30 -9 -5
-9 -3 -1 8 7 8 15 29 19 47 4 19 13 32 22 32 13 0 13 3 3 15 -10 12 -10 15 0
15 7 0 10 7 6 16 -3 8 -2 12 4 9 6 -4 10 6 10 22 0 22 2 25 10 13 8 -13 10
-12 11 5 1 11 1 23 0 28 0 4 4 7 10 7 5 0 8 4 5 8 -7 12 29 63 39 55 5 -5 3 1
-5 11 -10 13 -10 17 -2 12 7 -4 12 -2 12 7 0 8 8 18 17 21 13 5 14 9 5 14 -8
6 -6 12 7 24 11 9 23 13 27 10 5 -4 2 2 -6 12 -10 13 -10 17 -2 12 8 -4 12 -1
12 9 0 11 5 15 14 12 10 -4 14 0 11 14 -2 10 1 19 6 19 6 0 7 5 3 12 -5 8 -2
9 10 5 10 -4 15 -3 11 3 -3 6 0 10 7 10 9 0 9 3 -2 10 -13 8 -12 10 4 10 13 0
16 5 12 16 -4 12 -2 15 9 11 8 -4 17 -2 20 3 4 6 1 10 -5 10 -6 0 -8 5 -5 10
4 6 11 8 16 5 5 -4 9 0 9 8 0 8 7 18 16 21 8 3 12 10 9 16 -3 5 1 10 9 10 8 0
18 9 21 20 3 11 13 20 21 20 8 0 14 7 14 15 0 8 4 15 8 15 5 0 21 17 37 39 18
24 35 37 44 33 9 -3 12 -1 7 6 -4 7 -2 12 3 12 14 0 57 42 54 52 -2 4 5 4 15
1 9 -3 14 -3 10 2 -4 4 3 16 15 26 12 11 16 18 8 17 -7 -2 -16 3 -19 11 -3 10
0 12 12 8 10 -4 15 -3 11 3 -3 6 -20 10 -37 10 -17 0 -28 -3 -25 -7 9 -9 -31
-36 -42 -28 -6 3 -8 -3 -6 -14 2 -13 -1 -18 -10 -15 -7 3 -16 0 -21 -7 -5 -8
-3 -10 6 -4 9 5 11 4 6 -3 -4 -7 -16 -12 -27 -12 -10 0 -19 -6 -19 -14 0 -7
-11 -22 -25 -32 -14 -10 -25 -24 -25 -31 0 -7 -7 -10 -17 -6 -11 4 -14 3 -9
-5 4 -7 2 -12 -4 -12 -6 0 -8 -5 -4 -12 5 -8 2 -9 -9 -5 -11 4 -17 1 -17 -7 0
-8 -10 -21 -22 -30 -13 -9 -16 -14 -8 -10 10 5 9 0 -4 -14 -21 -24 -32 -29
-20 -10 4 7 3 8 -5 4 -6 -4 -9 -11 -6 -15 2 -5 -7 -21 -20 -35 -14 -15 -25
-31 -25 -36 0 -5 -5 -12 -12 -16 -7 -5 -8 -3 -3 6 5 9 4 11 -4 6 -6 -4 -9 -12
-6 -17 4 -5 -5 -20 -19 -34 -14 -14 -23 -25 -20 -25 2 0 0 -9 -6 -20 -6 -11
-15 -18 -20 -15 -6 3 -7 -1 -4 -9 4 -10 -1 -18 -11 -22 -13 -5 -14 -9 -3 -15
10 -7 9 -9 -4 -9 -11 0 -15 -5 -12 -15 4 -11 2 -13 -9 -9 -12 4 -14 1 -10 -15
3 -14 0 -23 -11 -27 -9 -3 -14 -10 -11 -14 3 -4 -3 -11 -12 -14 -15 -6 -15 -8
-3 -16 12 -8 12 -10 -3 -16 -9 -3 -17 -12 -17 -20 0 -8 -4 -14 -9 -14 -4 0 -8
-10 -7 -22 0 -13 -4 -22 -11 -21 -7 2 -10 -4 -7 -12 4 -8 1 -15 -5 -15 -6 0
-8 -7 -4 -17 4 -10 2 -14 -4 -10 -7 5 -9 -1 -5 -15 3 -13 1 -19 -6 -15 -6 5
-9 -2 -8 -17 2 -14 -2 -24 -8 -23 -6 1 -11 -12 -10 -31 0 -23 -4 -31 -13 -28
-11 5 -11 1 -2 -17 11 -19 10 -20 -3 -9 -13 10 -15 9 -10 -14 3 -15 1 -24 -4
-21 -5 3 -10 -13 -10 -36 -1 -23 -7 -43 -13 -45 -9 -3 -8 -8 1 -20 11 -13 11
-14 -1 -7 -11 6 -13 3 -9 -13 4 -14 2 -20 -4 -16 -6 4 -8 1 -6 -7 3 -8 1 -22
-4 -33 -8 -14 -7 -17 3 -11 8 6 10 4 3 -6 -5 -8 -7 -22 -5 -33 2 -12 -1 -16
-9 -11 -9 6 -9 2 -1 -14 9 -16 9 -20 -2 -15 -13 5 -15 0 -18 -51 -2 -27 -39
-58 -39 -33 0 9 -3 9 -10 -2 -8 -13 -10 -13 -10 2 0 9 -4 20 -10 23 -6 4 -7
-1 -3 -12 5 -16 4 -16 -14 2 -18 18 -18 21 -4 27 14 6 14 7 1 7 -9 1 -16 10
-16 20 0 11 4 17 8 15 8 -5 12 10 9 34 -1 6 3 12 10 12 8 0 8 4 -1 15 -8 9 -9
15 -2 15 6 0 9 10 7 21 -2 12 0 30 6 40 7 14 6 19 -3 19 -10 0 -10 2 1 9 7 5
10 14 7 20 -4 6 -4 11 1 10 20 -3 27 2 13 11 -10 6 -11 10 -2 10 6 0 12 5 12
11 0 5 -6 7 -12 3 -10 -6 -10 -5 -1 8 7 8 14 27 15 42 1 14 6 26 10 26 4 0 8
9 8 20 0 11 4 20 9 20 6 0 8 9 6 20 -2 11 0 20 4 20 5 0 7 11 5 26 -2 22 0 23
13 12 15 -12 15 -10 4 11 -7 13 -9 21 -4 18 5 -3 15 3 22 15 7 11 8 17 2 14
-5 -4 -9 2 -8 13 1 12 6 17 16 13 9 -3 12 -1 8 5 -4 6 0 19 9 27 10 10 11 16
3 16 -8 0 -9 3 0 13 6 8 9 16 6 19 -3 3 3 11 12 19 17 13 17 13 3 -6 -14 -18
-14 -19 1 -7 10 7 15 21 12 31 -3 11 4 28 14 38 11 11 19 27 17 36 -1 10 2 15
6 12 9 -6 26 34 21 50 -1 5 1 7 5 3 4 -5 14 1 22 13 8 11 12 23 9 26 -9 8 17
32 28 25 6 -3 4 2 -4 12 -12 15 -12 17 0 14 8 -2 13 3 11 10 -1 6 4 11 10 10
7 -2 12 5 11 15 -1 12 4 17 14 13 8 -3 12 -2 8 3 -3 5 2 16 10 24 8 9 15 20
15 26 0 5 11 18 25 29 13 11 21 22 18 26 -3 3 1 6 9 6 9 0 19 7 22 16 6 15 4
15 -11 3 -10 -7 0 5 22 27 22 22 43 39 47 37 4 -2 5 4 1 13 -4 12 -3 15 5 10
7 -4 16 3 23 18 7 14 16 23 20 20 5 -3 9 2 9 10 0 9 6 15 13 14 6 -2 11 5 11
14 -1 10 2 15 7 13 11 -7 49 31 41 41 -4 4 0 5 10 1 14 -5 57 28 51 39 -2 2
-1 4 2 4 10 0 44 39 46 52 3 25 -1 38 -12 38 -8 0 -7 -6 2 -17 13 -17 13 -17
-7 0 -11 9 -23 17 -27 17 -3 0 -11 -8 -16 -17z m-20 -106 c-10 -9 -11 -8 -5 6
3 10 9 15 12 12 3 -3 0 -11 -7 -18z m-579 -1309 c-8 -8 -9 -4 -5 13 4 13 8 18
11 10 2 -7 -1 -18 -6 -23z m-197 -28 c3 -5 -1 -10 -10 -10 -9 0 -13 5 -10 10
3 6 8 10 10 10 2 0 7 -4 10 -10z m-287 -70 c6 -6 28 -6 37 -1 15 9 29 8 42 -1
6 -5 14 -4 18 3 6 8 10 7 16 -2 7 -11 9 -11 9 -1 0 8 5 10 12 6 17 -11 68 -12
62 -2 -3 4 5 6 18 4 13 -2 22 -10 20 -17 -1 -8 5 -5 14 6 11 14 18 16 21 8 3
-7 9 -13 14 -13 6 0 7 5 3 12 -4 7 -3 8 5 4 19 -12 61 -14 61 -3 0 5 8 3 17
-4 11 -10 14 -10 9 -1 -4 6 -2 12 3 12 6 0 11 -6 11 -12 0 -10 3 -9 9 1 6 10
10 10 16 1 6 -9 10 -9 16 1 8 12 11 11 19 -1 8 -12 10 -12 10 -1 0 11 3 11 15
1 10 -9 15 -9 15 -1 0 6 5 11 11 11 5 0 7 -5 3 -12 -5 -7 -3 -8 7 -2 19 12 52
12 61 -1 5 -6 8 -5 8 4 0 11 3 11 17 0 14 -12 16 -12 8 0 -6 10 -4 12 4 7 19
-12 61 -14 61 -3 0 5 8 3 17 -4 11 -10 14 -10 9 -1 -4 6 -3 12 3 12 5 0 13 -5
16 -10 5 -8 11 -7 21 1 11 9 14 8 14 -2 0 -11 2 -11 10 1 9 13 10 13 10 0 0
-12 2 -12 9 -1 6 10 10 10 16 1 6 -9 10 -9 16 1 8 12 11 11 19 -1 8 -12 10
-12 10 -1 0 10 3 11 14 2 11 -9 16 -9 21 0 6 8 10 7 16 -2 7 -12 9 -12 9 0 0
10 3 11 14 2 11 -9 16 -9 21 0 6 8 10 7 16 -2 6 -10 9 -10 9 -2 0 12 30 10 52
-3 7 -4 8 -3 4 4 -4 7 -2 12 3 12 6 0 11 -5 11 -11 0 -8 4 -8 13 -2 8 7 18 4
30 -9 9 -10 12 -18 6 -18 -8 0 -8 -5 1 -15 10 -12 10 -15 -1 -16 -10 0 -11 -2
-2 -6 9 -3 10 -10 3 -24 -8 -14 -7 -19 2 -19 9 0 9 -3 1 -11 -8 -8 -8 -20 -3
-35 7 -17 6 -24 -3 -24 -8 0 -8 -3 2 -9 9 -6 10 -10 2 -16 -9 -5 -9 -10 0 -21
9 -11 8 -18 -2 -31 -12 -15 -12 -16 1 -8 13 8 13 7 1 -8 -9 -12 -10 -17 -2
-17 7 0 9 -5 6 -10 -4 -6 -11 -8 -16 -5 -5 4 -9 1 -9 -4 0 -6 -5 -11 -11 -11
-5 0 -7 5 -4 10 3 6 1 10 -4 10 -6 0 -11 -6 -11 -12 0 -9 -4 -8 -10 2 -5 8
-10 10 -10 5 0 -6 -9 -11 -21 -12 -18 -2 -19 0 -7 15 9 13 7 12 -10 -2 -17
-15 -22 -16 -23 -5 0 10 -2 10 -6 2 -3 -9 -10 -10 -22 -3 -10 5 -21 7 -23 4
-8 -8 -118 -12 -113 -5 4 7 -19 6 -77 -2 -15 -2 -25 0 -22 4 3 5 0 9 -5 9 -6
0 -11 -4 -11 -9 0 -5 -7 -12 -16 -15 -14 -5 -15 -4 -4 9 11 14 10 14 -12 6
-13 -5 -31 -6 -38 -1 -7 5 -24 4 -37 -1 -34 -13 -37 -11 -22 9 13 16 13 16 -6
0 -13 -11 -25 -14 -34 -8 -8 4 -24 5 -35 1 -27 -8 -48 -8 -63 2 -8 5 -13 4
-13 -2 0 -6 -5 -11 -11 -11 -5 0 -7 5 -3 12 5 7 3 8 -7 3 -17 -11 -89 -13 -96
-2 -2 4 -12 4 -21 -1 -19 -9 -69 -8 -78 1 -3 3 -17 2 -30 -3 -14 -6 -26 -6
-29 0 -3 5 -16 6 -28 2 -28 -9 -89 -8 -105 2 -7 4 -12 2 -12 -5 0 -8 -4 -8
-15 1 -12 10 -14 24 -9 58 5 37 4 43 -7 37 -11 -6 -11 -5 -2 5 6 7 9 19 6 28
-5 11 -2 13 8 8 8 -4 3 2 -11 15 l-25 22 25 -8 c20 -6 23 -5 13 6 -9 9 -10 16
-2 26 8 9 7 14 -5 19 -10 4 -13 11 -8 22 4 10 7 29 6 44 -1 20 3 25 14 20 9
-3 13 -1 9 5 -4 7 0 10 10 8 10 -2 19 -4 21 -5z m1147 -209 c3 -5 2 -12 -3
-15 -5 -3 -9 1 -9 9 0 17 3 19 12 6z m-855 -155 c0 -3 -4 -8 -10 -11 -5 -3
-10 -1 -10 4 0 6 5 11 10 11 6 0 10 -2 10 -4z m574 -5 c-9 -9 -34 -9 -34 -1 0
5 9 8 20 7 10 -1 17 -3 14 -6z m-153 -948 c13 -16 12 -17 -3 -4 -10 7 -18 15
-18 17 0 8 8 3 21 -13z"/>
<path d="M255 2660 c-4 -6 -12 -9 -19 -7 -6 3 -20 -1 -31 -9 -18 -14 -18 -14
3 -14 12 0 22 -5 22 -11 0 -5 -5 -7 -11 -4 -6 4 -5 -2 2 -13 7 -12 18 -18 24
-14 5 3 3 -3 -5 -13 -9 -11 -10 -16 -2 -11 6 4 12 2 12 -3 0 -6 -4 -11 -8 -11
-5 0 -9 -7 -9 -15 0 -10 6 -14 16 -10 11 3 10 0 -3 -10 -11 -8 -14 -15 -8 -15
7 0 11 -5 10 -11 -2 -6 7 -15 20 -20 15 -6 21 -5 17 1 -3 6 -2 10 4 10 5 0 10
8 10 18 1 9 2 24 2 32 1 8 -1 26 -5 39 -5 14 -4 21 1 18 11 -7 11 22 0 40 -4
6 -1 14 5 16 10 4 10 6 1 6 -7 1 -16 1 -19 0 -4 0 -10 5 -14 11 -6 9 -9 9 -15
0z"/>
<path d="M475 2660 c-11 -4 -24 -5 -29 -2 -5 3 -6 -3 -3 -12 6 -14 3 -17 -10
-12 -10 4 -14 4 -10 0 4 -4 0 -15 -8 -24 -14 -16 -14 -19 0 -33 8 -9 15 -20
15 -26 0 -5 5 -13 12 -17 6 -4 8 -3 5 3 -3 5 0 10 8 10 8 0 15 -4 15 -9 0 -4
5 -8 11 -8 5 0 8 4 5 8 -3 5 1 9 9 9 11 0 12 -4 3 -14 -6 -7 -19 -11 -29 -8
-11 4 -19 2 -19 -5 0 -6 -4 -8 -10 -5 -6 4 -9 -4 -8 -19 1 -14 4 -23 7 -21 2
3 10 0 18 -6 10 -9 13 -8 13 2 0 11 2 11 10 -1 9 -13 10 -13 10 0 0 13 1 13
10 0 7 -11 10 -11 10 -2 0 7 4 11 9 7 5 -3 12 -1 16 5 4 6 11 7 17 4 7 -5 8
-2 4 5 -5 7 -1 20 6 29 23 26 33 46 20 38 -16 -10 -15 7 1 23 10 11 10 13 0 7
-9 -5 -13 1 -13 21 0 22 -2 25 -10 13 -8 -12 -10 -9 -10 11 0 21 -5 26 -22 25
-13 -1 -25 1 -28 5 -3 3 -14 3 -25 -1z m39 -56 c8 -21 8 -24 -5 -24 -5 0 -7 6
-3 13 6 9 5 9 -8 0 -18 -16 -32 -5 -17 14 15 17 26 17 33 -3z"/>
<path d="M735 2651 c-4 -11 -8 -11 -20 -1 -8 7 -15 11 -16 9 -10 -59 -9 -99 1
-99 10 0 9 -4 0 -16 -11 -12 -11 -15 1 -12 8 2 17 8 21 13 5 6 8 5 8 -3 0 -7
4 -11 9 -7 5 3 13 0 17 -6 4 -8 3 -9 -4 -5 -7 4 -12 1 -12 -6 0 -10 -2 -10 -9
1 -6 9 -11 10 -15 2 -4 -6 -11 -9 -16 -6 -4 3 -7 -3 -5 -12 2 -10 4 -21 4 -25
1 -5 4 -7 9 -7 4 1 9 0 12 -1 17 -6 50 -5 50 2 0 5 4 6 10 3 5 -3 18 -1 27 4
10 6 14 11 9 11 -4 0 2 9 15 20 14 11 18 19 11 20 -8 0 -10 5 -6 12 11 18 11
77 0 71 -5 -4 -7 1 -3 10 4 12 2 14 -10 10 -11 -4 -14 -2 -9 5 4 7 1 12 -8 12
-9 0 -16 3 -16 8 0 13 -50 7 -55 -7z m25 -57 c0 -8 -4 -12 -10 -9 -5 3 -10 13
-10 21 0 8 5 12 10 9 6 -3 10 -13 10 -21z m39 -8 c0 -7 -2 -6 -6 2 -2 6 -9 10
-14 6 -5 -3 -9 2 -9 12 0 13 3 14 15 4 8 -7 15 -18 14 -24z"/>
<path d="M996 2662 c-3 -6 -16 -8 -29 -4 -20 5 -21 4 -7 -13 9 -11 10 -16 3
-11 -8 4 -13 1 -13 -8 0 -9 7 -16 16 -16 8 0 12 -4 9 -10 -3 -5 -1 -10 5 -10
6 0 9 -4 5 -9 -3 -5 -1 -12 5 -16 6 -4 7 -12 3 -18 -22 -34 -1 -77 35 -74 16
1 18 4 10 14 -8 10 -7 12 4 8 11 -4 14 1 13 22 -1 16 -5 34 -9 41 -4 7 -2 12
3 12 6 0 11 4 11 10 0 5 -6 7 -13 4 -8 -3 -14 2 -14 10 0 8 4 13 9 10 4 -3 7
6 6 20 -2 24 -6 28 -24 25 -4 0 -10 5 -14 11 -5 8 -10 9 -14 2z"/>
<path d="M3876 4225 c-20 -21 -21 -35 0 -35 8 0 12 -4 9 -10 -3 -5 -1 -10 5
-10 6 0 8 -5 5 -10 -4 -6 -3 -10 2 -9 21 4 33 -2 33 -16 0 -8 6 -14 13 -12 6
1 11 -3 10 -10 -2 -8 4 -10 14 -6 10 4 14 2 9 -5 -3 -6 3 -13 14 -17 11 -3 20
-12 20 -18 0 -7 9 -19 19 -27 11 -7 17 -18 14 -24 -4 -6 1 -5 10 3 15 12 17
11 17 -8 0 -12 6 -21 16 -21 11 0 14 -6 8 -22 -6 -20 -5 -21 10 -9 10 9 16 10
16 2 0 -6 11 -21 25 -33 14 -12 25 -28 25 -35 0 -8 14 -27 30 -43 17 -17 27
-30 23 -30 -4 0 0 -5 10 -11 9 -5 17 -16 17 -23 0 -7 10 -18 23 -24 12 -6 16
-11 9 -11 -10 -1 -10 -5 2 -17 9 -8 14 -20 10 -25 -3 -5 0 -8 8 -7 7 2 12 -3
10 -9 -1 -7 2 -13 8 -13 5 0 10 -7 10 -15 0 -8 5 -15 10 -15 6 0 10 -6 10 -14
0 -7 7 -19 15 -26 9 -7 13 -15 10 -18 -2 -3 3 -11 13 -19 10 -9 11 -11 2 -7
-12 7 -13 5 -3 -8 7 -8 10 -18 6 -21 -3 -4 1 -7 11 -7 9 0 14 -4 11 -10 -3 -5
-1 -10 4 -10 6 0 11 -12 11 -26 0 -14 4 -23 9 -20 4 3 14 -14 21 -37 7 -23 20
-48 29 -54 10 -9 11 -13 2 -13 -8 0 -7 -5 4 -16 13 -14 14 -19 3 -25 -11 -7
-11 -9 0 -9 8 0 10 -5 6 -12 -5 -7 -2 -9 7 -6 14 5 19 -9 22 -69 0 -7 5 -13
10 -13 5 0 7 -9 4 -20 -3 -12 1 -24 11 -30 10 -5 14 -10 10 -10 -4 0 -3 -11 2
-24 6 -16 5 -27 -3 -35 -9 -9 -8 -11 6 -6 20 8 23 -5 5 -24 -11 -11 -10 -12 1
-6 11 6 13 4 8 -8 -3 -9 0 -18 9 -21 9 -3 12 -10 9 -16 -4 -6 -12 -8 -18 -4
-7 3 -4 -1 6 -9 10 -8 17 -28 17 -46 0 -18 5 -41 10 -52 6 -11 7 -25 3 -32
-11 -18 -13 -38 -2 -31 5 3 6 11 3 17 -4 7 -3 9 1 4 16 -14 12 -57 -5 -54 -8
1 -14 -4 -13 -10 2 -7 -1 -13 -5 -13 -4 0 -14 6 -21 13 -10 8 -12 8 -7 0 3 -6
2 -14 -4 -18 -5 -3 -10 -2 -10 4 0 6 -8 7 -17 4 -15 -6 -16 -4 -5 9 10 13 10
18 1 24 -8 4 -9 3 -5 -4 4 -7 2 -10 -6 -7 -17 7 -22 55 -5 55 9 0 8 3 -1 9 -8
5 -16 25 -18 46 -2 20 -8 43 -14 50 -8 10 -8 15 1 21 8 5 9 3 4 -6 -6 -9 -4
-11 5 -5 10 6 9 11 -5 22 -11 7 -14 13 -7 13 6 0 9 7 6 15 -4 8 -10 12 -15 9
-5 -3 -6 3 -2 12 4 10 2 15 -3 11 -5 -3 -9 7 -8 21 0 15 -4 30 -10 34 -7 5 -7
8 2 8 7 0 10 5 7 10 -4 6 -10 8 -15 5 -5 -3 -5 9 0 26 8 28 8 29 -7 17 -15
-11 -16 -11 -10 4 3 10 2 20 -3 23 -5 3 -7 14 -5 25 2 11 1 20 -3 20 -4 0 -13
9 -20 21 -11 17 -11 20 0 13 11 -6 11 -5 0 9 -8 9 -10 22 -6 28 4 7 3 9 -3 6
-6 -4 -14 0 -17 9 -3 8 -2 12 4 9 6 -3 7 1 4 9 -3 9 -14 16 -23 16 -14 0 -14
2 -1 10 11 7 12 10 2 10 -8 0 -12 6 -9 13 2 6 -4 24 -14 38 -10 14 -15 30 -11
34 4 5 1 4 -7 0 -11 -6 -13 -4 -8 7 3 10 -6 26 -24 44 -24 23 -26 30 -16 43 9
12 9 13 0 7 -8 -4 -13 -2 -13 4 0 6 -6 8 -12 4 -7 -4 -10 -4 -6 1 4 4 2 15 -5
23 -10 13 -9 14 3 8 8 -5 2 4 -15 19 -16 14 -24 23 -17 20 11 -6 11 -3 0 14
-7 12 -20 21 -28 21 -13 0 -13 1 0 10 13 8 13 10 -2 10 -9 0 -20 5 -24 12 -4
7 -3 8 4 4 8 -5 10 -2 6 8 -3 9 -10 14 -14 11 -4 -3 -14 3 -21 12 -10 11 -10
14 -2 9 9 -5 11 -2 7 8 -3 9 -12 16 -19 16 -8 0 -16 9 -20 19 -3 11 -13 22
-21 25 -8 3 -12 10 -9 16 3 5 2 10 -4 10 -16 0 -42 32 -37 46 3 8 0 11 -10 7
-10 -4 -17 2 -21 16 -3 11 -10 21 -15 21 -14 0 -73 63 -70 74 2 5 -4 6 -13 3
-9 -4 -15 -1 -15 7 0 8 -9 16 -21 19 -12 3 -18 10 -14 16 5 10 -7 15 -27 12
-5 0 -8 5 -8 13 0 7 -11 16 -23 18 -20 4 -23 1 -22 -21 1 -14 -3 -29 -9 -33
-7 -5 -4 -8 7 -8 11 0 15 -4 11 -12 -5 -8 -2 -9 12 -4 10 4 15 4 12 0 -8 -8
14 -34 25 -27 4 2 7 -3 7 -11 0 -9 4 -16 9 -16 5 0 29 -20 54 -44 25 -25 47
-42 51 -39 3 3 4 -4 1 -15 -2 -14 1 -19 9 -16 7 3 18 -7 24 -21 7 -14 16 -24
21 -20 5 3 12 -3 16 -14 3 -11 12 -22 20 -25 8 -3 15 -12 15 -20 0 -7 7 -17
16 -20 9 -4 14 -13 10 -22 -3 -8 -2 -12 4 -9 11 7 32 -29 22 -40 -4 -5 -2 -5
5 -1 14 8 36 -27 25 -39 -4 -5 -1 -5 6 -1 6 4 12 2 12 -4 0 -6 5 -8 13 -4 7 5
6 0 -3 -11 -12 -15 -12 -17 -1 -10 11 6 13 3 9 -13 -4 -13 -2 -19 6 -16 6 2
17 -5 24 -17 11 -17 11 -20 0 -14 -7 5 -3 -2 10 -14 12 -12 22 -26 22 -31 0
-26 20 -51 35 -42 6 3 4 -2 -4 -11 -12 -15 -11 -17 3 -17 10 0 15 -4 11 -10
-3 -5 6 -28 20 -51 15 -23 22 -38 16 -35 -19 12 -12 -2 11 -24 12 -11 18 -20
14 -20 -5 0 -2 -8 5 -17 10 -12 10 -15 1 -9 -7 4 -1 -13 13 -38 22 -39 23 -45
8 -40 -11 3 -9 0 5 -8 17 -11 20 -16 10 -26 -9 -9 -9 -12 0 -12 7 0 12 -10 12
-23 0 -13 6 -29 13 -36 6 -8 7 -11 1 -8 -6 3 -11 -1 -11 -9 0 -9 6 -13 15 -9
10 4 13 0 9 -15 -3 -11 -1 -23 5 -26 6 -4 5 -10 -3 -15 -8 -5 -9 -9 -4 -9 6 0
11 -16 12 -35 0 -19 7 -41 16 -49 8 -9 12 -25 10 -40 -3 -15 0 -32 6 -40 8
-10 9 -16 1 -21 -6 -3 -7 -11 -4 -17 4 -7 2 -8 -5 -4 -6 4 -17 3 -24 -3 -8 -6
-18 -6 -27 -1 -9 6 -20 4 -29 -3 -12 -10 -14 -9 -8 5 3 10 2 20 -4 24 -6 3 -8
13 -5 21 3 8 2 12 -3 9 -5 -3 -11 1 -14 9 -4 10 -1 12 11 9 15 -5 15 -4 -1 9
-12 10 -14 17 -8 22 14 8 14 25 0 25 -5 0 -7 -6 -3 -12 4 -7 3 -10 -1 -6 -14
13 -15 59 -2 51 7 -4 6 1 -2 10 -8 10 -11 20 -8 24 4 3 2 12 -4 19 -6 8 -9 21
-5 29 3 9 0 18 -8 21 -7 3 -13 10 -14 17 -2 22 -8 42 -16 56 -7 11 -6 12 5 6
12 -8 12 -6 1 8 -8 9 -11 20 -8 25 3 5 -2 18 -10 28 -9 10 -12 13 -8 5 4 -9 3
-12 -4 -7 -6 3 -9 18 -6 31 2 14 0 25 -6 25 -5 0 -10 7 -10 15 0 8 -5 15 -11
15 -8 0 -7 5 1 16 11 12 11 15 -1 12 -8 -2 -13 3 -11 11 1 7 -2 19 -8 25 -5 7
-6 17 -2 21 4 5 1 4 -7 0 -11 -6 -13 -4 -8 9 4 10 3 15 -3 11 -10 -6 -14 7
-11 33 1 7 -2 11 -6 10 -4 -2 -8 0 -8 3 0 4 -8 16 -18 27 -11 12 -16 26 -12
31 3 6 1 11 -5 11 -6 0 -8 5 -4 12 4 7 3 8 -5 4 -6 -4 -14 0 -18 11 -4 10 -10
20 -15 23 -4 3 -9 16 -11 28 -2 12 -7 25 -12 29 -4 5 -5 1 0 -7 4 -8 -1 -6
-12 5 -11 11 -19 23 -17 26 2 4 -4 15 -14 26 -9 10 -12 12 -7 3 9 -13 8 -13
-7 -2 -9 8 -14 20 -11 28 3 8 -1 14 -11 14 -9 0 -15 6 -14 13 2 6 -2 11 -9 10
-8 -2 -10 4 -6 14 4 10 2 14 -4 10 -9 -6 -24 14 -27 35 -1 3 -5 10 -10 15 -5
5 -6 2 -2 -7 5 -9 2 -8 -7 2 -8 10 -17 15 -20 11 -4 -3 -7 3 -7 15 0 12 -8 23
-20 27 -11 4 -17 11 -14 17 5 8 1 9 -10 5 -9 -4 -15 -3 -12 1 3 5 -11 21 -29
37 -19 15 -32 32 -29 36 3 5 -1 6 -9 3 -8 -3 -21 3 -28 14 -8 10 -25 21 -37
25 -20 5 -23 2 -19 -14 3 -10 1 -17 -4 -13 -5 3 -8 -6 -7 -20 1 -14 4 -23 6
-21 8 7 43 -16 38 -24 -3 -4 6 -13 20 -20 16 -7 22 -16 18 -24 -5 -7 0 -6 11
3 10 8 16 10 12 4 -3 -6 3 -16 13 -24 10 -8 17 -17 14 -22 -3 -4 2 -8 11 -8 9
0 13 -4 10 -10 -3 -5 1 -10 9 -10 9 0 16 -7 16 -15 0 -14 13 -20 35 -15 6 1 4
-4 -2 -11 -10 -10 -6 -16 18 -31 17 -11 29 -21 26 -24 -3 -3 8 -19 24 -35 16
-17 27 -35 23 -40 -3 -5 -2 -9 3 -8 20 3 34 -2 28 -11 -3 -5 4 -19 15 -30 11
-11 18 -25 15 -30 -4 -6 -1 -10 4 -10 6 0 11 -6 11 -14 0 -8 9 -21 21 -29 15
-11 17 -16 7 -20 -10 -4 -10 -6 0 -6 6 -1 12 -8 12 -17 0 -8 5 -12 10 -9 6 4
10 -5 10 -19 0 -14 5 -26 10 -26 6 0 10 -7 10 -16 0 -8 4 -13 9 -9 5 3 12 1
16 -5 3 -5 0 -10 -7 -10 -9 0 -9 -3 2 -10 18 -11 20 -30 6 -49 -9 -12 -8 -13
3 -7 17 11 31 -10 31 -46 0 -16 5 -28 11 -28 5 0 7 6 3 13 -4 6 -3 8 2 4 4 -4
9 -20 9 -35 0 -15 4 -33 8 -39 5 -7 5 -18 2 -23 -4 -6 -1 -9 6 -8 6 2 14 -3
17 -11 2 -8 0 -11 -6 -7 -6 3 -14 2 -17 -4 -4 -6 -3 -10 2 -9 22 4 31 -3 26
-21 -3 -12 0 -20 7 -20 9 0 9 -4 -1 -17 -11 -14 -11 -15 -1 -9 10 6 13 3 10
-10 -2 -11 3 -25 12 -32 13 -12 13 -13 -3 -8 -18 6 -17 4 1 -27 12 -19 19 -45
17 -64 -1 -18 2 -33 7 -33 7 0 6 -5 -1 -13 -6 -8 -8 -17 -4 -20 3 -4 1 -7 -6
-7 -7 0 -10 -3 -7 -8 5 -8 -62 -7 -71 2 -4 3 -12 1 -20 -6 -7 -6 -17 -7 -21
-3 -4 4 -1 10 6 12 6 3 12 9 12 15 0 6 -6 6 -15 -2 -8 -6 -19 -9 -24 -6 -5 4
-13 1 -17 -5 -4 -8 -3 -9 4 -5 7 4 12 3 12 -3 0 -5 -9 -9 -20 -8 -23 1 -25 7
-7 27 6 8 2 6 -10 -4 -21 -17 -28 -15 -24 7 1 5 -3 6 -9 2 -6 -3 -8 -11 -5
-16 4 -5 2 -9 -4 -9 -5 0 -18 -3 -28 -7 -16 -6 -17 -5 -3 12 14 17 14 18 -7 6
-13 -6 -23 -9 -23 -5 0 3 -8 0 -17 -7 -15 -12 -16 -12 -9 5 7 20 7 20 -15 0
-19 -16 -22 -17 -16 -2 3 10 1 20 -5 24 -7 5 -8 2 -3 -6 6 -10 4 -12 -8 -7 -9
3 -19 1 -23 -5 -5 -7 -2 -8 7 -3 12 8 12 6 0 -8 -14 -18 -26 -23 -16 -8 3 5 1
12 -4 15 -5 4 -11 -4 -13 -16 -2 -15 -9 -22 -21 -22 -14 2 -15 -1 -6 -12 6 -8
15 -11 20 -8 5 3 9 0 9 -5 0 -6 -7 -11 -17 -11 -14 0 -14 -3 3 -22 10 -12 13
-18 7 -14 -7 4 -13 4 -14 -1 -4 -43 -3 -70 3 -67 4 2 9 0 13 -6 3 -5 -1 -10
-10 -10 -14 0 -14 -2 1 -25 16 -24 15 -25 -7 -34 l-24 -10 25 -1 c22 -1 23 -2
6 -9 -13 -5 -16 -10 -8 -15 15 -9 4 -38 -12 -29 -6 3 -6 1 2 -8 6 -7 12 -21
12 -32 0 -12 -4 -16 -12 -11 -7 4 -6 -1 2 -12 9 -10 22 -32 30 -47 12 -25 15
-26 21 -10 7 17 7 17 14 -1 7 -16 9 -17 17 -2 8 13 13 14 31 4 24 -13 88 -18
81 -7 -2 4 -18 6 -34 4 -17 -2 -30 -1 -30 4 0 4 20 7 44 7 26 -1 42 -5 39 -11
-4 -13 35 -17 42 -4 3 5 -1 6 -9 3 -9 -3 -16 -2 -16 3 0 4 20 8 44 8 31 0 42
-4 39 -12 -3 -7 0 -13 6 -13 6 0 11 7 11 16 0 8 5 12 10 9 6 -4 7 -12 3 -18
-5 -9 -3 -9 8 0 8 6 30 13 49 14 29 3 34 1 32 -15 -2 -10 1 -16 6 -12 10 6 9
-24 -2 -42 -4 -6 -5 -12 -2 -12 2 0 1 -13 -4 -29 -5 -17 -4 -33 1 -38 6 -6 3
-15 -7 -24 -15 -12 -17 -12 -9 0 5 10 4 12 -4 7 -9 -6 -9 -11 1 -24 11 -13 11
-14 -1 -7 -11 6 -13 4 -8 -8 3 -9 2 -19 -4 -23 -7 -4 -6 -10 1 -19 9 -10 6
-19 -9 -34 -13 -13 -16 -21 -8 -21 6 0 4 -5 -6 -11 -9 -6 -15 -15 -11 -20 3
-5 0 -17 -8 -26 -11 -14 -11 -16 2 -8 8 4 5 -3 -6 -16 -12 -13 -20 -32 -19
-41 2 -10 -1 -18 -6 -18 -6 0 -7 -5 -4 -11 4 -6 -1 -17 -11 -25 -11 -9 -12
-12 -4 -8 10 5 8 -1 -5 -16 -11 -13 -14 -20 -6 -15 10 5 12 4 7 -3 -4 -7 -15
-12 -24 -12 -10 0 -13 -3 -7 -8 17 -12 17 -35 0 -28 -9 3 -14 2 -11 -3 3 -5
-1 -14 -9 -21 -7 -6 -11 -18 -8 -26 3 -8 0 -14 -6 -14 -6 0 -10 -6 -9 -12 2
-7 -2 -12 -9 -11 -8 2 -10 -4 -6 -14 5 -12 3 -14 -8 -8 -11 7 -11 5 1 -10 8
-10 10 -16 3 -12 -15 10 -43 -31 -36 -51 4 -9 2 -13 -4 -9 -12 7 -29 -10 -35
-33 -4 -19 -21 -39 -29 -34 -4 2 -10 -3 -13 -12 -4 -10 -2 -13 7 -8 6 5 -3 -7
-20 -25 -18 -18 -33 -38 -33 -44 0 -7 4 -6 10 3 5 8 10 10 10 4 0 -5 -6 -16
-12 -23 -11 -11 -9 -13 8 -9 12 3 29 1 39 -5 11 -6 16 -6 12 0 -4 6 1 19 9 29
9 10 12 13 8 5 -5 -9 -3 -12 5 -7 6 4 9 11 6 16 -3 5 9 23 27 41 18 17 26 28
18 24 -9 -4 -9 -1 3 8 9 8 17 19 17 25 0 5 13 24 29 41 15 16 26 33 23 36 -3
3 3 12 14 21 10 8 12 13 4 9 -13 -6 -13 -5 0 7 8 7 16 20 18 28 2 8 11 21 20
28 9 7 16 22 14 32 -2 11 2 20 8 20 6 0 8 5 5 10 -3 6 0 10 9 10 9 0 13 8 11
25 -1 15 4 29 14 35 13 8 14 10 1 10 -9 1 -7 4 6 10 15 6 21 16 19 34 -2 14 1
26 7 26 6 0 5 6 -2 15 -11 13 -10 14 2 10 10 -4 17 1 21 14 3 14 1 19 -6 14
-7 -4 -5 1 3 12 8 10 15 32 16 48 0 29 24 54 24 26 0 -7 2 -10 5 -7 3 3 1 17
-4 32 -7 18 -7 26 0 26 6 0 8 4 4 9 -3 5 -1 13 5 16 8 5 8 11 0 20 -8 9 -8 15
0 20 5 3 10 20 10 36 0 21 4 28 13 23 6 -4 9 -4 5 1 -4 4 -3 14 4 22 8 11 7
12 -6 7 -9 -3 -16 -1 -16 5 0 6 6 11 13 11 8 0 13 10 12 22 -2 31 12 43 51 42
40 -1 43 -3 50 -38 3 -21 1 -24 -13 -20 -16 5 -16 4 0 -6 18 -11 18 -12 0 -27
-10 -8 -13 -12 -7 -9 7 3 14 -3 17 -15 4 -15 2 -18 -7 -10 -12 10 -18 -13 -18
-71 0 -16 -4 -28 -9 -28 -11 0 -7 -23 6 -32 6 -4 2 -8 -9 -8 -15 0 -16 -3 -6
-15 11 -13 10 -14 -2 -10 -11 5 -15 -2 -16 -25 0 -17 -7 -39 -14 -48 -7 -9 -8
-13 -2 -9 6 3 11 0 11 -8 0 -8 -5 -11 -10 -8 -6 4 -8 -2 -5 -15 4 -13 2 -20
-6 -19 -6 1 -10 -4 -8 -10 1 -7 -3 -13 -9 -13 -5 0 -7 -5 -4 -10 4 -6 1 -18
-6 -26 -6 -8 -9 -17 -6 -21 4 -3 -1 -12 -11 -20 -11 -9 -11 -12 -2 -7 12 6 13
4 3 -7 -7 -7 -13 -22 -13 -32 0 -12 -5 -17 -13 -14 -7 3 -13 -3 -14 -12 -3
-32 -8 -46 -23 -59 -13 -12 -13 -13 0 -7 8 4 6 -1 -5 -10 -11 -9 -19 -21 -17
-27 1 -6 -5 -17 -15 -25 -10 -8 -12 -12 -6 -8 9 4 11 1 7 -9 -3 -9 -10 -14
-14 -11 -4 3 -11 -2 -14 -11 -3 -8 -2 -12 4 -9 5 3 7 -1 4 -9 -3 -9 -11 -14
-17 -13 -6 1 -12 -2 -12 -8 -3 -20 -17 -45 -24 -41 -4 3 -7 -4 -8 -14 -2 -22
-38 -61 -48 -52 -4 4 -4 -4 0 -18 4 -14 4 -22 0 -18 -5 4 -14 0 -22 -10 -8 -9
-11 -11 -7 -3 4 9 3 12 -4 7 -6 -4 -9 -13 -6 -20 3 -8 -5 -21 -18 -30 -12 -9
-18 -16 -13 -16 6 0 3 -5 -5 -11 -11 -8 -12 -12 -2 -16 6 -2 12 -11 12 -18 0
-22 28 -25 33 -4 3 10 13 19 22 19 11 0 15 5 11 15 -3 8 -2 14 2 14 4 -1 14
-1 22 0 13 1 13 2 0 11 -12 7 -10 11 10 19 14 5 19 10 11 10 -17 1 -5 16 12
16 7 0 14 11 15 24 2 13 12 25 22 28 12 3 17 13 15 28 -1 18 2 22 16 20 12 -3
16 1 12 11 -3 8 1 14 8 14 7 0 9 3 6 6 -9 10 12 46 23 39 6 -4 7 1 3 11 -5 13
-3 15 7 9 9 -6 11 -4 6 4 -5 7 0 19 10 27 11 9 12 12 4 8 -11 -6 -10 -2 3 13
9 11 14 23 10 26 -3 4 -1 7 5 7 6 0 16 10 23 21 9 17 8 20 -3 13 -7 -4 -4 3 7
15 11 13 19 25 18 27 -7 11 -2 24 7 19 6 -4 7 1 3 11 -4 11 -3 15 4 11 7 -5 9
0 6 13 -3 11 -1 20 5 20 6 0 9 9 7 19 -2 10 4 27 14 38 10 10 17 26 15 36 -1
9 1 17 6 17 4 0 6 9 3 20 -3 12 0 20 6 20 7 0 9 -5 5 -12 -5 -7 -3 -8 5 -4 7
5 10 10 7 13 -2 3 -1 16 5 30 7 18 6 22 -4 17 -9 -6 -9 -4 1 8 7 9 12 20 11
24 -4 25 2 45 13 38 6 -4 8 -3 4 4 -3 6 -2 13 4 17 5 3 7 18 4 32 -4 15 -3 24
2 20 6 -3 10 3 10 14 0 10 -3 19 -6 19 -4 0 -7 7 -7 15 0 8 5 11 10 8 6 -4 8
5 5 20 -3 15 -2 28 2 29 4 2 10 14 14 28 6 19 5 21 -3 10 -6 -8 -11 -10 -11
-5 0 6 9 18 20 28 12 10 18 23 13 30 -4 6 6 4 21 -7 16 -10 26 -14 22 -8 -3 5
1 13 10 16 10 4 13 2 8 -6 -5 -8 -2 -9 9 -5 12 4 17 1 18 -11 5 -60 4 -69 -6
-66 -6 3 -11 -5 -12 -16 -1 -12 3 -18 8 -14 7 4 7 0 1 -12 -20 -39 -30 -84
-21 -90 5 -3 -1 -14 -13 -24 -13 -11 -17 -19 -10 -20 6 0 12 5 12 11 0 5 5 7
11 3 8 -5 8 -9 -1 -14 -7 -4 -10 -13 -6 -19 4 -7 1 -9 -8 -5 -11 4 -14 0 -11
-15 2 -11 0 -23 -6 -26 -5 -4 -9 -11 -9 -16 0 -6 4 -8 9 -5 5 4 4 -7 -2 -24
-8 -20 -17 -28 -26 -25 -11 4 -11 2 -3 -8 7 -8 9 -17 5 -21 -4 -3 -8 -12 -9
-19 -1 -7 -6 -21 -10 -31 -5 -14 -4 -17 4 -12 18 11 14 0 -5 -15 -14 -12 -16
-12 -8 0 5 9 4 12 -3 7 -6 -3 -9 -15 -7 -26 2 -11 0 -20 -5 -20 -5 0 -7 -9 -5
-20 3 -13 -2 -20 -12 -20 -13 0 -14 -2 -2 -17 10 -11 10 -14 2 -9 -9 5 -13 0
-13 -14 0 -12 -4 -18 -10 -15 -6 3 -7 -1 -4 -9 3 -9 1 -16 -5 -16 -6 0 -10 -6
-9 -12 2 -7 -2 -12 -8 -11 -8 1 -10 -6 -6 -19 3 -14 1 -19 -6 -14 -8 5 -10 1
-5 -10 3 -10 0 -22 -8 -28 -8 -6 -20 -22 -27 -35 -11 -19 -11 -22 0 -17 7 4 3
-1 -9 -10 -13 -9 -23 -27 -23 -41 0 -18 -4 -24 -15 -19 -8 3 -14 2 -14 -2 3
-20 -2 -32 -12 -27 -6 4 -10 1 -8 -6 3 -24 -1 -39 -8 -38 -20 3 -26 -2 -13
-11 12 -8 11 -11 -8 -16 -13 -4 -21 -11 -19 -17 2 -6 -8 -23 -23 -37 -14 -14
-28 -29 -30 -35 -3 -5 -9 -9 -13 -7 -5 1 -6 -2 -2 -8 3 -5 1 -10 -4 -10 -6 0
-10 -6 -9 -12 2 -7 -3 -12 -10 -10 -8 1 -11 -2 -7 -8 3 -5 1 -10 -5 -10 -6 0
-9 -4 -5 -9 3 -5 1 -12 -5 -16 -16 -10 -12 -21 15 -33 19 -9 27 -8 40 4 8 9
15 23 15 32 0 15 2 15 10 2 8 -13 10 -12 10 3 0 9 5 17 10 17 6 0 9 6 8 13 -2
6 3 11 10 9 6 -1 11 2 10 7 -2 5 6 17 17 26 11 9 13 14 5 10 -10 -4 -9 -2 2 8
10 8 15 17 11 20 -3 4 -1 7 6 7 7 0 9 5 6 10 -3 6 -1 10 5 10 6 0 8 4 5 10 -3
6 1 7 9 4 11 -4 16 0 16 15 0 12 4 21 10 21 5 0 7 7 4 15 -5 11 -2 13 10 9 11
-4 16 -1 16 13 0 10 9 24 20 31 12 7 20 18 19 25 -4 30 2 48 13 41 8 -5 9 -2
5 9 -4 10 -2 16 5 14 7 -1 13 9 14 22 1 14 8 29 15 35 13 10 18 22 23 55 2 8
11 20 21 27 11 8 13 14 6 14 -9 0 -8 4 3 15 8 9 13 22 10 29 -3 8 0 17 7 22 8
5 10 3 4 -6 -5 -8 -4 -11 3 -7 5 4 9 18 7 32 -1 14 2 25 7 25 6 0 8 7 4 15 -3
8 -1 15 4 15 6 0 10 7 10 15 0 8 4 15 9 15 5 0 8 11 6 25 -1 14 2 25 7 25 5 0
6 5 3 10 -9 14 4 52 16 45 5 -3 6 2 2 11 -4 10 -2 15 4 11 5 -3 10 0 10 8 0 8
-5 11 -11 8 -6 -4 -5 1 2 10 8 9 11 21 7 27 -3 5 0 10 7 10 10 0 10 2 -1 9
-10 7 -11 9 -1 13 7 2 15 15 17 29 2 19 1 21 -8 9 -9 -13 -10 -12 -5 3 3 10 6
20 6 23 0 2 8 0 18 -3 16 -7 16 -6 0 11 -21 21 -23 27 -6 24 15 -4 18 22 5 40
-5 6 -6 12 -1 12 5 0 10 19 12 41 3 47 17 79 35 79 8 0 8 -3 -2 -9 -9 -6 -4
-8 17 -7 17 1 34 5 39 9 4 5 0 5 -9 2 -9 -4 -18 -3 -21 2 -3 4 10 8 29 8 19 0
34 -3 34 -7 0 -5 5 -8 11 -8 5 0 7 6 4 13 -4 6 1 3 9 -7 15 -18 16 -18 16 -2
0 9 5 14 10 11 6 -4 8 -11 4 -16 -3 -6 3 -5 14 2 12 7 27 9 38 4 24 -10 84
-13 78 -4 -2 4 -18 6 -34 4 -17 -2 -30 -1 -30 4 0 4 20 7 44 7 24 -1 42 -4 39
-8 -2 -5 -1 -8 4 -9 4 0 18 -2 31 -3 13 -2 26 2 29 7 4 6 1 7 -7 2 -9 -5 -11
-4 -6 3 10 16 36 15 32 0 -1 -7 -1 -10 1 -5 3 4 9 5 13 2 5 -3 9 93 9 218 0
186 -2 224 -14 224 -8 0 -12 -4 -10 -8 8 -12 -30 -5 -38 8 -6 9 -16 8 -42 -3
-44 -18 -51 -18 -34 3 13 15 12 15 -11 3 -14 -7 -26 -13 -27 -12 -2 1 -4 2 -5
1 -2 0 -12 -2 -23 -4 l-20 -4 20 16 c19 15 19 15 1 9 -11 -4 -23 -1 -28 6 -6
8 -7 4 -2 -12 6 -21 5 -23 -8 -13 -11 10 -17 10 -28 0 -10 -10 -12 -8 -6 7 7
19 6 19 -14 1 -22 -20 -28 -8 -7 15 6 8 -1 4 -17 -10 -19 -16 -27 -20 -24 -9
4 9 1 16 -8 16 -7 0 -10 -5 -7 -10 4 -6 0 -8 -9 -4 -9 3 -20 1 -25 -4 -6 -6
-15 -4 -24 7 -9 12 -10 15 -1 10 6 -4 12 -2 12 3 0 10 -11 14 -30 13 -3 0 -5
29 -5 64 1 35 -2 64 -5 64 -3 0 -6 9 -6 20 0 11 5 20 11 20 5 0 3 4 -5 9 -8 6
-17 8 -20 6 -3 -2 -7 5 -7 16 -1 10 2 19 8 19 5 0 9 5 9 11 0 5 -4 7 -10 4 -6
-4 -11 7 -11 24 -3 64 -4 72 -15 79 -14 9 -27 45 -14 37 11 -7 -7 41 -24 64
-8 11 -8 13 1 8 16 -10 10 20 -7 36 -12 10 -12 9 -1 -5 9 -12 10 -18 2 -18
-10 0 -15 14 -12 34 1 4 -4 15 -11 24 -10 12 -10 14 0 8 18 -11 15 3 -6 22
-10 10 -12 13 -5 8 10 -6 12 -4 7 8 -3 9 -13 16 -21 16 -13 0 -13 3 -3 15 9
10 9 15 1 15 -6 0 -11 7 -11 15 0 8 -6 15 -12 15 -9 0 -8 4 2 10 13 8 12 10
-3 10 -10 0 -15 5 -12 10 3 6 1 10 -4 10 -6 0 -11 5 -11 11 0 5 5 7 11 4 6 -4
5 2 -2 13 -7 12 -17 18 -23 15 -5 -3 -6 -1 -2 5 3 6 0 17 -8 25 -11 11 -12 17
-3 27 9 10 9 11 0 6 -7 -4 -13 -2 -13 4 0 6 -5 8 -10 5 -6 -4 -10 -3 -9 2 1 4
0 10 -1 13 -1 3 -3 13 -5 23 -4 23 -25 48 -35 42 -4 -2 -6 7 -4 20 1 14 -1 23
-4 21 -4 -2 -16 6 -27 17 -11 11 -13 16 -5 12 13 -8 13 -6 2 8 -8 9 -11 21 -7
26 3 7 0 8 -9 5 -15 -6 -21 6 -17 29 1 5 -2 7 -6 4 -5 -2 -16 4 -25 15 -10 10
-13 18 -7 18 7 0 -3 13 -21 29 -19 16 -30 33 -26 40 5 7 1 9 -8 5 -9 -4 -16
-1 -16 6 0 7 -12 21 -26 32 -14 11 -23 27 -20 34 3 8 2 13 -2 13 -20 -3 -32 2
-27 11 3 6 -4 14 -17 19 -13 6 -19 10 -15 10 12 1 -20 31 -33 31 -6 0 -9 4 -6
8 3 5 -4 14 -14 22 -10 8 -16 18 -13 23 3 6 1 7 -6 3 -12 -8 -41 16 -41 34 0
6 -4 8 -10 5 -5 -3 -10 -2 -10 4 0 5 -10 13 -21 16 -17 6 -19 9 -8 16 11 7 11
9 -3 9 -9 0 -23 3 -31 6 -8 3 -22 -2 -31 -11z m752 -1450 c-3 -3 -9 2 -12 12
-6 14 -5 15 5 6 7 -7 10 -15 7 -18z m-662 -58 c4 -4 13 -2 21 5 10 8 17 8 25
0 8 -8 15 -9 25 -1 10 9 13 8 13 -2 0 -12 2 -12 9 -1 4 8 12 14 16 14 4 0 12
-6 16 -14 7 -10 9 -10 9 2 0 13 1 13 10 0 7 -11 10 -11 10 -2 0 8 5 10 13 5
17 -11 30 -11 45 0 8 6 12 5 12 -4 0 -9 3 -10 8 -4 8 12 71 13 90 2 7 -5 12
-3 12 4 0 9 3 9 14 0 11 -9 15 -9 20 1 5 11 7 11 12 0 5 -10 9 -10 22 0 13 11
15 11 7 -2 -6 -12 -5 -13 6 -2 7 6 17 12 22 12 4 0 5 -6 1 -12 -5 -9 -2 -9 9
1 14 11 17 11 17 0 0 -10 3 -10 12 -1 15 15 32 16 22 1 -4 -8 0 -8 15 0 16 9
21 9 21 -1 0 -9 3 -9 10 2 8 12 11 13 19 1 6 -9 11 -10 15 -2 4 6 12 11 17 11
6 0 7 -6 3 -12 -5 -9 -2 -9 9 1 14 11 17 11 18 0 0 -11 2 -11 6 -1 4 10 8 10
21 0 13 -11 14 -11 7 2 -8 13 -7 13 8 1 13 -10 17 -10 17 -1 0 9 4 9 17 -1 11
-10 14 -10 9 -1 -5 8 -1 11 16 8 13 -2 22 -10 20 -17 -1 -8 5 -5 13 6 13 16
17 17 24 6 6 -9 11 -10 15 -2 5 8 13 8 26 1 13 -7 20 -6 24 3 5 9 7 9 12 -1 5
-10 9 -10 22 0 13 11 14 11 7 -2 -7 -13 -6 -13 7 -2 10 8 19 9 22 3 7 -10 25
-9 44 2 7 5 12 3 12 -5 0 -10 2 -10 9 1 6 8 14 10 22 5 18 -11 41 -11 57 0 8
6 12 3 12 -7 0 -11 5 -14 18 -10 15 6 15 4 4 -9 -11 -14 -10 -18 5 -27 10 -6
13 -11 6 -11 -7 0 -17 -10 -24 -21 -9 -17 -8 -20 2 -14 9 6 11 3 6 -8 -4 -10
1 -21 11 -27 14 -9 13 -10 -7 -4 -18 5 -22 3 -15 -7 14 -24 15 -51 2 -44 -7 4
-2 -3 12 -16 l25 -22 -25 8 c-20 6 -23 5 -13 -6 9 -9 10 -16 1 -26 -9 -11 -7
-12 8 -7 15 6 17 4 7 -6 -9 -10 -10 -17 -1 -27 8 -11 7 -12 -6 -7 -11 4 -16 2
-14 -7 2 -10 -33 -18 -44 -9 -8 5 -56 4 -52 -1 9 -14 -71 -4 -84 11 -11 13
-11 13 -7 -1 4 -12 -2 -15 -28 -14 -18 1 -39 5 -45 9 -7 4 -12 2 -12 -5 0 -8
-3 -9 -13 0 -8 6 -16 8 -20 5 -10 -11 -107 -12 -100 -1 4 6 1 7 -6 3 -17 -11
-111 -13 -117 -4 -3 5 -10 5 -16 2 -16 -10 -88 -11 -88 -2 0 5 -9 4 -20 -2
-15 -8 -20 -8 -21 2 0 11 -2 11 -6 0 -4 -9 -8 -10 -18 -2 -9 8 -15 8 -20 0 -3
-5 -11 -10 -16 -10 -6 0 -7 5 -4 10 10 17 -7 11 -20 -7 -9 -13 -14 -13 -20 -3
-6 9 -4 11 5 5 9 -5 11 -4 6 3 -4 7 -14 9 -24 4 -21 -9 -53 -9 -70 1 -7 5 -12
3 -12 -5 0 -9 -3 -9 -10 2 -5 8 -10 10 -10 5 0 -11 -106 -13 -116 -2 -3 3 -12
3 -20 0 -8 -3 -22 1 -32 8 -15 13 -16 12 -3 -4 12 -16 11 -17 -10 -13 -13 3
-29 5 -36 5 -7 1 -10 8 -6 18 4 10 2 14 -4 10 -5 -3 -10 0 -10 8 0 8 5 15 11
15 6 0 5 4 -3 9 -12 8 -12 12 -2 24 8 11 9 17 1 22 -8 5 -8 10 0 20 8 10 8 15
0 20 -8 5 -8 10 0 20 8 9 8 15 0 20 -6 3 -7 11 -4 17 10 16 11 69 1 75 -5 3 0
12 10 20 10 8 12 11 4 7 -9 -4 -12 -3 -8 4 7 11 32 11 43 -1z m-99 -262 c0 -8
-4 -12 -9 -9 -5 3 -6 10 -3 15 9 13 12 11 12 -6z m1183 -99 c0 -3 -4 -8 -10
-11 -5 -3 -10 -1 -10 4 0 6 5 11 10 11 6 0 10 -2 10 -4z m-560 -236 c0 -5 -2
-10 -4 -10 -3 0 -8 5 -11 10 -3 6 -1 10 4 10 6 0 11 -4 11 -10z m-293 -175 c0
-8 -4 -12 -9 -9 -5 3 -6 10 -3 15 9 13 12 11 12 -6z m223 -469 c0 -3 -4 -8
-10 -11 -5 -3 -10 -1 -10 4 0 6 5 11 10 11 6 0 10 -2 10 -4z m-220 -290 c0 -2
-8 -10 -17 -17 -16 -13 -17 -12 -4 4 13 16 21 21 21 13z"/>
<path d="M4130 2659 c0 -6 -5 -7 -11 -4 -5 4 -22 4 -35 1 -23 -6 -24 -9 -12
-23 8 -10 8 -14 1 -10 -6 4 -14 3 -18 -3 -5 -9 1 -12 21 -9 4 0 11 -5 15 -13
7 -10 9 -8 10 7 0 15 2 16 6 5 4 -8 13 -20 21 -26 12 -9 12 -13 2 -19 -9 -6
-11 -4 -6 6 4 8 1 6 -7 -3 -8 -10 -18 -14 -22 -10 -5 4 -5 -1 -2 -11 4 -10 3
-16 -2 -13 -4 3 -17 -2 -27 -10 -10 -9 -12 -12 -4 -8 11 5 10 1 -3 -13 -12
-14 -15 -23 -8 -28 6 -3 11 -4 11 -1 0 3 11 1 25 -4 16 -6 25 -6 25 1 0 6 7 6
20 -1 15 -8 20 -8 20 2 0 9 3 9 10 -2 5 -8 10 -10 10 -4 0 7 7 11 16 10 9 0
18 7 19 17 2 9 -1 15 -5 12 -5 -3 -11 -1 -15 5 -4 6 -10 8 -14 5 -5 -2 -17 5
-27 17 -12 13 -13 18 -4 13 23 -14 51 -14 40 0 -10 12 -4 25 12 25 5 0 6 -5 2
-12 -4 -7 -3 -8 5 -4 9 6 9 11 1 21 -8 10 -7 14 2 18 9 3 7 9 -7 23 -11 10
-16 16 -11 12 17 -13 28 -9 14 5 -21 20 -68 38 -68 26z"/>
<path d="M4390 2663 c0 -6 -13 -9 -31 -7 -18 2 -28 0 -24 -6 3 -6 1 -10 -5
-10 -6 0 -9 -3 -7 -7 6 -10 -18 -34 -27 -27 -3 2 -2 -2 4 -8 12 -14 13 -31 2
-24 -4 2 -8 -4 -8 -15 0 -10 4 -19 8 -19 4 0 8 -7 8 -15 0 -9 8 -24 18 -34 23
-24 52 -34 52 -18 0 8 4 6 10 -3 9 -13 10 -13 10 0 0 13 1 13 10 0 6 -10 10
-11 10 -2 0 6 7 12 15 12 8 0 15 5 15 11 0 5 4 8 8 5 5 -3 9 1 9 9 0 8 -5 11
-11 8 -6 -4 -4 1 4 11 17 21 25 60 10 51 -6 -4 -7 1 -3 10 3 10 0 21 -8 26
-12 7 -12 9 0 9 9 0 7 6 -7 19 -12 10 -18 22 -14 27 4 4 0 3 -9 -4 -12 -9 -18
-9 -27 0 -8 8 -12 8 -12 1z m26 -102 c0 -38 -1 -41 -13 -25 -10 14 -13 15 -13
3 0 -9 -7 -16 -15 -16 -8 0 -12 4 -9 9 3 4 0 8 -7 8 -8 0 -7 5 2 17 8 9 9 14
3 10 -8 -5 -12 24 -5 40 1 1 13 1 28 0 26 -2 28 -6 29 -46z"/>
<path d="M4595 2650 c-28 -14 -34 -20 -20 -20 12 -1 15 -4 7 -7 -10 -4 -8 -9
6 -21 14 -13 18 -30 17 -70 0 -32 4 -57 12 -64 9 -7 13 -7 13 1 0 7 4 10 9 6
5 -3 12 -1 16 5 4 6 11 7 17 4 7 -4 8 -2 4 5 -4 6 -11 9 -14 7 -4 -2 -7 29 -7
69 0 59 2 72 14 67 9 -3 12 -1 7 6 -4 7 -16 12 -27 12 -11 0 -17 5 -14 10 8
13 7 13 -40 -10z"/>
<path d="M4824 2661 c-3 -3 -10 -7 -15 -7 -5 -1 -13 -2 -17 -3 -5 0 -8 -19 -7
-41 1 -23 -2 -43 -7 -46 -5 -3 -4 -12 2 -19 9 -11 6 -12 -12 -8 -16 3 -19 2
-10 -5 7 -5 14 -18 15 -30 0 -11 5 -18 9 -16 4 3 8 1 8 -3 0 -8 39 -16 68 -14
37 3 45 6 59 27 13 21 13 25 -2 40 -11 12 -13 20 -6 27 7 7 7 15 -1 25 -9 10
-9 15 1 22 9 5 10 9 2 14 -6 4 -9 11 -6 16 8 13 -69 33 -81 21z m34 -59 c2 -7
-3 -12 -12 -12 -9 0 -16 7 -16 16 0 17 22 14 28 -4z m6 -83 c-3 -5 -14 -4 -26
2 -16 9 -18 13 -7 20 15 9 42 -8 33 -22z m46 -19 c-6 -11 -13 -20 -16 -20 -2
0 0 9 6 20 6 11 13 20 16 20 2 0 0 -9 -6 -20z"/>
<path d="M4756 2622 c-3 -5 1 -9 9 -9 8 0 12 4 9 9 -3 4 -7 8 -9 8 -2 0 -6 -4
-9 -8z"/>
<path d="M4663 2605 c0 -8 4 -12 9 -9 5 3 6 10 3 15 -9 13 -12 11 -12 -6z"/>
<path d="M4663 2565 c0 -8 4 -12 9 -9 5 3 6 10 3 15 -9 13 -12 11 -12 -6z"/>
<path d="M2120 4200 c-8 -5 -10 -10 -5 -10 6 0 17 5 25 10 8 5 11 10 5 10 -5
0 -17 -5 -25 -10z"/>
<path d="M1229 3933 c-13 -16 -12 -17 4 -4 9 7 17 15 17 17 0 8 -8 3 -21 -13z"/>
<path d="M2505 3899 c-4 -5 -4 -13 -1 -16 3 -4 6 -1 6 6 0 7 5 9 10 6 14 -9
12 -24 -2 -21 -7 1 -23 7 -35 14 -16 9 -24 9 -29 0 -5 -7 -3 -8 6 -3 8 5 11 4
6 -3 -3 -6 -15 -9 -26 -7 -11 2 -20 -2 -20 -8 0 -7 -4 -6 -10 3 -8 12 -10 12
-10 1 0 -11 -3 -11 -17 0 -14 12 -16 12 -8 0 6 -11 4 -13 -7 -8 -9 3 -21 0
-28 -6 -10 -9 -11 -9 -6 3 6 12 5 12 -6 -1 -7 -9 -19 -14 -25 -12 -7 3 -13 -1
-13 -7 0 -10 -4 -9 -15 0 -13 11 -14 10 -8 -6 6 -17 5 -18 -12 -4 -11 9 -16
10 -11 3 6 -12 -10 -18 -36 -14 -4 0 -5 -6 -2 -14 4 -10 0 -15 -14 -15 -12 0
-23 -9 -27 -20 -5 -16 -10 -18 -25 -10 -14 7 -17 6 -16 -8 0 -9 -5 -16 -11
-14 -7 1 -13 -5 -13 -14 0 -8 -4 -12 -10 -9 -5 3 -10 1 -10 -5 0 -6 -4 -8 -10
-5 -5 3 -7 0 -4 -8 3 -8 -3 -20 -13 -28 -17 -13 -17 -13 -3 6 14 19 14 19 -2
6 -10 -7 -18 -20 -18 -28 0 -9 -6 -13 -14 -10 -10 4 -13 1 -9 -9 3 -7 1 -14
-3 -14 -16 0 -39 -63 -26 -68 7 -2 9 -9 6 -14 -4 -7 -2 -8 4 -4 6 4 22 -4 34
-16 13 -13 28 -22 35 -20 8 2 10 -3 7 -13 -4 -10 0 -15 15 -15 19 0 26 -10 22
-33 -1 -5 3 -6 9 -2 5 3 13 -1 16 -10 6 -13 8 -14 15 -3 7 10 9 9 9 -4 0 -10
5 -18 11 -18 5 0 7 -4 4 -10 -3 -6 1 -7 9 -4 11 4 16 0 16 -11 0 -9 5 -13 10
-10 6 3 10 1 10 -4 0 -20 49 -12 60 10 7 11 17 18 25 16 9 -4 11 1 7 15 -3 14
-1 19 6 14 7 -4 12 -2 12 4 0 6 4 9 9 5 5 -3 12 4 16 15 4 11 10 18 15 15 5
-3 12 4 15 16 6 17 9 19 16 8 6 -10 10 -8 18 11 5 14 10 19 10 11 1 -10 4 -11
14 -2 8 6 17 8 20 4 4 -3 7 2 7 13 0 16 2 17 10 4 8 -13 11 -13 19 -1 5 8 18
12 30 8 12 -3 21 0 21 6 0 7 5 4 11 -6 8 -14 14 -16 25 -6 11 9 14 8 14 -4 0
-9 7 -14 18 -11 30 7 81 -53 66 -78 -4 -7 -3 -8 4 -4 14 8 13 -46 -1 -55 -5
-3 -1 -9 8 -12 9 -4 13 -3 10 3 -3 6 -1 10 4 10 17 0 13 -14 -9 -38 -11 -12
-20 -28 -20 -36 0 -8 -5 -18 -10 -21 -6 -4 -8 -10 -5 -15 3 -5 0 -12 -6 -16
-8 -5 -9 -3 -4 7 8 12 6 12 -8 0 -19 -15 -23 -36 -5 -25 7 4 8 3 4 -4 -4 -7
-14 -12 -22 -12 -8 0 -20 -11 -26 -25 -6 -13 -19 -27 -30 -30 -10 -4 -18 -12
-18 -18 0 -7 -4 -6 -10 3 -8 13 -10 12 -10 -2 0 -10 -5 -18 -11 -18 -5 0 -7
-4 -4 -10 3 -6 -1 -7 -9 -4 -9 4 -16 1 -16 -6 0 -7 -7 -10 -16 -6 -8 3 -13 2
-10 -2 2 -4 -2 -16 -10 -27 -8 -10 -14 -13 -14 -6 0 6 -11 2 -24 -11 -13 -13
-32 -29 -42 -36 -11 -7 -13 -10 -6 -7 17 9 15 0 -5 -16 -11 -10 -14 -10 -9 -1
13 22 -9 12 -28 -13 -10 -13 -22 -22 -27 -19 -5 3 -9 0 -9 -6 0 -6 -5 -8 -10
-5 -6 4 -10 3 -9 -2 1 -4 1 -15 0 -23 -1 -13 -2 -13 -11 0 -8 12 -10 12 -16
-3 -3 -9 -11 -14 -17 -10 -6 4 -8 0 -4 -10 3 -9 3 -16 -1 -16 -17 2 -51 -14
-46 -22 3 -5 -2 -9 -10 -9 -9 0 -16 -4 -16 -10 0 -5 -7 -10 -16 -10 -8 0 -13
-4 -10 -9 5 -8 -29 -25 -46 -22 -5 1 -7 -2 -7 -7 3 -18 -2 -32 -12 -32 -5 0
-7 6 -4 13 4 6 -1 3 -10 -8 -9 -11 -21 -19 -26 -17 -6 1 -8 -2 -4 -7 3 -6 -7
-17 -23 -25 -16 -8 -35 -23 -43 -32 -9 -11 -9 -15 -1 -10 8 5 12 -2 12 -24 0
-18 -4 -29 -10 -25 -5 3 -10 1 -10 -4 0 -6 8 -11 18 -11 14 0 15 -2 2 -10 -14
-9 -7 -14 13 -11 5 1 6 -3 2 -9 -3 -5 -14 -10 -23 -10 -13 0 -13 -2 4 -16 10
-8 14 -13 8 -10 -7 3 -14 0 -16 -7 -7 -16 2 -38 11 -32 5 2 6 -7 3 -20 -2 -15
-9 -22 -16 -18 -6 3 -3 -3 7 -14 18 -21 18 -22 0 -33 -16 -10 -16 -11 5 -6 20
4 21 2 10 -12 -11 -14 -10 -15 6 -9 13 5 17 3 13 -6 -3 -9 5 -13 28 -14 27 0
32 3 28 16 -4 13 -2 13 10 -2 15 -18 15 -18 20 0 4 16 5 16 6 1 1 -22 9 -23
33 -1 15 14 18 14 13 2 -4 -10 0 -16 9 -16 8 0 13 4 10 9 -3 4 0 8 5 8 6 0 11
-4 11 -8 0 -4 10 -8 21 -9 21 -2 21 -1 3 13 -17 13 -17 13 9 4 36 -13 40 -13
32 3 -4 6 0 4 8 -5 15 -19 32 -25 22 -8 -4 6 1 7 11 3 10 -4 15 -2 11 4 -3 5
0 10 8 10 8 0 12 -4 9 -8 -2 -4 1 -11 7 -15 7 -4 9 -3 6 3 -7 11 56 73 73 73
6 0 10 5 10 11 0 5 -6 7 -12 3 -10 -5 -10 -3 0 7 7 8 17 15 22 15 6 1 15 2 20
3 6 0 10 6 10 12 0 5 -6 7 -12 3 -8 -4 -10 -3 -5 2 5 5 12 9 15 9 16 1 32 17
26 27 -4 7 -2 8 4 4 7 -4 12 -2 12 4 0 6 5 8 12 4 7 -4 8 -3 4 5 -4 6 0 14 8
17 9 3 13 11 9 18 -4 6 1 5 10 -3 15 -12 17 -12 12 1 -4 9 1 18 10 22 9 3 13
11 10 16 -4 6 -3 9 2 8 4 -2 9 1 10 6 1 5 14 17 28 26 25 16 25 19 9 23 -18 4
-18 5 0 6 19 1 19 1 1 15 -21 15 -29 47 -12 43 7 -1 11 3 10 10 -2 7 6 10 18
8 17 -3 19 -2 9 10 -10 12 -8 13 9 10 12 -2 21 1 21 7 0 5 7 8 15 4 8 -3 14
-2 14 2 -3 20 2 33 11 27 6 -3 10 -1 10 6 0 7 3 9 7 6 3 -4 13 2 21 14 8 11
20 18 29 15 8 -3 11 -1 8 4 -3 6 0 10 7 10 8 0 21 9 31 20 10 12 23 18 29 14
6 -4 8 -3 5 3 -4 6 3 19 16 29 14 13 18 14 12 4 -6 -9 -2 -8 7 3 11 11 23 15
30 11 8 -5 7 -1 -2 11 -9 11 -10 16 -2 11 7 -4 12 -2 12 4 0 6 4 9 9 5 5 -3
19 8 31 25 12 17 27 27 33 24 7 -4 9 -4 5 1 -5 5 1 15 13 23 11 8 18 20 15 28
-3 8 0 13 7 11 7 -1 11 6 11 15 -1 11 4 14 14 11 10 -4 13 -2 8 5 -4 6 2 20
14 32 22 22 27 45 8 34 -7 -4 0 7 16 24 17 18 25 32 19 32 -6 0 -13 -5 -15
-12 -3 -7 -7 -5 -11 6 -4 9 -3 15 2 12 5 -3 15 2 22 11 11 13 11 17 2 20 -7 3
-13 9 -13 14 0 6 5 7 11 3 8 -5 10 1 7 20 -3 14 -2 26 1 26 3 0 6 18 6 40 0
22 -4 40 -8 40 -4 0 -3 10 4 21 8 15 8 19 0 15 -8 -5 -10 4 -7 28 3 20 1 38
-4 41 -6 3 -7 -2 -4 -12 3 -10 -2 -6 -11 10 -9 15 -13 31 -10 36 7 13 -5 42
-16 35 -5 -3 -9 2 -9 10 0 9 -5 16 -11 16 -5 0 -8 4 -4 9 3 5 -1 16 -9 24 -8
8 -12 17 -9 21 4 3 -1 6 -11 6 -9 0 -14 5 -11 10 3 6 1 10 -4 10 -17 0 -50 33
-44 43 3 6 1 7 -5 3 -7 -4 -12 -3 -12 1 0 5 -9 14 -21 21 -15 10 -19 10 -14 1
6 -8 4 -10 -4 -5 -7 5 -10 14 -8 20 3 7 -1 13 -9 13 -7 0 -11 -5 -7 -10 3 -5
-5 -3 -18 4 -13 7 -28 12 -33 11 -5 -2 -6 4 -3 11 4 11 0 13 -14 10 -10 -3
-19 -1 -19 3 0 5 -19 10 -43 12 -23 1 -51 4 -62 6 -11 3 -28 5 -38 5 -10 1
-15 6 -12 11 4 6 11 7 17 4 7 -4 8 -2 4 5 -5 8 -12 9 -20 2 -13 -11 -85 -10
-103 2 -6 4 -15 2 -18 -4z m-490 -1509 c-3 -5 -12 -10 -18 -10 -7 0 -6 4 3 10
19 12 23 12 15 0z"/>
<path d="M3980 3539 c0 -5 5 -7 10 -4 6 3 10 8 10 11 0 2 -4 4 -10 4 -5 0 -10
-5 -10 -11z"/>
<path d="M960 3430 c-9 -6 -10 -10 -3 -10 6 0 15 5 18 10 8 12 4 12 -15 0z"/>
<path d="M2559 3173 c-13 -16 -12 -17 4 -4 16 13 21 21 13 21 -2 0 -10 -8 -17
-17z"/>
<path d="M770 2900 c0 -5 5 -10 11 -10 5 0 7 5 4 10 -3 6 -8 10 -11 10 -2 0
-4 -4 -4 -10z"/>
<path d="M4405 2801 c-3 -5 -2 -12 3 -15 5 -3 9 1 9 9 0 17 -3 19 -12 6z"/>
<path d="M206 2788 c3 -5 10 -6 15 -3 13 9 11 12 -6 12 -8 0 -12 -4 -9 -9z"/>
<path d="M2855 2720 c-3 -5 -4 -14 -1 -18 3 -5 -1 -9 -9 -9 -8 0 -12 4 -9 9 7
11 -27 10 -46 -2 -9 -6 -20 -5 -29 3 -12 9 -13 9 -7 0 4 -7 2 -13 -3 -13 -6 0
-11 -7 -11 -16 0 -8 -4 -12 -10 -9 -5 3 -10 1 -10 -5 0 -6 -4 -8 -10 -5 -5 3
-10 -1 -10 -9 0 -9 -5 -16 -11 -16 -5 0 -7 -4 -4 -10 4 -6 -1 -7 -11 -3 -12 4
-15 3 -10 -5 4 -7 2 -12 -4 -12 -6 0 -8 -5 -4 -12 5 -8 2 -9 -12 -4 -10 4 -16
4 -12 1 9 -10 -49 -68 -61 -61 -7 5 -8 1 -4 -10 5 -14 3 -16 -12 -11 -15 6
-16 5 -5 -8 10 -12 10 -15 -4 -15 -9 0 -16 -5 -16 -11 0 -5 -4 -7 -10 -4 -6 3
-7 -1 -4 -10 4 -9 2 -15 -4 -13 -5 2 -19 -8 -30 -20 -12 -13 -26 -21 -31 -17
-7 4 -8 -2 -2 -17 5 -15 18 -23 37 -25 78 -7 94 -8 94 -2 0 7 32 5 46 -3 5 -4
16 -3 24 2 8 5 22 5 32 -1 13 -7 18 -6 18 3 0 9 3 9 12 0 7 -7 16 -8 22 -3 7
6 21 4 36 -4 15 -9 19 -14 10 -15 -13 0 -13 -1 0 -10 10 -6 11 -10 3 -10 -7 0
-13 -7 -13 -16 0 -9 -5 -12 -12 -8 -8 5 -9 0 -6 -14 4 -12 3 -20 0 -18 -4 2
-13 -2 -20 -10 -7 -8 -10 -14 -6 -14 3 0 1 -6 -5 -13 -6 -8 -8 -17 -4 -21 4
-4 0 -4 -10 0 -13 4 -16 2 -11 -9 3 -9 -5 -24 -18 -37 -21 -19 -21 -20 -3 -14
18 6 18 5 -2 -15 -13 -12 -23 -26 -23 -32 0 -6 -4 -7 -10 -4 -6 4 -7 -1 -3
-11 4 -11 3 -15 -4 -11 -7 5 -9 -1 -6 -15 3 -13 2 -20 -2 -16 -10 9 -37 -41
-29 -53 3 -5 0 -8 -8 -7 -7 2 -12 -5 -12 -14 1 -10 -2 -15 -7 -12 -5 3 -10 0
-10 -5 -1 -6 -2 -16 -3 -22 0 -6 -9 -16 -18 -23 -10 -7 -14 -16 -10 -20 3 -4
-4 -16 -18 -28 -14 -11 -19 -16 -11 -12 9 5 12 3 7 -4 -4 -7 -15 -12 -24 -12
-13 0 -14 -2 -4 -8 7 -5 10 -16 6 -25 -3 -9 -10 -14 -15 -11 -5 3 -9 0 -9 -6
0 -6 -5 -8 -12 -4 -9 5 -9 2 1 -9 12 -15 11 -17 -4 -17 -15 0 -16 -2 -4 -17
12 -15 12 -16 -3 -10 -10 3 -17 3 -17 -1 2 -16 -14 -52 -23 -52 -6 0 -8 -7 -4
-15 3 -8 0 -14 -7 -12 -7 1 -11 -4 -9 -12 1 -7 -5 -20 -15 -30 -10 -9 -18 -23
-18 -31 0 -8 -6 -14 -14 -12 -12 3 -12 0 -2 -12 9 -11 9 -16 0 -22 -8 -5 -9
-3 -4 6 5 9 4 11 -3 6 -7 -4 -12 -13 -12 -21 0 -8 -10 -24 -22 -36 -13 -12
-17 -18 -9 -14 9 5 12 3 9 -6 -3 -8 -11 -13 -17 -11 -7 1 -11 -3 -10 -10 4
-32 -1 -41 -15 -29 -11 9 -14 9 -13 -1 1 -39 -4 -69 -12 -64 -5 3 -15 -2 -22
-11 -12 -14 -12 -16 0 -8 11 6 12 5 5 -6 -9 -14 -10 -19 -13 -40 0 -6 -8 -8
-17 -5 -8 3 -12 2 -9 -4 3 -6 1 -10 -5 -10 -18 0 12 -26 37 -32 13 -3 26 -2
29 4 3 5 15 2 27 -9 11 -10 17 -13 13 -6 -8 14 100 13 123 -1 9 -6 12 -5 8 1
-4 6 2 13 12 16 15 4 18 1 13 -12 -5 -14 -4 -14 11 -2 9 7 17 10 17 5 0 -4 5
-3 12 4 9 9 16 8 32 -6 11 -9 16 -11 11 -3 -6 11 1 12 39 8 30 -4 46 -2 46 5
0 6 3 9 6 5 11 -11 42 26 39 48 -1 18 2 22 17 20 11 -2 16 0 12 6 -7 13 14 59
36 76 8 7 11 13 6 13 -6 0 -1 7 10 16 10 8 12 13 4 9 -13 -6 -13 -5 0 7 8 7
17 22 18 33 2 11 8 22 13 23 5 2 9 10 9 17 0 7 7 15 15 19 8 3 15 14 15 25 0
11 10 30 23 42 12 12 16 19 10 15 -9 -5 -11 -2 -7 8 3 8 12 17 20 20 8 3 14
14 14 24 0 10 7 27 16 38 8 10 12 13 8 5 -5 -9 -3 -12 5 -7 6 4 8 12 5 18 -4
6 1 17 11 25 11 7 13 13 6 13 -7 0 -9 5 -6 11 4 6 13 8 19 6 9 -4 12 5 11 24
-2 26 5 33 27 30 4 0 5 8 3 19 -2 11 0 20 6 20 5 0 8 6 6 13 -1 6 4 11 11 9 8
-1 11 2 8 7 -3 5 4 21 16 37 13 15 17 24 10 20 -11 -7 -11 -4 -1 12 7 12 16
19 20 16 5 -2 6 5 4 16 -2 11 0 20 6 20 5 0 9 7 9 15 0 8 5 15 10 15 6 0 10 5
10 11 0 7 8 18 18 26 11 10 12 12 2 8 -12 -5 -12 -4 1 7 9 7 15 23 14 35 -1
15 3 19 13 15 10 -3 13 -1 8 6 -4 7 -1 15 8 18 9 3 14 10 11 14 -3 5 2 15 10
23 11 12 12 17 2 20 -7 3 -6 6 5 6 10 1 19 13 23 31 4 16 11 33 17 36 7 5 8 2
3 -6 -5 -9 -4 -11 4 -6 6 4 9 12 5 17 -3 5 0 16 6 24 6 8 9 19 5 24 -4 7 1 8
11 4 12 -4 15 -3 10 5 -4 7 -3 12 2 12 5 0 8 10 8 23 -1 12 2 28 7 35 6 8 5
12 -2 12 -8 0 -9 5 -2 18 7 13 6 23 -2 32 -9 10 -9 11 1 5 11 -6 12 -3 4 12
-6 11 -7 25 -2 33 5 8 6 19 2 25 -9 14 -9 37 0 57 5 10 3 18 -5 21 -9 4 -9 6
0 6 15 1 5 31 -16 49 -13 11 -13 12 -1 6 13 -7 13 -5 1 9 -16 20 -35 12 -26
-11 4 -12 1 -12 -16 4 -12 10 -19 14 -16 7 4 -6 3 -14 -3 -18 -9 -6 -14 8 -11
28 1 5 -3 5 -9 2 -6 -4 -9 -14 -5 -22 4 -13 3 -14 -10 -3 -8 7 -12 17 -8 23 3
6 1 7 -6 3 -6 -4 -9 -12 -6 -17 4 -5 2 -9 -4 -9 -5 0 -15 8 -21 18 -10 15 -11
14 -7 -6 l5 -22 -31 22 c-17 12 -27 17 -24 11 12 -19 -13 -26 -37 -10 -19 13
-23 13 -23 2 0 -8 5 -11 10 -8 6 3 7 1 4 -4 -4 -6 -18 -8 -31 -6 -17 4 -23 10
-19 22 4 13 3 13 -5 2 -8 -11 -14 -12 -25 -3 -11 9 -14 9 -14 -3 0 -8 5 -11
10 -8 6 3 7 1 3 -5 -8 -14 -52 1 -48 17 3 14 -5 14 -13 1z"/>
<path d="M3840 2561 c0 -6 4 -13 10 -16 6 -3 7 1 4 9 -7 18 -14 21 -14 7z"/>
<path d="M2325 2409 c-4 -6 -5 -12 -2 -15 2 -3 7 2 10 11 7 17 1 20 -8 4z"/>
<path d="M26 2342 c-3 -5 1 -9 9 -9 8 0 12 4 9 9 -3 4 -7 8 -9 8 -2 0 -6 -4
-9 -8z"/>
<path d="M3930 2340 c0 -5 5 -10 11 -10 5 0 7 5 4 10 -3 6 -8 10 -11 10 -2 0
-4 -4 -4 -10z"/>
<path d="M4613 2312 c0 -12 5 -22 9 -22 11 0 10 12 -2 30 -7 12 -9 10 -7 -8z"/>
<path d="M588 2303 c6 -2 9 -10 6 -15 -4 -7 -2 -8 5 -4 13 9 5 26 -12 25 -9 0
-8 -2 1 -6z"/>
<path d="M430 2146 c0 -2 7 -7 16 -10 8 -3 12 -2 9 4 -6 10 -25 14 -25 6z"/>
<path d="M4406 1862 c-3 -5 1 -9 9 -9 8 0 12 4 9 9 -3 4 -7 8 -9 8 -2 0 -6 -4
-9 -8z"/>
<path d="M1313 1356 c4 -10 0 -13 -14 -11 -11 2 -17 0 -15 -4 7 -10 -28 -43
-37 -36 -4 3 -5 2 -3 -1 7 -9 -17 -33 -26 -27 -4 2 -5 -4 -1 -14 3 -10 3 -15
-1 -11 -5 4 -23 -8 -41 -27 -19 -18 -37 -30 -41 -26 -4 3 -4 1 -1 -5 6 -10
-69 -88 -85 -89 -3 0 -10 -4 -15 -9 -5 -5 -3 -6 5 -2 6 4 12 3 12 -3 0 -5 -8
-11 -17 -13 -23 -4 -24 -43 -1 -59 10 -7 18 -19 18 -27 0 -7 3 -11 8 -9 10 6
52 -40 44 -49 -4 -4 1 -4 11 -1 9 4 17 2 17 -4 0 -15 26 -39 34 -32 3 4 6 -2
6 -13 0 -16 2 -17 10 -4 8 13 10 12 10 -3 0 -10 12 -22 26 -27 14 -6 23 -14
19 -19 -3 -6 4 -8 16 -6 15 3 19 0 15 -11 -3 -9 -1 -12 4 -9 6 3 10 1 10 -5 0
-7 7 -10 15 -7 8 4 17 1 21 -5 5 -7 2 -8 -7 -3 -8 4 -5 -1 6 -12 11 -11 23
-16 26 -11 3 5 9 3 12 -5 3 -9 22 -23 41 -32 20 -10 34 -20 31 -24 -2 -4 2 -8
10 -9 8 -1 22 -3 30 -4 8 -1 12 -5 9 -10 -3 -4 3 -8 14 -8 10 0 27 -9 37 -20
10 -11 27 -20 38 -20 12 0 17 -5 14 -13 -3 -9 4 -12 24 -11 18 1 29 -3 29 -11
0 -9 8 -11 23 -7 18 5 20 3 10 -9 -10 -12 -8 -15 7 -15 10 0 16 5 14 11 -3 5
2 1 10 -9 11 -14 16 -15 16 -6 0 9 5 8 16 -6 8 -10 13 -12 9 -4 -6 13 -5 13 7
0 7 -9 24 -17 37 -17 13 -1 28 -8 32 -15 5 -7 9 -8 9 -3 0 6 5 2 11 -8 8 -14
14 -16 25 -6 11 9 14 9 14 0 0 -7 6 -11 13 -10 27 3 38 -1 31 -13 -5 -8 0 -7
11 2 10 8 16 10 12 4 -4 -7 0 -15 9 -18 25 -10 46 -7 38 5 -3 6 5 3 19 -6 15
-9 31 -14 36 -11 5 4 14 -2 20 -11 6 -10 11 -12 11 -5 0 6 5 12 10 12 6 0 10
-6 10 -12 0 -9 14 -12 40 -12 22 1 43 -2 46 -7 3 -5 13 -5 23 1 10 5 20 7 22
5 3 -2 17 -6 33 -9 16 -3 33 -10 36 -17 6 -8 9 -7 13 2 4 10 6 10 6 2 1 -19
481 -19 500 -1 8 7 11 8 8 3 -3 -7 9 -11 34 -11 42 0 45 4 9 11 -13 3 -28 10
-34 16 -8 8 -5 8 12 0 17 -9 22 -9 22 1 0 9 3 9 10 -2 5 -8 10 -11 10 -6 0 5
7 3 16 -4 8 -8 14 -9 13 -4 -4 21 2 26 15 15 11 -10 20 -10 36 -1 12 6 28 9
36 6 8 -3 14 -1 14 3 0 5 10 7 23 4 18 -4 19 -3 7 6 -13 9 -13 11 2 11 9 0 19
-6 21 -12 3 -8 6 -6 6 5 1 9 6 17 12 17 5 0 7 -6 4 -12 -4 -7 1 -4 9 6 11 14
16 15 16 6 0 -10 3 -11 11 -3 6 6 18 9 27 6 11 -5 13 -3 7 7 -5 9 -4 11 4 6 6
-4 19 -2 27 5 13 10 17 10 25 -2 7 -11 9 -11 9 4 0 10 5 15 10 12 6 -3 10 0
10 7 0 10 2 11 8 0 10 -16 45 -4 35 12 -4 6 2 4 12 -4 11 -9 16 -10 11 -2 -4
7 -2 12 4 12 6 0 9 4 6 9 -3 5 10 8 29 6 24 -2 33 0 28 7 -4 7 0 9 10 5 9 -3
19 -1 23 5 5 7 2 8 -7 3 -8 -5 -11 -4 -6 0 4 5 17 10 29 12 12 2 28 9 37 16
12 10 13 9 7 -2 -6 -8 0 -7 18 4 14 9 24 20 22 24 -3 4 8 6 25 5 16 -1 32 3
36 9 3 6 1 7 -5 3 -7 -4 -12 -2 -12 5 0 6 8 9 20 6 13 -3 20 0 20 9 0 8 5 14
11 14 5 0 7 -4 4 -10 -3 -5 0 -7 9 -4 8 3 12 12 10 19 -3 7 0 16 7 21 8 4 10
3 5 -4 -4 -7 -3 -12 3 -12 5 0 13 5 16 10 4 6 10 8 15 5 4 -3 14 3 21 12 12
14 12 16 -1 8 -9 -5 -12 -5 -7 1 5 5 18 9 30 9 12 1 21 6 19 13 -1 7 5 15 13
17 8 3 23 8 33 12 9 3 20 6 24 5 4 -1 4 6 1 15 -4 11 -3 14 5 9 7 -4 12 -2 12
3 0 6 3 10 8 10 17 -3 33 2 29 9 -6 9 19 33 27 25 3 -4 6 -1 6 6 0 8 6 11 16
7 15 -6 15 -4 3 11 -9 11 -10 14 -1 9 7 -4 12 -2 12 5 0 8 5 8 18 -2 9 -7 14
-10 10 -5 -11 13 12 48 28 42 7 -3 13 -2 11 2 -3 9 46 58 56 54 7 -2 11 14 8
31 -1 5 3 6 9 2 5 -3 13 1 16 9 3 9 10 14 14 11 5 -3 11 -1 15 5 3 5 1 10 -6
10 -9 0 -9 3 0 14 9 11 7 20 -12 40 -13 14 -27 23 -30 19 -4 -3 -7 2 -7 11 0
12 -5 16 -14 13 -9 -4 -13 -1 -10 6 5 13 -38 57 -56 57 -9 0 -14 15 -11 33 1
5 -3 6 -9 2 -5 -3 -10 -1 -10 5 0 6 -5 8 -12 4 -8 -5 -9 -2 -5 10 4 10 3 15
-3 11 -6 -3 -10 2 -10 12 0 14 -2 15 -9 5 -6 -10 -10 -9 -14 7 -3 12 -16 25
-29 30 -12 6 -19 10 -15 10 5 1 1 8 -7 17 -9 8 -20 13 -25 9 -5 -3 -13 0 -17
6 -4 8 -3 9 4 5 7 -4 12 -2 12 3 0 6 -11 10 -24 9 -14 -1 -22 -6 -20 -10 3 -4
0 -8 -7 -8 -7 0 -32 -21 -57 -47 -24 -27 -41 -41 -36 -33 7 13 5 13 -9 1 -9
-7 -14 -18 -10 -24 4 -7 0 -8 -11 -4 -14 6 -17 3 -12 -9 6 -15 4 -15 -11 -3
-11 9 -14 10 -9 1 4 -7 2 -12 -4 -12 -6 0 -9 -4 -6 -9 3 -5 -1 -12 -10 -15
-10 -4 -13 -2 -8 7 3 6 -5 -1 -20 -17 -14 -16 -26 -25 -26 -21 0 5 -7 0 -16
-11 -8 -10 -12 -12 -8 -4 7 13 5 13 -9 1 -9 -7 -14 -18 -10 -25 3 -6 3 -8 -2
-4 -4 4 -15 2 -23 -5 -13 -10 -14 -9 -7 2 5 10 4 12 -3 7 -7 -4 -12 -15 -12
-24 0 -15 -2 -15 -10 -2 -7 11 -10 11 -10 2 0 -7 -5 -10 -10 -7 -6 4 -10 3 -9
-2 3 -20 -2 -27 -11 -13 -8 13 -10 12 -10 -2 0 -16 -6 -20 -26 -17 -3 0 -16
-7 -30 -16 -13 -9 -30 -13 -36 -9 -7 4 -8 3 -4 -4 6 -11 -5 -16 -20 -9 -3 1
-10 -6 -16 -16 -8 -15 -12 -16 -26 -5 -12 10 -14 10 -8 1 7 -12 -5 -18 -27
-14 -4 1 -10 -6 -14 -15 -5 -13 -7 -13 -14 -2 -7 10 -9 11 -9 0 0 -7 -4 -10
-10 -7 -5 3 -10 1 -10 -4 0 -6 -5 -11 -11 -11 -5 0 -7 5 -3 12 4 7 3 8 -4 4
-7 -4 -12 -15 -12 -24 0 -13 -2 -14 -9 -3 -6 9 -10 10 -16 2 -5 -9 -11 -9 -23
1 -10 8 -13 9 -9 1 4 -6 3 -14 -3 -18 -5 -3 -10 -1 -10 4 0 6 -5 11 -11 11 -5
0 -8 -4 -4 -9 7 -12 -31 -25 -46 -15 -8 5 -9 3 -4 -6 6 -10 4 -12 -9 -7 -10 4
-27 2 -38 -4 -16 -9 -19 -8 -12 3 6 10 5 11 -7 1 -12 -9 -18 -10 -27 -1 -8 8
-10 5 -6 -13 2 -13 2 -18 -2 -11 -3 6 -12 12 -20 12 -9 0 -13 -4 -10 -8 3 -5
-1 -9 -9 -9 -8 0 -11 5 -8 11 4 6 0 5 -8 -1 -12 -10 -18 -10 -29 0 -10 10 -12
9 -8 -3 5 -12 -6 -15 -62 -14 -37 1 -73 5 -80 9 -8 5 -11 4 -7 -2 8 -12 -172
-11 -190 0 -7 4 -14 3 -17 -2 -4 -6 -18 -6 -36 -1 -21 6 -30 5 -30 -3 0 -6 -7
-2 -15 9 -12 15 -16 16 -24 5 -7 -10 -13 -11 -27 -1 -17 10 -17 11 -1 6 10 -3
15 -2 12 4 -3 5 -22 8 -41 5 -19 -2 -33 -1 -30 3 3 5 -22 8 -54 7 -32 0 -56 3
-53 8 2 4 -4 10 -14 13 -10 3 -26 10 -35 15 -10 5 -18 5 -18 1 0 -5 -7 -9 -15
-9 -8 0 -11 5 -8 10 4 6 -2 8 -15 5 -16 -4 -19 -2 -15 10 5 11 2 14 -10 9 -9
-3 -17 -2 -17 3 0 5 -7 7 -15 4 -8 -4 -15 -1 -15 5 0 6 -6 8 -13 5 -7 -2 -24
4 -36 15 -13 12 -28 18 -33 15 -5 -3 -19 2 -30 13 -12 10 -18 12 -13 4 6 -10
4 -12 -4 -7 -7 5 -10 15 -7 23 3 8 2 11 -4 8 -11 -7 -60 4 -58 14 2 19 -3 24
-12 11 -6 -10 -10 -11 -10 -2 0 6 -11 12 -25 12 -17 0 -23 4 -19 14 3 8 0 17
-7 22 -8 5 -10 3 -4 -7 7 -11 5 -11 -11 1 -10 8 -21 18 -24 21 -9 10 -55 33
-62 31 -5 -1 -7 4 -5 11 1 6 -4 11 -10 10 -7 -2 -13 2 -13 7 0 6 -8 10 -17 10
-15 0 -16 2 -3 10 12 8 11 10 -7 10 -13 0 -23 5 -23 11 0 5 -5 7 -12 3 -8 -5
-9 -2 -4 12 4 10 4 15 0 12 -11 -11 -44 11 -44 29 0 9 -3 14 -6 10 -8 -7 -39
22 -39 37 0 6 -8 10 -18 8 -9 -2 -17 2 -17 8 0 5 -9 10 -21 10 -14 0 -19 -5
-16 -14z m2450 -206 c4 0 6 4 3 8 -3 5 1 9 9 9 8 0 15 -4 15 -8 0 -4 8 -6 17
-5 20 3 43 -16 43 -36 0 -10 3 -9 10 2 9 13 10 13 11 0 1 -8 1 -18 0 -22 0 -5
3 -8 8 -8 5 0 12 -7 15 -16 3 -8 2 -13 -3 -10 -16 10 -20 -22 -5 -35 13 -10
12 -14 -2 -30 -10 -11 -14 -19 -9 -19 4 0 2 -7 -5 -15 -7 -9 -19 -14 -26 -11
-9 3 -11 -1 -7 -12 3 -9 3 -14 -2 -10 -4 4 -14 3 -22 -4 -7 -6 -16 -8 -20 -5
-3 4 -11 -1 -18 -10 -9 -13 -14 -13 -20 -3 -6 9 -4 11 5 5 9 -5 11 -4 6 4 -6
9 -11 9 -22 0 -13 -10 -18 -6 -16 12 1 4 -8 5 -18 2 -12 -3 -20 0 -20 6 0 7
-6 9 -12 5 -7 -4 -10 -4 -6 1 4 4 -2 19 -13 33 -15 20 -17 27 -7 34 12 7 4 12
-14 9 -4 0 -5 6 -2 14 4 8 10 12 15 9 5 -3 6 2 3 10 -3 9 -11 13 -18 10 -6 -3
-3 1 7 9 9 8 17 22 17 31 0 10 5 14 10 11 6 -3 14 5 20 19 5 14 12 26 15 26 4
0 3 -4 0 -10 -3 -5 -2 -10 3 -10 6 0 13 8 16 17 5 12 9 14 18 5 7 -7 16 -12
21 -12z m-2338 -2 c5 4 5 1 1 -5 -4 -7 -3 -13 3 -13 6 0 7 -7 4 -17 -4 -10 -2
-14 4 -10 5 3 10 -1 10 -9 0 -8 -6 -13 -14 -10 -7 3 -13 1 -13 -4 0 -6 6 -10
13 -10 7 -1 5 -6 -6 -14 -12 -9 -14 -16 -8 -21 16 -10 13 -28 -3 -22 -10 4
-13 1 -9 -9 3 -7 10 -14 16 -14 6 0 7 -3 4 -6 -4 -4 -14 -1 -22 6 -13 11 -16
11 -13 -1 2 -8 8 -17 13 -21 7 -5 6 -8 0 -8 -6 0 -12 -10 -13 -22 -4 -43 -8
-59 -15 -58 -34 3 -53 35 -48 79 2 15 -1 21 -8 17 -6 -4 -11 -2 -11 3 0 6 -7
11 -16 11 -8 0 -12 5 -9 11 5 6 -10 9 -41 8 -30 -2 -49 1 -52 9 -2 7 -9 9 -15
5 -7 -3 -3 3 7 15 15 17 22 19 33 11 11 -9 12 -8 7 5 -4 11 -2 16 7 14 8 -2
13 3 11 10 -1 8 2 10 8 7 6 -4 19 -1 28 7 29 22 64 40 69 34 4 -3 12 2 20 12
10 12 13 12 8 2 -4 -10 -2 -9 7 2 8 11 16 14 24 8 6 -6 15 -6 19 -2z m2480
-108 c3 -6 -1 -7 -9 -4 -18 7 -21 14 -7 14 6 0 13 -4 16 -10z m-2315 -32 c0
-5 5 -6 10 -3 6 3 11 -1 11 -9 3 -36 5 -41 18 -38 7 1 10 -2 6 -8 -3 -6 -11
-8 -16 -5 -5 4 -9 1 -9 -4 0 -6 4 -11 10 -11 5 0 7 -7 4 -15 -5 -11 -1 -14 12
-9 15 4 13 0 -6 -17 -14 -12 -18 -20 -10 -17 8 3 24 1 35 -5 17 -9 18 -8 7 5
-11 13 -10 16 5 14 13 -1 18 6 17 24 -1 20 4 25 27 27 15 1 33 -4 39 -12 10
-12 9 -15 -4 -15 -10 0 -14 -5 -11 -10 4 -6 12 -7 18 -4 7 4 8 3 4 -2 -5 -5
-13 -9 -18 -9 -5 0 -9 -4 -10 -10 0 -5 -5 -16 -11 -22 -6 -7 -7 -13 -2 -13 5
0 -2 -6 -16 -13 -14 -8 -24 -20 -22 -28 7 -30 7 -34 -7 -31 -8 2 -11 -3 -8
-12 4 -9 1 -15 -6 -13 -7 1 -11 -3 -10 -9 3 -15 -35 -11 -50 6 -9 10 -9 11 1
6 6 -4 12 -3 12 3 0 5 -9 13 -20 16 -11 4 -18 10 -15 15 3 5 13 6 22 3 11 -4
9 1 -6 16 -18 18 -20 25 -10 37 8 10 8 14 0 14 -6 0 -11 9 -11 20 0 24 -25 27
-34 4 -4 -10 -2 -13 7 -9 6 4 4 0 -5 -8 -10 -8 -15 -17 -11 -20 3 -4 1 -7 -6
-7 -7 0 -9 -5 -5 -12 5 -9 2 -8 -9 1 -15 12 -17 12 -11 -2 4 -11 0 -15 -13
-13 -10 2 -16 6 -15 11 2 4 -2 12 -10 16 -10 7 -10 9 0 9 7 0 11 4 8 9 -3 4 2
17 10 27 9 10 12 13 8 5 -5 -9 -3 -12 5 -7 6 4 9 11 6 16 -9 14 14 62 28 57 8
-3 14 3 14 14 1 11 -3 17 -8 13 -6 -3 -5 3 2 14 7 12 17 18 21 16 4 -3 8 -1 8
4 0 5 7 9 15 9 8 0 15 -4 15 -9z m1953 -5 c2 -13 21 -31 30 -26 6 4 11 -20 8
-39 0 -5 7 -8 17 -8 14 0 15 -2 2 -10 -13 -8 -12 -10 4 -10 11 0 16 -3 13 -7
-4 -3 1 -12 11 -20 9 -8 11 -12 5 -8 -8 4 -11 1 -7 -9 3 -9 11 -14 16 -13 14
3 17 -41 4 -51 -16 -12 -41 -8 -38 6 1 7 -3 11 -10 9 -7 -1 -13 4 -14 11 -1 6
-3 15 -4 20 -1 4 -2 10 -1 15 0 4 -5 6 -11 5 -7 -2 -12 5 -12 14 1 10 -3 15
-9 11 -6 -4 -8 2 -4 16 5 19 3 20 -11 9 -12 -10 -14 -10 -8 0 4 7 2 12 -6 12
-9 0 -9 3 2 10 10 6 11 10 3 10 -7 0 -13 9 -13 20 0 11 -6 20 -12 20 -7 1 -2
7 12 15 25 14 31 13 33 -2z m-119 -84 c-3 -5 2 -6 10 -3 10 4 16 1 16 -9 0 -8
5 -17 10 -19 17 -5 17 -62 0 -76 -8 -8 -9 -11 -2 -7 7 4 12 0 12 -10 0 -9 5
-13 10 -10 9 6 15 -8 11 -29 -1 -5 4 -4 12 2 11 9 14 8 14 -6 0 -25 -17 -44
-31 -33 -6 4 -19 7 -29 6 -9 -2 -15 0 -13 3 2 4 -7 15 -20 25 -22 16 -25 16
-30 2 -5 -13 -9 -13 -23 -3 -14 11 -14 11 -4 -3 7 -9 9 -20 5 -24 -4 -5 -1 -5
6 -1 6 4 12 3 12 -3 0 -5 3 -17 6 -25 5 -13 2 -15 -12 -9 -17 6 -18 5 -4 -12
8 -10 10 -16 3 -12 -16 10 -44 -3 -36 -16 3 -6 1 -7 -6 -3 -9 6 -9 11 0 22 10
12 6 18 -12 16 -3 -1 -5 12 -4 28 1 16 -1 29 -4 28 -18 -2 -31 3 -31 13 0 5 6
7 13 3 8 -5 8 -2 -2 9 -7 9 -10 17 -5 17 4 0 1 6 -7 13 -8 6 -21 24 -27 40
-10 24 -9 30 9 48 11 11 27 18 35 15 8 -3 14 -1 14 5 0 6 7 9 15 6 8 -4 17 -1
21 5 5 7 2 8 -6 3 -9 -5 -11 -4 -6 3 10 16 39 15 31 0 -3 -7 0 -6 6 3 12 16
53 14 43 -2z m-1589 -40 c-3 -4 2 -10 11 -13 10 -4 13 -2 8 6 -4 6 -3 8 3 5 6
-4 13 -16 16 -27 3 -11 1 -18 -4 -14 -5 3 -9 0 -9 -5 0 -20 -3 -26 -19 -39 -9
-8 -10 -11 -3 -7 6 3 12 1 12 -4 0 -6 -4 -11 -9 -11 -5 0 -11 -12 -13 -27 -2
-18 -8 -27 -17 -25 -12 3 -12 0 -1 -13 11 -13 10 -15 -4 -9 -12 4 -15 2 -11
-9 4 -8 -1 -17 -10 -21 -9 -3 -13 -10 -10 -16 3 -6 -1 -7 -10 -4 -12 5 -13 9
-4 20 10 12 8 13 -6 8 -15 -6 -16 -5 -5 17 12 22 12 23 -4 10 -16 -13 -16 -12
-5 12 7 15 16 27 21 27 4 0 7 3 7 8 -3 19 2 33 11 27 6 -3 10 -1 10 4 0 6 -6
11 -12 11 -10 0 -10 2 -1 8 6 4 13 14 15 22 2 8 10 21 18 28 8 8 10 11 3 8 -7
-4 -10 1 -8 11 4 22 2 20 20 20 8 0 12 -4 10 -8z m142 -53 c-1 -6 3 -10 10
-11 6 0 15 -4 20 -9 5 -6 2 -6 -6 -1 -11 6 -13 4 -8 -7 3 -9 1 -20 -5 -26 -8
-8 -6 -13 6 -18 14 -5 15 -9 4 -15 -9 -6 -10 -9 -1 -9 7 0 10 -7 6 -17 -3 -10
-3 -15 2 -11 4 4 14 3 21 -3 16 -14 30 12 18 33 -4 7 -4 10 1 6 13 -12 46 12
43 30 -2 9 3 16 10 15 6 -2 12 1 12 7 0 11 32 1 42 -14 4 -6 -3 -19 -15 -29
-20 -16 -20 -17 -2 -11 12 3 9 -1 -7 -11 -16 -8 -28 -18 -28 -21 0 -3 6 -2 13
2 9 5 9 3 -1 -7 -7 -8 -18 -14 -25 -14 -7 0 -11 -8 -9 -18 2 -11 -4 -17 -14
-17 -10 0 -15 -3 -11 -6 3 -3 -3 -14 -14 -25 -11 -11 -17 -25 -13 -31 5 -7 3
-8 -6 -3 -7 4 -16 2 -21 -6 -7 -12 -9 -12 -9 0 0 11 -3 11 -17 0 -11 -10 -14
-10 -9 -1 4 7 2 12 -5 12 -8 0 -7 5 2 17 12 15 12 16 -4 10 -15 -6 -17 -3 -12
12 3 11 1 22 -5 26 -7 4 -7 12 0 26 8 13 7 19 0 19 -7 0 -8 6 -2 16 12 21 3
56 -12 47 -6 -3 -3 2 6 13 17 17 17 19 0 38 -9 11 -11 16 -4 12 6 -4 12 -3 12
1 0 5 9 9 19 9 11 0 19 -5 18 -10z m1126 1 c7 4 5 -2 -3 -12 -9 -11 -10 -16
-2 -11 6 4 12 3 12 -3 0 -5 10 -8 22 -6 16 3 19 2 10 -7 -8 -8 -6 -16 10 -30
12 -10 25 -18 29 -18 5 0 6 -7 3 -15 -4 -9 0 -15 10 -15 9 0 16 -6 16 -14 0
-8 5 -18 12 -22 7 -5 8 -3 3 6 -5 8 -4 11 3 6 6 -4 8 -14 5 -23 -4 -11 -3 -14
5 -9 7 4 12 3 12 -3 0 -5 2 -16 5 -24 5 -11 -4 -14 -36 -14 -32 0 -43 4 -47
19 -4 15 -7 16 -20 6 -13 -11 -15 -11 -8 2 4 8 -1 4 -12 -9 -10 -13 -24 -21
-30 -17 -9 5 -27 -20 -24 -35 1 -4 -10 -9 -23 -12 -14 -2 -25 0 -25 5 0 5 -6
6 -12 2 -10 -5 -10 -4 -1 6 9 10 10 17 1 27 -8 10 -8 12 3 8 11 -4 14 6 13 47
0 29 3 58 8 65 5 7 5 14 -2 18 -7 4 -7 12 0 24 5 10 6 21 3 25 -4 4 3 9 15 13
12 3 22 13 23 22 0 10 2 11 6 3 2 -6 10 -9 16 -5z m-1403 -17 c0 -5 -5 -10
-11 -10 -5 0 -7 5 -4 10 3 6 8 10 11 10 2 0 4 -4 4 -10z m534 -63 c-3 -7 2 -3
10 7 9 11 16 15 16 10 0 -6 14 -9 30 -8 17 1 33 -2 36 -7 3 -5 13 -5 25 1 19
11 23 3 22 -38 -1 -8 6 -11 15 -8 13 5 13 3 -2 -9 -10 -8 -23 -12 -27 -9 -5 3
-9 0 -9 -5 0 -6 -5 -11 -11 -11 -8 0 -8 5 1 15 7 8 17 12 24 8 6 -3 7 -2 3 2
-13 15 -35 14 -41 -1 -3 -8 -11 -14 -18 -14 -8 0 -9 3 -3 8 13 9 19 35 6 28
-5 -4 -12 0 -14 6 -3 7 -6 2 -6 -12 -1 -20 -3 -22 -12 -10 -9 13 -10 13 -6 0
2 -8 0 -24 -5 -35 -9 -20 -9 -20 6 -1 15 19 22 12 17 -17 -1 -4 7 -4 16 0 34
16 66 9 69 -14 3 -16 0 -21 -11 -17 -8 4 -15 2 -15 -3 0 -5 -13 -8 -30 -5 -16
2 -27 8 -24 13 3 5 -2 6 -10 3 -8 -3 -17 -12 -20 -20 -3 -9 -10 -12 -16 -9 -6
4 -7 11 -4 17 4 7 2 8 -5 4 -9 -6 -9 -11 0 -22 6 -7 15 -12 19 -9 5 3 10 1 12
-5 1 -5 22 -11 46 -12 30 -1 46 -7 53 -20 8 -14 6 -18 -8 -18 -15 0 -16 -2 -3
-10 8 -5 13 -10 10 -11 -3 0 -13 -2 -22 -4 -10 -2 -21 2 -25 7 -4 7 -1 8 8 3
12 -8 12 -6 0 8 -14 18 -22 22 -20 10 3 -19 -2 -33 -11 -33 -5 0 -7 7 -4 15 5
11 -2 14 -30 11 -20 -1 -36 1 -36 6 0 4 -7 5 -15 2 -15 -6 -39 36 -26 46 3 3
6 21 6 40 0 19 4 38 10 42 6 5 4 8 -5 8 -13 0 -13 1 0 10 11 7 11 10 2 10 -7
0 -10 5 -7 10 4 6 11 8 16 5 5 -3 6 1 3 10 -4 8 -1 21 5 29 6 7 7 17 3 21 -4
5 -1 5 6 1 7 -4 10 -13 6 -19z m616 13 c0 -5 3 -9 8 -9 4 1 15 1 25 0 14 -1
16 -5 8 -20 -6 -10 -7 -22 -3 -27 4 -5 3 -6 -2 -2 -5 4 -16 2 -24 -5 -10 -8
-13 -8 -9 -1 4 7 0 14 -8 18 -8 3 -15 0 -15 -7 0 -8 -4 -6 -10 3 -8 13 -10 13
-10 -2 0 -9 -5 -18 -12 -20 -7 -3 -5 -7 6 -11 10 -4 15 -3 11 3 -3 6 -2 10 3
10 5 0 12 -9 15 -20 3 -13 11 -18 20 -14 8 3 18 1 21 -4 3 -6 15 -8 26 -5 14
4 20 0 20 -11 0 -9 6 -16 13 -17 7 0 8 -2 1 -5 -6 -2 -9 -17 -6 -33 3 -22 -1
-32 -17 -41 -12 -6 -27 -8 -33 -4 -8 5 -9 1 -4 -12 6 -15 5 -16 -5 -7 -10 10
-15 9 -26 -5 -12 -16 -12 -15 -6 3 5 16 4 18 -8 9 -15 -12 -51 -15 -44 -4 2 4
-7 12 -20 18 -27 12 -35 38 -9 28 8 -3 13 -2 10 2 -2 4 17 7 44 6 52 -3 94 16
70 31 -9 5 -11 4 -6 -3 4 -7 2 -12 -3 -12 -6 0 -11 3 -11 8 0 4 -9 13 -20 19
-14 9 -21 10 -26 1 -5 -7 -3 -8 6 -3 9 6 11 4 5 -4 -5 -9 -10 -10 -18 -2 -7 7
-14 7 -23 0 -10 -8 -12 -6 -9 9 2 13 -2 19 -13 18 -11 -1 -16 6 -15 17 1 13
-4 17 -15 12 -14 -5 -14 -4 1 13 12 13 14 21 6 29 -8 8 -5 14 10 23 12 6 19
16 15 21 -4 7 3 6 16 -1 18 -10 21 -9 15 1 -6 9 -3 11 8 6 9 -3 19 -2 22 3 8
13 25 13 25 0z m-301 -7 c-3 -19 2 -30 15 -30 8 0 12 6 9 14 -3 7 0 13 6 13 6
0 11 -5 11 -11 0 -6 9 -9 20 -6 11 3 18 0 17 -7 -1 -6 6 -10 15 -10 10 1 15
-2 12 -7 -3 -5 -2 -9 3 -9 4 0 9 -18 11 -40 2 -30 -2 -41 -16 -49 -11 -6 -23
-7 -27 -3 -4 4 -3 -2 2 -13 6 -11 8 -26 5 -34 -3 -8 0 -11 7 -7 6 4 11 1 11
-8 0 -9 5 -16 11 -16 6 0 9 -5 7 -11 -2 -6 -7 -10 -12 -9 -5 1 -13 -4 -17 -12
-7 -10 -9 -10 -9 0 0 7 -4 11 -8 8 -12 -7 -44 33 -36 46 4 7 3 8 -4 4 -7 -4
-12 -3 -12 2 0 5 -9 12 -19 15 -13 3 -22 -3 -30 -20 -7 -14 -7 -22 -1 -18 6 4
7 -2 2 -16 -5 -13 -18 -23 -30 -24 -12 -1 -18 3 -15 8 4 6 -1 8 -11 4 -14 -5
-15 -3 -6 13 5 10 7 21 2 24 -10 6 -8 68 3 85 5 9 4 12 -3 7 -7 -4 -10 1 -9
14 1 11 5 20 9 20 4 0 8 5 8 11 0 5 -4 8 -9 5 -5 -4 -8 2 -6 11 1 10 8 17 16
15 9 -2 9 1 -2 14 -13 16 -12 16 11 4 22 -12 24 -12 12 2 -10 13 -9 15 13 13
14 -2 27 1 31 6 6 11 14 12 13 2z m-153 -12 c-4 -5 -1 -12 4 -14 6 -3 5 -4 -2
-3 -15 3 -23 26 -8 26 6 0 9 -4 6 -9z m486 -58 c-10 -4 -10 -8 0 -21 12 -15
11 -16 -4 -3 -19 14 -15 32 5 30 8 0 8 -2 -1 -6z"/>
<path d="M3750 1105 c-7 -8 -19 -15 -27 -15 -8 0 -11 -4 -8 -10 3 -5 -2 -10
-12 -11 -10 0 -13 -3 -6 -6 8 -3 10 -10 4 -21 -12 -25 38 -70 74 -66 30 3 48
21 37 39 -3 5 1 5 9 -2 13 -10 15 -8 15 12 0 14 -4 25 -10 25 -5 0 -6 3 -3 6
5 5 -48 64 -58 64 -1 0 -8 -7 -15 -15z m24 -3 c3 -5 -1 -9 -9 -9 -8 0 -12 4
-9 9 3 4 7 8 9 8 2 0 6 -4 9 -8z"/>
<path d="M1285 1090 c-3 -6 1 -7 9 -4 18 7 21 14 7 14 -6 0 -13 -4 -16 -10z"/>
<path d="M1353 1075 c0 -8 6 -16 14 -19 11 -4 11 -1 3 14 -13 24 -17 25 -17 5z"/>
<path d="M1326 1052 c-3 -9 -9 -23 -12 -29 -4 -9 2 -12 18 -11 26 2 32 27 12
46 -9 8 -14 6 -18 -6z"/>
<path d="M1350 906 c0 -2 8 -10 18 -17 15 -13 16 -12 3 4 -13 16 -21 21 -21
13z"/>
<path d="M3626 808 c3 -5 10 -6 15 -3 13 9 11 12 -6 12 -8 0 -12 -4 -9 -9z"/>
<path d="M3381 872 c-1 -7 -6 -10 -11 -7 -6 3 -18 -1 -27 -10 -13 -13 -14 -18
-3 -25 10 -6 8 -9 -6 -13 -17 -4 -17 -5 -1 -6 12 -1 16 -5 11 -13 -5 -9 -2 -9
9 1 14 11 17 11 17 0 1 -10 4 -9 14 3 7 10 15 15 18 12 3 -2 8 2 12 11 3 9 2
14 -3 11 -5 -4 -7 4 -3 16 3 13 1 19 -6 15 -5 -4 -13 -1 -15 5 -4 10 -6 10 -6
0z"/>
<path d="M1998 683 c7 -3 16 -2 19 1 4 3 -2 6 -13 5 -11 0 -14 -3 -6 -6z"/>
<path d="M3083 718 c4 -10 2 -18 -4 -18 -5 0 -4 -6 3 -14 7 -8 15 -11 18 -7 3
4 14 7 24 6 11 0 21 6 24 13 2 6 -3 12 -11 12 -9 0 -18 6 -20 13 -3 6 -6 3 -7
-8 l-1 -20 -16 20 c-13 16 -15 17 -10 3z"/>
<path d="M3181 634 c0 -11 3 -14 6 -6 3 7 2 16 -1 19 -3 4 -6 -2 -5 -13z"/>
<path d="M2529 681 c-1 -3 -1 -9 0 -13 0 -5 -4 -8 -10 -8 -6 0 -3 -8 8 -17 10
-10 12 -13 3 -8 -13 9 -13 8 -2 -7 16 -21 32 -18 62 10 19 17 21 25 12 34 -13
13 -71 20 -73 9z"/>
<path d="M2235 400 c3 -5 8 -10 11 -10 2 0 4 5 4 10 0 6 -5 10 -11 10 -5 0 -7
-4 -4 -10z"/>
</g>
</svg>
